<svg width="1920" height="2166" viewBox="0 0 1920 2166" fill="none" xmlns="http://www.w3.org/2000/svg">
<path d="M1920 0H0V3155H1920V0Z" fill="url(#paint0_linear_216_505)"/>
<path d="M1920 0H0V3155H1920V0Z" fill="url(#paint1_linear_216_505)"/>
<g clip-path="url(#clip0_216_505)">
<path d="M482.11 915.41C483.695 915.41 484.98 914.125 484.98 912.54C484.98 910.955 483.695 909.67 482.11 909.67C480.525 909.67 479.24 910.955 479.24 912.54C479.24 914.125 480.525 915.41 482.11 915.41Z" fill="#0FD5EF"/>
<path d="M532.899 1000.6C534.484 1000.6 535.769 999.314 535.769 997.729C535.769 996.144 534.484 994.859 532.899 994.859C531.314 994.859 530.029 996.144 530.029 997.729C530.029 999.314 531.314 1000.6 532.899 1000.6Z" fill="#0FD5EF"/>
<path d="M555.6 1093.46C557.186 1093.46 558.47 1092.17 558.47 1090.59C558.47 1089 557.186 1087.72 555.6 1087.72C554.015 1087.72 552.73 1089 552.73 1090.59C552.73 1092.17 554.015 1093.46 555.6 1093.46Z" fill="#0FD5EF"/>
<path d="M569.36 1149.18C570.945 1149.18 572.23 1147.89 572.23 1146.31C572.23 1144.72 570.945 1143.44 569.36 1143.44C567.775 1143.44 566.49 1144.72 566.49 1146.31C566.49 1147.89 567.775 1149.18 569.36 1149.18Z" fill="#0FD5EF"/>
<path d="M620.261 1173.26C621.846 1173.26 623.131 1171.97 623.131 1170.39C623.131 1168.8 621.846 1167.52 620.261 1167.52C618.676 1167.52 617.391 1168.8 617.391 1170.39C617.391 1171.97 618.676 1173.26 620.261 1173.26Z" fill="#0FD5EF"/>
<path d="M626.45 1124.42C628.035 1124.42 629.32 1123.13 629.32 1121.55C629.32 1119.96 628.035 1118.68 626.45 1118.68C624.865 1118.68 623.58 1119.96 623.58 1121.55C623.58 1123.13 624.865 1124.42 626.45 1124.42Z" fill="#0FD5EF"/>
<path d="M239.62 1317.26C241.205 1317.26 242.49 1315.97 242.49 1314.39C242.49 1312.8 241.205 1311.52 239.62 1311.52C238.035 1311.52 236.75 1312.8 236.75 1314.39C236.75 1315.97 238.035 1317.26 239.62 1317.26Z" fill="#0FD5EF"/>
<path d="M261.64 1377.8C263.225 1377.8 264.51 1376.51 264.51 1374.93C264.51 1373.34 263.225 1372.06 261.64 1372.06C260.054 1372.06 258.77 1373.34 258.77 1374.93C258.77 1376.51 260.054 1377.8 261.64 1377.8Z" fill="#0FD5EF"/>
<path d="M171.751 1284.24C173.336 1284.24 174.621 1282.96 174.621 1281.37C174.621 1279.78 173.336 1278.5 171.751 1278.5C170.166 1278.5 168.881 1279.78 168.881 1281.37C168.881 1282.96 170.166 1284.24 171.751 1284.24Z" fill="#0FD5EF"/>
<path d="M756.921 1623.6C758.506 1623.6 759.791 1622.31 759.791 1620.73C759.791 1619.14 758.506 1617.86 756.921 1617.86C755.336 1617.86 754.051 1619.14 754.051 1620.73C754.051 1622.31 755.336 1623.6 756.921 1623.6Z" fill="#0FD5EF"/>
<path d="M756.921 1513.54C758.506 1513.54 759.791 1512.25 759.791 1510.67C759.791 1509.08 758.506 1507.8 756.921 1507.8C755.336 1507.8 754.051 1509.08 754.051 1510.67C754.051 1512.25 755.336 1513.54 756.921 1513.54Z" fill="#0FD5EF"/>
<path d="M1208.18 1324.6C1209.77 1324.6 1211.05 1323.31 1211.05 1321.73C1211.05 1320.14 1209.77 1318.86 1208.18 1318.86C1206.6 1318.86 1205.31 1320.14 1205.31 1321.73C1205.31 1323.31 1206.6 1324.6 1208.18 1324.6Z" fill="#0FD5EF"/>
<path d="M1288.9 1445.67C1290.48 1445.67 1291.77 1444.38 1291.77 1442.8C1291.77 1441.21 1290.48 1439.93 1288.9 1439.93C1287.31 1439.93 1286.03 1441.21 1286.03 1442.8C1286.03 1444.38 1287.31 1445.67 1288.9 1445.67Z" fill="#0FD5EF"/>
<path d="M1334.76 1342.94C1336.35 1342.94 1337.63 1341.65 1337.63 1340.07C1337.63 1338.48 1336.35 1337.2 1334.76 1337.2C1333.18 1337.2 1331.89 1338.48 1331.89 1340.07C1331.89 1341.65 1333.18 1342.94 1334.76 1342.94Z" fill="#0FD5EF"/>
<path d="M1569.56 601.849C1571.14 601.849 1572.43 600.564 1572.43 598.979C1572.43 597.394 1571.14 596.109 1569.56 596.109C1567.97 596.109 1566.69 597.394 1566.69 598.979C1566.69 600.564 1567.97 601.849 1569.56 601.849Z" fill="#0FD5EF"/>
<path d="M1591.57 906.359C1593.15 906.359 1594.44 905.074 1594.44 903.489C1594.44 901.904 1593.15 900.619 1591.57 900.619C1589.98 900.619 1588.7 901.904 1588.7 903.489C1588.7 905.074 1589.98 906.359 1591.57 906.359Z" fill="#0FD5EF"/>
<path d="M1714.48 774.279C1716.06 774.279 1717.35 772.994 1717.35 771.409C1717.35 769.824 1716.06 768.539 1714.48 768.539C1712.89 768.539 1711.61 769.824 1711.61 771.409C1711.61 772.994 1712.89 774.279 1714.48 774.279Z" fill="#0FD5EF"/>
<path d="M1817.2 611.019C1818.79 611.019 1820.07 609.734 1820.07 608.149C1820.07 606.564 1818.79 605.279 1817.2 605.279C1815.61 605.279 1814.33 606.564 1814.33 608.149C1814.33 609.734 1815.61 611.019 1817.2 611.019Z" fill="#0FD5EF"/>
<path d="M274.479 618.359C276.064 618.359 277.349 617.074 277.349 615.489C277.349 613.904 276.064 612.619 274.479 612.619C272.894 612.619 271.609 613.904 271.609 615.489C271.609 617.074 272.894 618.359 274.479 618.359Z" fill="#0FD5EF"/>
<path d="M309.331 911.859C310.916 911.859 312.201 910.574 312.201 908.989C312.201 907.404 310.916 906.119 309.331 906.119C307.746 906.119 306.461 907.404 306.461 908.989C306.461 910.574 307.746 911.859 309.331 911.859Z" fill="#0FD5EF"/>
<path d="M116.72 777.949C118.305 777.949 119.59 776.664 119.59 775.079C119.59 773.494 118.305 772.209 116.72 772.209C115.135 772.209 113.85 773.494 113.85 775.079C113.85 776.664 115.135 777.949 116.72 777.949Z" fill="#0FD5EF"/>
<path d="M153.411 963.219C154.996 963.219 156.281 961.934 156.281 960.349C156.281 958.763 154.996 957.479 153.411 957.479C151.826 957.479 150.541 958.763 150.541 960.349C150.541 961.934 151.826 963.219 153.411 963.219Z" fill="#0FD5EF"/>
<path d="M489.1 1959.3C490.686 1959.3 491.97 1958.01 491.97 1956.43C491.97 1954.84 490.686 1953.56 489.1 1953.56C487.515 1953.56 486.23 1954.84 486.23 1956.43C486.23 1958.01 487.515 1959.3 489.1 1959.3Z" fill="#0FD5EF"/>
<path d="M478.1 2131.73C479.686 2131.73 480.97 2130.45 480.97 2128.86C480.97 2127.28 479.686 2125.99 478.1 2125.99C476.515 2125.99 475.23 2127.28 475.23 2128.86C475.23 2130.45 476.515 2131.73 478.1 2131.73Z" fill="#0FD5EF"/>
<path d="M452.44 2074.93C454.025 2074.93 455.31 2073.64 455.31 2072.06C455.31 2070.47 454.025 2069.19 452.44 2069.19C450.855 2069.19 449.57 2070.47 449.57 2072.06C449.57 2073.64 450.855 2074.93 452.44 2074.93Z" fill="#0FD5EF"/>
<path d="M454.249 2080.37C455.834 2080.37 457.119 2079.08 457.119 2077.5C457.119 2075.91 455.834 2074.63 454.249 2074.63C452.664 2074.63 451.379 2075.91 451.379 2077.5C451.379 2079.08 452.664 2080.37 454.249 2080.37Z" fill="#0FD5EF"/>
<path d="M481.761 2043.68C483.346 2043.68 484.631 2042.39 484.631 2040.81C484.631 2039.22 483.346 2037.94 481.761 2037.94C480.176 2037.94 478.891 2039.22 478.891 2040.81C478.891 2042.39 480.176 2043.68 481.761 2043.68Z" fill="#0FD5EF"/>
<path d="M503.78 2084.04C505.365 2084.04 506.65 2082.75 506.65 2081.17C506.65 2079.58 505.365 2078.3 503.78 2078.3C502.195 2078.3 500.91 2079.58 500.91 2081.17C500.91 2082.75 502.195 2084.04 503.78 2084.04Z" fill="#0FD5EF"/>
<path d="M445.081 2008.83C446.666 2008.83 447.951 2007.54 447.951 2005.96C447.951 2004.37 446.666 2003.09 445.081 2003.09C443.496 2003.09 442.211 2004.37 442.211 2005.96C442.211 2007.54 443.496 2008.83 445.081 2008.83Z" fill="#0FD5EF"/>
<path d="M415.729 2111.55C417.314 2111.55 418.599 2110.26 418.599 2108.68C418.599 2107.09 417.314 2105.81 415.729 2105.81C414.144 2105.81 412.859 2107.09 412.859 2108.68C412.859 2110.26 414.144 2111.55 415.729 2111.55Z" fill="#0FD5EF"/>
<path d="M828.47 2102.38C830.055 2102.38 831.34 2101.09 831.34 2099.51C831.34 2097.92 830.055 2096.64 828.47 2096.64C826.885 2096.64 825.6 2097.92 825.6 2099.51C825.6 2101.09 826.885 2102.38 828.47 2102.38Z" fill="#0FD5EF"/>
<path d="M830.3 1983.15C831.885 1983.15 833.17 1981.87 833.17 1980.28C833.17 1978.7 831.885 1977.41 830.3 1977.41C828.715 1977.41 827.43 1978.7 827.43 1980.28C827.43 1981.87 828.715 1983.15 830.3 1983.15Z" fill="#0FD5EF"/>
<path d="M839.47 1838.23C841.055 1838.23 842.34 1836.95 842.34 1835.36C842.34 1833.78 841.055 1832.49 839.47 1832.49C837.885 1832.49 836.6 1833.78 836.6 1835.36C836.6 1836.95 837.885 1838.23 839.47 1838.23Z" fill="#0FD5EF"/>
<path d="M905.511 1865.74C907.096 1865.74 908.381 1864.46 908.381 1862.87C908.381 1861.28 907.096 1860 905.511 1860C903.926 1860 902.641 1861.28 902.641 1862.87C902.641 1864.46 903.926 1865.74 905.511 1865.74Z" fill="#0FD5EF"/>
<path d="M1026.58 1832.73C1028.17 1832.73 1029.45 1831.45 1029.45 1829.86C1029.45 1828.28 1028.17 1826.99 1026.58 1826.99C1025 1826.99 1023.71 1828.28 1023.71 1829.86C1023.71 1831.45 1025 1832.73 1026.58 1832.73Z" fill="#0FD5EF"/>
<path d="M1032.08 1849.23C1033.67 1849.23 1034.95 1847.95 1034.95 1846.36C1034.95 1844.78 1033.67 1843.49 1032.08 1843.49C1030.5 1843.49 1029.21 1844.78 1029.21 1846.36C1029.21 1847.95 1030.5 1849.23 1032.08 1849.23Z" fill="#0FD5EF"/>
<path d="M1057.76 1834.56C1059.35 1834.56 1060.63 1833.27 1060.63 1831.69C1060.63 1830.1 1059.35 1828.82 1057.76 1828.82C1056.18 1828.82 1054.89 1830.1 1054.89 1831.69C1054.89 1833.27 1056.18 1834.56 1057.76 1834.56Z" fill="#0FD5EF"/>
<path d="M1281.56 2074.87C1283.14 2074.87 1284.43 2073.58 1284.43 2072C1284.43 2070.41 1283.14 2069.13 1281.56 2069.13C1279.97 2069.13 1278.69 2070.41 1278.69 2072C1278.69 2073.58 1279.97 2074.87 1281.56 2074.87Z" fill="#0FD5EF"/>
<path d="M1290.73 2124.39C1292.31 2124.39 1293.6 2123.1 1293.6 2121.52C1293.6 2119.93 1292.31 2118.65 1290.73 2118.65C1289.14 2118.65 1287.86 2119.93 1287.86 2121.52C1287.86 2123.1 1289.14 2124.39 1290.73 2124.39Z" fill="#0FD5EF"/>
<path d="M1303.57 2106.05C1305.15 2106.05 1306.44 2104.76 1306.44 2103.18C1306.44 2101.59 1305.15 2100.31 1303.57 2100.31C1301.98 2100.31 1300.7 2101.59 1300.7 2103.18C1300.7 2104.76 1301.98 2106.05 1303.57 2106.05Z" fill="#0FD5EF"/>
<path d="M1277.89 2100.55C1279.47 2100.55 1280.76 2099.26 1280.76 2097.68C1280.76 2096.09 1279.47 2094.81 1277.89 2094.81C1276.3 2094.81 1275.02 2096.09 1275.02 2097.68C1275.02 2099.26 1276.3 2100.55 1277.89 2100.55Z" fill="#0FD5EF"/>
<path d="M1092.62 2120.73C1094.21 2120.73 1095.49 2119.45 1095.49 2117.86C1095.49 2116.28 1094.21 2114.99 1092.62 2114.99C1091.03 2114.99 1089.75 2116.28 1089.75 2117.86C1089.75 2119.45 1091.03 2120.73 1092.62 2120.73Z" fill="#0FD5EF"/>
<path d="M1099.96 2144.57C1101.54 2144.57 1102.83 2143.29 1102.83 2141.7C1102.83 2140.11 1101.54 2138.83 1099.96 2138.83C1098.37 2138.83 1097.09 2140.11 1097.09 2141.7C1097.09 2143.29 1098.37 2144.57 1099.96 2144.57Z" fill="#0FD5EF"/>
<path d="M1604.41 1946.46C1606 1946.46 1607.28 1945.17 1607.28 1943.59C1607.28 1942 1606 1940.72 1604.41 1940.72C1602.83 1940.72 1601.54 1942 1601.54 1943.59C1601.54 1945.17 1602.83 1946.46 1604.41 1946.46Z" fill="#0FD5EF"/>
<path d="M1600.75 2089.54C1602.34 2089.54 1603.62 2088.25 1603.62 2086.67C1603.62 2085.08 1602.34 2083.8 1600.75 2083.8C1599.17 2083.8 1597.88 2085.08 1597.88 2086.67C1597.88 2088.25 1599.17 2089.54 1600.75 2089.54Z" fill="#0FD5EF"/>
<path d="M1657.61 2023.5C1659.2 2023.5 1660.48 2022.21 1660.48 2020.63C1660.48 2019.04 1659.2 2017.76 1657.61 2017.76C1656.03 2017.76 1654.74 2019.04 1654.74 2020.63C1654.74 2022.21 1656.03 2023.5 1657.61 2023.5Z" fill="#0FD5EF"/>
<path d="M1844.72 1774.02C1846.3 1774.02 1847.59 1772.73 1847.59 1771.15C1847.59 1769.56 1846.3 1768.28 1844.72 1768.28C1843.13 1768.28 1841.85 1769.56 1841.85 1771.15C1841.85 1772.73 1843.13 1774.02 1844.72 1774.02Z" fill="#0FD5EF"/>
<path d="M1870.4 1896.93C1871.98 1896.93 1873.27 1895.64 1873.27 1894.06C1873.27 1892.47 1871.98 1891.19 1870.4 1891.19C1868.81 1891.19 1867.53 1892.47 1867.53 1894.06C1867.53 1895.64 1868.81 1896.93 1870.4 1896.93Z" fill="#0FD5EF"/>
<path d="M1896.08 2005.16C1897.67 2005.16 1898.95 2003.88 1898.95 2002.29C1898.95 2000.7 1897.67 1999.42 1896.08 1999.42C1894.5 1999.42 1893.21 2000.7 1893.21 2002.29C1893.21 2003.88 1894.5 2005.16 1896.08 2005.16Z" fill="#0FD5EF"/>
<path d="M1776.85 2157.41C1778.44 2157.41 1779.72 2156.13 1779.72 2154.54C1779.72 2152.95 1778.44 2151.67 1776.85 2151.67C1775.27 2151.67 1773.98 2152.95 1773.98 2154.54C1773.98 2156.13 1775.27 2157.41 1776.85 2157.41Z" fill="#0FD5EF"/>
<path d="M1729.15 2001.49C1730.73 2001.49 1732.02 2000.21 1732.02 1998.62C1732.02 1997.03 1730.73 1995.75 1729.15 1995.75C1727.56 1995.75 1726.28 1997.03 1726.28 1998.62C1726.28 2000.21 1727.56 2001.49 1729.15 2001.49Z" fill="#0FD5EF"/>
<path d="M1580.57 1807.04C1582.15 1807.04 1583.44 1805.75 1583.44 1804.17C1583.44 1802.58 1582.15 1801.3 1580.57 1801.3C1578.98 1801.3 1577.7 1802.58 1577.7 1804.17C1577.7 1805.75 1578.98 1807.04 1580.57 1807.04Z" fill="#0FD5EF"/>
<path d="M1875.9 1401.64C1877.48 1401.64 1878.77 1400.35 1878.77 1398.77C1878.77 1397.18 1877.48 1395.9 1875.9 1395.9C1874.31 1395.9 1873.03 1397.18 1873.03 1398.77C1873.03 1400.35 1874.31 1401.64 1875.9 1401.64Z" fill="#0FD5EF"/>
<path d="M1575.06 1016.42C1576.64 1016.42 1577.93 1015.13 1577.93 1013.55C1577.93 1011.96 1576.64 1010.68 1575.06 1010.68C1573.47 1010.68 1572.19 1011.96 1572.19 1013.55C1572.19 1015.13 1573.47 1016.42 1575.06 1016.42Z" fill="#0FD5EF"/>
<path d="M1584.24 1051.27C1585.83 1051.27 1587.11 1049.98 1587.11 1048.4C1587.11 1046.81 1585.83 1045.53 1584.24 1045.53C1582.66 1045.53 1581.37 1046.81 1581.37 1048.4C1581.37 1049.98 1582.66 1051.27 1584.24 1051.27Z" fill="#0FD5EF"/>
<path d="M1285.23 1139.32C1286.81 1139.32 1288.1 1138.04 1288.1 1136.45C1288.1 1134.87 1286.81 1133.58 1285.23 1133.58C1283.64 1133.58 1282.36 1134.87 1282.36 1136.45C1282.36 1138.04 1283.64 1139.32 1285.23 1139.32Z" fill="#0FD5EF"/>
<path d="M1199.01 1454.84C1200.6 1454.84 1201.88 1453.55 1201.88 1451.97C1201.88 1450.38 1200.6 1449.1 1199.01 1449.1C1197.43 1449.1 1196.14 1450.38 1196.14 1451.97C1196.14 1453.55 1197.43 1454.84 1199.01 1454.84Z" fill="#0FD5EF"/>
<path d="M1769.05 1797.87C1770.63 1797.87 1771.92 1796.58 1771.92 1795C1771.92 1793.41 1770.63 1792.13 1769.05 1792.13C1767.46 1792.13 1766.18 1793.41 1766.18 1795C1766.18 1796.58 1767.46 1797.87 1769.05 1797.87Z" fill="#0FD5EF"/>
<path d="M1810.33 1662.36C1811.92 1662.36 1813.2 1661.07 1813.2 1659.49C1813.2 1657.9 1811.92 1656.62 1810.33 1656.62C1808.75 1656.62 1807.46 1657.9 1807.46 1659.49C1807.46 1661.07 1808.75 1662.36 1810.33 1662.36Z" fill="#0FD5EF"/>
<path d="M1417.54 1720.14C1419.12 1720.14 1420.41 1718.85 1420.41 1717.27C1420.41 1715.68 1419.12 1714.4 1417.54 1714.4C1415.95 1714.4 1414.67 1715.68 1414.67 1717.27C1414.67 1718.85 1415.95 1720.14 1417.54 1720.14Z" fill="#0FD5EF"/>
<path d="M1403.09 1798.56C1404.68 1798.56 1405.96 1797.27 1405.96 1795.69C1405.96 1794.1 1404.68 1792.82 1403.09 1792.82C1401.51 1792.82 1400.22 1794.1 1400.22 1795.69C1400.22 1797.27 1401.51 1798.56 1403.09 1798.56Z" fill="#0FD5EF"/>
<path d="M1442.3 2057.9C1443.88 2057.9 1445.17 2056.62 1445.17 2055.03C1445.17 2053.45 1443.88 2052.16 1442.3 2052.16C1440.71 2052.16 1439.43 2053.45 1439.43 2055.03C1439.43 2056.62 1440.71 2057.9 1442.3 2057.9Z" fill="#0FD5EF"/>
<path d="M1315.73 1993.92C1317.31 1993.92 1318.6 1992.63 1318.6 1991.05C1318.6 1989.46 1317.31 1988.18 1315.73 1988.18C1314.14 1988.18 1312.86 1989.46 1312.86 1991.05C1312.86 1992.63 1314.14 1993.92 1315.73 1993.92Z" fill="#0FD5EF"/>
<path d="M1218.73 2126C1220.31 2126 1221.6 2124.71 1221.6 2123.13C1221.6 2121.54 1220.31 2120.26 1218.73 2120.26C1217.14 2120.26 1215.86 2121.54 1215.86 2123.13C1215.86 2124.71 1217.14 2126 1218.73 2126Z" fill="#0FD5EF"/>
<path d="M1144.44 2062.02C1146.03 2062.02 1147.31 2060.73 1147.31 2059.15C1147.31 2057.56 1146.03 2056.28 1144.44 2056.28C1142.86 2056.28 1141.57 2057.56 1141.57 2059.15C1141.57 2060.73 1142.86 2062.02 1144.44 2062.02Z" fill="#0FD5EF"/>
<path d="M1284.77 1698.81C1286.36 1698.81 1287.64 1697.53 1287.64 1695.94C1287.64 1694.36 1286.36 1693.07 1284.77 1693.07C1283.19 1693.07 1281.9 1694.36 1281.9 1695.94C1281.9 1697.53 1283.19 1698.81 1284.77 1698.81Z" fill="#0FD5EF"/>
<path d="M1187.78 1458.74C1189.37 1458.74 1190.65 1457.46 1190.65 1455.87C1190.65 1454.28 1189.37 1453 1187.78 1453C1186.2 1453 1184.91 1454.28 1184.91 1455.87C1184.91 1457.46 1186.2 1458.74 1187.78 1458.74Z" fill="#0FD5EF"/>
<path d="M878.911 1454.61C880.496 1454.61 881.781 1453.32 881.781 1451.74C881.781 1450.15 880.496 1448.87 878.911 1448.87C877.326 1448.87 876.041 1450.15 876.041 1451.74C876.041 1453.32 877.326 1454.61 878.911 1454.61Z" fill="#0FD5EF"/>
<path d="M874.78 1414.71C876.365 1414.71 877.65 1413.42 877.65 1411.84C877.65 1410.25 876.365 1408.97 874.78 1408.97C873.195 1408.97 871.91 1410.25 871.91 1411.84C871.91 1413.42 873.195 1414.71 874.78 1414.71Z" fill="#0FD5EF"/>
<path d="M1279.96 1157.44C1281.54 1157.44 1282.83 1156.15 1282.83 1154.57C1282.83 1152.98 1281.54 1151.7 1279.96 1151.7C1278.37 1151.7 1277.09 1152.98 1277.09 1154.57C1277.09 1156.15 1278.37 1157.44 1279.96 1157.44Z" fill="#0FD5EF"/>
<path d="M314.149 1292.95C315.734 1292.95 317.019 1291.66 317.019 1290.08C317.019 1288.49 315.734 1287.21 314.149 1287.21C312.564 1287.21 311.279 1288.49 311.279 1290.08C311.279 1291.66 312.564 1292.95 314.149 1292.95Z" fill="#0FD5EF"/>
<path d="M327.899 1284.01C329.484 1284.01 330.769 1282.72 330.769 1281.14C330.769 1279.55 329.484 1278.27 327.899 1278.27C326.314 1278.27 325.029 1279.55 325.029 1281.14C325.029 1282.72 326.314 1284.01 327.899 1284.01Z" fill="#0FD5EF"/>
<path d="M335.47 1279.2C337.055 1279.2 338.34 1277.91 338.34 1276.33C338.34 1274.74 337.055 1273.46 335.47 1273.46C333.885 1273.46 332.6 1274.74 332.6 1276.33C332.6 1277.91 333.885 1279.2 335.47 1279.2Z" fill="#0FD5EF"/>
<path d="M172.44 1073.52C174.025 1073.52 175.31 1072.23 175.31 1070.65C175.31 1069.06 174.025 1067.78 172.44 1067.78C170.855 1067.78 169.57 1069.06 169.57 1070.65C169.57 1072.23 170.855 1073.52 172.44 1073.52Z" fill="#0FD5EF"/>
<path d="M139.421 1209.03C141.006 1209.03 142.291 1207.74 142.291 1206.16C142.291 1204.57 141.006 1203.29 139.421 1203.29C137.836 1203.29 136.551 1204.57 136.551 1206.16C136.551 1207.74 137.836 1209.03 139.421 1209.03Z" fill="#0FD5EF"/>
<path d="M281.13 1246.18C282.715 1246.18 284 1244.89 284 1243.31C284 1241.72 282.715 1240.44 281.13 1240.44C279.545 1240.44 278.26 1241.72 278.26 1243.31C278.26 1244.89 279.545 1246.18 281.13 1246.18Z" fill="#0FD5EF"/>
<path d="M199.27 1765.54C200.855 1765.54 202.14 1764.25 202.14 1762.67C202.14 1761.08 200.855 1759.8 199.27 1759.8C197.685 1759.8 196.4 1761.08 196.4 1762.67C196.4 1764.25 197.685 1765.54 199.27 1765.54Z" fill="#0FD5EF"/>
<path d="M214.399 1925.13C215.984 1925.13 217.269 1923.84 217.269 1922.26C217.269 1920.67 215.984 1919.39 214.399 1919.39C212.814 1919.39 211.529 1920.67 211.529 1922.26C211.529 1923.84 212.814 1925.13 214.399 1925.13Z" fill="#0FD5EF"/>
<path d="M723.45 2044.83C725.035 2044.83 726.32 2043.54 726.32 2041.96C726.32 2040.37 725.035 2039.09 723.45 2039.09C721.865 2039.09 720.58 2040.37 720.58 2041.96C720.58 2043.54 721.865 2044.83 723.45 2044.83Z" fill="#0FD5EF"/>
<path d="M757.839 1964.34C759.424 1964.34 760.709 1963.05 760.709 1961.47C760.709 1959.88 759.424 1958.6 757.839 1958.6C756.254 1958.6 754.969 1959.88 754.969 1961.47C754.969 1963.05 756.254 1964.34 757.839 1964.34Z" fill="#0FD5EF"/>
<path d="M627.14 1790.99C628.725 1790.99 630.01 1789.71 630.01 1788.12C630.01 1786.53 628.725 1785.25 627.14 1785.25C625.554 1785.25 624.27 1786.53 624.27 1788.12C624.27 1789.71 625.554 1790.99 627.14 1790.99Z" fill="#0FD5EF"/>
<path d="M670.479 1756.6C672.064 1756.6 673.349 1755.31 673.349 1753.73C673.349 1752.14 672.064 1750.86 670.479 1750.86C668.894 1750.86 667.609 1752.14 667.609 1753.73C667.609 1755.31 668.894 1756.6 670.479 1756.6Z" fill="#0FD5EF"/>
<path d="M587.239 1307.4C588.824 1307.4 590.109 1306.12 590.109 1304.53C590.109 1302.95 588.824 1301.66 587.239 1301.66C585.654 1301.66 584.369 1302.95 584.369 1304.53C584.369 1306.12 585.654 1307.4 587.239 1307.4Z" fill="#0FD5EF"/>
<path d="M583.8 1320.47C585.385 1320.47 586.67 1319.18 586.67 1317.6C586.67 1316.01 585.385 1314.73 583.8 1314.73C582.215 1314.73 580.93 1316.01 580.93 1317.6C580.93 1319.18 582.215 1320.47 583.8 1320.47Z" fill="#0FD5EF"/>
<path d="M1428.31 2120.73C1429.89 2120.73 1431.18 2119.45 1431.18 2117.86C1431.18 2116.28 1429.89 2114.99 1428.31 2114.99C1426.72 2114.99 1425.44 2116.28 1425.44 2117.86C1425.44 2119.45 1426.72 2120.73 1428.31 2120.73Z" fill="#0FD5EF"/>
<path d="M1254.96 1894.18C1256.54 1894.18 1257.83 1892.89 1257.83 1891.31C1257.83 1889.72 1256.54 1888.44 1254.96 1888.44C1253.37 1888.44 1252.09 1889.72 1252.09 1891.31C1252.09 1892.89 1253.37 1894.18 1254.96 1894.18Z" fill="#0FD5EF"/>
<path d="M1295.32 1783.2C1296.9 1783.2 1298.19 1781.91 1298.19 1780.33C1298.19 1778.74 1296.9 1777.46 1295.32 1777.46C1293.73 1777.46 1292.45 1778.74 1292.45 1780.33C1292.45 1781.91 1293.73 1783.2 1295.32 1783.2Z" fill="#0FD5EF"/>
<path d="M1333.84 1918.02C1335.43 1918.02 1336.71 1916.73 1336.71 1915.15C1336.71 1913.56 1335.43 1912.28 1333.84 1912.28C1332.26 1912.28 1330.97 1913.56 1330.97 1915.15C1330.97 1916.73 1332.26 1918.02 1333.84 1918.02Z" fill="#0FD5EF"/>
<path d="M1052.26 1564.9C1053.85 1564.9 1055.13 1563.62 1055.13 1562.03C1055.13 1560.45 1053.85 1559.16 1052.26 1559.16C1050.68 1559.16 1049.39 1560.45 1049.39 1562.03C1049.39 1563.62 1050.68 1564.9 1052.26 1564.9Z" fill="#0FD5EF"/>
<path d="M1065.1 1580.5C1066.69 1580.5 1067.97 1579.21 1067.97 1577.63C1067.97 1576.04 1066.69 1574.76 1065.1 1574.76C1063.52 1574.76 1062.23 1576.04 1062.23 1577.63C1062.23 1579.21 1063.52 1580.5 1065.1 1580.5Z" fill="#0FD5EF"/>
<path d="M876.161 1697.9C877.746 1697.9 879.031 1696.62 879.031 1695.03C879.031 1693.45 877.746 1692.16 876.161 1692.16C874.576 1692.16 873.291 1693.45 873.291 1695.03C873.291 1696.62 874.576 1697.9 876.161 1697.9Z" fill="#0FD5EF"/>
<path d="M882.581 1726.33C884.166 1726.33 885.451 1725.04 885.451 1723.46C885.451 1721.87 884.166 1720.59 882.581 1720.59C880.996 1720.59 879.711 1721.87 879.711 1723.46C879.711 1725.04 880.996 1726.33 882.581 1726.33Z" fill="#0FD5EF"/>
<path d="M419.399 816.469C420.984 816.469 422.269 815.184 422.269 813.599C422.269 812.013 420.984 810.729 419.399 810.729C417.814 810.729 416.529 812.013 416.529 813.599C416.529 815.184 417.814 816.469 419.399 816.469Z" fill="#0FD5EF"/>
<path d="M418.479 799.959C420.064 799.959 421.349 798.674 421.349 797.089C421.349 795.504 420.064 794.219 418.479 794.219C416.894 794.219 415.609 795.504 415.609 797.089C415.609 798.674 416.894 799.959 418.479 799.959Z" fill="#0FD5EF"/>
<path d="M537.71 633.029C539.295 633.029 540.58 631.744 540.58 630.159C540.58 628.574 539.295 627.289 537.71 627.289C536.125 627.289 534.84 628.574 534.84 630.159C534.84 631.744 536.125 633.029 537.71 633.029Z" fill="#0FD5EF"/>
<path d="M549.64 671.549C551.225 671.549 552.51 670.264 552.51 668.679C552.51 667.094 551.225 665.809 549.64 665.809C548.054 665.809 546.77 667.094 546.77 668.679C546.77 670.264 548.054 671.549 549.64 671.549Z" fill="#0FD5EF"/>
<path d="M382.71 420.24C384.295 420.24 385.58 418.955 385.58 417.37C385.58 415.785 384.295 414.5 382.71 414.5C381.125 414.5 379.84 415.785 379.84 417.37C379.84 418.955 381.125 420.24 382.71 420.24Z" fill="#0FD5EF"/>
<path d="M877.081 319.349C878.666 319.349 879.951 318.064 879.951 316.479C879.951 314.894 878.666 313.609 877.081 313.609C875.496 313.609 874.211 314.894 874.211 316.479C874.211 318.064 875.496 319.349 877.081 319.349Z" fill="#0FD5EF"/>
<path d="M919.27 510.129C920.855 510.129 922.14 508.844 922.14 507.259C922.14 505.674 920.855 504.389 919.27 504.389C917.685 504.389 916.4 505.674 916.4 507.259C916.4 508.844 917.685 510.129 919.27 510.129Z" fill="#0FD5EF"/>
<path d="M988.97 470.689C990.555 470.689 991.84 469.404 991.84 467.819C991.84 466.234 990.555 464.949 988.97 464.949C987.385 464.949 986.1 466.234 986.1 467.819C986.1 469.404 987.385 470.689 988.97 470.689Z" fill="#0FD5EF"/>
<path d="M1308.16 336.779C1309.75 336.779 1311.03 335.494 1311.03 333.909C1311.03 332.324 1309.75 331.039 1308.16 331.039C1306.58 331.039 1305.29 332.324 1305.29 333.909C1305.29 335.494 1306.58 336.779 1308.16 336.779Z" fill="#0FD5EF"/>
<path d="M1432.9 547.73C1434.48 547.73 1435.77 546.445 1435.77 544.86C1435.77 543.275 1434.48 541.99 1432.9 541.99C1431.31 541.99 1430.03 543.275 1430.03 544.86C1430.03 546.445 1431.31 547.73 1432.9 547.73Z" fill="#0FD5EF"/>
<path d="M1446.66 514.709C1448.25 514.709 1449.53 513.424 1449.53 511.839C1449.53 510.254 1448.25 508.969 1446.66 508.969C1445.08 508.969 1443.79 510.254 1443.79 511.839C1443.79 513.424 1445.08 514.709 1446.66 514.709Z" fill="#0FD5EF"/>
<path d="M1657.61 323.939C1659.2 323.939 1660.48 322.654 1660.48 321.069C1660.48 319.484 1659.2 318.199 1657.61 318.199C1656.03 318.199 1654.74 319.484 1654.74 321.069C1654.74 322.654 1656.03 323.939 1657.61 323.939Z" fill="#0FD5EF"/>
<path d="M1818.12 1286.99C1819.71 1286.99 1820.99 1285.71 1820.99 1284.12C1820.99 1282.53 1819.71 1281.25 1818.12 1281.25C1816.54 1281.25 1815.25 1282.53 1815.25 1284.12C1815.25 1285.71 1816.54 1286.99 1818.12 1286.99Z" fill="#0FD5EF"/>
<path d="M1860.31 972.388C1861.89 972.388 1863.18 971.103 1863.18 969.518C1863.18 967.933 1861.89 966.648 1860.31 966.648C1858.72 966.648 1857.44 967.933 1857.44 969.518C1857.44 971.103 1858.72 972.388 1860.31 972.388Z" fill="#0FD5EF"/>
<path d="M582.971 1318.17L876.881 1428.31L1187.38 1455.06L1628.96 2293.61" stroke="#0FD5EF" stroke-miterlimit="10"/>
<path d="M1094.68 1882.65L756.291 1963.49L667.331 1753.89L617.801 1739.21" stroke="#0FD5EF" stroke-miterlimit="10"/>
<path d="M585.311 1304.45L875.531 1412.45L1277.97 1153.45L1443.54 1272.65" stroke="#0FD5EF" stroke-miterlimit="10"/>
<path d="M2020.19 1563.08L1808.95 1658.53L1768.28 1796.38L1417.3 1717.17L1403.09 1795L1660.36 2284.04" stroke="#0FD5EF" stroke-miterlimit="10"/>
<path d="M85.5898 2102.14L583.81 2307.07L510.06 2448.39" stroke="#0FD5EF" stroke-miterlimit="10"/>
<path d="M81.2402 1695.84L198.72 1761.07L215.15 1922.65L365.57 2194.14L590.28 2286.78L877.41 2118.95" stroke="#0FD5EF" stroke-miterlimit="10"/>
<path d="M336.461 1275.43L63.8105 898.91" stroke="#0FD5EF" stroke-miterlimit="10"/>
<path d="M327.221 1280L173.581 1070.54L33.7109 1016.3" stroke="#0FD5EF" stroke-miterlimit="10"/>
<path d="M1639.27 1126.31L2035.5 534.449" stroke="#0FD5EF" stroke-miterlimit="10"/>
<path d="M1643.94 1130.75L1855.73 971.36L2064.85 921.83" stroke="#0FD5EF" stroke-miterlimit="10"/>
<path d="M415.93 1209.67L160.75 883.99L168.08 713.56L41.5098 445.98" stroke="#0FD5EF" stroke-miterlimit="10"/>
<path d="M52.8008 329.32L158.911 44.9897L323.781 -48.5703" stroke="#0FD5EF" stroke-miterlimit="10"/>
<path d="M516.16 1756.48L626.68 1787.66L721.46 2041.8L896.24 1998.86" stroke="#0FD5EF" stroke-miterlimit="10"/>
<path d="M2067.6 1636.18L1872.24 2188.26L1867.65 2361.4L1757.59 2436.42" stroke="#0FD5EF" stroke-miterlimit="10"/>
<path d="M1768.28 2455.83L1891.71 2377.33L1910.76 2249.01L2175.35 2069.16" stroke="#0FD5EF" stroke-miterlimit="10"/>
<path d="M1730.58 1260.8L1816.43 1282.95L1938.27 1207.73L2052.85 1184.03" stroke="#0FD5EF" stroke-miterlimit="10"/>
<path d="M1144.24 2040.57L1316.41 1991.31L1443.54 2056.12L1609.48 2309.82" stroke="#0FD5EF" stroke-miterlimit="10"/>
<path d="M314.73 1288.14L281.52 1241.93L139.42 1205.47L-120.6 1410.02" stroke="#0FD5EF" stroke-miterlimit="10"/>
<path d="M1128.62 2211.18L1216.67 2123.37L1144.7 2057.81" stroke="#0FD5EF" stroke-miterlimit="10"/>
<path d="M1768.28 1796.38L1872.24 2188.26" stroke="#0FD5EF" stroke-miterlimit="10"/>
<path d="M1114.63 1882.65L1285.23 1695.93L1172.64 1476.68L879.951 1453.26L876.951 1437.31" stroke="#0FD5EF" stroke-miterlimit="10"/>
</g>
<path d="M1367 1157L1372 1152M1361.65 1156.65L1371.65 1146.65" stroke="#0FD5EF"/>
<path d="M1766 761.168C1807.7 761.168 1841.5 727.365 1841.5 685.668C1841.5 643.97 1807.7 610.168 1766 610.168C1724.3 610.168 1690.5 643.97 1690.5 685.668C1690.5 727.365 1724.3 761.168 1766 761.168Z" stroke="#0FD5EF" stroke-width="5" stroke-linecap="round" stroke-linejoin="round"/>
<path d="M1766 484.334C1712.6 484.334 1661.39 505.546 1623.64 543.303C1585.88 581.06 1564.67 632.27 1564.67 685.667C1564.67 733.283 1574.78 764.439 1602.42 798.917L1766 987.667L1929.58 798.917C1957.22 764.439 1967.33 733.283 1967.33 685.667C1967.33 632.27 1946.12 581.06 1908.36 543.303C1870.61 505.546 1819.4 484.334 1766 484.334V484.334Z" stroke="#0FD5EF" stroke-width="5" stroke-linecap="round" stroke-linejoin="round"/>
<path d="M311.126 966.619L312.3 965.885V964.5V911.25V906.737L308.474 909.131L97 1041.43L-114.474 909.131L-118.3 906.737V911.25V964.5V965.885L-117.126 966.619L95.6741 1099.74L97 1100.57L98.3259 1099.74L311.126 966.619ZM-166.5 860.5H360.5V1281.5H-166.5V860.5Z" stroke="#0FD5EF" stroke-width="5"/>
<defs>
<linearGradient id="paint0_linear_216_505" x1="947.01" y1="-421.347" x2="955.577" y2="2599.05" gradientUnits="userSpaceOnUse">
<stop stop-color="#10CCE7"/>
<stop offset="0.06" stop-color="#15A7C5"/>
<stop offset="0.11" stop-color="#1987A8"/>
<stop offset="0.16" stop-color="#1D6C8F"/>
<stop offset="0.23" stop-color="#20567B"/>
<stop offset="0.3" stop-color="#23456B"/>
<stop offset="0.39" stop-color="#243960"/>
<stop offset="0.52" stop-color="#25325A"/>
<stop offset="0.88" stop-color="#263159"/>
</linearGradient>
<linearGradient id="paint1_linear_216_505" x1="955.85" y1="-52.9176" x2="959.394" y2="3134.56" gradientUnits="userSpaceOnUse">
<stop offset="0.45" stop-color="#931B80" stop-opacity="0"/>
<stop offset="1" stop-color="#662481"/>
</linearGradient>
<clipPath id="clip0_216_505">
<rect width="2430.63" height="8351.63" fill="white" transform="translate(-255 -49)"/>
</clipPath>
</defs>
</svg>
