<svg width="1920" height="3155" viewBox="0 0 1920 3155" fill="none" xmlns="http://www.w3.org/2000/svg">
<path d="M1920 0H0V3155H1920V0Z" fill="url(#paint0_linear_220_480)"/>
<path d="M1920 0H0V3155H1920V0Z" fill="url(#paint1_linear_220_480)"/>
<path opacity="0.05" d="M-23.4958 1048V160.223H508.823V255.59H84.0084V555.561H468.943V650.928H84.0084V1048H-23.4958ZM575.771 1048H463.065L789.045 160.223H900.017L1226 1048H1113.29L847.999 300.672H841.063L575.771 1048ZM617.385 701.212H1071.68V796.579H617.385V701.212ZM1602.34 770.57H1720.25L1819.09 900.615L1845.1 935.294L1992.48 1131.23H1874.57L1777.47 1001.18L1753.2 968.239L1602.34 770.57ZM2028.89 604.112C2028.89 697.744 2011.99 778.662 1978.18 846.863C1944.36 915.065 1897.98 967.661 1839.03 1004.65C1780.07 1041.64 1712.74 1060.14 1637.02 1060.14C1561.31 1060.14 1493.97 1041.64 1435.02 1004.65C1376.07 967.661 1329.68 915.065 1295.87 846.863C1262.06 778.662 1245.15 697.744 1245.15 604.112C1245.15 510.479 1262.06 429.562 1295.87 361.36C1329.68 293.159 1376.07 240.563 1435.02 203.572C1493.97 166.581 1561.31 148.086 1637.02 148.086C1712.74 148.086 1780.07 166.581 1839.03 203.572C1897.98 240.563 1944.36 293.159 1978.18 361.36C2011.99 429.562 2028.89 510.479 2028.89 604.112ZM1924.86 604.112C1924.86 527.24 1912 462.362 1886.28 409.477C1860.85 356.592 1826.31 316.567 1782.67 289.402C1739.33 262.237 1690.78 248.654 1637.02 248.654C1583.27 248.654 1534.58 262.237 1490.94 289.402C1447.59 316.567 1413.06 356.592 1387.34 409.477C1361.91 462.362 1349.19 527.24 1349.19 604.112C1349.19 680.983 1361.91 745.861 1387.34 798.746C1413.06 851.631 1447.59 891.657 1490.94 918.822C1534.58 945.987 1583.27 959.569 1637.02 959.569C1690.78 959.569 1739.33 945.987 1782.67 918.822C1826.31 891.657 1860.85 851.631 1886.28 798.746C1912 745.861 1924.86 680.983 1924.86 604.112Z" fill="#34F79A"/>
<g clip-path="url(#clip0_220_480)">
<path d="M482.11 915.41C483.695 915.41 484.98 914.125 484.98 912.54C484.98 910.955 483.695 909.67 482.11 909.67C480.525 909.67 479.24 910.955 479.24 912.54C479.24 914.125 480.525 915.41 482.11 915.41Z" fill="#0FD5EF"/>
<path d="M532.899 1000.6C534.484 1000.6 535.769 999.315 535.769 997.73C535.769 996.145 534.484 994.86 532.899 994.86C531.314 994.86 530.029 996.145 530.029 997.73C530.029 999.315 531.314 1000.6 532.899 1000.6Z" fill="#0FD5EF"/>
<path d="M555.6 1093.46C557.186 1093.46 558.47 1092.18 558.47 1090.59C558.47 1089 557.186 1087.72 555.6 1087.72C554.015 1087.72 552.73 1089 552.73 1090.59C552.73 1092.18 554.015 1093.46 555.6 1093.46Z" fill="#0FD5EF"/>
<path d="M569.36 1149.18C570.945 1149.18 572.23 1147.9 572.23 1146.31C572.23 1144.73 570.945 1143.44 569.36 1143.44C567.775 1143.44 566.49 1144.73 566.49 1146.31C566.49 1147.9 567.775 1149.18 569.36 1149.18Z" fill="#0FD5EF"/>
<path d="M620.261 1173.26C621.846 1173.26 623.131 1171.98 623.131 1170.39C623.131 1168.8 621.846 1167.52 620.261 1167.52C618.676 1167.52 617.391 1168.8 617.391 1170.39C617.391 1171.98 618.676 1173.26 620.261 1173.26Z" fill="#0FD5EF"/>
<path d="M626.45 1124.42C628.035 1124.42 629.32 1123.14 629.32 1121.55C629.32 1119.96 628.035 1118.68 626.45 1118.68C624.865 1118.68 623.58 1119.96 623.58 1121.55C623.58 1123.14 624.865 1124.42 626.45 1124.42Z" fill="#0FD5EF"/>
<path d="M239.62 1317.26C241.205 1317.26 242.49 1315.98 242.49 1314.39C242.49 1312.8 241.205 1311.52 239.62 1311.52C238.035 1311.52 236.75 1312.8 236.75 1314.39C236.75 1315.98 238.035 1317.26 239.62 1317.26Z" fill="#0FD5EF"/>
<path d="M261.64 1377.8C263.225 1377.8 264.51 1376.52 264.51 1374.93C264.51 1373.34 263.225 1372.06 261.64 1372.06C260.054 1372.06 258.77 1373.34 258.77 1374.93C258.77 1376.52 260.054 1377.8 261.64 1377.8Z" fill="#0FD5EF"/>
<path d="M171.751 1284.24C173.336 1284.24 174.621 1282.96 174.621 1281.37C174.621 1279.78 173.336 1278.5 171.751 1278.5C170.166 1278.5 168.881 1279.78 168.881 1281.37C168.881 1282.96 170.166 1284.24 171.751 1284.24Z" fill="#0FD5EF"/>
<path d="M756.921 1623.6C758.506 1623.6 759.791 1622.32 759.791 1620.73C759.791 1619.14 758.506 1617.86 756.921 1617.86C755.336 1617.86 754.051 1619.14 754.051 1620.73C754.051 1622.32 755.336 1623.6 756.921 1623.6Z" fill="#0FD5EF"/>
<path d="M756.921 1513.54C758.506 1513.54 759.791 1512.26 759.791 1510.67C759.791 1509.08 758.506 1507.8 756.921 1507.8C755.336 1507.8 754.051 1509.08 754.051 1510.67C754.051 1512.26 755.336 1513.54 756.921 1513.54Z" fill="#0FD5EF"/>
<path d="M1208.18 1324.6C1209.77 1324.6 1211.05 1323.32 1211.05 1321.73C1211.05 1320.14 1209.77 1318.86 1208.18 1318.86C1206.6 1318.86 1205.31 1320.14 1205.31 1321.73C1205.31 1323.32 1206.6 1324.6 1208.18 1324.6Z" fill="#0FD5EF"/>
<path d="M1288.9 1445.67C1290.48 1445.67 1291.77 1444.39 1291.77 1442.8C1291.77 1441.21 1290.48 1439.93 1288.9 1439.93C1287.31 1439.93 1286.03 1441.21 1286.03 1442.8C1286.03 1444.39 1287.31 1445.67 1288.9 1445.67Z" fill="#0FD5EF"/>
<path d="M1334.76 1342.94C1336.35 1342.94 1337.63 1341.66 1337.63 1340.07C1337.63 1338.48 1336.35 1337.2 1334.76 1337.2C1333.18 1337.2 1331.89 1338.48 1331.89 1340.07C1331.89 1341.66 1333.18 1342.94 1334.76 1342.94Z" fill="#0FD5EF"/>
<path d="M1569.56 601.85C1571.14 601.85 1572.43 600.565 1572.43 598.98C1572.43 597.395 1571.14 596.11 1569.56 596.11C1567.97 596.11 1566.69 597.395 1566.69 598.98C1566.69 600.565 1567.97 601.85 1569.56 601.85Z" fill="#0FD5EF"/>
<path d="M1591.57 906.36C1593.15 906.36 1594.44 905.075 1594.44 903.49C1594.44 901.905 1593.15 900.62 1591.57 900.62C1589.98 900.62 1588.7 901.905 1588.7 903.49C1588.7 905.075 1589.98 906.36 1591.57 906.36Z" fill="#0FD5EF"/>
<path d="M1714.48 774.28C1716.06 774.28 1717.35 772.995 1717.35 771.41C1717.35 769.825 1716.06 768.54 1714.48 768.54C1712.89 768.54 1711.61 769.825 1711.61 771.41C1711.61 772.995 1712.89 774.28 1714.48 774.28Z" fill="#0FD5EF"/>
<path d="M1817.2 611.02C1818.79 611.02 1820.07 609.735 1820.07 608.15C1820.07 606.565 1818.79 605.28 1817.2 605.28C1815.61 605.28 1814.33 606.565 1814.33 608.15C1814.33 609.735 1815.61 611.02 1817.2 611.02Z" fill="#0FD5EF"/>
<path d="M274.479 618.36C276.064 618.36 277.349 617.075 277.349 615.49C277.349 613.905 276.064 612.62 274.479 612.62C272.894 612.62 271.609 613.905 271.609 615.49C271.609 617.075 272.894 618.36 274.479 618.36Z" fill="#0FD5EF"/>
<path d="M309.331 911.86C310.916 911.86 312.201 910.575 312.201 908.99C312.201 907.405 310.916 906.12 309.331 906.12C307.746 906.12 306.461 907.405 306.461 908.99C306.461 910.575 307.746 911.86 309.331 911.86Z" fill="#0FD5EF"/>
<path d="M116.72 777.95C118.305 777.95 119.59 776.665 119.59 775.08C119.59 773.495 118.305 772.21 116.72 772.21C115.135 772.21 113.85 773.495 113.85 775.08C113.85 776.665 115.135 777.95 116.72 777.95Z" fill="#0FD5EF"/>
<path d="M153.411 963.22C154.996 963.22 156.281 961.935 156.281 960.35C156.281 958.765 154.996 957.48 153.411 957.48C151.826 957.48 150.541 958.765 150.541 960.35C150.541 961.935 151.826 963.22 153.411 963.22Z" fill="#0FD5EF"/>
<path d="M489.1 1959.3C490.686 1959.3 491.97 1958.02 491.97 1956.43C491.97 1954.84 490.686 1953.56 489.1 1953.56C487.515 1953.56 486.23 1954.84 486.23 1956.43C486.23 1958.02 487.515 1959.3 489.1 1959.3Z" fill="#0FD5EF"/>
<path d="M478.1 2131.73C479.686 2131.73 480.97 2130.45 480.97 2128.86C480.97 2127.28 479.686 2125.99 478.1 2125.99C476.515 2125.99 475.23 2127.28 475.23 2128.86C475.23 2130.45 476.515 2131.73 478.1 2131.73Z" fill="#0FD5EF"/>
<path d="M452.44 2074.93C454.025 2074.93 455.31 2073.65 455.31 2072.06C455.31 2070.48 454.025 2069.19 452.44 2069.19C450.855 2069.19 449.57 2070.48 449.57 2072.06C449.57 2073.65 450.855 2074.93 452.44 2074.93Z" fill="#0FD5EF"/>
<path d="M454.249 2080.37C455.834 2080.37 457.119 2079.09 457.119 2077.5C457.119 2075.91 455.834 2074.63 454.249 2074.63C452.664 2074.63 451.379 2075.91 451.379 2077.5C451.379 2079.09 452.664 2080.37 454.249 2080.37Z" fill="#0FD5EF"/>
<path d="M481.761 2043.68C483.346 2043.68 484.631 2042.4 484.631 2040.81C484.631 2039.23 483.346 2037.94 481.761 2037.94C480.176 2037.94 478.891 2039.23 478.891 2040.81C478.891 2042.4 480.176 2043.68 481.761 2043.68Z" fill="#0FD5EF"/>
<path d="M503.78 2084.04C505.365 2084.04 506.65 2082.75 506.65 2081.17C506.65 2079.58 505.365 2078.3 503.78 2078.3C502.195 2078.3 500.91 2079.58 500.91 2081.17C500.91 2082.75 502.195 2084.04 503.78 2084.04Z" fill="#0FD5EF"/>
<path d="M445.081 2008.83C446.666 2008.83 447.951 2007.55 447.951 2005.96C447.951 2004.37 446.666 2003.09 445.081 2003.09C443.496 2003.09 442.211 2004.37 442.211 2005.96C442.211 2007.55 443.496 2008.83 445.081 2008.83Z" fill="#0FD5EF"/>
<path d="M415.729 2111.55C417.314 2111.55 418.599 2110.26 418.599 2108.68C418.599 2107.09 417.314 2105.81 415.729 2105.81C414.144 2105.81 412.859 2107.09 412.859 2108.68C412.859 2110.26 414.144 2111.55 415.729 2111.55Z" fill="#0FD5EF"/>
<path d="M232.29 2366.53C233.875 2366.53 235.16 2365.24 235.16 2363.66C235.16 2362.07 233.875 2360.79 232.29 2360.79C230.705 2360.79 229.42 2362.07 229.42 2363.66C229.42 2365.24 230.705 2366.53 232.29 2366.53Z" fill="#0FD5EF"/>
<path d="M245.13 2401.39C246.715 2401.39 248 2400.11 248 2398.52C248 2396.93 246.715 2395.65 245.13 2395.65C243.545 2395.65 242.26 2396.93 242.26 2398.52C242.26 2400.11 243.545 2401.39 245.13 2401.39Z" fill="#0FD5EF"/>
<path d="M303.831 2357.36C305.416 2357.36 306.701 2356.08 306.701 2354.49C306.701 2352.9 305.416 2351.62 303.831 2351.62C302.246 2351.62 300.961 2352.9 300.961 2354.49C300.961 2356.08 302.246 2357.36 303.831 2357.36Z" fill="#0FD5EF"/>
<path d="M296.489 2293.16C298.074 2293.16 299.359 2291.88 299.359 2290.29C299.359 2288.7 298.074 2287.42 296.489 2287.42C294.904 2287.42 293.619 2288.7 293.619 2290.29C293.619 2291.88 294.904 2293.16 296.489 2293.16Z" fill="#0FD5EF"/>
<path d="M828.47 2102.38C830.055 2102.38 831.34 2101.1 831.34 2099.51C831.34 2097.92 830.055 2096.64 828.47 2096.64C826.885 2096.64 825.6 2097.92 825.6 2099.51C825.6 2101.1 826.885 2102.38 828.47 2102.38Z" fill="#0FD5EF"/>
<path d="M830.3 1983.15C831.885 1983.15 833.17 1981.87 833.17 1980.28C833.17 1978.7 831.885 1977.41 830.3 1977.41C828.715 1977.41 827.43 1978.7 827.43 1980.28C827.43 1981.87 828.715 1983.15 830.3 1983.15Z" fill="#0FD5EF"/>
<path d="M839.47 1838.23C841.055 1838.23 842.34 1836.95 842.34 1835.36C842.34 1833.77 841.055 1832.49 839.47 1832.49C837.885 1832.49 836.6 1833.77 836.6 1835.36C836.6 1836.95 837.885 1838.23 839.47 1838.23Z" fill="#0FD5EF"/>
<path d="M905.511 1865.74C907.096 1865.74 908.381 1864.46 908.381 1862.87C908.381 1861.28 907.096 1860 905.511 1860C903.926 1860 902.641 1861.28 902.641 1862.87C902.641 1864.46 903.926 1865.74 905.511 1865.74Z" fill="#0FD5EF"/>
<path d="M1026.58 1832.73C1028.17 1832.73 1029.45 1831.45 1029.45 1829.86C1029.45 1828.27 1028.17 1826.99 1026.58 1826.99C1025 1826.99 1023.71 1828.27 1023.71 1829.86C1023.71 1831.45 1025 1832.73 1026.58 1832.73Z" fill="#0FD5EF"/>
<path d="M1032.08 1849.23C1033.67 1849.23 1034.95 1847.95 1034.95 1846.36C1034.95 1844.77 1033.67 1843.49 1032.08 1843.49C1030.5 1843.49 1029.21 1844.77 1029.21 1846.36C1029.21 1847.95 1030.5 1849.23 1032.08 1849.23Z" fill="#0FD5EF"/>
<path d="M1057.76 1834.56C1059.35 1834.56 1060.63 1833.27 1060.63 1831.69C1060.63 1830.1 1059.35 1828.82 1057.76 1828.82C1056.18 1828.82 1054.89 1830.1 1054.89 1831.69C1054.89 1833.27 1056.18 1834.56 1057.76 1834.56Z" fill="#0FD5EF"/>
<path d="M1281.56 2074.87C1283.14 2074.87 1284.43 2073.59 1284.43 2072C1284.43 2070.41 1283.14 2069.13 1281.56 2069.13C1279.97 2069.13 1278.69 2070.41 1278.69 2072C1278.69 2073.59 1279.97 2074.87 1281.56 2074.87Z" fill="#0FD5EF"/>
<path d="M1290.73 2124.39C1292.31 2124.39 1293.6 2123.11 1293.6 2121.52C1293.6 2119.93 1292.31 2118.65 1290.73 2118.65C1289.14 2118.65 1287.86 2119.93 1287.86 2121.52C1287.86 2123.11 1289.14 2124.39 1290.73 2124.39Z" fill="#0FD5EF"/>
<path d="M1303.57 2106.05C1305.15 2106.05 1306.44 2104.76 1306.44 2103.18C1306.44 2101.59 1305.15 2100.31 1303.57 2100.31C1301.98 2100.31 1300.7 2101.59 1300.7 2103.18C1300.7 2104.76 1301.98 2106.05 1303.57 2106.05Z" fill="#0FD5EF"/>
<path d="M1277.89 2100.55C1279.47 2100.55 1280.76 2099.26 1280.76 2097.68C1280.76 2096.09 1279.47 2094.81 1277.89 2094.81C1276.3 2094.81 1275.02 2096.09 1275.02 2097.68C1275.02 2099.26 1276.3 2100.55 1277.89 2100.55Z" fill="#0FD5EF"/>
<path d="M1092.62 2120.73C1094.21 2120.73 1095.49 2119.45 1095.49 2117.86C1095.49 2116.28 1094.21 2114.99 1092.62 2114.99C1091.03 2114.99 1089.75 2116.28 1089.75 2117.86C1089.75 2119.45 1091.03 2120.73 1092.62 2120.73Z" fill="#0FD5EF"/>
<path d="M1099.96 2144.57C1101.54 2144.57 1102.83 2143.29 1102.83 2141.7C1102.83 2140.11 1101.54 2138.83 1099.96 2138.83C1098.37 2138.83 1097.09 2140.11 1097.09 2141.7C1097.09 2143.29 1098.37 2144.57 1099.96 2144.57Z" fill="#0FD5EF"/>
<path d="M679.88 2377.54C681.465 2377.54 682.75 2376.25 682.75 2374.67C682.75 2373.08 681.465 2371.8 679.88 2371.8C678.295 2371.8 677.01 2373.08 677.01 2374.67C677.01 2376.25 678.295 2377.54 679.88 2377.54Z" fill="#0FD5EF"/>
<path d="M701.89 2293.16C703.475 2293.16 704.76 2291.88 704.76 2290.29C704.76 2288.7 703.475 2287.42 701.89 2287.42C700.304 2287.42 699.02 2288.7 699.02 2290.29C699.02 2291.88 700.304 2293.16 701.89 2293.16Z" fill="#0FD5EF"/>
<path d="M731.241 2392.22C732.826 2392.22 734.111 2390.94 734.111 2389.35C734.111 2387.77 732.826 2386.48 731.241 2386.48C729.656 2386.48 728.371 2387.77 728.371 2389.35C728.371 2390.94 729.656 2392.22 731.241 2392.22Z" fill="#0FD5EF"/>
<path d="M758.761 2362.87C760.346 2362.87 761.631 2361.59 761.631 2360C761.631 2358.41 760.346 2357.13 758.761 2357.13C757.176 2357.13 755.891 2358.41 755.891 2360C755.891 2361.59 757.176 2362.87 758.761 2362.87Z" fill="#0FD5EF"/>
<path d="M685.38 2494.94C686.965 2494.94 688.25 2493.65 688.25 2492.07C688.25 2490.48 686.965 2489.2 685.38 2489.2C683.795 2489.2 682.51 2490.48 682.51 2492.07C682.51 2493.65 683.795 2494.94 685.38 2494.94Z" fill="#0FD5EF"/>
<path d="M692.72 2606.84C694.305 2606.84 695.59 2605.56 695.59 2603.97C695.59 2602.38 694.305 2601.1 692.72 2601.1C691.135 2601.1 689.85 2602.38 689.85 2603.97C689.85 2605.56 691.135 2606.84 692.72 2606.84Z" fill="#0FD5EF"/>
<path d="M1604.41 1946.46C1606 1946.46 1607.28 1945.18 1607.28 1943.59C1607.28 1942 1606 1940.72 1604.41 1940.72C1602.83 1940.72 1601.54 1942 1601.54 1943.59C1601.54 1945.18 1602.83 1946.46 1604.41 1946.46Z" fill="#0FD5EF"/>
<path d="M1600.75 2089.54C1602.34 2089.54 1603.62 2088.25 1603.62 2086.67C1603.62 2085.08 1602.34 2083.8 1600.75 2083.8C1599.17 2083.8 1597.88 2085.08 1597.88 2086.67C1597.88 2088.25 1599.17 2089.54 1600.75 2089.54Z" fill="#0FD5EF"/>
<path d="M1657.61 2023.5C1659.2 2023.5 1660.48 2022.21 1660.48 2020.63C1660.48 2019.04 1659.2 2017.76 1657.61 2017.76C1656.03 2017.76 1654.74 2019.04 1654.74 2020.63C1654.74 2022.21 1656.03 2023.5 1657.61 2023.5Z" fill="#0FD5EF"/>
<path d="M1844.72 1774.02C1846.3 1774.02 1847.59 1772.74 1847.59 1771.15C1847.59 1769.56 1846.3 1768.28 1844.72 1768.28C1843.13 1768.28 1841.85 1769.56 1841.85 1771.15C1841.85 1772.74 1843.13 1774.02 1844.72 1774.02Z" fill="#0FD5EF"/>
<path d="M1870.4 1896.93C1871.98 1896.93 1873.27 1895.65 1873.27 1894.06C1873.27 1892.48 1871.98 1891.19 1870.4 1891.19C1868.81 1891.19 1867.53 1892.48 1867.53 1894.06C1867.53 1895.65 1868.81 1896.93 1870.4 1896.93Z" fill="#0FD5EF"/>
<path d="M1896.08 2005.16C1897.67 2005.16 1898.95 2003.88 1898.95 2002.29C1898.95 2000.7 1897.67 1999.42 1896.08 1999.42C1894.5 1999.42 1893.21 2000.7 1893.21 2002.29C1893.21 2003.88 1894.5 2005.16 1896.08 2005.16Z" fill="#0FD5EF"/>
<path d="M1776.85 2157.41C1778.44 2157.41 1779.72 2156.13 1779.72 2154.54C1779.72 2152.95 1778.44 2151.67 1776.85 2151.67C1775.27 2151.67 1773.98 2152.95 1773.98 2154.54C1773.98 2156.13 1775.27 2157.41 1776.85 2157.41Z" fill="#0FD5EF"/>
<path d="M1795.17 2234.39C1796.76 2234.39 1798.04 2233.11 1798.04 2231.52C1798.04 2229.93 1796.76 2228.65 1795.17 2228.65C1793.59 2228.65 1792.3 2229.93 1792.3 2231.52C1792.3 2233.11 1793.59 2234.39 1795.17 2234.39Z" fill="#0FD5EF"/>
<path d="M1793.36 2228.95C1794.95 2228.95 1796.23 2227.67 1796.23 2226.08C1796.23 2224.5 1794.95 2223.21 1793.36 2223.21C1791.78 2223.21 1790.49 2224.5 1790.49 2226.08C1790.49 2227.67 1791.78 2228.95 1793.36 2228.95Z" fill="#0FD5EF"/>
<path d="M1729.15 2001.49C1730.73 2001.49 1732.02 2000.21 1732.02 1998.62C1732.02 1997.03 1730.73 1995.75 1729.15 1995.75C1727.56 1995.75 1726.28 1997.03 1726.28 1998.62C1726.28 2000.21 1727.56 2001.49 1729.15 2001.49Z" fill="#0FD5EF"/>
<path d="M1580.57 1807.04C1582.15 1807.04 1583.44 1805.76 1583.44 1804.17C1583.44 1802.58 1582.15 1801.3 1580.57 1801.3C1578.98 1801.3 1577.7 1802.58 1577.7 1804.17C1577.7 1805.76 1578.98 1807.04 1580.57 1807.04Z" fill="#0FD5EF"/>
<path d="M1875.9 1401.64C1877.48 1401.64 1878.77 1400.36 1878.77 1398.77C1878.77 1397.18 1877.48 1395.9 1875.9 1395.9C1874.31 1395.9 1873.03 1397.18 1873.03 1398.77C1873.03 1400.36 1874.31 1401.64 1875.9 1401.64Z" fill="#0FD5EF"/>
<path d="M1575.06 1016.42C1576.64 1016.42 1577.93 1015.14 1577.93 1013.55C1577.93 1011.96 1576.64 1010.68 1575.06 1010.68C1573.47 1010.68 1572.19 1011.96 1572.19 1013.55C1572.19 1015.14 1573.47 1016.42 1575.06 1016.42Z" fill="#0FD5EF"/>
<path d="M1584.24 1051.27C1585.83 1051.27 1587.11 1049.99 1587.11 1048.4C1587.11 1046.81 1585.83 1045.53 1584.24 1045.53C1582.66 1045.53 1581.37 1046.81 1581.37 1048.4C1581.37 1049.99 1582.66 1051.27 1584.24 1051.27Z" fill="#0FD5EF"/>
<path d="M1285.23 1139.32C1286.81 1139.32 1288.1 1138.04 1288.1 1136.45C1288.1 1134.86 1286.81 1133.58 1285.23 1133.58C1283.64 1133.58 1282.36 1134.86 1282.36 1136.45C1282.36 1138.04 1283.64 1139.32 1285.23 1139.32Z" fill="#0FD5EF"/>
<path d="M1199.01 1454.84C1200.6 1454.84 1201.88 1453.56 1201.88 1451.97C1201.88 1450.38 1200.6 1449.1 1199.01 1449.1C1197.43 1449.1 1196.14 1450.38 1196.14 1451.97C1196.14 1453.56 1197.43 1454.84 1199.01 1454.84Z" fill="#0FD5EF"/>
<path d="M1153.15 2869.16C1154.73 2869.16 1156.02 2867.88 1156.02 2866.29C1156.02 2864.7 1154.73 2863.42 1153.15 2863.42C1151.56 2863.42 1150.28 2864.7 1150.28 2866.29C1150.28 2867.88 1151.56 2869.16 1153.15 2869.16Z" fill="#0FD5EF"/>
<path d="M1277.2 2866.18C1278.79 2866.18 1280.07 2864.9 1280.07 2863.31C1280.07 2861.73 1278.79 2860.44 1277.2 2860.44C1275.62 2860.44 1274.33 2861.73 1274.33 2863.31C1274.33 2864.9 1275.62 2866.18 1277.2 2866.18Z" fill="#0FD5EF"/>
<path d="M1351.5 2751.3C1353.09 2751.3 1354.37 2750.01 1354.37 2748.43C1354.37 2746.84 1353.09 2745.56 1351.5 2745.56C1349.92 2745.56 1348.63 2746.84 1348.63 2748.43C1348.63 2750.01 1349.92 2751.3 1351.5 2751.3Z" fill="#0FD5EF"/>
<path d="M1434.73 2960.42C1436.31 2960.42 1437.6 2959.13 1437.6 2957.55C1437.6 2955.96 1436.31 2954.68 1434.73 2954.68C1433.14 2954.68 1431.86 2955.96 1431.86 2957.55C1431.86 2959.13 1433.14 2960.42 1434.73 2960.42Z" fill="#0FD5EF"/>
<path d="M1752.54 2939.09C1754.12 2939.09 1755.41 2937.81 1755.41 2936.22C1755.41 2934.63 1754.12 2933.35 1752.54 2933.35C1750.95 2933.35 1749.67 2934.63 1749.67 2936.22C1749.67 2937.81 1750.95 2939.09 1752.54 2939.09Z" fill="#0FD5EF"/>
<path d="M1837.84 2939.09C1839.43 2939.09 1840.71 2937.81 1840.71 2936.22C1840.71 2934.63 1839.43 2933.35 1837.84 2933.35C1836.26 2933.35 1834.97 2934.63 1834.97 2936.22C1834.97 2937.81 1836.26 2939.09 1837.84 2939.09Z" fill="#0FD5EF"/>
<path d="M1921.76 3064.29C1923.35 3064.29 1924.63 3063 1924.63 3061.42C1924.63 3059.83 1923.35 3058.55 1921.76 3058.55C1920.18 3058.55 1918.89 3059.83 1918.89 3061.42C1918.89 3063 1920.18 3064.29 1921.76 3064.29Z" fill="#0FD5EF"/>
<path d="M1877.05 3062.92C1878.63 3062.92 1879.92 3061.63 1879.92 3060.05C1879.92 3058.46 1878.63 3057.18 1877.05 3057.18C1875.46 3057.18 1874.18 3058.46 1874.18 3060.05C1874.18 3061.63 1875.46 3062.92 1877.05 3062.92Z" fill="#0FD5EF"/>
<path d="M1469.82 2644.67C1471.4 2644.67 1472.69 2643.38 1472.69 2641.8C1472.69 2640.21 1471.4 2638.93 1469.82 2638.93C1468.23 2638.93 1466.95 2640.21 1466.95 2641.8C1466.95 2643.38 1468.23 2644.67 1469.82 2644.67Z" fill="#0FD5EF"/>
<path d="M1480.13 2670.13C1481.71 2670.13 1483 2668.84 1483 2667.26C1483 2665.67 1481.71 2664.39 1480.13 2664.39C1478.54 2664.39 1477.26 2665.67 1477.26 2667.26C1477.26 2668.84 1478.54 2670.13 1480.13 2670.13Z" fill="#0FD5EF"/>
<path d="M1755.98 2442.43C1757.56 2442.43 1758.85 2441.15 1758.85 2439.56C1758.85 2437.98 1757.56 2436.69 1755.98 2436.69C1754.39 2436.69 1753.11 2437.98 1753.11 2439.56C1753.11 2441.15 1754.39 2442.43 1755.98 2442.43Z" fill="#0FD5EF"/>
<path d="M1769.05 2458.94C1770.63 2458.94 1771.92 2457.65 1771.92 2456.07C1771.92 2454.48 1770.63 2453.2 1769.05 2453.2C1767.46 2453.2 1766.18 2454.48 1766.18 2456.07C1766.18 2457.65 1767.46 2458.94 1769.05 2458.94Z" fill="#0FD5EF"/>
<path d="M1912.13 2251.2C1913.71 2251.2 1915 2249.92 1915 2248.33C1915 2246.75 1913.71 2245.46 1912.13 2245.46C1910.54 2245.46 1909.26 2246.75 1909.26 2248.33C1909.26 2249.92 1910.54 2251.2 1912.13 2251.2Z" fill="#0FD5EF"/>
<path d="M1874.3 2188.6C1875.88 2188.6 1877.17 2187.32 1877.17 2185.73C1877.17 2184.14 1875.88 2182.86 1874.3 2182.86C1872.71 2182.86 1871.43 2184.14 1871.43 2185.73C1871.43 2187.32 1872.71 2188.6 1874.3 2188.6Z" fill="#0FD5EF"/>
<path d="M1769.05 1797.87C1770.63 1797.87 1771.92 1796.58 1771.92 1795C1771.92 1793.41 1770.63 1792.13 1769.05 1792.13C1767.46 1792.13 1766.18 1793.41 1766.18 1795C1766.18 1796.58 1767.46 1797.87 1769.05 1797.87Z" fill="#0FD5EF"/>
<path d="M1810.33 1662.36C1811.92 1662.36 1813.2 1661.08 1813.2 1659.49C1813.2 1657.9 1811.92 1656.62 1810.33 1656.62C1808.75 1656.62 1807.46 1657.9 1807.46 1659.49C1807.46 1661.08 1808.75 1662.36 1810.33 1662.36Z" fill="#0FD5EF"/>
<path d="M1417.54 1720.14C1419.12 1720.14 1420.41 1718.85 1420.41 1717.27C1420.41 1715.68 1419.12 1714.4 1417.54 1714.4C1415.95 1714.4 1414.67 1715.68 1414.67 1717.27C1414.67 1718.85 1415.95 1720.14 1417.54 1720.14Z" fill="#0FD5EF"/>
<path d="M1403.09 1798.56C1404.68 1798.56 1405.96 1797.27 1405.96 1795.69C1405.96 1794.1 1404.68 1792.82 1403.09 1792.82C1401.51 1792.82 1400.22 1794.1 1400.22 1795.69C1400.22 1797.27 1401.51 1798.56 1403.09 1798.56Z" fill="#0FD5EF"/>
<path d="M1630.1 2297.29C1631.69 2297.29 1632.97 2296 1632.97 2294.42C1632.97 2292.83 1631.69 2291.55 1630.1 2291.55C1628.52 2291.55 1627.23 2292.83 1627.23 2294.42C1627.23 2296 1628.52 2297.29 1630.1 2297.29Z" fill="#0FD5EF"/>
<path d="M1661.74 2287.66C1663.33 2287.66 1664.61 2286.38 1664.61 2284.79C1664.61 2283.2 1663.33 2281.92 1661.74 2281.92C1660.16 2281.92 1658.87 2283.2 1658.87 2284.79C1658.87 2286.38 1660.16 2287.66 1661.74 2287.66Z" fill="#0FD5EF"/>
<path d="M1610.83 2312.42C1612.42 2312.42 1613.7 2311.14 1613.7 2309.55C1613.7 2307.96 1612.42 2306.68 1610.83 2306.68C1609.25 2306.68 1607.96 2307.96 1607.96 2309.55C1607.96 2311.14 1609.25 2312.42 1610.83 2312.42Z" fill="#0FD5EF"/>
<path d="M1442.3 2057.9C1443.88 2057.9 1445.17 2056.62 1445.17 2055.03C1445.17 2053.44 1443.88 2052.16 1442.3 2052.16C1440.71 2052.16 1439.43 2053.44 1439.43 2055.03C1439.43 2056.62 1440.71 2057.9 1442.3 2057.9Z" fill="#0FD5EF"/>
<path d="M1315.73 1993.92C1317.31 1993.92 1318.6 1992.64 1318.6 1991.05C1318.6 1989.47 1317.31 1988.18 1315.73 1988.18C1314.14 1988.18 1312.86 1989.47 1312.86 1991.05C1312.86 1992.64 1314.14 1993.92 1315.73 1993.92Z" fill="#0FD5EF"/>
<path d="M1218.73 2126C1220.31 2126 1221.6 2124.71 1221.6 2123.13C1221.6 2121.54 1220.31 2120.26 1218.73 2120.26C1217.14 2120.26 1215.86 2121.54 1215.86 2123.13C1215.86 2124.71 1217.14 2126 1218.73 2126Z" fill="#0FD5EF"/>
<path d="M1128.62 2216.8C1130.21 2216.8 1131.49 2215.51 1131.49 2213.93C1131.49 2212.34 1130.21 2211.06 1128.62 2211.06C1127.03 2211.06 1125.75 2212.34 1125.75 2213.93C1125.75 2215.51 1127.03 2216.8 1128.62 2216.8Z" fill="#0FD5EF"/>
<path d="M1144.44 2062.02C1146.03 2062.02 1147.31 2060.73 1147.31 2059.15C1147.31 2057.56 1146.03 2056.28 1144.44 2056.28C1142.86 2056.28 1141.57 2057.56 1141.57 2059.15C1141.57 2060.73 1142.86 2062.02 1144.44 2062.02Z" fill="#0FD5EF"/>
<path d="M1284.77 1698.81C1286.36 1698.81 1287.64 1697.52 1287.64 1695.94C1287.64 1694.35 1286.36 1693.07 1284.77 1693.07C1283.19 1693.07 1281.9 1694.35 1281.9 1695.94C1281.9 1697.52 1283.19 1698.81 1284.77 1698.81Z" fill="#0FD5EF"/>
<path d="M1187.78 1458.74C1189.37 1458.74 1190.65 1457.46 1190.65 1455.87C1190.65 1454.28 1189.37 1453 1187.78 1453C1186.2 1453 1184.91 1454.28 1184.91 1455.87C1184.91 1457.46 1186.2 1458.74 1187.78 1458.74Z" fill="#0FD5EF"/>
<path d="M878.911 1454.61C880.496 1454.61 881.781 1453.33 881.781 1451.74C881.781 1450.15 880.496 1448.87 878.911 1448.87C877.326 1448.87 876.041 1450.15 876.041 1451.74C876.041 1453.33 877.326 1454.61 878.911 1454.61Z" fill="#0FD5EF"/>
<path d="M874.78 1414.71C876.365 1414.71 877.65 1413.43 877.65 1411.84C877.65 1410.25 876.365 1408.97 874.78 1408.97C873.195 1408.97 871.91 1410.25 871.91 1411.84C871.91 1413.43 873.195 1414.71 874.78 1414.71Z" fill="#0FD5EF"/>
<path d="M1279.96 1157.44C1281.54 1157.44 1282.83 1156.16 1282.83 1154.57C1282.83 1152.98 1281.54 1151.7 1279.96 1151.7C1278.37 1151.7 1277.09 1152.98 1277.09 1154.57C1277.09 1156.16 1278.37 1157.44 1279.96 1157.44Z" fill="#0FD5EF"/>
<path d="M314.149 1292.95C315.734 1292.95 317.019 1291.67 317.019 1290.08C317.019 1288.49 315.734 1287.21 314.149 1287.21C312.564 1287.21 311.279 1288.49 311.279 1290.08C311.279 1291.67 312.564 1292.95 314.149 1292.95Z" fill="#0FD5EF"/>
<path d="M327.899 1284.01C329.484 1284.01 330.769 1282.73 330.769 1281.14C330.769 1279.55 329.484 1278.27 327.899 1278.27C326.314 1278.27 325.029 1279.55 325.029 1281.14C325.029 1282.73 326.314 1284.01 327.899 1284.01Z" fill="#0FD5EF"/>
<path d="M335.47 1279.2C337.055 1279.2 338.34 1277.92 338.34 1276.33C338.34 1274.74 337.055 1273.46 335.47 1273.46C333.885 1273.46 332.6 1274.74 332.6 1276.33C332.6 1277.92 333.885 1279.2 335.47 1279.2Z" fill="#0FD5EF"/>
<path d="M172.44 1073.52C174.025 1073.52 175.31 1072.24 175.31 1070.65C175.31 1069.06 174.025 1067.78 172.44 1067.78C170.855 1067.78 169.57 1069.06 169.57 1070.65C169.57 1072.24 170.855 1073.52 172.44 1073.52Z" fill="#0FD5EF"/>
<path d="M139.421 1209.03C141.006 1209.03 142.291 1207.75 142.291 1206.16C142.291 1204.57 141.006 1203.29 139.421 1203.29C137.836 1203.29 136.551 1204.57 136.551 1206.16C136.551 1207.75 137.836 1209.03 139.421 1209.03Z" fill="#0FD5EF"/>
<path d="M281.13 1246.18C282.715 1246.18 284 1244.9 284 1243.31C284 1241.73 282.715 1240.44 281.13 1240.44C279.545 1240.44 278.26 1241.73 278.26 1243.31C278.26 1244.9 279.545 1246.18 281.13 1246.18Z" fill="#0FD5EF"/>
<path d="M199.27 1765.54C200.855 1765.54 202.14 1764.26 202.14 1762.67C202.14 1761.08 200.855 1759.8 199.27 1759.8C197.685 1759.8 196.4 1761.08 196.4 1762.67C196.4 1764.26 197.685 1765.54 199.27 1765.54Z" fill="#0FD5EF"/>
<path d="M214.399 1925.13C215.984 1925.13 217.269 1923.85 217.269 1922.26C217.269 1920.68 215.984 1919.39 214.399 1919.39C212.814 1919.39 211.529 1920.68 211.529 1922.26C211.529 1923.85 212.814 1925.13 214.399 1925.13Z" fill="#0FD5EF"/>
<path d="M364.36 2197.54C365.945 2197.54 367.23 2196.25 367.23 2194.67C367.23 2193.08 365.945 2191.8 364.36 2191.8C362.775 2191.8 361.49 2193.08 361.49 2194.67C361.49 2196.25 362.775 2197.54 364.36 2197.54Z" fill="#0FD5EF"/>
<path d="M584.489 2310.36C586.074 2310.36 587.359 2309.08 587.359 2307.49C587.359 2305.9 586.074 2304.62 584.489 2304.62C582.904 2304.62 581.619 2305.9 581.619 2307.49C581.619 2309.08 582.904 2310.36 584.489 2310.36Z" fill="#0FD5EF"/>
<path d="M593.431 2290.41C595.016 2290.41 596.301 2289.13 596.301 2287.54C596.301 2285.95 595.016 2284.67 593.431 2284.67C591.845 2284.67 590.561 2285.95 590.561 2287.54C590.561 2289.13 591.845 2290.41 593.431 2290.41Z" fill="#0FD5EF"/>
<path d="M723.45 2044.83C725.035 2044.83 726.32 2043.55 726.32 2041.96C726.32 2040.37 725.035 2039.09 723.45 2039.09C721.865 2039.09 720.58 2040.37 720.58 2041.96C720.58 2043.55 721.865 2044.83 723.45 2044.83Z" fill="#0FD5EF"/>
<path d="M757.839 1964.34C759.424 1964.34 760.709 1963.06 760.709 1961.47C760.709 1959.89 759.424 1958.6 757.839 1958.6C756.254 1958.6 754.969 1959.89 754.969 1961.47C754.969 1963.06 756.254 1964.34 757.839 1964.34Z" fill="#0FD5EF"/>
<path d="M627.14 1790.99C628.725 1790.99 630.01 1789.71 630.01 1788.12C630.01 1786.53 628.725 1785.25 627.14 1785.25C625.554 1785.25 624.27 1786.53 624.27 1788.12C624.27 1789.71 625.554 1790.99 627.14 1790.99Z" fill="#0FD5EF"/>
<path d="M670.479 1756.6C672.064 1756.6 673.349 1755.31 673.349 1753.73C673.349 1752.14 672.064 1750.86 670.479 1750.86C668.894 1750.86 667.609 1752.14 667.609 1753.73C667.609 1755.31 668.894 1756.6 670.479 1756.6Z" fill="#0FD5EF"/>
<path d="M589.989 2602.02C591.574 2602.02 592.859 2600.73 592.859 2599.15C592.859 2597.56 591.574 2596.28 589.989 2596.28C588.404 2596.28 587.119 2597.56 587.119 2599.15C587.119 2600.73 588.404 2602.02 589.989 2602.02Z" fill="#0FD5EF"/>
<path d="M600.999 2617.16C602.584 2617.16 603.869 2615.88 603.869 2614.29C603.869 2612.7 602.584 2611.42 600.999 2611.42C599.414 2611.42 598.129 2612.7 598.129 2614.29C598.129 2615.88 599.414 2617.16 600.999 2617.16Z" fill="#0FD5EF"/>
<path d="M845.89 2388.78C847.475 2388.78 848.76 2387.49 848.76 2385.91C848.76 2384.32 847.475 2383.04 845.89 2383.04C844.304 2383.04 843.02 2384.32 843.02 2385.91C843.02 2387.49 844.304 2388.78 845.89 2388.78Z" fill="#0FD5EF"/>
<path d="M846.581 2422.48C848.166 2422.48 849.451 2421.19 849.451 2419.61C849.451 2418.02 848.166 2416.74 846.581 2416.74C844.996 2416.74 843.711 2418.02 843.711 2419.61C843.711 2421.19 844.996 2422.48 846.581 2422.48Z" fill="#0FD5EF"/>
<path d="M1232.49 2381.9C1234.08 2381.9 1235.36 2380.61 1235.36 2379.03C1235.36 2377.44 1234.08 2376.16 1232.49 2376.16C1230.91 2376.16 1229.62 2377.44 1229.62 2379.03C1229.62 2380.61 1230.91 2381.9 1232.49 2381.9Z" fill="#0FD5EF"/>
<path d="M1356.31 2674.25C1357.89 2674.25 1359.18 2672.96 1359.18 2671.38C1359.18 2669.79 1357.89 2668.51 1356.31 2668.51C1354.72 2668.51 1353.44 2669.79 1353.44 2671.38C1353.44 2672.96 1354.72 2674.25 1356.31 2674.25Z" fill="#0FD5EF"/>
<path d="M1359.75 2650.18C1361.34 2650.18 1362.62 2648.9 1362.62 2647.31C1362.62 2645.73 1361.34 2644.44 1359.75 2644.44C1358.17 2644.44 1356.88 2645.73 1356.88 2647.31C1356.88 2648.9 1358.17 2650.18 1359.75 2650.18Z" fill="#0FD5EF"/>
<path d="M1267.57 2654.3C1269.15 2654.3 1270.44 2653.01 1270.44 2651.43C1270.44 2649.84 1269.15 2648.56 1267.57 2648.56C1265.98 2648.56 1264.7 2649.84 1264.7 2651.43C1264.7 2653.01 1265.98 2654.3 1267.57 2654.3Z" fill="#0FD5EF"/>
<path d="M1136.87 2527.04C1138.46 2527.04 1139.74 2525.75 1139.74 2524.17C1139.74 2522.58 1138.46 2521.3 1136.87 2521.3C1135.28 2521.3 1134 2522.58 1134 2524.17C1134 2525.75 1135.28 2527.04 1136.87 2527.04Z" fill="#0FD5EF"/>
<path d="M587.239 1307.4C588.824 1307.4 590.109 1306.12 590.109 1304.53C590.109 1302.94 588.824 1301.66 587.239 1301.66C585.654 1301.66 584.369 1302.94 584.369 1304.53C584.369 1306.12 585.654 1307.4 587.239 1307.4Z" fill="#0FD5EF"/>
<path d="M583.8 1320.47C585.385 1320.47 586.67 1319.19 586.67 1317.6C586.67 1316.01 585.385 1314.73 583.8 1314.73C582.215 1314.73 580.93 1316.01 580.93 1317.6C580.93 1319.19 582.215 1320.47 583.8 1320.47Z" fill="#0FD5EF"/>
<path d="M895.421 3007.93C897.006 3007.93 898.291 3006.65 898.291 3005.06C898.291 3003.48 897.006 3002.19 895.421 3002.19C893.836 3002.19 892.551 3003.48 892.551 3005.06C892.551 3006.65 893.836 3007.93 895.421 3007.93Z" fill="#0FD5EF"/>
<path d="M895.421 3011.32C897.006 3011.32 898.291 3010.04 898.291 3008.45C898.291 3006.86 897.006 3005.58 895.421 3005.58C893.836 3005.58 892.551 3006.86 892.551 3008.45C892.551 3010.04 893.836 3011.32 895.421 3011.32Z" fill="#0FD5EF"/>
<path d="M892.671 2906.76C894.256 2906.76 895.541 2905.47 895.541 2903.89C895.541 2902.3 894.256 2901.02 892.671 2901.02C891.086 2901.02 889.801 2902.3 889.801 2903.89C889.801 2905.47 891.086 2906.76 892.671 2906.76Z" fill="#0FD5EF"/>
<path d="M902.761 2760.01C904.346 2760.01 905.631 2758.72 905.631 2757.14C905.631 2755.55 904.346 2754.27 902.761 2754.27C901.176 2754.27 899.891 2755.55 899.891 2757.14C899.891 2758.72 901.176 2760.01 902.761 2760.01Z" fill="#0FD5EF"/>
<path d="M1005.48 2707.73C1007.06 2707.73 1008.35 2706.44 1008.35 2704.86C1008.35 2703.27 1007.06 2701.99 1005.48 2701.99C1003.89 2701.99 1002.61 2703.27 1002.61 2704.86C1002.61 2706.44 1003.89 2707.73 1005.48 2707.73Z" fill="#0FD5EF"/>
<path d="M1059.6 2814.13C1061.19 2814.13 1062.47 2812.84 1062.47 2811.26C1062.47 2809.67 1061.19 2808.39 1059.6 2808.39C1058.02 2808.39 1056.73 2809.67 1056.73 2811.26C1056.73 2812.84 1058.02 2814.13 1059.6 2814.13Z" fill="#0FD5EF"/>
<path d="M841.312 2519.71C842.897 2519.71 844.182 2518.42 844.182 2516.84C844.182 2515.25 842.897 2513.97 841.312 2513.97C839.726 2513.97 838.441 2515.25 838.441 2516.84C838.441 2518.42 839.726 2519.71 841.312 2519.71Z" fill="#0FD5EF"/>
<path d="M1406.3 2280.32C1407.88 2280.32 1409.17 2279.04 1409.17 2277.45C1409.17 2275.86 1407.88 2274.58 1406.3 2274.58C1404.71 2274.58 1403.43 2275.86 1403.43 2277.45C1403.43 2279.04 1404.71 2280.32 1406.3 2280.32Z" fill="#0FD5EF"/>
<path d="M1398.96 2352.78C1400.54 2352.78 1401.83 2351.49 1401.83 2349.91C1401.83 2348.32 1400.54 2347.04 1398.96 2347.04C1397.37 2347.04 1396.09 2348.32 1396.09 2349.91C1396.09 2351.49 1397.37 2352.78 1398.96 2352.78Z" fill="#0FD5EF"/>
<path d="M1346.68 2556.39C1348.27 2556.39 1349.55 2555.11 1349.55 2553.52C1349.55 2551.93 1348.27 2550.65 1346.68 2550.65C1345.1 2550.65 1343.81 2551.93 1343.81 2553.52C1343.81 2555.11 1345.1 2556.39 1346.68 2556.39Z" fill="#0FD5EF"/>
<path d="M1359.52 2547.22C1361.11 2547.22 1362.39 2545.94 1362.39 2544.35C1362.39 2542.77 1361.11 2541.48 1359.52 2541.48C1357.94 2541.48 1356.65 2542.77 1356.65 2544.35C1356.65 2545.94 1357.94 2547.22 1359.52 2547.22Z" fill="#0FD5EF"/>
<path d="M1380.62 2606.84C1382.21 2606.84 1383.49 2605.56 1383.49 2603.97C1383.49 2602.38 1382.21 2601.1 1380.62 2601.1C1379.03 2601.1 1377.75 2602.38 1377.75 2603.97C1377.75 2605.56 1379.03 2606.84 1380.62 2606.84Z" fill="#0FD5EF"/>
<path d="M1269.64 2226.2C1271.22 2226.2 1272.51 2224.92 1272.51 2223.33C1272.51 2221.75 1271.22 2220.46 1269.64 2220.46C1268.05 2220.46 1266.77 2221.75 1266.77 2223.33C1266.77 2224.92 1268.05 2226.2 1269.64 2226.2Z" fill="#0FD5EF"/>
<path d="M1428.31 2120.73C1429.89 2120.73 1431.18 2119.45 1431.18 2117.86C1431.18 2116.28 1429.89 2114.99 1428.31 2114.99C1426.72 2114.99 1425.44 2116.28 1425.44 2117.86C1425.44 2119.45 1426.72 2120.73 1428.31 2120.73Z" fill="#0FD5EF"/>
<path d="M1254.96 1894.18C1256.54 1894.18 1257.83 1892.9 1257.83 1891.31C1257.83 1889.73 1256.54 1888.44 1254.96 1888.44C1253.37 1888.44 1252.09 1889.73 1252.09 1891.31C1252.09 1892.9 1253.37 1894.18 1254.96 1894.18Z" fill="#0FD5EF"/>
<path d="M1295.32 1783.2C1296.9 1783.2 1298.19 1781.92 1298.19 1780.33C1298.19 1778.74 1296.9 1777.46 1295.32 1777.46C1293.73 1777.46 1292.45 1778.74 1292.45 1780.33C1292.45 1781.92 1293.73 1783.2 1295.32 1783.2Z" fill="#0FD5EF"/>
<path d="M1333.84 1918.02C1335.43 1918.02 1336.71 1916.74 1336.71 1915.15C1336.71 1913.56 1335.43 1912.28 1333.84 1912.28C1332.26 1912.28 1330.97 1913.56 1330.97 1915.15C1330.97 1916.74 1332.26 1918.02 1333.84 1918.02Z" fill="#0FD5EF"/>
<path d="M1052.26 1564.9C1053.85 1564.9 1055.13 1563.62 1055.13 1562.03C1055.13 1560.44 1053.85 1559.16 1052.26 1559.16C1050.68 1559.16 1049.39 1560.44 1049.39 1562.03C1049.39 1563.62 1050.68 1564.9 1052.26 1564.9Z" fill="#0FD5EF"/>
<path d="M1065.1 1580.5C1066.69 1580.5 1067.97 1579.22 1067.97 1577.63C1067.97 1576.04 1066.69 1574.76 1065.1 1574.76C1063.52 1574.76 1062.23 1576.04 1062.23 1577.63C1062.23 1579.22 1063.52 1580.5 1065.1 1580.5Z" fill="#0FD5EF"/>
<path d="M876.161 1697.9C877.746 1697.9 879.031 1696.62 879.031 1695.03C879.031 1693.45 877.746 1692.16 876.161 1692.16C874.576 1692.16 873.291 1693.45 873.291 1695.03C873.291 1696.62 874.576 1697.9 876.161 1697.9Z" fill="#0FD5EF"/>
<path d="M882.581 1726.33C884.166 1726.33 885.451 1725.04 885.451 1723.46C885.451 1721.87 884.166 1720.59 882.581 1720.59C880.996 1720.59 879.711 1721.87 879.711 1723.46C879.711 1725.04 880.996 1726.33 882.581 1726.33Z" fill="#0FD5EF"/>
<path d="M419.399 816.47C420.984 816.47 422.269 815.185 422.269 813.6C422.269 812.015 420.984 810.73 419.399 810.73C417.814 810.73 416.529 812.015 416.529 813.6C416.529 815.185 417.814 816.47 419.399 816.47Z" fill="#0FD5EF"/>
<path d="M418.479 799.96C420.064 799.96 421.349 798.675 421.349 797.09C421.349 795.505 420.064 794.22 418.479 794.22C416.894 794.22 415.609 795.505 415.609 797.09C415.609 798.675 416.894 799.96 418.479 799.96Z" fill="#0FD5EF"/>
<path d="M537.71 633.03C539.295 633.03 540.58 631.745 540.58 630.16C540.58 628.575 539.295 627.29 537.71 627.29C536.125 627.29 534.84 628.575 534.84 630.16C534.84 631.745 536.125 633.03 537.71 633.03Z" fill="#0FD5EF"/>
<path d="M549.64 671.55C551.225 671.55 552.51 670.265 552.51 668.68C552.51 667.095 551.225 665.81 549.64 665.81C548.054 665.81 546.77 667.095 546.77 668.68C546.77 670.265 548.054 671.55 549.64 671.55Z" fill="#0FD5EF"/>
<path d="M382.71 420.24C384.295 420.24 385.58 418.955 385.58 417.37C385.58 415.785 384.295 414.5 382.71 414.5C381.125 414.5 379.84 415.785 379.84 417.37C379.84 418.955 381.125 420.24 382.71 420.24Z" fill="#0FD5EF"/>
<path d="M877.081 319.35C878.666 319.35 879.951 318.065 879.951 316.48C879.951 314.895 878.666 313.61 877.081 313.61C875.496 313.61 874.211 314.895 874.211 316.48C874.211 318.065 875.496 319.35 877.081 319.35Z" fill="#0FD5EF"/>
<path d="M919.27 510.13C920.855 510.13 922.14 508.845 922.14 507.26C922.14 505.675 920.855 504.39 919.27 504.39C917.685 504.39 916.4 505.675 916.4 507.26C916.4 508.845 917.685 510.13 919.27 510.13Z" fill="#0FD5EF"/>
<path d="M988.97 470.69C990.555 470.69 991.84 469.405 991.84 467.82C991.84 466.235 990.555 464.95 988.97 464.95C987.385 464.95 986.1 466.235 986.1 467.82C986.1 469.405 987.385 470.69 988.97 470.69Z" fill="#0FD5EF"/>
<path d="M1308.16 336.78C1309.75 336.78 1311.03 335.495 1311.03 333.91C1311.03 332.325 1309.75 331.04 1308.16 331.04C1306.58 331.04 1305.29 332.325 1305.29 333.91C1305.29 335.495 1306.58 336.78 1308.16 336.78Z" fill="#0FD5EF"/>
<path d="M1432.9 547.73C1434.48 547.73 1435.77 546.445 1435.77 544.86C1435.77 543.275 1434.48 541.99 1432.9 541.99C1431.31 541.99 1430.03 543.275 1430.03 544.86C1430.03 546.445 1431.31 547.73 1432.9 547.73Z" fill="#0FD5EF"/>
<path d="M1446.66 514.71C1448.25 514.71 1449.53 513.425 1449.53 511.84C1449.53 510.255 1448.25 508.97 1446.66 508.97C1445.08 508.97 1443.79 510.255 1443.79 511.84C1443.79 513.425 1445.08 514.71 1446.66 514.71Z" fill="#0FD5EF"/>
<path d="M1657.61 323.94C1659.2 323.94 1660.48 322.655 1660.48 321.07C1660.48 319.485 1659.2 318.2 1657.61 318.2C1656.03 318.2 1654.74 319.485 1654.74 321.07C1654.74 322.655 1656.03 323.94 1657.61 323.94Z" fill="#0FD5EF"/>
<path d="M190.1 3067.27C191.686 3067.27 192.97 3065.98 192.97 3064.4C192.97 3062.81 191.686 3061.53 190.1 3061.53C188.515 3061.53 187.23 3062.81 187.23 3064.4C187.23 3065.98 188.515 3067.27 190.1 3067.27Z" fill="#0FD5EF"/>
<path d="M175.421 3014.08C177.006 3014.08 178.291 3012.79 178.291 3011.21C178.291 3009.62 177.006 3008.34 175.421 3008.34C173.836 3008.34 172.551 3009.62 172.551 3011.21C172.551 3012.79 173.836 3014.08 175.421 3014.08Z" fill="#0FD5EF"/>
<path d="M168.081 3047.09C169.666 3047.09 170.951 3045.81 170.951 3044.22C170.951 3042.63 169.666 3041.35 168.081 3041.35C166.496 3041.35 165.211 3042.63 165.211 3044.22C165.211 3045.81 166.496 3047.09 168.081 3047.09Z" fill="#0FD5EF"/>
<path d="M168.081 2685.72C169.666 2685.72 170.951 2684.44 170.951 2682.85C170.951 2681.27 169.666 2679.98 168.081 2679.98C166.496 2679.98 165.211 2681.27 165.211 2682.85C165.211 2684.44 166.496 2685.72 168.081 2685.72Z" fill="#0FD5EF"/>
<path d="M184.589 2715.07C186.174 2715.07 187.459 2713.79 187.459 2712.2C187.459 2710.61 186.174 2709.33 184.589 2709.33C183.004 2709.33 181.719 2710.61 181.719 2712.2C181.719 2713.79 183.004 2715.07 184.589 2715.07Z" fill="#0FD5EF"/>
<path d="M206.61 2683.88C208.195 2683.88 209.48 2682.59 209.48 2681.01C209.48 2679.42 208.195 2678.14 206.61 2678.14C205.025 2678.14 203.74 2679.42 203.74 2681.01C203.74 2682.59 205.025 2683.88 206.61 2683.88Z" fill="#0FD5EF"/>
<path d="M1806.2 3047.09C1807.79 3047.09 1809.07 3045.81 1809.07 3044.22C1809.07 3042.63 1807.79 3041.35 1806.2 3041.35C1804.61 3041.35 1803.33 3042.63 1803.33 3044.22C1803.33 3045.81 1804.61 3047.09 1806.2 3047.09Z" fill="#0FD5EF"/>
<path d="M1918.1 2718.74C1919.69 2718.74 1920.97 2717.46 1920.97 2715.87C1920.97 2714.29 1919.69 2713 1918.1 2713C1916.52 2713 1915.23 2714.29 1915.23 2715.87C1915.23 2717.46 1916.52 2718.74 1918.1 2718.74Z" fill="#0FD5EF"/>
<path d="M1775.01 2639.86C1776.6 2639.86 1777.88 2638.58 1777.88 2636.99C1777.88 2635.4 1776.6 2634.12 1775.01 2634.12C1773.43 2634.12 1772.14 2635.4 1772.14 2636.99C1772.14 2638.58 1773.43 2639.86 1775.01 2639.86Z" fill="#0FD5EF"/>
<path d="M1815.37 2632.52C1816.96 2632.52 1818.24 2631.23 1818.24 2629.65C1818.24 2628.06 1816.96 2626.78 1815.37 2626.78C1813.79 2626.78 1812.5 2628.06 1812.5 2629.65C1812.5 2631.23 1813.79 2632.52 1815.37 2632.52Z" fill="#0FD5EF"/>
<path d="M1850.22 2735.25C1851.8 2735.25 1853.09 2733.96 1853.09 2732.38C1853.09 2730.79 1851.8 2729.51 1850.22 2729.51C1848.63 2729.51 1847.35 2730.79 1847.35 2732.38C1847.35 2733.96 1848.63 2735.25 1850.22 2735.25Z" fill="#0FD5EF"/>
<path d="M1919.93 2526.13C1921.52 2526.13 1922.8 2524.84 1922.8 2523.26C1922.8 2521.67 1921.52 2520.39 1919.93 2520.39C1918.35 2520.39 1917.06 2521.67 1917.06 2523.26C1917.06 2524.84 1918.35 2526.13 1919.93 2526.13Z" fill="#0FD5EF"/>
<path d="M1818.12 1286.99C1819.71 1286.99 1820.99 1285.71 1820.99 1284.12C1820.99 1282.53 1819.71 1281.25 1818.12 1281.25C1816.54 1281.25 1815.25 1282.53 1815.25 1284.12C1815.25 1285.71 1816.54 1286.99 1818.12 1286.99Z" fill="#0FD5EF"/>
<path d="M1860.31 972.39C1861.89 972.39 1863.18 971.105 1863.18 969.52C1863.18 967.935 1861.89 966.65 1860.31 966.65C1858.72 966.65 1857.44 967.935 1857.44 969.52C1857.44 971.105 1858.72 972.39 1860.31 972.39Z" fill="#0FD5EF"/>
<path d="M582.971 1318.17L876.881 1428.31L1187.38 1455.06L1628.96 2293.61" stroke="#0FD5EF" stroke-miterlimit="10"/>
<path d="M1094.68 1882.65L756.291 1963.49L667.331 1753.89L617.801 1739.21" stroke="#0FD5EF" stroke-miterlimit="10"/>
<path d="M585.311 1304.45L875.531 1412.45L1277.97 1153.45L1443.54 1272.65" stroke="#0FD5EF" stroke-miterlimit="10"/>
<path d="M2020.19 1563.08L1808.95 1658.53L1768.28 1796.38L1417.3 1717.17L1403.09 1795L1660.36 2284.04" stroke="#0FD5EF" stroke-miterlimit="10"/>
<path d="M85.5898 2102.14L583.81 2307.07L510.06 2448.39" stroke="#0FD5EF" stroke-miterlimit="10"/>
<path d="M81.2402 1695.84L198.72 1761.07L215.15 1922.65L365.57 2194.14L590.28 2286.78L877.41 2118.95" stroke="#0FD5EF" stroke-miterlimit="10"/>
<path d="M336.461 1275.43L63.8105 898.91" stroke="#0FD5EF" stroke-miterlimit="10"/>
<path d="M327.221 1280L173.581 1070.54L33.7109 1016.3" stroke="#0FD5EF" stroke-miterlimit="10"/>
<path d="M590.281 2598.16L844.361 2385.71L1356.31 2672.56L1477.88 2666.66" stroke="#0FD5EF" stroke-miterlimit="10"/>
<path d="M1232.49 2380.11L1135.03 2524.2L1359.06 2647.59L1466.83 2642.49" stroke="#0FD5EF" stroke-miterlimit="10"/>
<path d="M1639.27 1126.31L2035.5 534.45" stroke="#0FD5EF" stroke-miterlimit="10"/>
<path d="M1643.94 1130.75L1855.73 971.36L2064.85 921.83" stroke="#0FD5EF" stroke-miterlimit="10"/>
<path d="M415.93 1209.67L160.75 883.99L168.08 713.56L41.5098 445.98" stroke="#0FD5EF" stroke-miterlimit="10"/>
<path d="M52.8008 329.32L158.911 44.99L323.781 -48.57" stroke="#0FD5EF" stroke-miterlimit="10"/>
<path d="M516.16 1756.48L626.68 1787.66L721.46 2041.8L896.24 1998.86" stroke="#0FD5EF" stroke-miterlimit="10"/>
<path d="M341.36 2496.29L15.8301 2682.85" stroke="#0FD5EF" stroke-miterlimit="10"/>
<path d="M25 2541.58L348.39 2478.88" stroke="#0FD5EF" stroke-miterlimit="10"/>
<path d="M2067.6 1636.18L1872.24 2188.26L1867.65 2361.4L1757.59 2436.42" stroke="#0FD5EF" stroke-miterlimit="10"/>
<path d="M1768.28 2455.83L1891.71 2377.33L1910.76 2249.01L2175.35 2069.16" stroke="#0FD5EF" stroke-miterlimit="10"/>
<path d="M1730.58 1260.8L1816.43 1282.95L1938.27 1207.73L2052.85 1184.03" stroke="#0FD5EF" stroke-miterlimit="10"/>
<path d="M1144.24 2040.57L1316.41 1991.31L1443.54 2056.12L1609.48 2309.82" stroke="#0FD5EF" stroke-miterlimit="10"/>
<path d="M601 2614.07L845.16 2419.14L1266.84 2651.6L982.85 3092.38" stroke="#0FD5EF" stroke-miterlimit="10"/>
<path d="M1001.03 3092.38L1151.9 2863.59H1276.06L1351.27 2749.8H1415.61" stroke="#0FD5EF" stroke-miterlimit="10"/>
<path d="M1751.78 2935.08H1838.93L1876.82 3060.73H1919.93L2007.06 3437.58" stroke="#0FD5EF" stroke-miterlimit="10"/>
<path d="M314.73 1288.14L281.52 1241.93L139.42 1205.47L-120.6 1410.02" stroke="#0FD5EF" stroke-miterlimit="10"/>
<path d="M1128.62 2211.18L1216.67 2123.37L1144.7 2057.81" stroke="#0FD5EF" stroke-miterlimit="10"/>
<path d="M1768.28 1796.38L1872.24 2188.26" stroke="#0FD5EF" stroke-miterlimit="10"/>
<path d="M1114.63 1882.65L1285.23 1695.93L1172.64 1476.68L879.951 1453.26L876.951 1437.31" stroke="#0FD5EF" stroke-miterlimit="10"/>
<path d="M1224.72 3092.38L1433.44 2953.91L1673.06 3245.56H1930.94L2007.06 3590.87" stroke="#0FD5EF" stroke-miterlimit="10"/>
<path d="M282.701 3073.57H669.061L965.711 3356.32" stroke="#0FD5EF" stroke-miterlimit="10"/>
</g>
<defs>
<linearGradient id="paint0_linear_220_480" x1="947.01" y1="-421.347" x2="955.577" y2="2599.05" gradientUnits="userSpaceOnUse">
<stop stop-color="#10CCE7"/>
<stop offset="0.06" stop-color="#15A7C5"/>
<stop offset="0.11" stop-color="#1987A8"/>
<stop offset="0.16" stop-color="#1D6C8F"/>
<stop offset="0.23" stop-color="#20567B"/>
<stop offset="0.3" stop-color="#23456B"/>
<stop offset="0.39" stop-color="#243960"/>
<stop offset="0.52" stop-color="#25325A"/>
<stop offset="0.88" stop-color="#263159"/>
</linearGradient>
<linearGradient id="paint1_linear_220_480" x1="955.85" y1="-52.9176" x2="959.394" y2="3134.56" gradientUnits="userSpaceOnUse">
<stop offset="0.45" stop-color="#931B80" stop-opacity="0"/>
<stop offset="1" stop-color="#662481"/>
</linearGradient>
<clipPath id="clip0_220_480">
<rect width="2430.63" height="8351.63" fill="white" transform="translate(-255 -49)"/>
</clipPath>
</defs>
</svg>
