<svg width="1920" height="4105" viewBox="0 0 1920 4105" fill="none" xmlns="http://www.w3.org/2000/svg">
<g clip-path="url(#clip0_155_14608)">
<rect width="1920" height="4105" fill="white"/>
<path d="M1920 0H0V5072H1920V0Z" fill="url(#paint0_linear_155_14608)"/>
<g clip-path="url(#clip1_155_14608)">
<path d="M1932 72H12V5213H1932V72Z" fill="url(#paint1_linear_155_14608)"/>
<g opacity="0.4">
<path d="M2041.3 571.721C2042.81 574.336 2044.19 577.029 2045.43 579.75C2047.63 584.536 2049.43 589.498 2050.81 594.622C2051.72 597.998 2052.48 601.425 2053.05 604.939L2053.06 604.95C2068.18 696.546 1968.27 830.152 1808.7 922.278C1628.5 1026.32 1440.51 1038.03 1388.79 948.448C1368.74 913.717 1372.11 868.862 1394.26 820.885C1403.74 800.358 1416.65 779.275 1432.62 758.161C1432.93 757.764 1433.22 757.357 1433.54 756.969C1435.04 754.994 1436.55 753.027 1438.11 751.048C1444.07 743.516 1450.39 735.995 1457.12 728.496C1466.03 718.506 1475.6 708.592 1485.78 698.787C1490.32 694.407 1494.97 690.065 1499.76 685.751C1534.49 654.341 1575.48 624.381 1621.41 597.864L1621.67 597.711C1632.72 591.331 1643.81 585.301 1654.88 579.631L1654.9 579.62C1682.76 565.341 1710.58 553.276 1737.86 543.451C1796.59 522.29 1852.74 511.528 1901.05 511.481L1901.06 511.493C1906.82 511.488 1912.43 511.632 1917.93 511.945C1920.5 512.072 1923.04 512.247 1925.53 512.459C1975.24 516.524 2014.45 533.501 2036.21 563.831C2037.04 564.998 2037.86 566.163 2038.61 567.379C2039.55 568.802 2040.45 570.247 2041.3 571.721Z" stroke="#0FD5EF" stroke-width="4.26432" stroke-miterlimit="10"/>
<path d="M1521.22 900.67L1494.86 855.011L1510.29 846.104C1513.87 844.035 1517.17 842.992 1520.19 842.972C1523.22 842.928 1525.92 843.682 1528.28 845.232C1530.64 846.781 1532.6 848.901 1534.15 851.592C1535.7 854.282 1536.56 857.044 1536.73 859.879C1536.92 862.705 1536.25 865.429 1534.73 868.05C1533.21 870.656 1530.67 872.984 1527.11 875.035L1516.06 881.419L1513.22 876.514L1524.1 870.233C1526.56 868.817 1528.28 867.257 1529.28 865.551C1530.27 863.846 1530.69 862.079 1530.53 860.252C1530.37 858.4 1529.76 856.56 1528.71 854.732C1527.65 852.904 1526.37 851.467 1524.85 850.42C1523.35 849.364 1521.61 848.861 1519.64 848.91C1517.66 848.945 1515.43 849.678 1512.94 851.111L1503.22 856.723L1526.75 897.478L1521.22 900.67ZM1586.19 863.163L1559.83 817.504L1575.25 808.597C1578.82 806.537 1582.1 805.456 1585.09 805.353C1588.08 805.236 1590.73 805.915 1593.05 807.39C1595.37 808.866 1597.3 810.949 1598.86 813.639C1600.41 816.329 1601.24 819.032 1601.34 821.748C1601.44 824.464 1600.7 827.073 1599.11 829.575C1597.51 832.062 1594.95 834.326 1591.41 836.369L1578.92 843.577L1576.04 838.583L1588.35 831.478C1590.78 830.07 1592.54 828.581 1593.61 827.009C1594.7 825.429 1595.2 823.792 1595.12 822.098C1595.04 820.381 1594.47 818.608 1593.42 816.78C1592.36 814.951 1591.1 813.551 1589.62 812.578C1588.15 811.606 1586.45 811.181 1584.52 811.305C1582.58 811.413 1580.38 812.18 1577.91 813.604L1568.19 819.216L1591.72 859.971L1586.19 863.163ZM1595.84 830.244L1618.92 844.267L1612.5 847.974L1589.6 833.848L1595.84 830.244ZM1651.46 825.479L1625.1 779.82L1652.65 763.911L1655.49 768.815L1633.46 781.533L1642.37 796.96L1662.97 785.067L1665.8 789.972L1645.2 801.865L1654.16 817.382L1676.54 804.459L1679.37 809.364L1651.46 825.479ZM1719.29 740.657C1717.72 738.552 1715.62 737.425 1713 737.274C1710.38 737.124 1707.68 737.847 1704.92 739.443C1702.9 740.61 1701.32 741.959 1700.18 743.488C1699.05 745.008 1698.4 746.586 1698.21 748.219C1698.04 749.844 1698.38 751.385 1699.22 752.842C1699.92 754.06 1700.81 754.941 1701.9 755.483C1702.99 756.002 1704.17 756.285 1705.42 756.333C1706.67 756.365 1707.91 756.276 1709.13 756.064C1710.35 755.837 1711.45 755.591 1712.42 755.324L1717.78 753.896C1719.15 753.521 1720.72 753.189 1722.49 752.898C1724.28 752.598 1726.12 752.538 1728.01 752.717C1729.9 752.872 1731.71 753.432 1733.44 754.397C1735.16 755.363 1736.64 756.915 1737.88 759.056C1739.31 761.523 1739.95 764.126 1739.8 766.864C1739.67 769.593 1738.72 772.258 1736.93 774.856C1735.15 777.446 1732.51 779.754 1729 781.779C1725.73 783.667 1722.6 784.774 1719.59 785.1C1716.61 785.418 1713.89 785.028 1711.43 783.93C1708.99 782.823 1706.95 781.073 1705.33 778.678L1711.04 775.383C1712.19 777.022 1713.59 778.114 1715.25 778.66C1716.92 779.183 1718.69 779.268 1720.57 778.917C1722.46 778.543 1724.31 777.832 1726.12 776.785C1728.23 775.567 1729.93 774.131 1731.21 772.477C1732.49 770.809 1733.26 769.075 1733.53 767.275C1733.79 765.46 1733.44 763.72 1732.48 762.056C1731.6 760.54 1730.47 759.551 1729.07 759.088C1727.67 758.626 1726.11 758.497 1724.39 758.701C1722.66 758.904 1720.87 759.246 1719.01 759.727L1712.46 761.366C1708.3 762.4 1704.63 762.566 1701.45 761.865C1698.27 761.164 1695.8 759.275 1694.02 756.198C1692.54 753.642 1691.95 751.013 1692.23 748.313C1692.52 745.589 1693.54 743.021 1695.28 740.61C1697.02 738.176 1699.35 736.118 1702.26 734.436C1705.21 732.737 1708.13 731.754 1711.03 731.488C1713.91 731.207 1716.55 731.587 1718.94 732.628C1721.34 733.66 1723.24 735.307 1724.64 737.567L1719.29 740.657ZM1781.11 750.623L1775.32 753.97L1765.72 698.631L1771.43 695.336L1814.55 731.315L1808.76 734.662L1772.92 704.104L1772.57 704.31L1781.11 750.623ZM1772.96 731.552L1796.32 718.062L1799.15 722.967L1775.79 736.456L1772.96 731.552ZM1846.78 712.711L1820.42 667.052L1825.95 663.859L1849.48 704.614L1870.7 692.36L1873.53 697.265L1846.78 712.711ZM1907.21 677.823L1880.84 632.164L1908.4 616.255L1911.23 621.159L1889.21 633.877L1898.11 649.304L1918.71 637.411L1921.54 642.316L1900.94 654.209L1909.9 669.726L1932.29 656.803L1935.12 661.708L1907.21 677.823Z" fill="#0FD5EF"/>
<line x1="1473.33" y1="829.718" x2="1890.64" y2="588.784" stroke="#0FD5EF" stroke-width="4.26432"/>
<line x1="1531.61" y1="930.661" x2="1948.92" y2="689.727" stroke="#0FD5EF" stroke-width="4.26432"/>
</g>
</g>
<g clip-path="url(#clip2_155_14608)">
<path d="M1893.02 2130.29C2044.05 2130.29 2166.48 2007.86 2166.48 1856.83C2166.48 1705.8 2044.05 1583.37 1893.02 1583.37C1741.99 1583.37 1619.56 1705.8 1619.56 1856.83C1619.56 2007.86 1741.99 2130.29 1893.02 2130.29Z" fill="url(#paint2_radial_155_14608)"/>
<path d="M196.41 4839.95C440.746 4839.95 638.82 4641.88 638.82 4397.54C638.82 4153.2 440.746 3955.13 196.41 3955.13C-47.9263 3955.13 -246 4153.2 -246 4397.54C-246 4641.88 -47.9263 4839.95 196.41 4839.95Z" fill="url(#paint3_radial_155_14608)"/>
<path opacity="0.54" d="M679.14 1333.12C812.826 1333.12 921.2 1224.75 921.2 1091.06C921.2 957.374 812.826 849 679.14 849C545.454 849 437.08 957.374 437.08 1091.06C437.08 1224.75 545.454 1333.12 679.14 1333.12Z" fill="url(#paint4_radial_155_14608)"/>
</g>
<g clip-path="url(#clip3_155_14608)">
<path d="M482.11 915.408C483.695 915.408 484.98 914.123 484.98 912.538C484.98 910.953 483.695 909.668 482.11 909.668C480.525 909.668 479.24 910.953 479.24 912.538C479.24 914.123 480.525 915.408 482.11 915.408Z" fill="#0FD5EF"/>
<path d="M532.899 1000.6C534.484 1000.6 535.769 999.314 535.769 997.729C535.769 996.144 534.484 994.859 532.899 994.859C531.314 994.859 530.029 996.144 530.029 997.729C530.029 999.314 531.314 1000.6 532.899 1000.6Z" fill="#0FD5EF"/>
<path d="M555.6 1093.46C557.186 1093.46 558.47 1092.17 558.47 1090.59C558.47 1089 557.186 1087.72 555.6 1087.72C554.015 1087.72 552.73 1089 552.73 1090.59C552.73 1092.17 554.015 1093.46 555.6 1093.46Z" fill="#0FD5EF"/>
<path d="M569.36 1149.18C570.945 1149.18 572.23 1147.89 572.23 1146.31C572.23 1144.72 570.945 1143.44 569.36 1143.44C567.775 1143.44 566.49 1144.72 566.49 1146.31C566.49 1147.89 567.775 1149.18 569.36 1149.18Z" fill="#0FD5EF"/>
<path d="M620.261 1173.26C621.846 1173.26 623.131 1171.97 623.131 1170.39C623.131 1168.8 621.846 1167.52 620.261 1167.52C618.676 1167.52 617.391 1168.8 617.391 1170.39C617.391 1171.97 618.676 1173.26 620.261 1173.26Z" fill="#0FD5EF"/>
<path d="M626.45 1124.42C628.035 1124.42 629.32 1123.13 629.32 1121.55C629.32 1119.96 628.035 1118.68 626.45 1118.68C624.865 1118.68 623.58 1119.96 623.58 1121.55C623.58 1123.13 624.865 1124.42 626.45 1124.42Z" fill="#0FD5EF"/>
<path d="M239.62 1317.26C241.205 1317.26 242.49 1315.97 242.49 1314.39C242.49 1312.8 241.205 1311.52 239.62 1311.52C238.035 1311.52 236.75 1312.8 236.75 1314.39C236.75 1315.97 238.035 1317.26 239.62 1317.26Z" fill="#0FD5EF"/>
<path d="M261.64 1377.8C263.225 1377.8 264.51 1376.51 264.51 1374.93C264.51 1373.34 263.225 1372.06 261.64 1372.06C260.054 1372.06 258.77 1373.34 258.77 1374.93C258.77 1376.51 260.054 1377.8 261.64 1377.8Z" fill="#0FD5EF"/>
<path d="M171.751 1284.24C173.336 1284.24 174.621 1282.96 174.621 1281.37C174.621 1279.78 173.336 1278.5 171.751 1278.5C170.166 1278.5 168.881 1279.78 168.881 1281.37C168.881 1282.96 170.166 1284.24 171.751 1284.24Z" fill="#0FD5EF"/>
<path d="M756.921 1623.6C758.506 1623.6 759.791 1622.31 759.791 1620.73C759.791 1619.14 758.506 1617.86 756.921 1617.86C755.336 1617.86 754.051 1619.14 754.051 1620.73C754.051 1622.31 755.336 1623.6 756.921 1623.6Z" fill="#0FD5EF"/>
<path d="M756.921 1513.54C758.506 1513.54 759.791 1512.26 759.791 1510.67C759.791 1509.09 758.506 1507.8 756.921 1507.8C755.336 1507.8 754.051 1509.09 754.051 1510.67C754.051 1512.26 755.336 1513.54 756.921 1513.54Z" fill="#0FD5EF"/>
<path d="M1208.18 1324.6C1209.77 1324.6 1211.05 1323.31 1211.05 1321.73C1211.05 1320.14 1209.77 1318.86 1208.18 1318.86C1206.6 1318.86 1205.31 1320.14 1205.31 1321.73C1205.31 1323.31 1206.6 1324.6 1208.18 1324.6Z" fill="#0FD5EF"/>
<path d="M1288.9 1445.67C1290.48 1445.67 1291.77 1444.38 1291.77 1442.8C1291.77 1441.21 1290.48 1439.93 1288.9 1439.93C1287.31 1439.93 1286.03 1441.21 1286.03 1442.8C1286.03 1444.38 1287.31 1445.67 1288.9 1445.67Z" fill="#0FD5EF"/>
<path d="M1334.76 1342.94C1336.35 1342.94 1337.63 1341.65 1337.63 1340.07C1337.63 1338.48 1336.35 1337.2 1334.76 1337.2C1333.18 1337.2 1331.89 1338.48 1331.89 1340.07C1331.89 1341.65 1333.18 1342.94 1334.76 1342.94Z" fill="#0FD5EF"/>
<path d="M1569.56 601.849C1571.14 601.849 1572.43 600.564 1572.43 598.979C1572.43 597.394 1571.14 596.109 1569.56 596.109C1567.97 596.109 1566.69 597.394 1566.69 598.979C1566.69 600.564 1567.97 601.849 1569.56 601.849Z" fill="#0FD5EF"/>
<path d="M1591.57 906.359C1593.15 906.359 1594.44 905.074 1594.44 903.489C1594.44 901.904 1593.15 900.619 1591.57 900.619C1589.98 900.619 1588.7 901.904 1588.7 903.489C1588.7 905.074 1589.98 906.359 1591.57 906.359Z" fill="#0FD5EF"/>
<path d="M1714.48 774.279C1716.06 774.279 1717.35 772.994 1717.35 771.409C1717.35 769.824 1716.06 768.539 1714.48 768.539C1712.89 768.539 1711.61 769.824 1711.61 771.409C1711.61 772.994 1712.89 774.279 1714.48 774.279Z" fill="#0FD5EF"/>
<path d="M1817.2 611.019C1818.79 611.019 1820.07 609.734 1820.07 608.149C1820.07 606.564 1818.79 605.279 1817.2 605.279C1815.61 605.279 1814.33 606.564 1814.33 608.149C1814.33 609.734 1815.61 611.019 1817.2 611.019Z" fill="#0FD5EF"/>
<path d="M274.479 618.359C276.064 618.359 277.349 617.074 277.349 615.489C277.349 613.904 276.064 612.619 274.479 612.619C272.894 612.619 271.609 613.904 271.609 615.489C271.609 617.074 272.894 618.359 274.479 618.359Z" fill="#0FD5EF"/>
<path d="M309.331 911.859C310.916 911.859 312.201 910.574 312.201 908.989C312.201 907.404 310.916 906.119 309.331 906.119C307.746 906.119 306.461 907.404 306.461 908.989C306.461 910.574 307.746 911.859 309.331 911.859Z" fill="#0FD5EF"/>
<path d="M116.72 777.949C118.305 777.949 119.59 776.664 119.59 775.079C119.59 773.494 118.305 772.209 116.72 772.209C115.135 772.209 113.85 773.494 113.85 775.079C113.85 776.664 115.135 777.949 116.72 777.949Z" fill="#0FD5EF"/>
<path d="M153.411 963.22C154.996 963.22 156.281 961.936 156.281 960.35C156.281 958.765 154.996 957.48 153.411 957.48C151.826 957.48 150.541 958.765 150.541 960.35C150.541 961.936 151.826 963.22 153.411 963.22Z" fill="#0FD5EF"/>
<path d="M489.1 1959.3C490.686 1959.3 491.97 1958.01 491.97 1956.43C491.97 1954.84 490.686 1953.56 489.1 1953.56C487.515 1953.56 486.23 1954.84 486.23 1956.43C486.23 1958.01 487.515 1959.3 489.1 1959.3Z" fill="#0FD5EF"/>
<path d="M478.1 2131.73C479.686 2131.73 480.97 2130.45 480.97 2128.86C480.97 2127.28 479.686 2125.99 478.1 2125.99C476.515 2125.99 475.23 2127.28 475.23 2128.86C475.23 2130.45 476.515 2131.73 478.1 2131.73Z" fill="#0FD5EF"/>
<path d="M452.44 2074.93C454.025 2074.93 455.31 2073.64 455.31 2072.06C455.31 2070.47 454.025 2069.19 452.44 2069.19C450.855 2069.19 449.57 2070.47 449.57 2072.06C449.57 2073.64 450.855 2074.93 452.44 2074.93Z" fill="#0FD5EF"/>
<path d="M454.249 2080.37C455.834 2080.37 457.119 2079.08 457.119 2077.5C457.119 2075.91 455.834 2074.63 454.249 2074.63C452.664 2074.63 451.379 2075.91 451.379 2077.5C451.379 2079.08 452.664 2080.37 454.249 2080.37Z" fill="#0FD5EF"/>
<path d="M481.761 2043.68C483.346 2043.68 484.631 2042.39 484.631 2040.81C484.631 2039.22 483.346 2037.94 481.761 2037.94C480.176 2037.94 478.891 2039.22 478.891 2040.81C478.891 2042.39 480.176 2043.68 481.761 2043.68Z" fill="#0FD5EF"/>
<path d="M503.78 2084.04C505.365 2084.04 506.65 2082.75 506.65 2081.17C506.65 2079.58 505.365 2078.3 503.78 2078.3C502.195 2078.3 500.91 2079.58 500.91 2081.17C500.91 2082.75 502.195 2084.04 503.78 2084.04Z" fill="#0FD5EF"/>
<path d="M445.081 2008.83C446.666 2008.83 447.951 2007.54 447.951 2005.96C447.951 2004.37 446.666 2003.09 445.081 2003.09C443.496 2003.09 442.211 2004.37 442.211 2005.96C442.211 2007.54 443.496 2008.83 445.081 2008.83Z" fill="#0FD5EF"/>
<path d="M415.729 2111.55C417.314 2111.55 418.599 2110.26 418.599 2108.68C418.599 2107.09 417.314 2105.81 415.729 2105.81C414.144 2105.81 412.859 2107.09 412.859 2108.68C412.859 2110.26 414.144 2111.55 415.729 2111.55Z" fill="#0FD5EF"/>
<path d="M232.29 2366.53C233.875 2366.53 235.16 2365.24 235.16 2363.66C235.16 2362.07 233.875 2360.79 232.29 2360.79C230.705 2360.79 229.42 2362.07 229.42 2363.66C229.42 2365.24 230.705 2366.53 232.29 2366.53Z" fill="#0FD5EF"/>
<path d="M245.13 2401.39C246.715 2401.39 248 2400.1 248 2398.52C248 2396.93 246.715 2395.65 245.13 2395.65C243.545 2395.65 242.26 2396.93 242.26 2398.52C242.26 2400.1 243.545 2401.39 245.13 2401.39Z" fill="#0FD5EF"/>
<path d="M303.831 2357.36C305.416 2357.36 306.701 2356.07 306.701 2354.49C306.701 2352.9 305.416 2351.62 303.831 2351.62C302.246 2351.62 300.961 2352.9 300.961 2354.49C300.961 2356.07 302.246 2357.36 303.831 2357.36Z" fill="#0FD5EF"/>
<path d="M296.489 2293.16C298.074 2293.16 299.359 2291.87 299.359 2290.29C299.359 2288.7 298.074 2287.42 296.489 2287.42C294.904 2287.42 293.619 2288.7 293.619 2290.29C293.619 2291.87 294.904 2293.16 296.489 2293.16Z" fill="#0FD5EF"/>
<path d="M828.47 2102.38C830.055 2102.38 831.34 2101.09 831.34 2099.51C831.34 2097.92 830.055 2096.64 828.47 2096.64C826.885 2096.64 825.6 2097.92 825.6 2099.51C825.6 2101.09 826.885 2102.38 828.47 2102.38Z" fill="#0FD5EF"/>
<path d="M830.3 1983.15C831.885 1983.15 833.17 1981.87 833.17 1980.28C833.17 1978.7 831.885 1977.41 830.3 1977.41C828.715 1977.41 827.43 1978.7 827.43 1980.28C827.43 1981.87 828.715 1983.15 830.3 1983.15Z" fill="#0FD5EF"/>
<path d="M839.47 1838.23C841.055 1838.23 842.34 1836.95 842.34 1835.36C842.34 1833.78 841.055 1832.49 839.47 1832.49C837.885 1832.49 836.6 1833.78 836.6 1835.36C836.6 1836.95 837.885 1838.23 839.47 1838.23Z" fill="#0FD5EF"/>
<path d="M905.511 1865.74C907.096 1865.74 908.381 1864.46 908.381 1862.87C908.381 1861.28 907.096 1860 905.511 1860C903.926 1860 902.641 1861.28 902.641 1862.87C902.641 1864.46 903.926 1865.74 905.511 1865.74Z" fill="#0FD5EF"/>
<path d="M1026.58 1832.73C1028.17 1832.73 1029.45 1831.44 1029.45 1829.86C1029.45 1828.27 1028.17 1826.99 1026.58 1826.99C1025 1826.99 1023.71 1828.27 1023.71 1829.86C1023.71 1831.44 1025 1832.73 1026.58 1832.73Z" fill="#0FD5EF"/>
<path d="M1032.08 1849.23C1033.67 1849.23 1034.95 1847.94 1034.95 1846.36C1034.95 1844.77 1033.67 1843.49 1032.08 1843.49C1030.5 1843.49 1029.21 1844.77 1029.21 1846.36C1029.21 1847.94 1030.5 1849.23 1032.08 1849.23Z" fill="#0FD5EF"/>
<path d="M1057.76 1834.56C1059.35 1834.56 1060.63 1833.27 1060.63 1831.69C1060.63 1830.1 1059.35 1828.82 1057.76 1828.82C1056.18 1828.82 1054.89 1830.1 1054.89 1831.69C1054.89 1833.27 1056.18 1834.56 1057.76 1834.56Z" fill="#0FD5EF"/>
<path d="M1281.56 2074.87C1283.14 2074.87 1284.43 2073.58 1284.43 2072C1284.43 2070.41 1283.14 2069.13 1281.56 2069.13C1279.97 2069.13 1278.69 2070.41 1278.69 2072C1278.69 2073.58 1279.97 2074.87 1281.56 2074.87Z" fill="#0FD5EF"/>
<path d="M1290.73 2124.39C1292.31 2124.39 1293.6 2123.1 1293.6 2121.52C1293.6 2119.93 1292.31 2118.65 1290.73 2118.65C1289.14 2118.65 1287.86 2119.93 1287.86 2121.52C1287.86 2123.1 1289.14 2124.39 1290.73 2124.39Z" fill="#0FD5EF"/>
<path d="M1303.57 2106.05C1305.15 2106.05 1306.44 2104.76 1306.44 2103.18C1306.44 2101.59 1305.15 2100.31 1303.57 2100.31C1301.98 2100.31 1300.7 2101.59 1300.7 2103.18C1300.7 2104.76 1301.98 2106.05 1303.57 2106.05Z" fill="#0FD5EF"/>
<path d="M1277.89 2100.55C1279.47 2100.55 1280.76 2099.26 1280.76 2097.68C1280.76 2096.09 1279.47 2094.81 1277.89 2094.81C1276.3 2094.81 1275.02 2096.09 1275.02 2097.68C1275.02 2099.26 1276.3 2100.55 1277.89 2100.55Z" fill="#0FD5EF"/>
<path d="M1092.62 2120.73C1094.21 2120.73 1095.49 2119.45 1095.49 2117.86C1095.49 2116.28 1094.21 2114.99 1092.62 2114.99C1091.03 2114.99 1089.75 2116.28 1089.75 2117.86C1089.75 2119.45 1091.03 2120.73 1092.62 2120.73Z" fill="#0FD5EF"/>
<path d="M1099.96 2144.57C1101.54 2144.57 1102.83 2143.29 1102.83 2141.7C1102.83 2140.11 1101.54 2138.83 1099.96 2138.83C1098.37 2138.83 1097.09 2140.11 1097.09 2141.7C1097.09 2143.29 1098.37 2144.57 1099.96 2144.57Z" fill="#0FD5EF"/>
<path d="M679.88 2377.54C681.465 2377.54 682.75 2376.25 682.75 2374.67C682.75 2373.08 681.465 2371.8 679.88 2371.8C678.295 2371.8 677.01 2373.08 677.01 2374.67C677.01 2376.25 678.295 2377.54 679.88 2377.54Z" fill="#0FD5EF"/>
<path d="M701.89 2293.16C703.475 2293.16 704.76 2291.87 704.76 2290.29C704.76 2288.7 703.475 2287.42 701.89 2287.42C700.304 2287.42 699.02 2288.7 699.02 2290.29C699.02 2291.87 700.304 2293.16 701.89 2293.16Z" fill="#0FD5EF"/>
<path d="M731.241 2392.22C732.826 2392.22 734.111 2390.94 734.111 2389.35C734.111 2387.77 732.826 2386.48 731.241 2386.48C729.656 2386.48 728.371 2387.77 728.371 2389.35C728.371 2390.94 729.656 2392.22 731.241 2392.22Z" fill="#0FD5EF"/>
<path d="M758.761 2362.87C760.346 2362.87 761.631 2361.58 761.631 2360C761.631 2358.41 760.346 2357.13 758.761 2357.13C757.176 2357.13 755.891 2358.41 755.891 2360C755.891 2361.58 757.176 2362.87 758.761 2362.87Z" fill="#0FD5EF"/>
<path d="M685.38 2494.94C686.965 2494.94 688.25 2493.65 688.25 2492.07C688.25 2490.48 686.965 2489.2 685.38 2489.2C683.795 2489.2 682.51 2490.48 682.51 2492.07C682.51 2493.65 683.795 2494.94 685.38 2494.94Z" fill="#0FD5EF"/>
<path d="M692.72 2606.84C694.305 2606.84 695.59 2605.56 695.59 2603.97C695.59 2602.39 694.305 2601.1 692.72 2601.1C691.135 2601.1 689.85 2602.39 689.85 2603.97C689.85 2605.56 691.135 2606.84 692.72 2606.84Z" fill="#0FD5EF"/>
<path d="M1604.41 1946.46C1606 1946.46 1607.28 1945.17 1607.28 1943.59C1607.28 1942 1606 1940.72 1604.41 1940.72C1602.83 1940.72 1601.54 1942 1601.54 1943.59C1601.54 1945.17 1602.83 1946.46 1604.41 1946.46Z" fill="#0FD5EF"/>
<path d="M1600.75 2089.54C1602.34 2089.54 1603.62 2088.26 1603.62 2086.67C1603.62 2085.09 1602.34 2083.8 1600.75 2083.8C1599.17 2083.8 1597.88 2085.09 1597.88 2086.67C1597.88 2088.26 1599.17 2089.54 1600.75 2089.54Z" fill="#0FD5EF"/>
<path d="M1657.61 2023.5C1659.2 2023.5 1660.48 2022.21 1660.48 2020.63C1660.48 2019.04 1659.2 2017.76 1657.61 2017.76C1656.03 2017.76 1654.74 2019.04 1654.74 2020.63C1654.74 2022.21 1656.03 2023.5 1657.61 2023.5Z" fill="#0FD5EF"/>
<path d="M1844.72 1774.02C1846.3 1774.02 1847.59 1772.73 1847.59 1771.15C1847.59 1769.56 1846.3 1768.28 1844.72 1768.28C1843.13 1768.28 1841.85 1769.56 1841.85 1771.15C1841.85 1772.73 1843.13 1774.02 1844.72 1774.02Z" fill="#0FD5EF"/>
<path d="M1870.4 1896.93C1871.98 1896.93 1873.27 1895.64 1873.27 1894.06C1873.27 1892.47 1871.98 1891.19 1870.4 1891.19C1868.81 1891.19 1867.53 1892.47 1867.53 1894.06C1867.53 1895.64 1868.81 1896.93 1870.4 1896.93Z" fill="#0FD5EF"/>
<path d="M1896.08 2005.16C1897.67 2005.16 1898.95 2003.87 1898.95 2002.29C1898.95 2000.7 1897.67 1999.42 1896.08 1999.42C1894.5 1999.42 1893.21 2000.7 1893.21 2002.29C1893.21 2003.87 1894.5 2005.16 1896.08 2005.16Z" fill="#0FD5EF"/>
<path d="M1776.85 2157.41C1778.44 2157.41 1779.72 2156.13 1779.72 2154.54C1779.72 2152.95 1778.44 2151.67 1776.85 2151.67C1775.27 2151.67 1773.98 2152.95 1773.98 2154.54C1773.98 2156.13 1775.27 2157.41 1776.85 2157.41Z" fill="#0FD5EF"/>
<path d="M1795.17 2234.39C1796.76 2234.39 1798.04 2233.1 1798.04 2231.52C1798.04 2229.93 1796.76 2228.65 1795.17 2228.65C1793.59 2228.65 1792.3 2229.93 1792.3 2231.52C1792.3 2233.1 1793.59 2234.39 1795.17 2234.39Z" fill="#0FD5EF"/>
<path d="M1793.36 2228.95C1794.95 2228.95 1796.23 2227.66 1796.23 2226.08C1796.23 2224.49 1794.95 2223.21 1793.36 2223.21C1791.78 2223.21 1790.49 2224.49 1790.49 2226.08C1790.49 2227.66 1791.78 2228.95 1793.36 2228.95Z" fill="#0FD5EF"/>
<path d="M1729.15 2001.49C1730.73 2001.49 1732.02 2000.21 1732.02 1998.62C1732.02 1997.03 1730.73 1995.75 1729.15 1995.75C1727.56 1995.75 1726.28 1997.03 1726.28 1998.62C1726.28 2000.21 1727.56 2001.49 1729.15 2001.49Z" fill="#0FD5EF"/>
<path d="M1580.57 1807.04C1582.15 1807.04 1583.44 1805.76 1583.44 1804.17C1583.44 1802.59 1582.15 1801.3 1580.57 1801.3C1578.98 1801.3 1577.7 1802.59 1577.7 1804.17C1577.7 1805.76 1578.98 1807.04 1580.57 1807.04Z" fill="#0FD5EF"/>
<path d="M1875.9 1401.64C1877.48 1401.64 1878.77 1400.35 1878.77 1398.77C1878.77 1397.18 1877.48 1395.9 1875.9 1395.9C1874.31 1395.9 1873.03 1397.18 1873.03 1398.77C1873.03 1400.35 1874.31 1401.64 1875.9 1401.64Z" fill="#0FD5EF"/>
<path d="M1575.06 1016.42C1576.64 1016.42 1577.93 1015.13 1577.93 1013.55C1577.93 1011.96 1576.64 1010.68 1575.06 1010.68C1573.47 1010.68 1572.19 1011.96 1572.19 1013.55C1572.19 1015.13 1573.47 1016.42 1575.06 1016.42Z" fill="#0FD5EF"/>
<path d="M1584.24 1051.27C1585.83 1051.27 1587.11 1049.98 1587.11 1048.4C1587.11 1046.81 1585.83 1045.53 1584.24 1045.53C1582.66 1045.53 1581.37 1046.81 1581.37 1048.4C1581.37 1049.98 1582.66 1051.27 1584.24 1051.27Z" fill="#0FD5EF"/>
<path d="M1285.23 1139.32C1286.81 1139.32 1288.1 1138.03 1288.1 1136.45C1288.1 1134.86 1286.81 1133.58 1285.23 1133.58C1283.64 1133.58 1282.36 1134.86 1282.36 1136.45C1282.36 1138.03 1283.64 1139.32 1285.23 1139.32Z" fill="#0FD5EF"/>
<path d="M1199.01 1454.84C1200.6 1454.84 1201.88 1453.55 1201.88 1451.97C1201.88 1450.38 1200.6 1449.1 1199.01 1449.1C1197.43 1449.1 1196.14 1450.38 1196.14 1451.97C1196.14 1453.55 1197.43 1454.84 1199.01 1454.84Z" fill="#0FD5EF"/>
<path d="M1153.15 2869.16C1154.73 2869.16 1156.02 2867.87 1156.02 2866.29C1156.02 2864.7 1154.73 2863.42 1153.15 2863.42C1151.56 2863.42 1150.28 2864.7 1150.28 2866.29C1150.28 2867.87 1151.56 2869.16 1153.15 2869.16Z" fill="#0FD5EF"/>
<path d="M1277.2 2866.18C1278.79 2866.18 1280.07 2864.9 1280.07 2863.31C1280.07 2861.73 1278.79 2860.44 1277.2 2860.44C1275.62 2860.44 1274.33 2861.73 1274.33 2863.31C1274.33 2864.9 1275.62 2866.18 1277.2 2866.18Z" fill="#0FD5EF"/>
<path d="M1351.5 2751.3C1353.09 2751.3 1354.37 2750.01 1354.37 2748.43C1354.37 2746.84 1353.09 2745.56 1351.5 2745.56C1349.92 2745.56 1348.63 2746.84 1348.63 2748.43C1348.63 2750.01 1349.92 2751.3 1351.5 2751.3Z" fill="#0FD5EF"/>
<path d="M1434.73 2960.42C1436.31 2960.42 1437.6 2959.13 1437.6 2957.55C1437.6 2955.96 1436.31 2954.68 1434.73 2954.68C1433.14 2954.68 1431.86 2955.96 1431.86 2957.55C1431.86 2959.13 1433.14 2960.42 1434.73 2960.42Z" fill="#0FD5EF"/>
<path d="M1752.54 2939.09C1754.12 2939.09 1755.41 2937.81 1755.41 2936.22C1755.41 2934.64 1754.12 2933.35 1752.54 2933.35C1750.95 2933.35 1749.67 2934.64 1749.67 2936.22C1749.67 2937.81 1750.95 2939.09 1752.54 2939.09Z" fill="#0FD5EF"/>
<path d="M1837.84 2939.09C1839.43 2939.09 1840.71 2937.81 1840.71 2936.22C1840.71 2934.64 1839.43 2933.35 1837.84 2933.35C1836.26 2933.35 1834.97 2934.64 1834.97 2936.22C1834.97 2937.81 1836.26 2939.09 1837.84 2939.09Z" fill="#0FD5EF"/>
<path d="M1921.76 3064.29C1923.35 3064.29 1924.63 3063.01 1924.63 3061.42C1924.63 3059.84 1923.35 3058.55 1921.76 3058.55C1920.18 3058.55 1918.89 3059.84 1918.89 3061.42C1918.89 3063.01 1920.18 3064.29 1921.76 3064.29Z" fill="#0FD5EF"/>
<path d="M1877.05 3062.92C1878.63 3062.92 1879.92 3061.63 1879.92 3060.05C1879.92 3058.46 1878.63 3057.18 1877.05 3057.18C1875.46 3057.18 1874.18 3058.46 1874.18 3060.05C1874.18 3061.63 1875.46 3062.92 1877.05 3062.92Z" fill="#0FD5EF"/>
<path d="M1673.43 3249.34C1675.02 3249.34 1676.3 3248.06 1676.3 3246.47C1676.3 3244.89 1675.02 3243.6 1673.43 3243.6C1671.85 3243.6 1670.56 3244.89 1670.56 3246.47C1670.56 3248.06 1671.85 3249.34 1673.43 3249.34Z" fill="#0FD5EF"/>
<path d="M1469.82 2644.67C1471.4 2644.67 1472.69 2643.38 1472.69 2641.8C1472.69 2640.21 1471.4 2638.93 1469.82 2638.93C1468.23 2638.93 1466.95 2640.21 1466.95 2641.8C1466.95 2643.38 1468.23 2644.67 1469.82 2644.67Z" fill="#0FD5EF"/>
<path d="M1480.13 2670.13C1481.71 2670.13 1483 2668.84 1483 2667.26C1483 2665.67 1481.71 2664.39 1480.13 2664.39C1478.54 2664.39 1477.26 2665.67 1477.26 2667.26C1477.26 2668.84 1478.54 2670.13 1480.13 2670.13Z" fill="#0FD5EF"/>
<path d="M1755.98 2442.43C1757.56 2442.43 1758.85 2441.14 1758.85 2439.56C1758.85 2437.97 1757.56 2436.69 1755.98 2436.69C1754.39 2436.69 1753.11 2437.97 1753.11 2439.56C1753.11 2441.14 1754.39 2442.43 1755.98 2442.43Z" fill="#0FD5EF"/>
<path d="M1769.05 2458.94C1770.63 2458.94 1771.92 2457.65 1771.92 2456.07C1771.92 2454.48 1770.63 2453.2 1769.05 2453.2C1767.46 2453.2 1766.18 2454.48 1766.18 2456.07C1766.18 2457.65 1767.46 2458.94 1769.05 2458.94Z" fill="#0FD5EF"/>
<path d="M1912.13 2251.2C1913.71 2251.2 1915 2249.91 1915 2248.33C1915 2246.74 1913.71 2245.46 1912.13 2245.46C1910.54 2245.46 1909.26 2246.74 1909.26 2248.33C1909.26 2249.91 1910.54 2251.2 1912.13 2251.2Z" fill="#0FD5EF"/>
<path d="M1874.3 2188.6C1875.88 2188.6 1877.17 2187.31 1877.17 2185.73C1877.17 2184.14 1875.88 2182.86 1874.3 2182.86C1872.71 2182.86 1871.43 2184.14 1871.43 2185.73C1871.43 2187.31 1872.71 2188.6 1874.3 2188.6Z" fill="#0FD5EF"/>
<path d="M1769.05 1797.87C1770.63 1797.87 1771.92 1796.58 1771.92 1795C1771.92 1793.41 1770.63 1792.13 1769.05 1792.13C1767.46 1792.13 1766.18 1793.41 1766.18 1795C1766.18 1796.58 1767.46 1797.87 1769.05 1797.87Z" fill="#0FD5EF"/>
<path d="M1810.33 1662.36C1811.92 1662.36 1813.2 1661.07 1813.2 1659.49C1813.2 1657.9 1811.92 1656.62 1810.33 1656.62C1808.75 1656.62 1807.46 1657.9 1807.46 1659.49C1807.46 1661.07 1808.75 1662.36 1810.33 1662.36Z" fill="#0FD5EF"/>
<path d="M1417.54 1720.14C1419.12 1720.14 1420.41 1718.85 1420.41 1717.27C1420.41 1715.68 1419.12 1714.4 1417.54 1714.4C1415.95 1714.4 1414.67 1715.68 1414.67 1717.27C1414.67 1718.85 1415.95 1720.14 1417.54 1720.14Z" fill="#0FD5EF"/>
<path d="M1403.09 1798.56C1404.68 1798.56 1405.96 1797.28 1405.96 1795.69C1405.96 1794.11 1404.68 1792.82 1403.09 1792.82C1401.51 1792.82 1400.22 1794.11 1400.22 1795.69C1400.22 1797.28 1401.51 1798.56 1403.09 1798.56Z" fill="#0FD5EF"/>
<path d="M1630.1 2297.29C1631.69 2297.29 1632.97 2296 1632.97 2294.42C1632.97 2292.83 1631.69 2291.55 1630.1 2291.55C1628.52 2291.55 1627.23 2292.83 1627.23 2294.42C1627.23 2296 1628.52 2297.29 1630.1 2297.29Z" fill="#0FD5EF"/>
<path d="M1661.74 2287.66C1663.33 2287.66 1664.61 2286.37 1664.61 2284.79C1664.61 2283.2 1663.33 2281.92 1661.74 2281.92C1660.16 2281.92 1658.87 2283.2 1658.87 2284.79C1658.87 2286.37 1660.16 2287.66 1661.74 2287.66Z" fill="#0FD5EF"/>
<path d="M1610.83 2312.42C1612.42 2312.42 1613.7 2311.13 1613.7 2309.55C1613.7 2307.96 1612.42 2306.68 1610.83 2306.68C1609.25 2306.68 1607.96 2307.96 1607.96 2309.55C1607.96 2311.13 1609.25 2312.42 1610.83 2312.42Z" fill="#0FD5EF"/>
<path d="M1442.3 2057.9C1443.88 2057.9 1445.17 2056.62 1445.17 2055.03C1445.17 2053.45 1443.88 2052.16 1442.3 2052.16C1440.71 2052.16 1439.43 2053.45 1439.43 2055.03C1439.43 2056.62 1440.71 2057.9 1442.3 2057.9Z" fill="#0FD5EF"/>
<path d="M1315.73 1993.92C1317.31 1993.92 1318.6 1992.63 1318.6 1991.05C1318.6 1989.46 1317.31 1988.18 1315.73 1988.18C1314.14 1988.18 1312.86 1989.46 1312.86 1991.05C1312.86 1992.63 1314.14 1993.92 1315.73 1993.92Z" fill="#0FD5EF"/>
<path d="M1218.73 2126C1220.31 2126 1221.6 2124.71 1221.6 2123.13C1221.6 2121.54 1220.31 2120.26 1218.73 2120.26C1217.14 2120.26 1215.86 2121.54 1215.86 2123.13C1215.86 2124.71 1217.14 2126 1218.73 2126Z" fill="#0FD5EF"/>
<path d="M1128.62 2216.8C1130.21 2216.8 1131.49 2215.51 1131.49 2213.93C1131.49 2212.34 1130.21 2211.06 1128.62 2211.06C1127.03 2211.06 1125.75 2212.34 1125.75 2213.93C1125.75 2215.51 1127.03 2216.8 1128.62 2216.8Z" fill="#0FD5EF"/>
<path d="M1144.44 2062.02C1146.03 2062.02 1147.31 2060.73 1147.31 2059.15C1147.31 2057.56 1146.03 2056.28 1144.44 2056.28C1142.86 2056.28 1141.57 2057.56 1141.57 2059.15C1141.57 2060.73 1142.86 2062.02 1144.44 2062.02Z" fill="#0FD5EF"/>
<path d="M1284.77 1698.81C1286.36 1698.81 1287.64 1697.53 1287.64 1695.94C1287.64 1694.36 1286.36 1693.07 1284.77 1693.07C1283.19 1693.07 1281.9 1694.36 1281.9 1695.94C1281.9 1697.53 1283.19 1698.81 1284.77 1698.81Z" fill="#0FD5EF"/>
<path d="M1187.78 1458.74C1189.37 1458.74 1190.65 1457.46 1190.65 1455.87C1190.65 1454.28 1189.37 1453 1187.78 1453C1186.2 1453 1184.91 1454.28 1184.91 1455.87C1184.91 1457.46 1186.2 1458.74 1187.78 1458.74Z" fill="#0FD5EF"/>
<path d="M878.911 1454.61C880.496 1454.61 881.781 1453.32 881.781 1451.74C881.781 1450.15 880.496 1448.87 878.911 1448.87C877.326 1448.87 876.041 1450.15 876.041 1451.74C876.041 1453.32 877.326 1454.61 878.911 1454.61Z" fill="#0FD5EF"/>
<path d="M874.78 1414.71C876.365 1414.71 877.65 1413.42 877.65 1411.84C877.65 1410.25 876.365 1408.97 874.78 1408.97C873.195 1408.97 871.91 1410.25 871.91 1411.84C871.91 1413.42 873.195 1414.71 874.78 1414.71Z" fill="#0FD5EF"/>
<path d="M1279.96 1157.44C1281.54 1157.44 1282.83 1156.15 1282.83 1154.57C1282.83 1152.98 1281.54 1151.7 1279.96 1151.7C1278.37 1151.7 1277.09 1152.98 1277.09 1154.57C1277.09 1156.15 1278.37 1157.44 1279.96 1157.44Z" fill="#0FD5EF"/>
<path d="M314.149 1292.95C315.734 1292.95 317.019 1291.66 317.019 1290.08C317.019 1288.49 315.734 1287.21 314.149 1287.21C312.564 1287.21 311.279 1288.49 311.279 1290.08C311.279 1291.66 312.564 1292.95 314.149 1292.95Z" fill="#0FD5EF"/>
<path d="M327.899 1284.01C329.484 1284.01 330.769 1282.72 330.769 1281.14C330.769 1279.55 329.484 1278.27 327.899 1278.27C326.314 1278.27 325.029 1279.55 325.029 1281.14C325.029 1282.72 326.314 1284.01 327.899 1284.01Z" fill="#0FD5EF"/>
<path d="M335.47 1279.2C337.055 1279.2 338.34 1277.91 338.34 1276.33C338.34 1274.74 337.055 1273.46 335.47 1273.46C333.885 1273.46 332.6 1274.74 332.6 1276.33C332.6 1277.91 333.885 1279.2 335.47 1279.2Z" fill="#0FD5EF"/>
<path d="M172.44 1073.52C174.025 1073.52 175.31 1072.23 175.31 1070.65C175.31 1069.06 174.025 1067.78 172.44 1067.78C170.855 1067.78 169.57 1069.06 169.57 1070.65C169.57 1072.23 170.855 1073.52 172.44 1073.52Z" fill="#0FD5EF"/>
<path d="M139.421 1209.03C141.006 1209.03 142.291 1207.74 142.291 1206.16C142.291 1204.57 141.006 1203.29 139.421 1203.29C137.836 1203.29 136.551 1204.57 136.551 1206.16C136.551 1207.74 137.836 1209.03 139.421 1209.03Z" fill="#0FD5EF"/>
<path d="M281.13 1246.18C282.715 1246.18 284 1244.89 284 1243.31C284 1241.72 282.715 1240.44 281.13 1240.44C279.545 1240.44 278.26 1241.72 278.26 1243.31C278.26 1244.89 279.545 1246.18 281.13 1246.18Z" fill="#0FD5EF"/>
<path d="M199.27 1765.54C200.855 1765.54 202.14 1764.25 202.14 1762.67C202.14 1761.08 200.855 1759.8 199.27 1759.8C197.685 1759.8 196.4 1761.08 196.4 1762.67C196.4 1764.25 197.685 1765.54 199.27 1765.54Z" fill="#0FD5EF"/>
<path d="M214.399 1925.13C215.984 1925.13 217.269 1923.85 217.269 1922.26C217.269 1920.68 215.984 1919.39 214.399 1919.39C212.814 1919.39 211.529 1920.68 211.529 1922.26C211.529 1923.85 212.814 1925.13 214.399 1925.13Z" fill="#0FD5EF"/>
<path d="M364.36 2197.54C365.945 2197.54 367.23 2196.25 367.23 2194.67C367.23 2193.08 365.945 2191.8 364.36 2191.8C362.775 2191.8 361.49 2193.08 361.49 2194.67C361.49 2196.25 362.775 2197.54 364.36 2197.54Z" fill="#0FD5EF"/>
<path d="M584.489 2310.36C586.074 2310.36 587.359 2309.07 587.359 2307.49C587.359 2305.9 586.074 2304.62 584.489 2304.62C582.904 2304.62 581.619 2305.9 581.619 2307.49C581.619 2309.07 582.904 2310.36 584.489 2310.36Z" fill="#0FD5EF"/>
<path d="M593.431 2290.41C595.016 2290.41 596.301 2289.13 596.301 2287.54C596.301 2285.95 595.016 2284.67 593.431 2284.67C591.845 2284.67 590.561 2285.95 590.561 2287.54C590.561 2289.13 591.845 2290.41 593.431 2290.41Z" fill="#0FD5EF"/>
<path d="M723.45 2044.83C725.035 2044.83 726.32 2043.54 726.32 2041.96C726.32 2040.37 725.035 2039.09 723.45 2039.09C721.865 2039.09 720.58 2040.37 720.58 2041.96C720.58 2043.54 721.865 2044.83 723.45 2044.83Z" fill="#0FD5EF"/>
<path d="M757.839 1964.34C759.424 1964.34 760.709 1963.05 760.709 1961.47C760.709 1959.88 759.424 1958.6 757.839 1958.6C756.254 1958.6 754.969 1959.88 754.969 1961.47C754.969 1963.05 756.254 1964.34 757.839 1964.34Z" fill="#0FD5EF"/>
<path d="M627.14 1790.99C628.725 1790.99 630.01 1789.71 630.01 1788.12C630.01 1786.53 628.725 1785.25 627.14 1785.25C625.554 1785.25 624.27 1786.53 624.27 1788.12C624.27 1789.71 625.554 1790.99 627.14 1790.99Z" fill="#0FD5EF"/>
<path d="M670.479 1756.6C672.064 1756.6 673.349 1755.31 673.349 1753.73C673.349 1752.14 672.064 1750.86 670.479 1750.86C668.894 1750.86 667.609 1752.14 667.609 1753.73C667.609 1755.31 668.894 1756.6 670.479 1756.6Z" fill="#0FD5EF"/>
<path d="M589.989 2602.02C591.574 2602.02 592.859 2600.74 592.859 2599.15C592.859 2597.57 591.574 2596.28 589.989 2596.28C588.404 2596.28 587.119 2597.57 587.119 2599.15C587.119 2600.74 588.404 2602.02 589.989 2602.02Z" fill="#0FD5EF"/>
<path d="M600.999 2617.16C602.584 2617.16 603.869 2615.87 603.869 2614.29C603.869 2612.7 602.584 2611.42 600.999 2611.42C599.414 2611.42 598.129 2612.7 598.129 2614.29C598.129 2615.87 599.414 2617.16 600.999 2617.16Z" fill="#0FD5EF"/>
<path d="M845.89 2388.78C847.475 2388.78 848.76 2387.49 848.76 2385.91C848.76 2384.32 847.475 2383.04 845.89 2383.04C844.304 2383.04 843.02 2384.32 843.02 2385.91C843.02 2387.49 844.304 2388.78 845.89 2388.78Z" fill="#0FD5EF"/>
<path d="M846.581 2422.48C848.166 2422.48 849.451 2421.19 849.451 2419.61C849.451 2418.02 848.166 2416.74 846.581 2416.74C844.996 2416.74 843.711 2418.02 843.711 2419.61C843.711 2421.19 844.996 2422.48 846.581 2422.48Z" fill="#0FD5EF"/>
<path d="M1232.49 2381.9C1234.08 2381.9 1235.36 2380.62 1235.36 2379.03C1235.36 2377.45 1234.08 2376.16 1232.49 2376.16C1230.91 2376.16 1229.62 2377.45 1229.62 2379.03C1229.62 2380.62 1230.91 2381.9 1232.49 2381.9Z" fill="#0FD5EF"/>
<path d="M1356.31 2674.25C1357.89 2674.25 1359.18 2672.96 1359.18 2671.38C1359.18 2669.79 1357.89 2668.51 1356.31 2668.51C1354.72 2668.51 1353.44 2669.79 1353.44 2671.38C1353.44 2672.96 1354.72 2674.25 1356.31 2674.25Z" fill="#0FD5EF"/>
<path d="M1359.75 2650.18C1361.34 2650.18 1362.62 2648.9 1362.62 2647.31C1362.62 2645.73 1361.34 2644.44 1359.75 2644.44C1358.17 2644.44 1356.88 2645.73 1356.88 2647.31C1356.88 2648.9 1358.17 2650.18 1359.75 2650.18Z" fill="#0FD5EF"/>
<path d="M1267.57 2654.3C1269.15 2654.3 1270.44 2653.01 1270.44 2651.43C1270.44 2649.84 1269.15 2648.56 1267.57 2648.56C1265.98 2648.56 1264.7 2649.84 1264.7 2651.43C1264.7 2653.01 1265.98 2654.3 1267.57 2654.3Z" fill="#0FD5EF"/>
<path d="M1136.87 2527.04C1138.46 2527.04 1139.74 2525.75 1139.74 2524.17C1139.74 2522.58 1138.46 2521.3 1136.87 2521.3C1135.28 2521.3 1134 2522.58 1134 2524.17C1134 2525.75 1135.28 2527.04 1136.87 2527.04Z" fill="#0FD5EF"/>
<path d="M587.239 1307.4C588.824 1307.4 590.109 1306.12 590.109 1304.53C590.109 1302.95 588.824 1301.66 587.239 1301.66C585.654 1301.66 584.369 1302.95 584.369 1304.53C584.369 1306.12 585.654 1307.4 587.239 1307.4Z" fill="#0FD5EF"/>
<path d="M583.8 1320.47C585.385 1320.47 586.67 1319.18 586.67 1317.6C586.67 1316.01 585.385 1314.73 583.8 1314.73C582.215 1314.73 580.93 1316.01 580.93 1317.6C580.93 1319.18 582.215 1320.47 583.8 1320.47Z" fill="#0FD5EF"/>
<path d="M394.661 3426.72C396.246 3426.72 397.531 3425.44 397.531 3423.85C397.531 3422.27 396.246 3420.98 394.661 3420.98C393.076 3420.98 391.791 3422.27 391.791 3423.85C391.791 3425.44 393.076 3426.72 394.661 3426.72Z" fill="#0FD5EF"/>
<path d="M397.382 3426.81C398.967 3426.81 400.252 3425.53 400.252 3423.94C400.252 3422.36 398.967 3421.07 397.382 3421.07C395.797 3421.07 394.512 3422.36 394.512 3423.94C394.512 3425.53 395.797 3426.81 397.382 3426.81Z" fill="#0FD5EF"/>
<path d="M490.94 3567.15C492.525 3567.15 493.81 3565.87 493.81 3564.28C493.81 3562.7 492.525 3561.41 490.94 3561.41C489.355 3561.41 488.07 3562.7 488.07 3564.28C488.07 3565.87 489.355 3567.15 490.94 3567.15Z" fill="#0FD5EF"/>
<path d="M581.739 3311.25C583.324 3311.25 584.609 3309.96 584.609 3308.38C584.609 3306.79 583.324 3305.51 581.739 3305.51C580.154 3305.51 578.869 3306.79 578.869 3308.38C578.869 3309.96 580.154 3311.25 581.739 3311.25Z" fill="#0FD5EF"/>
<path d="M895.421 3007.93C897.006 3007.93 898.291 3006.65 898.291 3005.06C898.291 3003.48 897.006 3002.19 895.421 3002.19C893.836 3002.19 892.551 3003.48 892.551 3005.06C892.551 3006.65 893.836 3007.93 895.421 3007.93Z" fill="#0FD5EF"/>
<path d="M895.421 3011.32C897.006 3011.32 898.291 3010.04 898.291 3008.45C898.291 3006.87 897.006 3005.58 895.421 3005.58C893.836 3005.58 892.551 3006.87 892.551 3008.45C892.551 3010.04 893.836 3011.32 895.421 3011.32Z" fill="#0FD5EF"/>
<path d="M892.671 2906.76C894.256 2906.76 895.541 2905.47 895.541 2903.89C895.541 2902.3 894.256 2901.02 892.671 2901.02C891.086 2901.02 889.801 2902.3 889.801 2903.89C889.801 2905.47 891.086 2906.76 892.671 2906.76Z" fill="#0FD5EF"/>
<path d="M902.761 2760.01C904.346 2760.01 905.631 2758.72 905.631 2757.14C905.631 2755.55 904.346 2754.27 902.761 2754.27C901.176 2754.27 899.891 2755.55 899.891 2757.14C899.891 2758.72 901.176 2760.01 902.761 2760.01Z" fill="#0FD5EF"/>
<path d="M1005.48 2707.73C1007.06 2707.73 1008.35 2706.44 1008.35 2704.86C1008.35 2703.27 1007.06 2701.99 1005.48 2701.99C1003.89 2701.99 1002.61 2703.27 1002.61 2704.86C1002.61 2706.44 1003.89 2707.73 1005.48 2707.73Z" fill="#0FD5EF"/>
<path d="M1059.6 2814.13C1061.19 2814.13 1062.47 2812.84 1062.47 2811.26C1062.47 2809.67 1061.19 2808.39 1059.6 2808.39C1058.02 2808.39 1056.73 2809.67 1056.73 2811.26C1056.73 2812.84 1058.02 2814.13 1059.6 2814.13Z" fill="#0FD5EF"/>
<path d="M841.312 2519.71C842.897 2519.71 844.182 2518.42 844.182 2516.84C844.182 2515.25 842.897 2513.97 841.312 2513.97C839.726 2513.97 838.441 2515.25 838.441 2516.84C838.441 2518.42 839.726 2519.71 841.312 2519.71Z" fill="#0FD5EF"/>
<path d="M1406.3 2280.32C1407.88 2280.32 1409.17 2279.04 1409.17 2277.45C1409.17 2275.86 1407.88 2274.58 1406.3 2274.58C1404.71 2274.58 1403.43 2275.86 1403.43 2277.45C1403.43 2279.04 1404.71 2280.32 1406.3 2280.32Z" fill="#0FD5EF"/>
<path d="M1398.96 2352.78C1400.54 2352.78 1401.83 2351.49 1401.83 2349.91C1401.83 2348.32 1400.54 2347.04 1398.96 2347.04C1397.37 2347.04 1396.09 2348.32 1396.09 2349.91C1396.09 2351.49 1397.37 2352.78 1398.96 2352.78Z" fill="#0FD5EF"/>
<path d="M1346.68 2556.39C1348.27 2556.39 1349.55 2555.1 1349.55 2553.52C1349.55 2551.93 1348.27 2550.65 1346.68 2550.65C1345.1 2550.65 1343.81 2551.93 1343.81 2553.52C1343.81 2555.1 1345.1 2556.39 1346.68 2556.39Z" fill="#0FD5EF"/>
<path d="M1359.52 2547.22C1361.11 2547.22 1362.39 2545.94 1362.39 2544.35C1362.39 2542.77 1361.11 2541.48 1359.52 2541.48C1357.94 2541.48 1356.65 2542.77 1356.65 2544.35C1356.65 2545.94 1357.94 2547.22 1359.52 2547.22Z" fill="#0FD5EF"/>
<path d="M1380.62 2606.84C1382.21 2606.84 1383.49 2605.56 1383.49 2603.97C1383.49 2602.39 1382.21 2601.1 1380.62 2601.1C1379.03 2601.1 1377.75 2602.39 1377.75 2603.97C1377.75 2605.56 1379.03 2606.84 1380.62 2606.84Z" fill="#0FD5EF"/>
<path d="M1269.64 2226.2C1271.22 2226.2 1272.51 2224.91 1272.51 2223.33C1272.51 2221.74 1271.22 2220.46 1269.64 2220.46C1268.05 2220.46 1266.77 2221.74 1266.77 2223.33C1266.77 2224.91 1268.05 2226.2 1269.64 2226.2Z" fill="#0FD5EF"/>
<path d="M1428.31 2120.73C1429.89 2120.73 1431.18 2119.44 1431.18 2117.86C1431.18 2116.27 1429.89 2114.99 1428.31 2114.99C1426.72 2114.99 1425.44 2116.27 1425.44 2117.86C1425.44 2119.44 1426.72 2120.73 1428.31 2120.73Z" fill="#0FD5EF"/>
<path d="M1254.96 1894.18C1256.54 1894.18 1257.83 1892.89 1257.83 1891.31C1257.83 1889.72 1256.54 1888.44 1254.96 1888.44C1253.37 1888.44 1252.09 1889.72 1252.09 1891.31C1252.09 1892.89 1253.37 1894.18 1254.96 1894.18Z" fill="#0FD5EF"/>
<path d="M1295.32 1783.2C1296.9 1783.2 1298.19 1781.91 1298.19 1780.33C1298.19 1778.74 1296.9 1777.46 1295.32 1777.46C1293.73 1777.46 1292.45 1778.74 1292.45 1780.33C1292.45 1781.91 1293.73 1783.2 1295.32 1783.2Z" fill="#0FD5EF"/>
<path d="M1333.84 1918.02C1335.43 1918.02 1336.71 1916.73 1336.71 1915.15C1336.71 1913.56 1335.43 1912.28 1333.84 1912.28C1332.26 1912.28 1330.97 1913.56 1330.97 1915.15C1330.97 1916.73 1332.26 1918.02 1333.84 1918.02Z" fill="#0FD5EF"/>
<path d="M1052.26 1564.9C1053.85 1564.9 1055.13 1563.62 1055.13 1562.03C1055.13 1560.45 1053.85 1559.16 1052.26 1559.16C1050.68 1559.16 1049.39 1560.45 1049.39 1562.03C1049.39 1563.62 1050.68 1564.9 1052.26 1564.9Z" fill="#0FD5EF"/>
<path d="M1065.1 1580.5C1066.69 1580.5 1067.97 1579.21 1067.97 1577.63C1067.97 1576.04 1066.69 1574.76 1065.1 1574.76C1063.52 1574.76 1062.23 1576.04 1062.23 1577.63C1062.23 1579.21 1063.52 1580.5 1065.1 1580.5Z" fill="#0FD5EF"/>
<path d="M876.161 1697.9C877.746 1697.9 879.031 1696.62 879.031 1695.03C879.031 1693.45 877.746 1692.16 876.161 1692.16C874.576 1692.16 873.291 1693.45 873.291 1695.03C873.291 1696.62 874.576 1697.9 876.161 1697.9Z" fill="#0FD5EF"/>
<path d="M882.581 1726.33C884.166 1726.33 885.451 1725.04 885.451 1723.46C885.451 1721.87 884.166 1720.59 882.581 1720.59C880.996 1720.59 879.711 1721.87 879.711 1723.46C879.711 1725.04 880.996 1726.33 882.581 1726.33Z" fill="#0FD5EF"/>
<path d="M419.399 816.47C420.984 816.47 422.269 815.186 422.269 813.6C422.269 812.015 420.984 810.73 419.399 810.73C417.814 810.73 416.529 812.015 416.529 813.6C416.529 815.186 417.814 816.47 419.399 816.47Z" fill="#0FD5EF"/>
<path d="M418.479 799.959C420.064 799.959 421.349 798.674 421.349 797.089C421.349 795.504 420.064 794.219 418.479 794.219C416.894 794.219 415.609 795.504 415.609 797.089C415.609 798.674 416.894 799.959 418.479 799.959Z" fill="#0FD5EF"/>
<path d="M537.71 633.029C539.295 633.029 540.58 631.744 540.58 630.159C540.58 628.574 539.295 627.289 537.71 627.289C536.125 627.289 534.84 628.574 534.84 630.159C534.84 631.744 536.125 633.029 537.71 633.029Z" fill="#0FD5EF"/>
<path d="M549.64 671.549C551.225 671.549 552.51 670.264 552.51 668.679C552.51 667.094 551.225 665.809 549.64 665.809C548.054 665.809 546.77 667.094 546.77 668.679C546.77 670.264 548.054 671.549 549.64 671.549Z" fill="#0FD5EF"/>
<path d="M382.71 420.24C384.295 420.24 385.58 418.955 385.58 417.37C385.58 415.785 384.295 414.5 382.71 414.5C381.125 414.5 379.84 415.785 379.84 417.37C379.84 418.955 381.125 420.24 382.71 420.24Z" fill="#0FD5EF"/>
<path d="M877.081 319.349C878.666 319.349 879.951 318.064 879.951 316.479C879.951 314.894 878.666 313.609 877.081 313.609C875.496 313.609 874.211 314.894 874.211 316.479C874.211 318.064 875.496 319.349 877.081 319.349Z" fill="#0FD5EF"/>
<path d="M919.27 510.131C920.855 510.131 922.14 508.846 922.14 507.261C922.14 505.676 920.855 504.391 919.27 504.391C917.685 504.391 916.4 505.676 916.4 507.261C916.4 508.846 917.685 510.131 919.27 510.131Z" fill="#0FD5EF"/>
<path d="M988.97 470.689C990.555 470.689 991.84 469.404 991.84 467.819C991.84 466.234 990.555 464.949 988.97 464.949C987.385 464.949 986.1 466.234 986.1 467.819C986.1 469.404 987.385 470.689 988.97 470.689Z" fill="#0FD5EF"/>
<path d="M1308.16 336.779C1309.75 336.779 1311.03 335.494 1311.03 333.909C1311.03 332.324 1309.75 331.039 1308.16 331.039C1306.58 331.039 1305.29 332.324 1305.29 333.909C1305.29 335.494 1306.58 336.779 1308.16 336.779Z" fill="#0FD5EF"/>
<path d="M1432.9 547.728C1434.48 547.728 1435.77 546.443 1435.77 544.858C1435.77 543.273 1434.48 541.988 1432.9 541.988C1431.31 541.988 1430.03 543.273 1430.03 544.858C1430.03 546.443 1431.31 547.728 1432.9 547.728Z" fill="#0FD5EF"/>
<path d="M1446.66 514.709C1448.25 514.709 1449.53 513.424 1449.53 511.839C1449.53 510.254 1448.25 508.969 1446.66 508.969C1445.08 508.969 1443.79 510.254 1443.79 511.839C1443.79 513.424 1445.08 514.709 1446.66 514.709Z" fill="#0FD5EF"/>
<path d="M1657.61 323.939C1659.2 323.939 1660.48 322.654 1660.48 321.069C1660.48 319.484 1659.2 318.199 1657.61 318.199C1656.03 318.199 1654.74 319.484 1654.74 321.069C1654.74 322.654 1656.03 323.939 1657.61 323.939Z" fill="#0FD5EF"/>
<path d="M190.1 3067.27C191.686 3067.27 192.97 3065.99 192.97 3064.4C192.97 3062.82 191.686 3061.53 190.1 3061.53C188.515 3061.53 187.23 3062.82 187.23 3064.4C187.23 3065.99 188.515 3067.27 190.1 3067.27Z" fill="#0FD5EF"/>
<path d="M175.421 3014.08C177.006 3014.08 178.291 3012.79 178.291 3011.21C178.291 3009.62 177.006 3008.34 175.421 3008.34C173.836 3008.34 172.551 3009.62 172.551 3011.21C172.551 3012.79 173.836 3014.08 175.421 3014.08Z" fill="#0FD5EF"/>
<path d="M168.081 3047.09C169.666 3047.09 170.951 3045.81 170.951 3044.22C170.951 3042.64 169.666 3041.35 168.081 3041.35C166.496 3041.35 165.211 3042.64 165.211 3044.22C165.211 3045.81 166.496 3047.09 168.081 3047.09Z" fill="#0FD5EF"/>
<path d="M168.081 2685.72C169.666 2685.72 170.951 2684.44 170.951 2682.85C170.951 2681.27 169.666 2679.98 168.081 2679.98C166.496 2679.98 165.211 2681.27 165.211 2682.85C165.211 2684.44 166.496 2685.72 168.081 2685.72Z" fill="#0FD5EF"/>
<path d="M184.589 2715.07C186.174 2715.07 187.459 2713.78 187.459 2712.2C187.459 2710.61 186.174 2709.33 184.589 2709.33C183.004 2709.33 181.719 2710.61 181.719 2712.2C181.719 2713.78 183.004 2715.07 184.589 2715.07Z" fill="#0FD5EF"/>
<path d="M206.61 2683.88C208.195 2683.88 209.48 2682.59 209.48 2681.01C209.48 2679.42 208.195 2678.14 206.61 2678.14C205.025 2678.14 203.74 2679.42 203.74 2681.01C203.74 2682.59 205.025 2683.88 206.61 2683.88Z" fill="#0FD5EF"/>
<path d="M1479.68 3298.41C1481.27 3298.41 1482.55 3297.13 1482.55 3295.54C1482.55 3293.95 1481.27 3292.67 1479.68 3292.67C1478.1 3292.67 1476.81 3293.95 1476.81 3295.54C1476.81 3297.13 1478.1 3298.41 1479.68 3298.41Z" fill="#0FD5EF"/>
<path d="M1525.54 3516.7C1527.12 3516.7 1528.41 3515.41 1528.41 3513.83C1528.41 3512.24 1527.12 3510.96 1525.54 3510.96C1523.95 3510.96 1522.67 3512.24 1522.67 3513.83C1522.67 3515.41 1523.95 3516.7 1525.54 3516.7Z" fill="#0FD5EF"/>
<path d="M1538.38 3483.68C1539.96 3483.68 1541.25 3482.4 1541.25 3480.81C1541.25 3479.23 1539.96 3477.94 1538.38 3477.94C1536.79 3477.94 1535.51 3479.23 1535.51 3480.81C1535.51 3482.4 1536.79 3483.68 1538.38 3483.68Z" fill="#0FD5EF"/>
<path d="M1580.57 3509.36C1582.15 3509.36 1583.44 3508.08 1583.44 3506.49C1583.44 3504.91 1582.15 3503.62 1580.57 3503.62C1578.98 3503.62 1577.7 3504.91 1577.7 3506.49C1577.7 3508.08 1578.98 3509.36 1580.57 3509.36Z" fill="#0FD5EF"/>
<path d="M1624.59 3562.56C1626.18 3562.56 1627.46 3561.28 1627.46 3559.69C1627.46 3558.11 1626.18 3556.82 1624.59 3556.82C1623.01 3556.82 1621.72 3558.11 1621.72 3559.69C1621.72 3561.28 1623.01 3562.56 1624.59 3562.56Z" fill="#0FD5EF"/>
<path d="M1811.7 3349.77C1813.29 3349.77 1814.57 3348.49 1814.57 3346.9C1814.57 3345.32 1813.29 3344.03 1811.7 3344.03C1810.11 3344.03 1808.83 3345.32 1808.83 3346.9C1808.83 3348.49 1810.11 3349.77 1811.7 3349.77Z" fill="#0FD5EF"/>
<path d="M1833.71 3375.45C1835.29 3375.45 1836.58 3374.16 1836.58 3372.58C1836.58 3370.99 1835.29 3369.71 1833.71 3369.71C1832.12 3369.71 1830.84 3370.99 1830.84 3372.58C1830.84 3374.16 1832.12 3375.45 1833.71 3375.45Z" fill="#0FD5EF"/>
<path d="M1852.06 3313.08C1853.64 3313.08 1854.93 3311.79 1854.93 3310.21C1854.93 3308.62 1853.64 3307.34 1852.06 3307.34C1850.47 3307.34 1849.19 3308.62 1849.19 3310.21C1849.19 3311.79 1850.47 3313.08 1852.06 3313.08Z" fill="#0FD5EF"/>
<path d="M1806.2 3047.09C1807.79 3047.09 1809.07 3045.81 1809.07 3044.22C1809.07 3042.64 1807.79 3041.35 1806.2 3041.35C1804.61 3041.35 1803.33 3042.64 1803.33 3044.22C1803.33 3045.81 1804.61 3047.09 1806.2 3047.09Z" fill="#0FD5EF"/>
<path d="M1918.1 2718.74C1919.69 2718.74 1920.97 2717.46 1920.97 2715.87C1920.97 2714.29 1919.69 2713 1918.1 2713C1916.52 2713 1915.23 2714.29 1915.23 2715.87C1915.23 2717.46 1916.52 2718.74 1918.1 2718.74Z" fill="#0FD5EF"/>
<path d="M1775.01 2639.86C1776.6 2639.86 1777.88 2638.57 1777.88 2636.99C1777.88 2635.4 1776.6 2634.12 1775.01 2634.12C1773.43 2634.12 1772.14 2635.4 1772.14 2636.99C1772.14 2638.57 1773.43 2639.86 1775.01 2639.86Z" fill="#0FD5EF"/>
<path d="M1815.37 2632.52C1816.96 2632.52 1818.24 2631.24 1818.24 2629.65C1818.24 2628.07 1816.96 2626.78 1815.37 2626.78C1813.79 2626.78 1812.5 2628.07 1812.5 2629.65C1812.5 2631.24 1813.79 2632.52 1815.37 2632.52Z" fill="#0FD5EF"/>
<path d="M1850.22 2735.25C1851.8 2735.25 1853.09 2733.96 1853.09 2732.38C1853.09 2730.79 1851.8 2729.51 1850.22 2729.51C1848.63 2729.51 1847.35 2730.79 1847.35 2732.38C1847.35 2733.96 1848.63 2735.25 1850.22 2735.25Z" fill="#0FD5EF"/>
<path d="M1919.93 2526.13C1921.52 2526.13 1922.8 2524.84 1922.8 2523.26C1922.8 2521.67 1921.52 2520.39 1919.93 2520.39C1918.35 2520.39 1917.06 2521.67 1917.06 2523.26C1917.06 2524.84 1918.35 2526.13 1919.93 2526.13Z" fill="#0FD5EF"/>
<path d="M157.989 3322.25C159.574 3322.25 160.859 3320.96 160.859 3319.38C160.859 3317.79 159.574 3316.51 157.989 3316.51C156.404 3316.51 155.119 3317.79 155.119 3319.38C155.119 3320.96 156.404 3322.25 157.989 3322.25Z" fill="#0FD5EF"/>
<path d="M199.27 3501.11C200.855 3501.11 202.14 3499.82 202.14 3498.24C202.14 3496.65 200.855 3495.37 199.27 3495.37C197.685 3495.37 196.4 3496.65 196.4 3498.24C196.4 3499.82 197.685 3501.11 199.27 3501.11Z" fill="#0FD5EF"/>
<path d="M213.03 3410.3C214.615 3410.3 215.9 3409.01 215.9 3407.43C215.9 3405.84 214.615 3404.56 213.03 3404.56C211.445 3404.56 210.16 3405.84 210.16 3407.43C210.16 3409.01 211.445 3410.3 213.03 3410.3Z" fill="#0FD5EF"/>
<path d="M295.569 3289.23C297.154 3289.23 298.439 3287.94 298.439 3286.36C298.439 3284.77 297.154 3283.49 295.569 3283.49C293.984 3283.49 292.699 3284.77 292.699 3286.36C292.699 3287.94 293.984 3289.23 295.569 3289.23Z" fill="#0FD5EF"/>
<path d="M276.311 3234.2C277.896 3234.2 279.181 3232.92 279.181 3231.33C279.181 3229.75 277.896 3228.46 276.311 3228.46C274.726 3228.46 273.441 3229.75 273.441 3231.33C273.441 3232.92 274.726 3234.2 276.311 3234.2Z" fill="#0FD5EF"/>
<path d="M763.339 3330.51C764.924 3330.51 766.209 3329.22 766.209 3327.64C766.209 3326.05 764.924 3324.77 763.339 3324.77C761.754 3324.77 760.469 3326.05 760.469 3327.64C760.469 3329.22 761.754 3330.51 763.339 3330.51Z" fill="#0FD5EF"/>
<path d="M1818.12 1286.99C1819.71 1286.99 1820.99 1285.71 1820.99 1284.12C1820.99 1282.53 1819.71 1281.25 1818.12 1281.25C1816.54 1281.25 1815.25 1282.53 1815.25 1284.12C1815.25 1285.71 1816.54 1286.99 1818.12 1286.99Z" fill="#0FD5EF"/>
<path d="M1860.31 972.388C1861.89 972.388 1863.18 971.103 1863.18 969.518C1863.18 967.933 1861.89 966.648 1860.31 966.648C1858.72 966.648 1857.44 967.933 1857.44 969.518C1857.44 971.103 1858.72 972.388 1860.31 972.388Z" fill="#0FD5EF"/>
<path d="M902.761 3547.43C904.346 3547.43 905.631 3546.15 905.631 3544.56C905.631 3542.98 904.346 3541.69 902.761 3541.69C901.176 3541.69 899.891 3542.98 899.891 3544.56C899.891 3546.15 901.176 3547.43 902.761 3547.43Z" fill="#0FD5EF"/>
<path d="M758.3 3668.95C759.885 3668.95 761.17 3667.66 761.17 3666.08C761.17 3664.49 759.885 3663.21 758.3 3663.21C756.715 3663.21 755.43 3664.49 755.43 3666.08C755.43 3667.66 756.715 3668.95 758.3 3668.95Z" fill="#0FD5EF"/>
<path d="M1037.59 3696.47C1039.17 3696.47 1040.46 3695.19 1040.46 3693.6C1040.46 3692.02 1039.17 3690.73 1037.59 3690.73C1036 3690.73 1034.72 3692.02 1034.72 3693.6C1034.72 3695.19 1036 3696.47 1037.59 3696.47Z" fill="#0FD5EF"/>
<path d="M1082.53 3751.5C1084.12 3751.5 1085.4 3750.21 1085.4 3748.63C1085.4 3747.04 1084.12 3745.76 1082.53 3745.76C1080.95 3745.76 1079.66 3747.04 1079.66 3748.63C1079.66 3750.21 1080.95 3751.5 1082.53 3751.5Z" fill="#0FD5EF"/>
<path d="M466.171 3669.41C467.756 3669.41 469.041 3668.12 469.041 3666.54C469.041 3664.95 467.756 3663.67 466.171 3663.67C464.586 3663.67 463.301 3664.95 463.301 3666.54C463.301 3668.12 464.586 3669.41 466.171 3669.41Z" fill="#0FD5EF"/>
<path d="M479.931 3697.39C481.516 3697.39 482.801 3696.1 482.801 3694.52C482.801 3692.93 481.516 3691.65 479.931 3691.65C478.345 3691.65 477.061 3692.93 477.061 3694.52C477.061 3696.1 478.345 3697.39 479.931 3697.39Z" fill="#0FD5EF"/>
<path d="M334.55 3819.83C336.135 3819.83 337.42 3818.54 337.42 3816.96C337.42 3815.37 336.135 3814.09 334.55 3814.09C332.965 3814.09 331.68 3815.37 331.68 3816.96C331.68 3818.54 332.965 3819.83 334.55 3819.83Z" fill="#0FD5EF"/>
<path d="M1890.12 3598.33C1891.71 3598.33 1892.99 3597.04 1892.99 3595.46C1892.99 3593.87 1891.71 3592.59 1890.12 3592.59C1888.54 3592.59 1887.25 3593.87 1887.25 3595.46C1887.25 3597.04 1888.54 3598.33 1890.12 3598.33Z" fill="#0FD5EF"/>
<path d="M1755.29 3749.67C1756.87 3749.67 1758.16 3748.38 1758.16 3746.8C1758.16 3745.21 1756.87 3743.93 1755.29 3743.93C1753.7 3743.93 1752.42 3745.21 1752.42 3746.8C1752.42 3748.38 1753.7 3749.67 1755.29 3749.67Z" fill="#0FD5EF"/>
<path d="M1768.59 3773.97C1770.18 3773.97 1771.46 3772.69 1771.46 3771.1C1771.46 3769.52 1770.18 3768.23 1768.59 3768.23C1767.01 3768.23 1765.72 3769.52 1765.72 3771.1C1765.72 3772.69 1767.01 3773.97 1768.59 3773.97Z" fill="#0FD5EF"/>
<path d="M1778.68 3708.85C1780.27 3708.85 1781.55 3707.56 1781.55 3705.98C1781.55 3704.39 1780.27 3703.11 1778.68 3703.11C1777.1 3703.11 1775.81 3704.39 1775.81 3705.98C1775.81 3707.56 1777.1 3708.85 1778.68 3708.85Z" fill="#0FD5EF"/>
<path d="M1802.53 3762.97C1804.12 3762.97 1805.4 3761.69 1805.4 3760.1C1805.4 3758.52 1804.12 3757.23 1802.53 3757.23C1800.95 3757.23 1799.66 3758.52 1799.66 3760.1C1799.66 3761.69 1800.95 3762.97 1802.53 3762.97Z" fill="#0FD5EF"/>
<path d="M1800.24 3791.4C1801.83 3791.4 1803.11 3790.12 1803.11 3788.53C1803.11 3786.95 1801.83 3785.66 1800.24 3785.66C1798.66 3785.66 1797.37 3786.95 1797.37 3788.53C1797.37 3790.12 1798.66 3791.4 1800.24 3791.4Z" fill="#0FD5EF"/>
<path d="M1692.92 3804.7C1694.51 3804.7 1695.79 3803.42 1695.79 3801.83C1695.79 3800.25 1694.51 3798.96 1692.92 3798.96C1691.34 3798.96 1690.05 3800.25 1690.05 3801.83C1690.05 3803.42 1691.34 3804.7 1692.92 3804.7Z" fill="#0FD5EF"/>
<path d="M1602.58 3655.2C1604.17 3655.2 1605.45 3653.92 1605.45 3652.33C1605.45 3650.75 1604.17 3649.46 1602.58 3649.46C1601 3649.46 1599.71 3650.75 1599.71 3652.33C1599.71 3653.92 1601 3655.2 1602.58 3655.2Z" fill="#0FD5EF"/>
<path d="M1164.16 3859.73C1165.75 3859.73 1167.03 3858.44 1167.03 3856.86C1167.03 3855.27 1165.75 3853.99 1164.16 3853.99C1162.58 3853.99 1161.29 3855.27 1161.29 3856.86C1161.29 3858.44 1162.58 3859.73 1164.16 3859.73Z" fill="#0FD5EF"/>
<path d="M1182.5 3819.37C1184.09 3819.37 1185.37 3818.08 1185.37 3816.5C1185.37 3814.91 1184.09 3813.63 1182.5 3813.63C1180.92 3813.63 1179.63 3814.91 1179.63 3816.5C1179.63 3818.08 1180.92 3819.37 1182.5 3819.37Z" fill="#0FD5EF"/>
<path d="M189.681 3705.78C191.266 3705.78 192.551 3704.49 192.551 3702.91C192.551 3701.32 191.266 3700.04 189.681 3700.04C188.095 3700.04 186.811 3701.32 186.811 3702.91C186.811 3704.49 188.095 3705.78 189.681 3705.78Z" fill="#0FD5EF"/>
<path d="M193.761 3705.64C195.346 3705.64 196.631 3704.35 196.631 3702.77C196.631 3701.18 195.346 3699.9 193.761 3699.9C192.176 3699.9 190.891 3701.18 190.891 3702.77C190.891 3704.35 192.176 3705.64 193.761 3705.64Z" fill="#0FD5EF"/>
<path d="M113.05 3613.92C114.635 3613.92 115.92 3612.63 115.92 3611.05C115.92 3609.46 114.635 3608.18 113.05 3608.18C111.465 3608.18 110.18 3609.46 110.18 3611.05C110.18 3612.63 111.465 3613.92 113.05 3613.92Z" fill="#0FD5EF"/>
<path d="M582.971 1318.17L876.881 1428.31L1187.38 1455.06L1628.96 2293.61" stroke="#0FD5EF" stroke-miterlimit="10"/>
<path d="M1094.68 1882.65L756.291 1963.49L667.331 1753.89L617.801 1739.21" stroke="#0FD5EF" stroke-miterlimit="10"/>
<path d="M585.311 1304.45L875.531 1412.45L1277.97 1153.45L1443.54 1272.65" stroke="#0FD5EF" stroke-miterlimit="10"/>
<path d="M2020.19 1563.08L1808.95 1658.53L1768.28 1796.38L1417.3 1717.17L1403.09 1795L1660.36 2284.04" stroke="#0FD5EF" stroke-miterlimit="10"/>
<path d="M85.5898 2102.14L583.81 2307.07L510.06 2448.39" stroke="#0FD5EF" stroke-miterlimit="10"/>
<path d="M81.2402 1695.84L198.72 1761.07L215.15 1922.65L365.57 2194.14L590.28 2286.78L877.41 2118.95" stroke="#0FD5EF" stroke-miterlimit="10"/>
<path d="M336.461 1275.43L63.8105 898.91" stroke="#0FD5EF" stroke-miterlimit="10"/>
<path d="M327.221 1280L173.581 1070.54L33.7109 1016.3" stroke="#0FD5EF" stroke-miterlimit="10"/>
<path d="M590.281 2598.16L844.361 2385.71L1356.31 2672.56L1477.88 2666.66" stroke="#0FD5EF" stroke-miterlimit="10"/>
<path d="M1232.49 2380.11L1135.03 2524.2L1359.06 2647.59L1466.83 2642.49" stroke="#0FD5EF" stroke-miterlimit="10"/>
<path d="M1639.27 1126.31L2035.5 534.449" stroke="#0FD5EF" stroke-miterlimit="10"/>
<path d="M1643.94 1130.75L1855.73 971.36L2064.85 921.83" stroke="#0FD5EF" stroke-miterlimit="10"/>
<path d="M415.93 1209.67L160.75 883.99L168.08 713.56L41.5098 445.98" stroke="#0FD5EF" stroke-miterlimit="10"/>
<path d="M52.8008 329.32L158.911 44.9897L323.781 -48.5703" stroke="#0FD5EF" stroke-miterlimit="10"/>
<path d="M516.16 1756.48L626.68 1787.66L721.46 2041.8L896.24 1998.86" stroke="#0FD5EF" stroke-miterlimit="10"/>
<path d="M341.36 2496.29L15.8301 2682.85" stroke="#0FD5EF" stroke-miterlimit="10"/>
<path d="M25 2541.58L348.39 2478.88" stroke="#0FD5EF" stroke-miterlimit="10"/>
<path d="M2067.6 1636.18L1872.24 2188.26L1867.65 2361.4L1757.59 2436.42" stroke="#0FD5EF" stroke-miterlimit="10"/>
<path d="M1768.28 2455.83L1891.71 2377.33L1910.76 2249.01L2175.35 2069.16" stroke="#0FD5EF" stroke-miterlimit="10"/>
<path d="M1730.58 1260.8L1816.43 1282.95L1938.27 1207.73L2052.85 1184.03" stroke="#0FD5EF" stroke-miterlimit="10"/>
<path d="M1144.24 2040.57L1316.41 1991.31L1443.54 2056.12L1609.48 2309.82" stroke="#0FD5EF" stroke-miterlimit="10"/>
<path d="M601 2614.07L845.16 2419.14L1266.84 2651.6L982.85 3092.38" stroke="#0FD5EF" stroke-miterlimit="10"/>
<path d="M1001.03 3092.38L1151.9 2863.59H1276.06L1351.27 2749.8H1415.61" stroke="#0FD5EF" stroke-miterlimit="10"/>
<path d="M1751.78 2935.08H1838.93L1876.82 3060.73H1919.93L2007.06 3437.58" stroke="#0FD5EF" stroke-miterlimit="10"/>
<path d="M314.73 1288.14L281.52 1241.93L139.42 1205.47L-120.6 1410.02" stroke="#0FD5EF" stroke-miterlimit="10"/>
<path d="M1128.62 2211.18L1216.67 2123.37L1144.7 2057.81" stroke="#0FD5EF" stroke-miterlimit="10"/>
<path d="M1768.28 1796.38L1872.24 2188.26" stroke="#0FD5EF" stroke-miterlimit="10"/>
<path d="M1114.63 1882.65L1285.23 1695.93L1172.64 1476.68L879.951 1453.26L876.951 1437.31" stroke="#0FD5EF" stroke-miterlimit="10"/>
<path d="M1224.72 3092.38L1433.44 2953.91L1673.06 3245.56H1930.94L2007.06 3590.87" stroke="#0FD5EF" stroke-miterlimit="10"/>
<path d="M282.701 3073.57H669.061L965.711 3356.32" stroke="#0FD5EF" stroke-miterlimit="10"/>
<path d="M905.51 3543.18L758.76 3666.08L467.09 3667.92L333.18 3818.34" stroke="#0FD5EF" stroke-miterlimit="10"/>
<path d="M482.68 3694.52H1036.67L1083.45 3750.47L1620.92 3565.19L1932.77 3564.28L1998.81 3911.89" stroke="#0FD5EF" stroke-miterlimit="10"/>
<path d="M1905.26 4578.24H1712.64L1268.26 4338.85L1267.34 4231.54H1705.76L1957.54 3968.76L1890.12 3594.54" stroke="#0FD5EF" stroke-miterlimit="10"/>
</g>
<circle cx="271" cy="857" r="26.5" stroke="#1B7FA0" stroke-width="3"/>
<g opacity="0.4" clip-path="url(#clip4_155_14608)">
<path d="M473.623 578.319C473.623 581.726 473.536 585.133 473.379 588.495C473.105 594.412 472.585 600.271 471.82 606.059C471.314 609.869 470.724 613.65 470.015 617.403V617.418C451.671 715.44 365.669 789.623 262.319 789.623C145.604 789.623 51 695.019 51 578.319C51 533.074 65.2149 491.147 89.4336 456.77C99.796 442.062 111.976 428.741 125.658 417.123C125.917 416.907 126.176 416.678 126.438 416.476C127.723 415.395 129.008 414.324 130.32 413.271C135.328 409.274 140.508 405.491 145.878 401.957C153.007 397.223 160.439 392.937 168.131 389.097C171.566 387.379 175.045 385.762 178.581 384.248C204.259 373.149 232.574 367 262.321 367H262.493C269.651 367 276.726 367.361 283.696 368.068H283.709C301.243 369.829 318.145 373.739 334.151 379.526C368.615 391.981 398.91 413.141 422.389 440.346V440.361C425.191 443.608 427.875 446.913 430.458 450.32C431.671 451.894 432.853 453.495 434.006 455.111C457.012 487.122 471.3 525.83 473.364 567.74C473.436 569.344 473.508 570.945 473.536 572.561C473.593 574.481 473.623 576.399 473.623 578.319Z" stroke="#0FD5EF" stroke-width="2.9745" stroke-miterlimit="10"/>
<path d="M272.819 683.74C264.8 686.636 261.509 684.119 258.204 693.217C256.398 698.195 254.682 702.156 250.315 705.343C245.248 709.056 242.033 714.308 238.698 719.507C237.214 721.835 235.626 724.136 233.604 726.027C232.79 726.798 231.901 727.484 231.012 728.182C230.095 728.911 228.51 730.568 227.242 730.556C227.81 732.638 228.784 735.039 227.227 736.931C225.524 739.013 222.264 738.676 220.604 740.804C216.281 746.319 226.252 747.078 229.164 747.892C233.501 749.13 229.935 753.247 227.124 753.626C227.212 756.1 228.332 758.561 227.488 760.978C226.383 764.15 222.947 764.617 222.713 768.138C222.495 771.605 227.604 777.673 229.57 780.293C229.804 780.584 226.76 783.086 226.353 783.277C225.145 783.844 224.112 783.829 222.887 783.319C220.003 782.081 217.939 778.472 216.366 775.94C212.247 769.362 209.394 762.095 206.862 754.789C203.514 745.109 203.077 735.197 202.175 725.108C201.389 716.186 201.562 708.063 202.743 699.17C203.632 692.461 205.348 681.442 199.847 676.115C197.009 673.392 192.598 672.97 190.431 669.449C186.834 663.641 188.233 656.378 182.818 651.399C179.688 648.516 179.906 645.884 181.215 642.026C181.813 640.25 182.423 638.489 182.511 636.61C182.569 635.214 182.247 633.745 182.599 632.376C183.458 629.043 187.474 628.299 189.993 626.654C191.769 625.504 192.467 623.218 192.671 621.211C192.847 619.581 193.123 616.467 191.493 615.432C191.259 615.286 190.998 615.198 190.692 615.186C188.843 615.04 186.892 615.228 185.03 615.216C183.707 615.216 182.192 615.434 180.896 615.216C171.535 613.656 172.497 603.28 162.073 601.678C153.734 600.397 148.186 598.97 140.139 596.365C136.66 595.245 131.433 596.438 128.434 595.157C123.471 593.047 125.538 592.261 124.795 586.904C123.499 577.719 123.629 544.474 108.114 545.797C104.329 546.116 106.921 556.218 110.719 566.73C115.393 579.64 107.838 581.388 105.364 571.095C103.488 563.306 103.194 557.414 100.27 549.829C97.1407 541.736 99.3812 534.196 99.12 525.827C98.8437 517.528 99.2355 509.262 99.0195 501.024C98.8161 493.205 94.4055 486.657 93.662 478.898C92.906 470.979 93.2551 464.225 90.1406 457.923C100.592 443.089 112.877 429.653 126.676 417.936C127.635 419.059 128.567 420.207 129.469 421.372C128.552 420.194 127.854 418.753 127.46 417.283C128.756 416.193 130.052 415.113 131.375 414.051C131.724 414.719 132.016 415.374 132.292 415.842C134.505 419.539 138.288 422.638 141.811 425.055C145.451 427.559 149.716 429.335 154.199 429.189C152.205 428.157 145.524 429.48 147.503 423.409C152.554 426.132 157.022 423.789 162.031 425.142C167.707 426.67 170.239 431.138 176.938 430.6C182.818 430.133 187.504 425.492 193.399 427.835C199.412 430.221 197.709 433.469 205.001 431.474C210.446 430.005 210.795 426.366 212.513 433.177C213.955 438.942 210.695 441.255 206.937 444.269C202.63 447.718 199.689 448.562 194.623 449.755C187.984 451.342 188.451 451.53 184.812 457.44C183.355 459.799 181.886 462.215 180.735 464.732C179.309 467.862 177.897 472.476 179.572 475.781C180.534 477.672 182.468 478.823 184.259 479.812C186.005 480.772 188.451 481.005 189.614 482.811C190.531 484.238 189.79 485.853 189.602 487.398C189.411 488.867 189.456 490.409 189.499 491.894C189.571 494.237 189.951 497.309 192.046 498.766C199.076 503.583 197.403 493.38 199.586 490.731C202.424 487.295 205.845 491.21 209.15 488.226C211.654 485.956 210.534 477.599 210.969 474.312C211.755 468.286 217.228 452.593 222.977 464.792C224.971 469.057 221.988 472.785 227.227 475.462C230.909 477.356 236.458 473.716 239.863 476.524C243.88 479.827 240.182 482.681 240.213 486.481C240.243 491.386 240.358 490.178 243.983 493.599C245.54 495.083 246.982 496.932 248.232 498.665C250.023 501.124 252.352 505.361 249.674 508.039C247.78 509.945 244.799 509.742 242.41 509.232C238.306 508.388 235.043 506.248 231.361 504.369C228.42 502.87 223.821 500.875 221.144 503.947C219.325 506.044 220.008 509.247 222.03 510.935C225.042 513.454 228.958 512.374 232.497 512.274C235.933 512.186 239.876 512.55 242.352 515.215C244.696 517.719 244.492 521.954 242.265 524.561C241.159 525.857 239.587 526.846 237.927 527.241C231.916 528.607 226.471 523.704 220.476 524.387C218.072 524.649 217.346 526.919 217.097 529.001C216.836 531.169 215.962 532.292 213.649 531.897C211.669 531.548 209.542 530.996 207.52 531.491C204.727 532.189 203.604 535.042 202.891 537.559C201.085 543.891 200.939 550.062 194.61 554.211C188.627 558.127 186.138 555.653 186.778 564.474C186.997 567.516 188.205 580.893 181.494 573.645C177.405 569.234 184.726 560.574 174.712 560.31C168.089 560.122 169.734 566.147 163.211 564.952C157.462 563.874 153.227 558.459 148.932 567.222C147.84 569.45 148.349 572.71 147.448 575.169C146.443 577.877 143.444 579.886 143.823 583.089C144.042 584.849 144.579 587.107 145.672 588.546C149.703 593.859 159.092 586.61 162.819 584.324C164.377 583.362 166.72 580.931 168.714 581.632C172.032 582.797 168.729 587.223 167.418 588.707C165.03 591.4 160.519 594.487 164.274 598.124C165.467 599.289 167.112 599.884 168.742 600.03C171.769 600.291 174.798 599.563 177.839 599.781C179.557 599.899 182.629 600.48 181.318 602.723C179.906 605.154 174.346 607.846 178 611.122C180.708 613.538 181.8 609.783 184.332 609.971C185.06 610.029 185.789 610.233 186.457 610.496C187.489 610.888 188.263 611.704 189.441 611.586C190.415 611.483 191.217 610.873 191.754 610.072C192.38 609.155 192.583 607.992 193.196 607.043C194.098 605.661 195.424 604.539 196.878 603.767C199.018 602.632 201.477 602.544 203.835 602.502C204.491 602.502 205.742 602.167 206.252 602.72C206.85 603.361 206.078 605.151 205.815 605.819C205.451 606.766 204.825 607.61 204.491 608.57C204.2 609.429 203.966 610.476 204.649 611.22C205.42 612.064 206.601 611.714 207.357 611.061C207.94 610.536 208.377 609.853 208.723 609.155C209.467 607.743 209.597 605.822 211.446 605.415C214.154 604.817 215.492 609.504 216.876 610.916C218.273 612.373 220.079 613.45 221.782 614.513C225.916 617.117 230.821 618.325 235.523 619.476C244.578 621.704 244.141 625.386 249.599 631.964C257.418 641.383 285.32 633.697 285.19 651.485C285.147 657.307 278.976 661.456 278.393 667.715C277.71 675.183 281.334 680.656 272.817 683.743L272.819 683.74Z" stroke="#0FD5EF" stroke-width="3" stroke-miterlimit="10"/>
<path d="M474.007 580.508C474.007 583.944 473.919 587.38 473.761 590.771C473.63 590.843 473.484 590.916 473.354 591.004C469.875 593.129 467.589 596.753 463.616 598.253C445.537 605.007 447.285 572.618 430.471 570.087C430.195 576.476 435.246 580.377 438.142 585.561C441.272 591.165 444.489 596.683 447.327 602.43C450.517 608.862 452.22 611.703 459.803 610.465C462.714 609.985 468.813 606.737 472.191 608.486C471.681 612.329 471.086 616.141 470.37 619.926V619.941C464.548 625.909 454.097 631.483 450.791 633.608C446.672 636.273 440.862 638.31 440.455 643.943C440.033 649.65 445.886 653.739 445.871 659.84C445.841 668.661 439.918 665.765 436.409 671.863C432.885 677.962 441.111 677.846 439.408 684.613C434.051 685.736 433.003 692.108 429.728 695.792C427.646 698.106 424.094 699.708 422.494 702.255C420.934 704.729 422.479 707.495 420.178 709.795C417.079 712.895 414.69 710.596 411.269 711.325C401.996 713.289 402.767 715.75 398.256 707.919C396.219 704.38 390.92 700.364 394.793 696.317C384.778 686.826 381.315 669.302 386.642 656.492C390.442 647.379 389.669 648.793 384.924 640.146C381.955 634.745 384.429 629.504 378.228 625.836C372.946 622.707 365.476 624.236 359.699 625.442C352.101 627.014 347.02 627.728 339.191 624.234C333.017 621.484 330.922 615.31 326.57 610.696C319.57 603.274 324.59 601.933 327.11 593.548C328.114 590.2 327.373 586.038 328.579 582.894C329.584 580.244 332.161 578.963 333.223 576.474C334.404 573.709 333.645 570.694 334.838 567.871C335.858 565.498 338.405 564.656 339.131 561.7C343.659 562.022 344.938 557.32 348.607 555.674C351.679 554.306 356.888 554.861 360.34 554.029C364.559 552.997 365.855 551.962 368.972 549.051C371.592 546.62 372.567 542.006 377.429 544.975C373.119 556.503 394.009 562.921 402.539 562.268C404.912 552.866 410.95 559.618 418.229 559.882C423.788 560.085 431.185 559.402 436.962 558.907C435.216 555.371 435.651 551.118 434.4 547.466C429.537 546.796 426.932 550.435 422.173 548.747C418.97 547.597 416.715 544.467 414.402 542.212C414.08 543.159 412.872 544.163 412.596 545.53C402.175 544.394 406.977 538.399 403.775 531.906C401.984 528.282 395.23 524.57 391.447 523.231C385.379 521.076 379.466 522.909 384.329 529.49C387.85 534.25 393.414 534.162 395.885 540.509C389.975 539.665 391.344 547.83 386.891 548.908C389.146 542.023 384.56 529.374 376.249 527.395C369.537 525.793 365.303 535.737 362.319 540.132C357.677 546.959 351.722 548.908 343.863 546.158C338.839 544.397 329.378 541.966 333.731 534.456C337.586 527.774 352.274 533.144 359.028 532.971C360.003 523.771 341.939 527.395 352.247 517.454C354.852 514.935 358.971 511.662 362.088 509.288C364.65 507.352 369.482 505.111 372.554 504.486C377.489 503.481 380.079 505.054 384.52 502.243C386.471 501.007 386.936 498.925 389.279 497.863C391.246 496.976 393.893 498.312 396.136 497.134C400.474 494.833 399.994 490.817 402.86 487.351C405.683 483.93 410.227 484.048 412.686 480.466C408.306 478.284 400.401 475.78 397.766 472.113C398.668 468.342 405.714 454.252 399.776 452.416C390.997 449.708 392.062 467.453 391.553 471.02C390.809 476.144 389.252 487.745 383.867 489.579C379.964 490.903 377.447 487.803 374.156 486.741C370.924 485.693 367.345 486.434 364.331 485.475C353.91 482.127 362.002 475.009 367.634 471.369C376.528 465.62 378.331 460.496 383.327 452.416C385.494 448.907 392.818 439.506 396.31 437.438C403.182 433.362 411.681 440.219 418.448 441.063C419.249 441.163 420.661 441.236 422.334 441.354V441.369C425.159 444.645 427.867 447.978 430.471 451.414C426.061 453.393 415.725 454.659 412.204 455.985C417.807 459.74 424.285 467.195 430.748 461.443C432.539 459.855 432.77 458.007 434.051 456.246C457.254 488.532 471.663 527.571 473.746 569.841C469.976 567.279 468.069 561.966 461.473 563.378C464.588 566.128 466.946 571.049 470.267 573.277C471.736 574.266 472.856 574.615 473.919 574.703C473.977 576.64 474.007 578.574 474.007 580.51V580.508Z" stroke="#0FD5EF" stroke-width="3" stroke-miterlimit="10"/>
<path d="M336.562 385.455C335.53 387.565 332.689 387.2 331.73 388.919C330.492 391.101 329.299 401.088 329.429 403.024C329.751 408.249 332.735 410.725 330.391 416.095C329.648 417.783 327.349 418.496 326.664 420.388C326.023 422.148 326.721 425.484 326.561 427.36C320.942 428.917 325.659 432.253 323.446 435.307C321.437 438.088 313.229 438.904 310.069 439.369C305.367 450.287 289.443 448.873 283.721 460.228C281.538 464.581 284.347 475.278 278.904 477.346C273.255 479.501 271.276 472.003 269.53 468.64C267.187 464.142 263.213 459.585 263.605 454.215C263.924 449.76 267.49 445.148 268.962 440.911C270.389 436.792 274.071 430.708 274.232 426.471C274.423 421.696 270.796 415.337 269.794 410.532C266.898 396.778 246.417 401.537 250.755 384.244C255.5 383.88 260.973 386.937 265.441 384.071C267.96 382.441 269.648 377.709 272.225 375.541C274.787 373.401 276.912 372.587 279.868 371.131C281.978 370.081 284.03 369.209 286.07 368.453H286.082C303.767 370.229 320.814 374.172 336.957 380.009C337.072 381.959 337.203 384.129 336.565 385.455H336.562Z" stroke="#0FD5EF" stroke-width="3" stroke-miterlimit="10"/>
<path d="M191.714 409.269C190.942 414.858 191.48 417.944 184.61 418.57C184.902 419.763 184.276 421.742 184.698 422.98C172.748 418.236 146.269 420.388 147.071 402.631C154.262 397.856 161.756 393.533 169.515 389.66C172.979 392.687 173.258 398.132 177.04 402.412C181.639 407.581 181.174 404.057 186.502 402.631C188.599 402.063 191.699 400.315 193.562 402.804C196.039 406.137 192.093 406.604 191.714 409.269V409.269Z" stroke="#0FD5EF" stroke-width="3" stroke-miterlimit="10"/>
<path d="M227.858 436.399C233.489 443.964 228.19 447.272 219.527 446.91C219.883 453.009 225.166 451.323 228.406 454.47C231.367 457.349 230.076 462.769 234.708 463.821C250.049 467.318 228.499 443.673 241.278 446.224C245.644 447.099 245.453 454.659 250.868 453.348C255.602 452.2 255.718 445.657 253.837 442.412C251.574 438.508 243.956 438.21 242.868 433.822C241.612 428.758 247.374 428.982 243.504 424.634C241.926 422.866 238.279 423.727 236.466 421.298C232.952 416.586 236.812 416.521 231.121 413.582C227.966 411.955 223.704 414.366 224.136 408.514C217.472 407.285 201.631 411.108 208.096 420.723C210.447 424.217 216.144 424.601 219.426 427.022C222.676 429.419 225.457 433.166 227.863 436.396L227.858 436.399Z" stroke="#0FD5EF" stroke-width="3" stroke-miterlimit="10"/>
<path d="M264.684 367.377C258.628 369.138 252.384 370.464 250.884 371.73C246.677 375.281 246.532 380.157 241.423 383.374C236.59 386.416 230.956 388.453 226.036 391.482C235.467 396.867 234.101 402.094 224.012 400.057C220.272 399.301 216.763 399.59 212.978 399.037C209.733 398.57 205.656 394.714 202.353 393.549C198.319 392.122 194.273 391.846 190.066 391.263C185.203 390.593 178.625 389.545 180.052 384.771C205.95 373.578 234.508 367.377 264.51 367.377H264.684Z" stroke="#0FD5EF" stroke-width="3" stroke-miterlimit="10"/>
</g>
<path d="M189 777V856.5H273" stroke="#1B7FA0" stroke-width="3"/>
</g>
<defs>
<linearGradient id="paint0_linear_155_14608" x1="947.01" y1="-677.361" x2="969.15" y2="4178.19" gradientUnits="userSpaceOnUse">
<stop stop-color="#10CCE7"/>
<stop offset="0.06" stop-color="#15A7C5"/>
<stop offset="0.11" stop-color="#1987A8"/>
<stop offset="0.16" stop-color="#1D6C8F"/>
<stop offset="0.23" stop-color="#20567B"/>
<stop offset="0.3" stop-color="#23456B"/>
<stop offset="0.39" stop-color="#243960"/>
<stop offset="0.52" stop-color="#25325A"/>
<stop offset="0.88" stop-color="#263159"/>
</linearGradient>
<linearGradient id="paint1_linear_155_14608" x1="967.85" y1="-14.228" x2="977.26" y2="5179.68" gradientUnits="userSpaceOnUse">
<stop offset="0.45" stop-color="#931B80" stop-opacity="0"/>
<stop offset="1" stop-color="#662481"/>
</linearGradient>
<radialGradient id="paint2_radial_155_14608" cx="0" cy="0" r="1" gradientUnits="userSpaceOnUse" gradientTransform="translate(1893.02 1856.83) scale(273.46 273.46)">
<stop stop-color="#A1195B"/>
<stop offset="0.88" stop-color="#931B80" stop-opacity="0"/>
</radialGradient>
<radialGradient id="paint3_radial_155_14608" cx="0" cy="0" r="1" gradientUnits="userSpaceOnUse" gradientTransform="translate(196.41 4397.54) scale(442.41 442.41)">
<stop stop-color="#A1195B"/>
<stop offset="0.88" stop-color="#931B80" stop-opacity="0"/>
</radialGradient>
<radialGradient id="paint4_radial_155_14608" cx="0" cy="0" r="1" gradientUnits="userSpaceOnUse" gradientTransform="translate(679.14 1091.06) scale(242.06 242.06)">
<stop stop-color="#A1195B"/>
<stop offset="0.88" stop-color="#931B80" stop-opacity="0"/>
</radialGradient>
<clipPath id="clip0_155_14608">
<rect width="1920" height="4105" fill="white"/>
</clipPath>
<clipPath id="clip1_155_14608">
<rect width="1920" height="5141" fill="white" transform="translate(12 72)"/>
</clipPath>
<clipPath id="clip2_155_14608">
<rect width="2412.48" height="3990.95" fill="white" transform="translate(-246 849)"/>
</clipPath>
<clipPath id="clip3_155_14608">
<rect width="2430.63" height="8351.63" fill="white" transform="translate(-255 -49)"/>
</clipPath>
<clipPath id="clip4_155_14608">
<rect width="427" height="427" fill="white" transform="translate(51 367)"/>
</clipPath>
</defs>
</svg>
