<svg width="863" height="98" viewBox="0 0 863 98" fill="none" xmlns="http://www.w3.org/2000/svg">
<g filter="url(#filter0_d_40_122)">
<path d="M4 43.1698L32.5724 0H828.779L859 43.1698L828.779 88H32.5724L4 43.1698Z" fill="#34F79A"/>
</g>
<path d="M372.914 61.2383H356.312V58.9141H372.914V61.2383Z" fill="black"/>
<path d="M377.395 50.3203L380.402 48.8945C380.975 50.1836 381.783 51.1667 382.824 51.8438C383.866 52.5208 385.142 52.8594 386.652 52.8594C388.423 52.8594 389.829 52.4427 390.871 51.6094C391.913 50.763 392.434 49.5781 392.434 48.0547C392.434 46.6224 391.939 45.4766 390.949 44.6172C389.973 43.7448 388.508 43.0417 386.555 42.5078C383.729 41.7396 381.711 40.7435 380.5 39.5195C379.302 38.2826 378.703 36.6745 378.703 34.6953C378.703 32.1953 379.562 30.2878 381.281 28.9727C383 27.6576 384.992 27 387.258 27C389.159 27 390.832 27.4427 392.277 28.3281C393.736 29.2005 394.927 30.5482 395.852 32.3711L392.961 33.6406C392.31 32.3516 391.503 31.4336 390.539 30.8867C389.589 30.3268 388.482 30.0469 387.219 30.0469C385.578 30.0469 384.289 30.431 383.352 31.1992C382.427 31.9544 381.965 32.9961 381.965 34.3242C381.965 35.6523 382.368 36.681 383.176 37.4102C383.996 38.1393 385.428 38.7708 387.473 39.3047C390.454 40.0859 392.57 41.1471 393.82 42.4883C395.07 43.8164 395.695 45.5872 395.695 47.8008C395.695 50.0534 394.921 51.9674 393.371 53.543C391.835 55.1185 389.641 55.9062 386.789 55.9062C384.445 55.9062 382.473 55.4245 380.871 54.4609C379.27 53.4844 378.111 52.1042 377.395 50.3203Z" fill="black"/>
<path d="M417.891 55.4375H403.047V27.4297H417.266V30.3984H406.328V39.7148H416.445V42.6641H406.328V52.4688H417.891V55.4375Z" fill="black"/>
<path d="M447.469 55.4375H443.445L429.031 33.1133C428.823 32.8008 428.673 32.5794 428.582 32.4492C428.491 32.306 428.367 32.1107 428.211 31.8633H428.094C428.12 32.1237 428.139 32.5339 428.152 33.0938C428.165 33.6406 428.172 34.3438 428.172 35.2031V55.4375H424.891V27.4297H429.148L443.172 49.4023C443.419 49.793 443.608 50.1055 443.738 50.3398C443.868 50.5612 444.018 50.8216 444.188 51.1211H444.266C444.24 50.7305 444.22 50.2031 444.207 49.5391C444.194 48.875 444.188 48.0807 444.188 47.1562V27.4297H447.469V55.4375Z" fill="black"/>
<path d="M456.422 55.4375V27.4297H464.156C469.013 27.4297 472.691 28.5495 475.191 30.7891C477.704 33.0286 478.961 36.4596 478.961 41.082C478.961 45.5872 477.6 49.1094 474.879 51.6484C472.158 54.1745 468.479 55.4375 463.844 55.4375H456.422ZM459.703 30.3984V52.4688H463.883C467.555 52.4688 470.413 51.5312 472.457 49.6562C474.501 47.7812 475.523 44.9492 475.523 41.1602C475.523 37.3971 474.579 34.6628 472.691 32.957C470.803 31.2513 467.932 30.3984 464.078 30.3984H459.703Z" fill="black"/>
<path d="M499.516 61.2383H482.914V58.9141H499.516V61.2383Z" fill="black"/>
<defs>
<filter id="filter0_d_40_122" x="0" y="0" width="863" height="98" filterUnits="userSpaceOnUse" color-interpolation-filters="sRGB">
<feFlood flood-opacity="0" result="BackgroundImageFix"/>
<feColorMatrix in="SourceAlpha" type="matrix" values="0 0 0 0 0 0 0 0 0 0 0 0 0 0 0 0 0 0 127 0" result="hardAlpha"/>
<feOffset dy="6"/>
<feGaussianBlur stdDeviation="2"/>
<feComposite in2="hardAlpha" operator="out"/>
<feColorMatrix type="matrix" values="0 0 0 0 0.203922 0 0 0 0 0.968627 0 0 0 0 0.603922 0 0 0 0.6 0"/>
<feBlend mode="normal" in2="BackgroundImageFix" result="effect1_dropShadow_40_122"/>
<feBlend mode="normal" in="SourceGraphic" in2="effect1_dropShadow_40_122" result="shape"/>
</filter>
</defs>
</svg>
