<svg width="398" height="114" viewBox="0 0 398 114" fill="none" xmlns="http://www.w3.org/2000/svg">
<g filter="url(#filter0_d_40_115)">
<path d="M4 50.0377L37.1643 0H358.922L394 50.0377L358.922 102H37.1643L4 50.0377Z" fill="#34F79A"/>
</g>
<path d="M125.659 36.9091H129.182V57.7045C129.182 59.5606 128.841 61.1373 128.159 62.4347C127.477 63.732 126.516 64.7169 125.276 65.3892C124.035 66.0616 122.572 66.3977 120.886 66.3977C119.295 66.3977 117.88 66.1089 116.639 65.5312C115.399 64.9441 114.423 64.1108 113.713 63.0312C113.003 61.9517 112.648 60.6686 112.648 59.1818H116.114C116.114 60.0057 116.317 60.7254 116.724 61.3409C117.141 61.947 117.709 62.4205 118.429 62.7614C119.149 63.1023 119.968 63.2727 120.886 63.2727C121.9 63.2727 122.761 63.0597 123.472 62.6335C124.182 62.2074 124.722 61.5824 125.091 60.7585C125.47 59.9252 125.659 58.9072 125.659 57.7045V36.9091ZM144.651 66.4545C142.681 66.4545 140.953 65.9858 139.466 65.0483C137.989 64.1108 136.833 62.7992 136 61.1136C135.176 59.428 134.764 57.4583 134.764 55.2045C134.764 52.9318 135.176 50.9479 136 49.2528C136.833 47.5578 137.989 46.2415 139.466 45.304C140.953 44.3665 142.681 43.8977 144.651 43.8977C146.62 43.8977 148.344 44.3665 149.821 45.304C151.308 46.2415 152.463 47.5578 153.287 49.2528C154.12 50.9479 154.537 52.9318 154.537 55.2045C154.537 57.4583 154.12 59.428 153.287 61.1136C152.463 62.7992 151.308 64.1108 149.821 65.0483C148.344 65.9858 146.62 66.4545 144.651 66.4545ZM144.651 63.4432C146.147 63.4432 147.378 63.0597 148.344 62.2926C149.31 61.5256 150.025 60.517 150.489 59.267C150.953 58.017 151.185 56.6629 151.185 55.2045C151.185 53.7462 150.953 52.3873 150.489 51.1278C150.025 49.8684 149.31 48.8504 148.344 48.0739C147.378 47.2973 146.147 46.9091 144.651 46.9091C143.154 46.9091 141.923 47.2973 140.957 48.0739C139.991 48.8504 139.277 49.8684 138.812 51.1278C138.348 52.3873 138.116 53.7462 138.116 55.2045C138.116 56.6629 138.348 58.017 138.812 59.267C139.277 60.517 139.991 61.5256 140.957 62.2926C141.923 63.0597 143.154 63.4432 144.651 63.4432ZM159.654 66V44.1818H163.006V66H159.654ZM161.359 40.5455C160.705 40.5455 160.142 40.3229 159.668 39.8778C159.204 39.4328 158.972 38.8977 158.972 38.2727C158.972 37.6477 159.204 37.1127 159.668 36.6676C160.142 36.2225 160.705 36 161.359 36C162.012 36 162.571 36.2225 163.035 36.6676C163.508 37.1127 163.745 37.6477 163.745 38.2727C163.745 38.8977 163.508 39.4328 163.035 39.8778C162.571 40.3229 162.012 40.5455 161.359 40.5455ZM172.499 52.875V66H169.146V44.1818H172.385V47.5909H172.669C173.18 46.483 173.957 45.5928 174.999 44.9205C176.04 44.2386 177.385 43.8977 179.033 43.8977C180.51 43.8977 181.803 44.2008 182.911 44.8068C184.018 45.4034 184.88 46.3125 185.496 47.5341C186.111 48.7462 186.419 50.2803 186.419 52.1364V66H183.067V52.3636C183.067 50.6496 182.622 49.3144 181.732 48.358C180.841 47.392 179.62 46.9091 178.067 46.9091C176.997 46.9091 176.04 47.1411 175.197 47.6051C174.364 48.0691 173.706 48.7462 173.223 49.6364C172.74 50.5265 172.499 51.6061 172.499 52.875ZM227.317 36.9091V66H223.908L208.056 43.1591H207.772V66H204.249V36.9091H207.658L223.567 59.8068H223.852V36.9091H227.317ZM242.776 66.4545C240.806 66.4545 239.078 65.9858 237.591 65.0483C236.114 64.1108 234.958 62.7992 234.125 61.1136C233.301 59.428 232.889 57.4583 232.889 55.2045C232.889 52.9318 233.301 50.9479 234.125 49.2528C234.958 47.5578 236.114 46.2415 237.591 45.304C239.078 44.3665 240.806 43.8977 242.776 43.8977C244.745 43.8977 246.469 44.3665 247.946 45.304C249.433 46.2415 250.588 47.5578 251.412 49.2528C252.245 50.9479 252.662 52.9318 252.662 55.2045C252.662 57.4583 252.245 59.428 251.412 61.1136C250.588 62.7992 249.433 64.1108 247.946 65.0483C246.469 65.9858 244.745 66.4545 242.776 66.4545ZM242.776 63.4432C244.272 63.4432 245.503 63.0597 246.469 62.2926C247.435 61.5256 248.15 60.517 248.614 59.267C249.078 58.017 249.31 56.6629 249.31 55.2045C249.31 53.7462 249.078 52.3873 248.614 51.1278C248.15 49.8684 247.435 48.8504 246.469 48.0739C245.503 47.2973 244.272 46.9091 242.776 46.9091C241.279 46.9091 240.048 47.2973 239.082 48.0739C238.116 48.8504 237.402 49.8684 236.938 51.1278C236.473 52.3873 236.241 53.7462 236.241 55.2045C236.241 56.6629 236.473 58.017 236.938 59.267C237.402 60.517 238.116 61.5256 239.082 62.2926C240.048 63.0597 241.279 63.4432 242.776 63.4432ZM261.98 66L255.332 44.1818H258.855L263.571 60.8864H263.798L268.457 44.1818H272.037L276.639 60.8295H276.866L281.582 44.1818H285.105L278.457 66H275.162L270.389 49.2386H270.048L265.276 66H261.98Z" fill="black"/>
<defs>
<filter id="filter0_d_40_115" x="0" y="0" width="398" height="114" filterUnits="userSpaceOnUse" color-interpolation-filters="sRGB">
<feFlood flood-opacity="0" result="BackgroundImageFix"/>
<feColorMatrix in="SourceAlpha" type="matrix" values="0 0 0 0 0 0 0 0 0 0 0 0 0 0 0 0 0 0 127 0" result="hardAlpha"/>
<feOffset dy="8"/>
<feGaussianBlur stdDeviation="2"/>
<feComposite in2="hardAlpha" operator="out"/>
<feColorMatrix type="matrix" values="0 0 0 0 0.203922 0 0 0 0 0.968627 0 0 0 0 0.603922 0 0 0 0.01 0"/>
<feBlend mode="normal" in2="BackgroundImageFix" result="effect1_dropShadow_40_115"/>
<feBlend mode="normal" in="SourceGraphic" in2="effect1_dropShadow_40_115" result="shape"/>
</filter>
</defs>
</svg>
