<svg width="398" height="114" viewBox="0 0 398 114" fill="none" xmlns="http://www.w3.org/2000/svg">
<g filter="url(#filter0_d_40_112)">
<path d="M4 50.0377L37.1643 0H358.922L394 50.0377L358.922 102H37.1643L4 50.0377Z" fill="#34F79A"/>
</g>
<path d="M65.1252 65.0001V68.1251H46.9434V65.0001H65.1252ZM86.8937 45.0001C86.5812 44.0437 86.1692 43.1867 85.6579 42.4291C85.156 41.662 84.5547 41.0086 83.8539 40.4689C83.1626 39.9291 82.3766 39.5171 81.4959 39.2331C80.6153 38.949 79.6493 38.8069 78.5982 38.8069C76.8747 38.8069 75.3075 39.252 73.8965 40.1421C72.4855 41.0323 71.3634 42.3439 70.53 44.0768C69.6967 45.8098 69.28 47.9357 69.28 50.4546C69.28 52.9736 69.7014 55.0995 70.5442 56.8325C71.387 58.5654 72.5281 59.877 73.9675 60.7671C75.4069 61.6573 77.0262 62.1024 78.8255 62.1024C80.4922 62.1024 81.96 61.7473 83.2289 61.037C84.5073 60.3173 85.5016 59.3041 86.2118 57.9973C86.9315 56.681 87.2914 55.1327 87.2914 53.3524L88.3709 53.5796H79.6209V50.4546H90.7005V53.5796C90.7005 55.9755 90.1891 58.0588 89.1664 59.8296C88.1531 61.6005 86.7516 62.9736 84.9618 63.949C83.1815 64.9149 81.1361 65.3978 78.8255 65.3978C76.2497 65.3978 73.9865 64.7918 72.0357 63.5796C70.0944 62.3675 68.5793 60.644 67.4903 58.4092C66.4107 56.1743 65.8709 53.5228 65.8709 50.4546C65.8709 48.1535 66.1787 46.0844 66.7942 44.2473C67.4192 42.4007 68.2999 40.8287 69.4363 39.5313C70.5726 38.234 71.9173 37.2397 73.4704 36.5484C75.0234 35.8571 76.7327 35.5115 78.5982 35.5115C80.1323 35.5115 81.5622 35.7435 82.888 36.2075C84.2232 36.662 85.4117 37.3107 86.4533 38.1535C87.5045 38.9868 88.3804 39.9859 89.0812 41.1507C89.7819 42.306 90.2649 43.5891 90.53 45.0001H86.8937ZM96.7339 65.0001V35.9092H114.29V39.0342H100.257V48.8637H113.381V51.9887H100.257V61.8751H114.518V65.0001H96.7339ZM119.049 39.0342V35.9092H140.867V39.0342H131.719V65.0001H128.197V39.0342H119.049ZM173.463 43.1819C173.293 41.7425 172.601 40.6251 171.389 39.8296C170.177 39.0342 168.69 38.6365 166.929 38.6365C165.641 38.6365 164.514 38.8448 163.548 39.2615C162.592 39.6781 161.844 40.251 161.304 40.9802C160.774 41.7094 160.509 42.538 160.509 43.466C160.509 44.2425 160.693 44.9101 161.062 45.4689C161.441 46.0181 161.924 46.4774 162.511 46.8467C163.098 47.2065 163.714 47.5048 164.358 47.7416C165.002 47.9688 165.594 48.1535 166.134 48.2956L169.088 49.091C169.846 49.2899 170.688 49.5645 171.616 49.9149C172.554 50.2653 173.449 50.7435 174.301 51.3495C175.163 51.9461 175.873 52.7132 176.432 53.6507C176.991 54.5882 177.27 55.7387 177.27 57.1024C177.27 58.6743 176.858 60.0948 176.034 61.3637C175.22 62.6327 174.027 63.6412 172.455 64.3893C170.892 65.1374 168.993 65.5115 166.759 65.5115C164.675 65.5115 162.871 65.1753 161.347 64.5029C159.831 63.8306 158.638 62.8931 157.767 61.6904C156.905 60.4878 156.418 59.091 156.304 57.5001H159.94C160.035 58.5986 160.404 59.5077 161.048 60.2274C161.702 60.9376 162.526 61.4679 163.52 61.8183C164.524 62.1592 165.603 62.3296 166.759 62.3296C168.103 62.3296 169.311 62.1118 170.381 61.6762C171.451 61.2312 172.298 60.6156 172.923 59.8296C173.548 59.0342 173.861 58.1062 173.861 57.0456C173.861 56.0796 173.591 55.2937 173.051 54.6876C172.511 54.0815 171.801 53.5891 170.92 53.2103C170.04 52.8315 169.088 52.5001 168.065 52.216L164.486 51.1933C162.213 50.5399 160.414 49.6071 159.088 48.395C157.762 47.1829 157.099 45.5967 157.099 43.6365C157.099 42.0077 157.54 40.5872 158.42 39.3751C159.311 38.1535 160.504 37.2065 162 36.5342C163.506 35.8524 165.187 35.5115 167.043 35.5115C168.918 35.5115 170.584 35.8476 172.043 36.52C173.501 37.1829 174.656 38.092 175.509 39.2473C176.37 40.4026 176.825 41.7141 176.872 43.1819H173.463ZM181.471 39.0342V35.9092H203.289V39.0342H194.141V65.0001H190.619V39.0342H181.471ZM206.521 65.0001H202.827L213.509 35.9092H217.146L227.827 65.0001H224.134L215.441 40.5115H215.214L206.521 65.0001ZM207.884 53.6365H222.771V56.7615H207.884V53.6365ZM232.359 65.0001V35.9092H242.188C244.461 35.9092 246.326 36.2974 247.785 37.074C249.243 37.841 250.323 38.8969 251.023 40.2416C251.724 41.5863 252.075 43.1156 252.075 44.8296C252.075 46.5437 251.724 48.0635 251.023 49.3893C250.323 50.7151 249.248 51.7567 247.799 52.5143C246.35 53.2624 244.499 53.6365 242.245 53.6365H234.29V50.4546H242.131C243.684 50.4546 244.934 50.2274 245.881 49.7728C246.838 49.3183 247.529 48.6743 247.955 47.841C248.391 46.9982 248.609 45.9944 248.609 44.8296C248.609 43.6649 248.391 42.6469 247.955 41.7757C247.52 40.9045 246.824 40.2321 245.867 39.7586C244.911 39.2757 243.647 39.0342 242.075 39.0342H235.881V65.0001H232.359ZM246.052 51.9319L253.211 65.0001H249.12L242.075 51.9319H246.052ZM256.354 39.0342V35.9092H278.172V39.0342H269.024V65.0001H265.501V39.0342H256.354ZM283.609 65.0001V35.9092H301.165V39.0342H287.131V48.8637H300.256V51.9887H287.131V61.8751H301.393V65.0001H283.609ZM316.492 65.0001H307.515V35.9092H316.89C319.712 35.9092 322.127 36.4916 324.134 37.6563C326.142 38.8117 327.681 40.4736 328.751 42.6421C329.821 44.8012 330.356 47.3865 330.356 50.3978C330.356 53.4281 329.816 56.037 328.737 58.2245C327.657 60.4026 326.085 62.0787 324.021 63.2529C321.956 64.4177 319.447 65.0001 316.492 65.0001ZM311.038 61.8751H316.265C318.67 61.8751 320.664 61.4111 322.245 60.4831C323.826 59.555 325.005 58.234 325.782 56.52C326.558 54.806 326.947 52.7653 326.947 50.3978C326.947 48.0493 326.563 46.0276 325.796 44.3325C325.029 42.6279 323.883 41.3211 322.359 40.412C320.834 39.4935 318.935 39.0342 316.663 39.0342H311.038V61.8751ZM349.266 65.0001V68.1251H331.084V65.0001H349.266Z" fill="black"/>
<defs>
<filter id="filter0_d_40_112" x="0" y="0" width="398" height="114" filterUnits="userSpaceOnUse" color-interpolation-filters="sRGB">
<feFlood flood-opacity="0" result="BackgroundImageFix"/>
<feColorMatrix in="SourceAlpha" type="matrix" values="0 0 0 0 0 0 0 0 0 0 0 0 0 0 0 0 0 0 127 0" result="hardAlpha"/>
<feOffset dy="8"/>
<feGaussianBlur stdDeviation="2"/>
<feComposite in2="hardAlpha" operator="out"/>
<feColorMatrix type="matrix" values="0 0 0 0 0.203922 0 0 0 0 0.968627 0 0 0 0 0.603922 0 0 0 0.6 0"/>
<feBlend mode="normal" in2="BackgroundImageFix" result="effect1_dropShadow_40_112"/>
<feBlend mode="normal" in="SourceGraphic" in2="effect1_dropShadow_40_112" result="shape"/>
</filter>
</defs>
</svg>
