<svg width="230" height="66" viewBox="0 0 230 66" fill="none" xmlns="http://www.w3.org/2000/svg">
<g filter="url(#filter0_d_39_107)">
<path d="M4 28.4528L22.8582 0H205.819L225.765 28.4528L205.819 58H22.8582L4 28.4528Z" fill="#34F79A"/>
</g>
<path d="M48.1589 24.9998H46.0453C45.9203 24.3918 45.7015 23.8578 45.389 23.3975C45.0822 22.9373 44.7072 22.5509 44.264 22.2384C43.8265 21.9203 43.3407 21.6816 42.8066 21.5225C42.2725 21.3634 41.7157 21.2839 41.1362 21.2839C40.0793 21.2839 39.122 21.5509 38.264 22.085C37.4117 22.6191 36.7328 23.406 36.2271 24.4458C35.7271 25.4856 35.4771 26.7612 35.4771 28.2725C35.4771 29.7839 35.7271 31.0595 36.2271 32.0992C36.7328 33.139 37.4117 33.9259 38.264 34.46C39.122 34.9941 40.0793 35.2612 41.1362 35.2612C41.7157 35.2612 42.2725 35.1816 42.8066 35.0225C43.3407 34.8634 43.8265 34.6276 44.264 34.3151C44.7072 33.997 45.0822 33.6078 45.389 33.1475C45.7015 32.6816 45.9203 32.1475 46.0453 31.5453H48.1589C47.9998 32.4373 47.71 33.2356 47.2896 33.9401C46.8691 34.6447 46.3464 35.2441 45.7214 35.7384C45.0964 36.2271 44.3947 36.5992 43.6163 36.8549C42.8436 37.1106 42.0168 37.2384 41.1362 37.2384C39.6475 37.2384 38.3237 36.8748 37.1646 36.1475C36.0055 35.4203 35.0936 34.3862 34.4288 33.0453C33.764 31.7043 33.4316 30.1134 33.4316 28.2725C33.4316 26.4316 33.764 24.8407 34.4288 23.4998C35.0936 22.1589 36.0055 21.1248 37.1646 20.3975C38.3237 19.6703 39.6475 19.3066 41.1362 19.3066C42.0168 19.3066 42.8436 19.4345 43.6163 19.6901C44.3947 19.9458 45.0964 20.3208 45.7214 20.8151C46.3464 21.3038 46.8691 21.9004 47.2896 22.6049C47.71 23.3038 47.9998 24.1021 48.1589 24.9998ZM56.6198 37.2725C55.438 37.2725 54.4011 36.9913 53.509 36.4288C52.6227 35.8663 51.9295 35.0793 51.4295 34.068C50.9352 33.0566 50.688 31.8748 50.688 30.5225C50.688 29.1589 50.9352 27.9685 51.4295 26.9515C51.9295 25.9345 52.6227 25.1447 53.509 24.5822C54.4011 24.0197 55.438 23.7384 56.6198 23.7384C57.8016 23.7384 58.8357 24.0197 59.7221 24.5822C60.6141 25.1447 61.3073 25.9345 61.8016 26.9515C62.3016 27.9685 62.5516 29.1589 62.5516 30.5225C62.5516 31.8748 62.3016 33.0566 61.8016 34.068C61.3073 35.0793 60.6141 35.8663 59.7221 36.4288C58.8357 36.9913 57.8016 37.2725 56.6198 37.2725ZM56.6198 35.4657C57.5176 35.4657 58.2562 35.2356 58.8357 34.7754C59.4153 34.3151 59.8443 33.71 60.1227 32.96C60.4011 32.21 60.5403 31.3975 60.5403 30.5225C60.5403 29.6475 60.4011 28.8322 60.1227 28.0765C59.8443 27.3208 59.4153 26.71 58.8357 26.2441C58.2562 25.7782 57.5176 25.5453 56.6198 25.5453C55.7221 25.5453 54.9835 25.7782 54.4039 26.2441C53.8244 26.71 53.3954 27.3208 53.117 28.0765C52.8386 28.8322 52.6994 29.6475 52.6994 30.5225C52.6994 31.3975 52.8386 32.21 53.117 32.96C53.3954 33.71 53.8244 34.3151 54.4039 34.7754C54.9835 35.2356 55.7221 35.4657 56.6198 35.4657ZM65.622 41.9089V23.9089H67.5651V25.9884H67.8038C67.9515 25.7612 68.1561 25.4714 68.4174 25.1191C68.6845 24.7612 69.0651 24.443 69.5595 24.1646C70.0595 23.8805 70.7356 23.7384 71.5879 23.7384C72.6901 23.7384 73.6617 24.014 74.5026 24.5651C75.3436 25.1163 75.9998 25.8975 76.4714 26.9089C76.943 27.9203 77.1788 29.1134 77.1788 30.4884C77.1788 31.8748 76.943 33.0765 76.4714 34.0936C75.9998 35.1049 75.3464 35.889 74.5112 36.4458C73.6759 36.997 72.7129 37.2725 71.622 37.2725C70.7811 37.2725 70.1078 37.1333 69.6021 36.8549C69.0964 36.5708 68.7072 36.2498 68.4345 35.8918C68.1617 35.5282 67.9515 35.2271 67.8038 34.9884H67.6333V41.9089H65.622ZM67.5992 30.4543C67.5992 31.443 67.7441 32.3151 68.0339 33.0708C68.3237 33.8208 68.747 34.4089 69.3038 34.835C69.8606 35.2555 70.5424 35.4657 71.3492 35.4657C72.1901 35.4657 72.8918 35.2441 73.4543 34.8009C74.0225 34.3521 74.4487 33.7498 74.7328 32.9941C75.0225 32.2328 75.1674 31.3862 75.1674 30.4543C75.1674 29.5339 75.0254 28.7043 74.7413 27.9657C74.4629 27.2214 74.0396 26.6333 73.4714 26.2015C72.9089 25.764 72.2015 25.5453 71.3492 25.5453C70.5311 25.5453 69.8436 25.7526 69.2867 26.1674C68.7299 26.5765 68.3095 27.1504 68.0254 27.889C67.7413 28.622 67.5992 29.4771 67.5992 30.4543ZM81.0737 41.9089C80.7328 41.9089 80.4288 41.8805 80.1617 41.8237C79.8947 41.7725 79.71 41.7214 79.6078 41.6703L80.1191 39.8975C80.6078 40.0225 81.0396 40.068 81.4146 40.0339C81.7896 39.9998 82.122 39.8322 82.4117 39.531C82.7072 39.2356 82.9771 38.7555 83.2214 38.0907L83.5964 37.068L78.7555 23.9089H80.9373L84.5509 34.3407H84.6873L88.3009 23.9089H90.4828L84.9259 38.9089C84.6759 39.585 84.3663 40.1447 83.997 40.5879C83.6276 41.0367 83.1987 41.3691 82.71 41.585C82.2271 41.8009 81.6816 41.9089 81.0737 41.9089ZM114.206 24.9998H112.092C111.967 24.3918 111.749 23.8578 111.436 23.3975C111.129 22.9373 110.754 22.5509 110.311 22.2384C109.874 21.9203 109.388 21.6816 108.854 21.5225C108.32 21.3634 107.763 21.2839 107.183 21.2839C106.126 21.2839 105.169 21.5509 104.311 22.085C103.459 22.6191 102.78 23.406 102.274 24.4458C101.774 25.4856 101.524 26.7612 101.524 28.2725C101.524 29.7839 101.774 31.0595 102.274 32.0992C102.78 33.139 103.459 33.9259 104.311 34.46C105.169 34.9941 106.126 35.2612 107.183 35.2612C107.763 35.2612 108.32 35.1816 108.854 35.0225C109.388 34.8634 109.874 34.6276 110.311 34.3151C110.754 33.997 111.129 33.6078 111.436 33.1475C111.749 32.6816 111.967 32.1475 112.092 31.5453H114.206C114.047 32.4373 113.757 33.2356 113.337 33.9401C112.916 34.6447 112.393 35.2441 111.768 35.7384C111.143 36.2271 110.442 36.5992 109.663 36.8549C108.891 37.1106 108.064 37.2384 107.183 37.2384C105.695 37.2384 104.371 36.8748 103.211 36.1475C102.052 35.4203 101.14 34.3862 100.476 33.0453C99.8109 31.7043 99.4785 30.1134 99.4785 28.2725C99.4785 26.4316 99.8109 24.8407 100.476 23.4998C101.14 22.1589 102.052 21.1248 103.211 20.3975C104.371 19.6703 105.695 19.3066 107.183 19.3066C108.064 19.3066 108.891 19.4345 109.663 19.6901C110.442 19.9458 111.143 20.3208 111.768 20.8151C112.393 21.3038 112.916 21.9004 113.337 22.6049C113.757 23.3038 114.047 24.1021 114.206 24.9998ZM122.667 37.2725C121.485 37.2725 120.448 36.9913 119.556 36.4288C118.67 35.8663 117.977 35.0793 117.477 34.068C116.982 33.0566 116.735 31.8748 116.735 30.5225C116.735 29.1589 116.982 27.9685 117.477 26.9515C117.977 25.9345 118.67 25.1447 119.556 24.5822C120.448 24.0197 121.485 23.7384 122.667 23.7384C123.849 23.7384 124.883 24.0197 125.769 24.5822C126.661 25.1447 127.354 25.9345 127.849 26.9515C128.349 27.9685 128.599 29.1589 128.599 30.5225C128.599 31.8748 128.349 33.0566 127.849 34.068C127.354 35.0793 126.661 35.8663 125.769 36.4288C124.883 36.9913 123.849 37.2725 122.667 37.2725ZM122.667 35.4657C123.565 35.4657 124.303 35.2356 124.883 34.7754C125.462 34.3151 125.891 33.71 126.17 32.96C126.448 32.21 126.587 31.3975 126.587 30.5225C126.587 29.6475 126.448 28.8322 126.17 28.0765C125.891 27.3208 125.462 26.71 124.883 26.2441C124.303 25.7782 123.565 25.5453 122.667 25.5453C121.769 25.5453 121.031 25.7782 120.451 26.2441C119.871 26.71 119.442 27.3208 119.164 28.0765C118.886 28.8322 118.746 29.6475 118.746 30.5225C118.746 31.3975 118.886 32.21 119.164 32.96C119.442 33.71 119.871 34.3151 120.451 34.7754C121.031 35.2356 121.769 35.4657 122.667 35.4657ZM133.68 29.1248V36.9998H131.669V23.9089H133.612V25.9543H133.783C134.089 25.2896 134.555 24.7555 135.18 24.3521C135.805 23.943 136.612 23.7384 137.601 23.7384C138.487 23.7384 139.263 23.9203 139.928 24.2839C140.592 24.6418 141.109 25.1873 141.479 25.9203C141.848 26.6475 142.033 27.568 142.033 28.6816V36.9998H140.021V28.818C140.021 27.7896 139.754 26.9884 139.22 26.4146C138.686 25.835 137.953 25.5453 137.021 25.5453C136.379 25.5453 135.805 25.6845 135.3 25.9629C134.8 26.2413 134.405 26.6475 134.115 27.1816C133.825 27.7157 133.68 28.3634 133.68 29.1248ZM151.401 23.9089V25.6134H144.617V23.9089H151.401ZM146.594 20.7725H148.606V33.2498C148.606 33.818 148.688 34.2441 148.853 34.5282C149.023 34.8066 149.239 34.9941 149.501 35.0907C149.768 35.1816 150.049 35.2271 150.344 35.2271C150.566 35.2271 150.748 35.2157 150.89 35.193C151.032 35.1646 151.146 35.1418 151.231 35.1248L151.64 36.9316C151.504 36.9828 151.313 37.0339 151.069 37.085C150.825 37.1418 150.515 37.1703 150.14 37.1703C149.572 37.1703 149.015 37.0481 148.469 36.8038C147.93 36.5595 147.481 36.1873 147.123 35.6873C146.771 35.1873 146.594 34.5566 146.594 33.7953V20.7725ZM154.427 36.9998V23.9089H156.37V25.8862H156.506C156.745 25.2384 157.177 24.7129 157.802 24.3095C158.427 23.906 159.131 23.7043 159.915 23.7043C160.063 23.7043 160.248 23.7072 160.469 23.7129C160.691 23.7185 160.859 23.7271 160.972 23.7384V25.7839C160.904 25.7668 160.748 25.7413 160.504 25.7072C160.265 25.6674 160.012 25.6475 159.745 25.6475C159.109 25.6475 158.54 25.781 158.04 26.0481C157.546 26.3095 157.154 26.6731 156.864 27.139C156.58 27.5992 156.438 28.1248 156.438 28.7157V36.9998H154.427ZM167.209 37.3066C166.379 37.3066 165.626 37.1504 164.95 36.8379C164.274 36.5197 163.737 36.0623 163.339 35.4657C162.942 34.8634 162.743 34.1362 162.743 33.2839C162.743 32.5339 162.891 31.9259 163.186 31.46C163.482 30.9884 163.876 30.6191 164.371 30.3521C164.865 30.085 165.411 29.8862 166.007 29.7555C166.609 29.6191 167.214 29.5112 167.822 29.4316C168.618 29.3293 169.263 29.2526 169.757 29.2015C170.257 29.1447 170.621 29.0509 170.848 28.9203C171.081 28.7896 171.197 28.5623 171.197 28.2384V28.1703C171.197 27.3293 170.967 26.6759 170.507 26.21C170.053 25.7441 169.362 25.5112 168.436 25.5112C167.476 25.5112 166.723 25.7214 166.178 26.1418C165.632 26.5623 165.249 27.0112 165.027 27.4884L163.118 26.8066C163.459 26.0112 163.913 25.3918 164.482 24.9487C165.055 24.4998 165.68 24.1873 166.357 24.0112C167.038 23.8293 167.709 23.7384 168.368 23.7384C168.788 23.7384 169.271 23.7896 169.817 23.8918C170.368 23.9884 170.899 24.1901 171.411 24.497C171.928 24.8038 172.357 25.2668 172.697 25.8862C173.038 26.5055 173.209 27.335 173.209 28.3748V36.9998H171.197V35.2271H171.095C170.959 35.5112 170.732 35.8151 170.413 36.139C170.095 36.4629 169.672 36.7384 169.143 36.9657C168.615 37.193 167.97 37.3066 167.209 37.3066ZM167.516 35.4998C168.311 35.4998 168.982 35.3436 169.527 35.031C170.078 34.7186 170.493 34.3151 170.771 33.8208C171.055 33.3265 171.197 32.8066 171.197 32.2612V30.4203C171.112 30.5225 170.925 30.6163 170.635 30.7015C170.351 30.781 170.021 30.8521 169.646 30.9146C169.277 30.9714 168.916 31.0225 168.564 31.068C168.217 31.1078 167.936 31.1418 167.72 31.1703C167.197 31.2384 166.709 31.3492 166.254 31.5026C165.805 31.6504 165.442 31.8748 165.163 32.1759C164.891 32.4714 164.754 32.8748 164.754 33.3862C164.754 34.085 165.013 34.6134 165.53 34.9714C166.053 35.3237 166.714 35.4998 167.516 35.4998ZM182.198 37.2725C180.971 37.2725 179.914 36.9828 179.028 36.4032C178.141 35.8237 177.46 35.0254 176.982 34.0083C176.505 32.9913 176.266 31.8293 176.266 30.5225C176.266 29.193 176.511 28.0197 176.999 27.0026C177.494 25.9799 178.181 25.1816 179.062 24.6078C179.948 24.0282 180.982 23.7384 182.164 23.7384C183.085 23.7384 183.914 23.9089 184.653 24.2498C185.391 24.5907 185.996 25.068 186.468 25.6816C186.94 26.2953 187.232 27.0112 187.346 27.8293H185.335C185.181 27.2328 184.84 26.7043 184.312 26.2441C183.789 25.7782 183.085 25.5453 182.198 25.5453C181.414 25.5453 180.727 25.7498 180.136 26.1589C179.55 26.5623 179.093 27.1333 178.763 27.872C178.44 28.6049 178.278 29.4657 178.278 30.4543C178.278 31.4657 178.437 32.3464 178.755 33.0964C179.079 33.8464 179.533 34.4288 180.119 34.8436C180.71 35.2583 181.403 35.4657 182.198 35.4657C182.721 35.4657 183.195 35.3748 183.621 35.193C184.048 35.0112 184.408 34.7498 184.704 34.4089C184.999 34.068 185.21 33.6589 185.335 33.1816H187.346C187.232 33.9543 186.951 34.6504 186.502 35.2697C186.059 35.8833 185.471 36.372 184.738 36.7356C184.011 37.0936 183.164 37.2725 182.198 37.2725ZM195.979 23.9089V25.6134H189.195V23.9089H195.979ZM191.173 20.7725H193.184V33.2498C193.184 33.818 193.266 34.2441 193.431 34.5282C193.602 34.8066 193.817 34.9941 194.079 35.0907C194.346 35.1816 194.627 35.2271 194.923 35.2271C195.144 35.2271 195.326 35.2157 195.468 35.193C195.61 35.1646 195.724 35.1418 195.809 35.1248L196.218 36.9316C196.082 36.9828 195.891 37.0339 195.647 37.085C195.403 37.1418 195.093 37.1703 194.718 37.1703C194.15 37.1703 193.593 37.0481 193.048 36.8038C192.508 36.5595 192.059 36.1873 191.701 35.6873C191.349 35.1873 191.173 34.5566 191.173 33.7953V20.7725Z" fill="black"/>
<defs>
<filter id="filter0_d_39_107" x="0" y="0" width="229.765" height="66" filterUnits="userSpaceOnUse" color-interpolation-filters="sRGB">
<feFlood flood-opacity="0" result="BackgroundImageFix"/>
<feColorMatrix in="SourceAlpha" type="matrix" values="0 0 0 0 0 0 0 0 0 0 0 0 0 0 0 0 0 0 127 0" result="hardAlpha"/>
<feOffset dy="4"/>
<feGaussianBlur stdDeviation="2"/>
<feComposite in2="hardAlpha" operator="out"/>
<feColorMatrix type="matrix" values="0 0 0 0 0.203922 0 0 0 0 0.968627 0 0 0 0 0.603922 0 0 0 0.6 0"/>
<feBlend mode="normal" in2="BackgroundImageFix" result="effect1_dropShadow_39_107"/>
<feBlend mode="normal" in="SourceGraphic" in2="effect1_dropShadow_39_107" result="shape"/>
</filter>
</defs>
</svg>
