<svg width="398" height="114" viewBox="0 0 398 114" fill="none" xmlns="http://www.w3.org/2000/svg">
<g filter="url(#filter0_d_39_88)">
<path d="M4 50.0377L37.1643 0H358.922L394 50.0377L358.922 102H37.1643L4 50.0377Z" fill="#34F79A"/>
<path d="M65.1252 65.0001V68.1251H46.9434V65.0001H65.1252ZM73.893 65.0001L65.9384 35.9092H69.518L75.5975 59.6024H75.8816L82.0748 35.9092H86.052L92.2452 59.6024H92.5293L98.6089 35.9092H102.188L94.2339 65.0001H90.5975L84.177 41.8183H83.9498L77.5293 65.0001H73.893ZM106.577 65.0001V35.9092H110.1V48.8637H125.612V35.9092H129.134V65.0001H125.612V51.9887H110.1V65.0001H106.577ZM139.71 35.9092V65.0001H136.187V35.9092H139.71ZM145.182 39.0342V35.9092H167V39.0342H157.852V65.0001H154.33V39.0342H145.182ZM172.437 65.0001V35.9092H189.994V39.0342H175.96V48.8637H189.085V51.9887H175.96V61.8751H190.221V65.0001H172.437ZM210.945 65.0001V68.1251H192.763V65.0001H210.945ZM214.429 65.0001V35.9092H224.259C226.541 35.9092 228.406 36.3211 229.855 37.145C231.313 37.9594 232.393 39.0626 233.094 40.4546C233.795 41.8467 234.145 43.3997 234.145 45.1137C234.145 46.8278 233.795 48.3855 233.094 49.787C232.402 51.1885 231.332 52.306 229.884 53.1393C228.435 53.9632 226.579 54.3751 224.315 54.3751H217.27V51.2501H224.202C225.764 51.2501 227.019 50.9802 227.966 50.4404C228.913 49.9007 229.599 49.1715 230.026 48.2529C230.461 47.3249 230.679 46.2785 230.679 45.1137C230.679 43.949 230.461 42.9073 230.026 41.9887C229.599 41.0702 228.908 40.3505 227.952 39.8296C226.995 39.2993 225.726 39.0342 224.145 39.0342H217.952V65.0001H214.429ZM238.044 65.0001H234.351L245.033 35.9092H248.669L259.351 65.0001H255.658L246.964 40.5115H246.737L238.044 65.0001ZM239.408 53.6365H254.294V56.7615H239.408V53.6365ZM263.882 65.0001V35.9092H273.712C275.994 35.9092 277.859 36.3211 279.308 37.145C280.767 37.9594 281.846 39.0626 282.547 40.4546C283.248 41.8467 283.598 43.3997 283.598 45.1137C283.598 46.8278 283.248 48.3855 282.547 49.787C281.856 51.1885 280.786 52.306 279.337 53.1393C277.888 53.9632 276.032 54.3751 273.768 54.3751H266.723V51.2501H273.655C275.217 51.2501 276.472 50.9802 277.419 50.4404C278.366 49.9007 279.053 49.1715 279.479 48.2529C279.914 47.3249 280.132 46.2785 280.132 45.1137C280.132 43.949 279.914 42.9073 279.479 41.9887C279.053 41.0702 278.361 40.3505 277.405 39.8296C276.448 39.2993 275.179 39.0342 273.598 39.0342H267.405V65.0001H263.882ZM289.273 65.0001V35.9092H306.83V39.0342H292.795V48.8637H305.92V51.9887H292.795V61.8751H307.057V65.0001H289.273ZM313.179 65.0001V35.9092H323.009C325.281 35.9092 327.147 36.2974 328.605 37.074C330.063 37.841 331.143 38.8969 331.844 40.2416C332.545 41.5863 332.895 43.1156 332.895 44.8296C332.895 46.5437 332.545 48.0635 331.844 49.3893C331.143 50.7151 330.068 51.7567 328.619 52.5143C327.17 53.2624 325.319 53.6365 323.065 53.6365H315.111V50.4546H322.952C324.505 50.4546 325.755 50.2274 326.702 49.7728C327.658 49.3183 328.349 48.6743 328.776 47.841C329.211 46.9982 329.429 45.9944 329.429 44.8296C329.429 43.6649 329.211 42.6469 328.776 41.7757C328.34 40.9045 327.644 40.2321 326.688 39.7586C325.731 39.2757 324.467 39.0342 322.895 39.0342H316.702V65.0001H313.179ZM326.872 51.9319L334.031 65.0001H329.94L322.895 51.9319H326.872ZM353.367 65.0001V68.1251H335.185V65.0001H353.367Z" fill="black"/>
</g>
<defs>
<filter id="filter0_d_39_88" x="0" y="0" width="398" height="114" filterUnits="userSpaceOnUse" color-interpolation-filters="sRGB">
<feFlood flood-opacity="0" result="BackgroundImageFix"/>
<feColorMatrix in="SourceAlpha" type="matrix" values="0 0 0 0 0 0 0 0 0 0 0 0 0 0 0 0 0 0 127 0" result="hardAlpha"/>
<feOffset dy="8"/>
<feGaussianBlur stdDeviation="2"/>
<feComposite in2="hardAlpha" operator="out"/>
<feColorMatrix type="matrix" values="0 0 0 0 0.203922 0 0 0 0 0.968627 0 0 0 0 0.603922 0 0 0 0.01 0"/>
<feBlend mode="normal" in2="BackgroundImageFix" result="effect1_dropShadow_39_88"/>
<feBlend mode="normal" in="SourceGraphic" in2="effect1_dropShadow_39_88" result="shape"/>
</filter>
</defs>
</svg>
