<svg width="683" height="102" viewBox="0 0 683 102" fill="none" xmlns="http://www.w3.org/2000/svg">
<path d="M0 50.0377L58.0801 0H621.569L683 50.0377L621.569 102H58.0801L0 50.0377Z" fill="#34F79A"/>
<path d="M88.125 66V69.125H69.9432V66H88.125ZM91.6087 66V36.9091H95.1314V62.875H108.654V66H91.6087ZM120.075 66.5114C118.692 66.5114 117.437 66.2509 116.31 65.7301C115.183 65.1998 114.289 64.4375 113.626 63.4432C112.963 62.4394 112.631 61.2273 112.631 59.8068C112.631 58.5568 112.878 57.5436 113.37 56.767C113.862 55.9811 114.521 55.3655 115.344 54.9205C116.168 54.4754 117.077 54.1439 118.072 53.9261C119.076 53.6989 120.084 53.5189 121.097 53.3864C122.423 53.2159 123.498 53.0881 124.322 53.0028C125.155 52.9081 125.761 52.7519 126.14 52.5341C126.528 52.3163 126.722 51.9375 126.722 51.3977V51.2841C126.722 49.8826 126.339 48.7936 125.572 48.017C124.814 47.2405 123.664 46.8523 122.12 46.8523C120.52 46.8523 119.265 47.2027 118.356 47.9034C117.447 48.6042 116.808 49.3523 116.438 50.1477L113.256 49.0114C113.825 47.6856 114.582 46.6534 115.529 45.9148C116.486 45.1667 117.527 44.6458 118.654 44.3523C119.79 44.0492 120.908 43.8977 122.006 43.8977C122.707 43.8977 123.512 43.983 124.421 44.1534C125.34 44.3144 126.225 44.6506 127.077 45.1619C127.939 45.6733 128.654 46.4451 129.222 47.4773C129.79 48.5095 130.075 49.892 130.075 51.625V66H126.722V63.0455H126.552C126.325 63.5189 125.946 64.0256 125.415 64.5653C124.885 65.1051 124.18 65.5644 123.299 65.9432C122.418 66.322 121.344 66.5114 120.075 66.5114ZM120.586 63.5C121.912 63.5 123.029 63.2396 123.938 62.7188C124.857 62.1979 125.548 61.5256 126.012 60.7017C126.486 59.8778 126.722 59.0114 126.722 58.1023V55.0341C126.58 55.2045 126.268 55.3608 125.785 55.5028C125.311 55.6354 124.762 55.7538 124.137 55.858C123.522 55.9527 122.92 56.0379 122.333 56.1136C121.755 56.1799 121.287 56.2367 120.927 56.2841C120.056 56.3977 119.241 56.5824 118.484 56.8381C117.736 57.0843 117.129 57.4583 116.665 57.9602C116.211 58.4527 115.984 59.125 115.984 59.9773C115.984 61.142 116.415 62.0227 117.276 62.6193C118.147 63.2064 119.251 63.5 120.586 63.5ZM149.943 57.0795V44.1818H153.295V66H149.943V62.3068H149.716C149.205 63.4148 148.409 64.357 147.33 65.1335C146.25 65.9006 144.886 66.2841 143.239 66.2841C141.875 66.2841 140.663 65.9858 139.602 65.3892C138.542 64.7831 137.708 63.8741 137.102 62.6619C136.496 61.4403 136.193 59.9015 136.193 58.0455V44.1818H139.545V57.8182C139.545 59.4091 139.991 60.678 140.881 61.625C141.78 62.572 142.926 63.0455 144.318 63.0455C145.152 63.0455 145.999 62.8324 146.861 62.4062C147.732 61.9801 148.461 61.3267 149.048 60.446C149.645 59.5653 149.943 58.4432 149.943 57.0795ZM162.788 52.875V66H159.435V44.1818H162.674V47.5909H162.958C163.469 46.483 164.246 45.5928 165.288 44.9205C166.329 44.2386 167.674 43.8977 169.322 43.8977C170.799 43.8977 172.092 44.2008 173.2 44.8068C174.308 45.4034 175.169 46.3125 175.785 47.5341C176.4 48.7462 176.708 50.2803 176.708 52.1364V66H173.356V52.3636C173.356 50.6496 172.911 49.3144 172.021 48.358C171.13 47.392 169.909 46.9091 168.356 46.9091C167.286 46.9091 166.329 47.1411 165.487 47.6051C164.653 48.0691 163.995 48.7462 163.512 49.6364C163.029 50.5265 162.788 51.6061 162.788 52.875ZM191.697 66.4545C189.652 66.4545 187.891 65.9716 186.413 65.0057C184.936 64.0398 183.8 62.7093 183.004 61.0142C182.209 59.3191 181.811 57.3826 181.811 55.2045C181.811 52.9886 182.218 51.0331 183.033 49.3381C183.857 47.6335 185.002 46.303 186.47 45.3466C187.947 44.3807 189.671 43.8977 191.641 43.8977C193.175 43.8977 194.557 44.1818 195.788 44.75C197.019 45.3182 198.028 46.1136 198.814 47.1364C199.6 48.1591 200.088 49.3523 200.277 50.7159H196.925C196.669 49.7216 196.101 48.8409 195.22 48.0739C194.349 47.2973 193.175 46.9091 191.697 46.9091C190.391 46.9091 189.245 47.25 188.26 47.9318C187.285 48.6042 186.522 49.5559 185.973 50.7869C185.433 52.0085 185.163 53.4432 185.163 55.0909C185.163 56.7765 185.429 58.2443 185.959 59.4943C186.499 60.7443 187.256 61.715 188.232 62.4062C189.216 63.0975 190.372 63.4432 191.697 63.4432C192.569 63.4432 193.359 63.2917 194.07 62.9886C194.78 62.6856 195.381 62.25 195.874 61.6818C196.366 61.1136 196.716 60.4318 196.925 59.6364H200.277C200.088 60.9242 199.619 62.0843 198.871 63.1165C198.132 64.1392 197.152 64.9536 195.93 65.5597C194.718 66.1562 193.307 66.4545 191.697 66.4545ZM208.53 52.875V66H205.178V36.9091H208.53V47.5909H208.814C209.325 46.464 210.092 45.5691 211.115 44.9062C212.147 44.2339 213.52 43.8977 215.234 43.8977C216.721 43.8977 218.023 44.196 219.141 44.7926C220.258 45.3797 221.125 46.2841 221.74 47.5057C222.365 48.7178 222.678 50.2614 222.678 52.1364V66H219.325V52.3636C219.325 50.6307 218.875 49.2907 217.976 48.3438C217.086 47.3873 215.85 46.9091 214.268 46.9091C213.17 46.9091 212.185 47.1411 211.314 47.6051C210.452 48.0691 209.77 48.7462 209.268 49.6364C208.776 50.5265 208.53 51.6061 208.53 52.875ZM240.515 66V36.9091H250.344C252.627 36.9091 254.492 37.321 255.941 38.1449C257.399 38.9593 258.479 40.0625 259.18 41.4545C259.88 42.8466 260.231 44.3996 260.231 46.1136C260.231 47.8277 259.88 49.3854 259.18 50.7869C258.488 52.1884 257.418 53.3059 255.969 54.1392C254.521 54.9631 252.665 55.375 250.401 55.375H243.356V52.25H250.288C251.85 52.25 253.105 51.9801 254.052 51.4403C254.999 50.9006 255.685 50.1714 256.112 49.2528C256.547 48.3248 256.765 47.2784 256.765 46.1136C256.765 44.9489 256.547 43.9072 256.112 42.9886C255.685 42.0701 254.994 41.3504 254.038 40.8295C253.081 40.2992 251.812 40.0341 250.231 40.0341H244.038V66H240.515ZM265.451 66V44.1818H268.69V47.4773H268.917C269.315 46.3977 270.034 45.5218 271.076 44.8494C272.118 44.1771 273.292 43.8409 274.599 43.8409C274.845 43.8409 275.153 43.8456 275.522 43.8551C275.891 43.8646 276.171 43.8788 276.36 43.8977V47.3068C276.246 47.2784 275.986 47.2358 275.579 47.179C275.181 47.1127 274.76 47.0795 274.315 47.0795C273.254 47.0795 272.307 47.3021 271.474 47.7472C270.65 48.1828 269.996 48.7888 269.513 49.5653C269.04 50.3324 268.803 51.2083 268.803 52.1932V66H265.451ZM288.817 66.4545C286.715 66.4545 284.902 65.9905 283.377 65.0625C281.862 64.125 280.692 62.8182 279.869 61.142C279.054 59.4564 278.647 57.4962 278.647 55.2614C278.647 53.0265 279.054 51.0568 279.869 49.3523C280.692 47.6383 281.838 46.303 283.306 45.3466C284.783 44.3807 286.507 43.8977 288.477 43.8977C289.613 43.8977 290.735 44.0871 291.843 44.4659C292.951 44.8447 293.96 45.4602 294.869 46.3125C295.778 47.1553 296.502 48.2727 297.042 49.6648C297.582 51.0568 297.852 52.7708 297.852 54.8068V56.2273H281.033V53.3295H294.442C294.442 52.0985 294.196 51 293.704 50.0341C293.221 49.0682 292.53 48.3059 291.63 47.7472C290.74 47.1884 289.689 46.9091 288.477 46.9091C287.141 46.9091 285.986 47.2405 285.011 47.9034C284.045 48.5568 283.301 49.4091 282.781 50.4602C282.26 51.5114 281.999 52.6383 281.999 53.8409V55.7727C281.999 57.4205 282.283 58.8172 282.852 59.9631C283.429 61.0994 284.229 61.9659 285.252 62.5625C286.275 63.1496 287.463 63.4432 288.817 63.4432C289.698 63.4432 290.494 63.3201 291.204 63.0739C291.924 62.8182 292.544 62.4394 293.065 61.9375C293.585 61.4261 293.988 60.7917 294.272 60.0341L297.511 60.9432C297.17 62.0417 296.597 63.0076 295.792 63.8409C294.987 64.6648 293.993 65.3087 292.809 65.7727C291.625 66.2273 290.295 66.4545 288.817 66.4545ZM318.406 49.0682L315.394 49.9205C315.205 49.4186 314.925 48.9309 314.556 48.4574C314.196 47.9744 313.704 47.5767 313.079 47.2642C312.454 46.9517 311.654 46.7955 310.678 46.7955C309.343 46.7955 308.23 47.1032 307.34 47.7188C306.46 48.3248 306.019 49.0966 306.019 50.0341C306.019 50.8674 306.322 51.5256 306.928 52.0085C307.534 52.4915 308.481 52.8939 309.769 53.2159L313.008 54.0114C314.959 54.4848 316.412 55.2093 317.369 56.1847C318.325 57.1506 318.803 58.3958 318.803 59.9205C318.803 61.1705 318.443 62.2879 317.724 63.2727C317.013 64.2576 316.019 65.0341 314.741 65.6023C313.462 66.1705 311.976 66.4545 310.281 66.4545C308.055 66.4545 306.213 65.9716 304.755 65.0057C303.297 64.0398 302.373 62.6288 301.985 60.7727L305.167 59.9773C305.47 61.1515 306.043 62.0322 306.886 62.6193C307.738 63.2064 308.851 63.5 310.224 63.5C311.786 63.5 313.027 63.1686 313.945 62.5057C314.873 61.8333 315.337 61.0284 315.337 60.0909C315.337 59.3333 315.072 58.6989 314.542 58.1875C314.012 57.6667 313.197 57.2784 312.099 57.0227L308.462 56.1705C306.464 55.697 304.996 54.9631 304.059 53.9688C303.131 52.965 302.667 51.7102 302.667 50.2045C302.667 48.9735 303.013 47.8845 303.704 46.9375C304.405 45.9905 305.356 45.2472 306.559 44.7074C307.771 44.1676 309.144 43.8977 310.678 43.8977C312.837 43.8977 314.532 44.3712 315.763 45.3182C317.004 46.2652 317.885 47.5152 318.406 49.0682ZM330.27 66.5114C328.887 66.5114 327.633 66.2509 326.506 65.7301C325.379 65.1998 324.484 64.4375 323.821 63.4432C323.158 62.4394 322.827 61.2273 322.827 59.8068C322.827 58.5568 323.073 57.5436 323.565 56.767C324.058 55.9811 324.716 55.3655 325.54 54.9205C326.364 54.4754 327.273 54.1439 328.267 53.9261C329.271 53.6989 330.279 53.5189 331.293 53.3864C332.618 53.2159 333.693 53.0881 334.517 53.0028C335.35 52.9081 335.956 52.7519 336.335 52.5341C336.723 52.3163 336.918 51.9375 336.918 51.3977V51.2841C336.918 49.8826 336.534 48.7936 335.767 48.017C335.009 47.2405 333.859 46.8523 332.315 46.8523C330.715 46.8523 329.46 47.2027 328.551 47.9034C327.642 48.6042 327.003 49.3523 326.634 50.1477L323.452 49.0114C324.02 47.6856 324.777 46.6534 325.724 45.9148C326.681 45.1667 327.723 44.6458 328.849 44.3523C329.986 44.0492 331.103 43.8977 332.202 43.8977C332.902 43.8977 333.707 43.983 334.616 44.1534C335.535 44.3144 336.42 44.6506 337.273 45.1619C338.134 45.6733 338.849 46.4451 339.418 47.4773C339.986 48.5095 340.27 49.892 340.27 51.625V66H336.918V63.0455H336.747C336.52 63.5189 336.141 64.0256 335.611 64.5653C335.08 65.1051 334.375 65.5644 333.494 65.9432C332.614 66.322 331.539 66.5114 330.27 66.5114ZM330.781 63.5C332.107 63.5 333.224 63.2396 334.134 62.7188C335.052 62.1979 335.743 61.5256 336.207 60.7017C336.681 59.8778 336.918 59.0114 336.918 58.1023V55.0341C336.776 55.2045 336.463 55.3608 335.98 55.5028C335.507 55.6354 334.957 55.7538 334.332 55.858C333.717 55.9527 333.116 56.0379 332.528 56.1136C331.951 56.1799 331.482 56.2367 331.122 56.2841C330.251 56.3977 329.437 56.5824 328.679 56.8381C327.931 57.0843 327.325 57.4583 326.861 57.9602C326.406 58.4527 326.179 59.125 326.179 59.9773C326.179 61.142 326.61 62.0227 327.472 62.6193C328.343 63.2064 329.446 63.5 330.781 63.5ZM349.741 36.9091V66H346.388V36.9091H349.741ZM365.028 66.4545C362.926 66.4545 361.113 65.9905 359.588 65.0625C358.073 64.125 356.903 62.8182 356.08 61.142C355.265 59.4564 354.858 57.4962 354.858 55.2614C354.858 53.0265 355.265 51.0568 356.08 49.3523C356.903 47.6383 358.049 46.303 359.517 45.3466C360.994 44.3807 362.718 43.8977 364.688 43.8977C365.824 43.8977 366.946 44.0871 368.054 44.4659C369.162 44.8447 370.17 45.4602 371.08 46.3125C371.989 47.1553 372.713 48.2727 373.253 49.6648C373.793 51.0568 374.062 52.7708 374.062 54.8068V56.2273H357.244V53.3295H370.653C370.653 52.0985 370.407 51 369.915 50.0341C369.432 49.0682 368.741 48.3059 367.841 47.7472C366.951 47.1884 365.9 46.9091 364.688 46.9091C363.352 46.9091 362.197 47.2405 361.222 47.9034C360.256 48.5568 359.512 49.4091 358.991 50.4602C358.471 51.5114 358.21 52.6383 358.21 53.8409V55.7727C358.21 57.4205 358.494 58.8172 359.062 59.9631C359.64 61.0994 360.44 61.9659 361.463 62.5625C362.486 63.1496 363.674 63.4432 365.028 63.4432C365.909 63.4432 366.705 63.3201 367.415 63.0739C368.134 62.8182 368.755 62.4394 369.276 61.9375C369.796 61.4261 370.199 60.7917 370.483 60.0341L373.722 60.9432C373.381 62.0417 372.808 63.0076 372.003 63.8409C371.198 64.6648 370.204 65.3087 369.02 65.7727C367.836 66.2273 366.506 66.4545 365.028 66.4545ZM399.844 66H390.866V36.9091H400.241C403.063 36.9091 405.478 37.4915 407.486 38.6562C409.493 39.8116 411.032 41.4735 412.102 43.642C413.172 45.8011 413.707 48.3864 413.707 51.3977C413.707 54.428 413.168 57.0369 412.088 59.2244C411.009 61.4025 409.437 63.0786 407.372 64.2528C405.308 65.4176 402.798 66 399.844 66ZM394.389 62.875H399.616C402.022 62.875 404.015 62.411 405.597 61.483C407.178 60.5549 408.357 59.2339 409.134 57.5199C409.91 55.8059 410.298 53.7652 410.298 51.3977C410.298 49.0492 409.915 47.0275 409.148 45.3324C408.381 43.6278 407.235 42.321 405.71 41.4119C404.186 40.4934 402.287 40.0341 400.014 40.0341H394.389V62.875ZM425.582 66.5114C424.2 66.5114 422.945 66.2509 421.818 65.7301C420.691 65.1998 419.796 64.4375 419.134 63.4432C418.471 62.4394 418.139 61.2273 418.139 59.8068C418.139 58.5568 418.385 57.5436 418.878 56.767C419.37 55.9811 420.028 55.3655 420.852 54.9205C421.676 54.4754 422.585 54.1439 423.58 53.9261C424.583 53.6989 425.592 53.5189 426.605 53.3864C427.931 53.2159 429.006 53.0881 429.83 53.0028C430.663 52.9081 431.269 52.7519 431.648 52.5341C432.036 52.3163 432.23 51.9375 432.23 51.3977V51.2841C432.23 49.8826 431.847 48.7936 431.08 48.017C430.322 47.2405 429.171 46.8523 427.628 46.8523C426.027 46.8523 424.773 47.2027 423.864 47.9034C422.955 48.6042 422.315 49.3523 421.946 50.1477L418.764 49.0114C419.332 47.6856 420.09 46.6534 421.037 45.9148C421.993 45.1667 423.035 44.6458 424.162 44.3523C425.298 44.0492 426.416 43.8977 427.514 43.8977C428.215 43.8977 429.02 43.983 429.929 44.1534C430.848 44.3144 431.733 44.6506 432.585 45.1619C433.447 45.6733 434.162 46.4451 434.73 47.4773C435.298 48.5095 435.582 49.892 435.582 51.625V66H432.23V63.0455H432.06C431.832 63.5189 431.454 64.0256 430.923 64.5653C430.393 65.1051 429.688 65.5644 428.807 65.9432C427.926 66.322 426.851 66.5114 425.582 66.5114ZM426.094 63.5C427.42 63.5 428.537 63.2396 429.446 62.7188C430.365 62.1979 431.056 61.5256 431.52 60.7017C431.993 59.8778 432.23 59.0114 432.23 58.1023V55.0341C432.088 55.2045 431.776 55.3608 431.293 55.5028C430.819 55.6354 430.27 55.7538 429.645 55.858C429.029 55.9527 428.428 56.0379 427.841 56.1136C427.263 56.1799 426.795 56.2367 426.435 56.2841C425.563 56.3977 424.749 56.5824 423.991 56.8381C423.243 57.0843 422.637 57.4583 422.173 57.9602C421.719 58.4527 421.491 59.125 421.491 59.9773C421.491 61.142 421.922 62.0227 422.784 62.6193C423.655 63.2064 424.759 63.5 426.094 63.5ZM457.156 49.0682L454.144 49.9205C453.955 49.4186 453.675 48.9309 453.306 48.4574C452.946 47.9744 452.454 47.5767 451.829 47.2642C451.204 46.9517 450.404 46.7955 449.428 46.7955C448.093 46.7955 446.98 47.1032 446.09 47.7188C445.21 48.3248 444.769 49.0966 444.769 50.0341C444.769 50.8674 445.072 51.5256 445.678 52.0085C446.284 52.4915 447.231 52.8939 448.519 53.2159L451.758 54.0114C453.709 54.4848 455.162 55.2093 456.119 56.1847C457.075 57.1506 457.553 58.3958 457.553 59.9205C457.553 61.1705 457.193 62.2879 456.474 63.2727C455.763 64.2576 454.769 65.0341 453.491 65.6023C452.212 66.1705 450.726 66.4545 449.031 66.4545C446.805 66.4545 444.963 65.9716 443.505 65.0057C442.047 64.0398 441.123 62.6288 440.735 60.7727L443.917 59.9773C444.22 61.1515 444.793 62.0322 445.636 62.6193C446.488 63.2064 447.601 63.5 448.974 63.5C450.536 63.5 451.777 63.1686 452.695 62.5057C453.623 61.8333 454.087 61.0284 454.087 60.0909C454.087 59.3333 453.822 58.6989 453.292 58.1875C452.762 57.6667 451.947 57.2784 450.849 57.0227L447.212 56.1705C445.214 55.697 443.746 54.9631 442.809 53.9688C441.881 52.965 441.417 51.7102 441.417 50.2045C441.417 48.9735 441.763 47.8845 442.454 46.9375C443.155 45.9905 444.106 45.2472 445.309 44.7074C446.521 44.1676 447.894 43.8977 449.428 43.8977C451.587 43.8977 453.282 44.3712 454.513 45.3182C455.754 46.2652 456.635 47.5152 457.156 49.0682ZM465.952 52.875V66H462.599V36.9091H465.952V47.5909H466.236C466.747 46.464 467.514 45.5691 468.537 44.9062C469.569 44.2339 470.942 43.8977 472.656 43.8977C474.143 43.8977 475.445 44.196 476.562 44.7926C477.68 45.3797 478.546 46.2841 479.162 47.5057C479.787 48.7178 480.099 50.2614 480.099 52.1364V66H476.747V52.3636C476.747 50.6307 476.297 49.2907 475.398 48.3438C474.508 47.3873 473.272 46.9091 471.69 46.9091C470.592 46.9091 469.607 47.1411 468.736 47.6051C467.874 48.0691 467.192 48.7462 466.69 49.6364C466.198 50.5265 465.952 51.6061 465.952 52.875ZM486.687 66V36.9091H490.039V47.6477H490.323C490.569 47.2689 490.91 46.786 491.346 46.1989C491.791 45.6023 492.425 45.072 493.249 44.608C494.083 44.1345 495.21 43.8977 496.63 43.8977C498.467 43.8977 500.086 44.357 501.488 45.2756C502.889 46.1941 503.983 47.4962 504.769 49.1818C505.555 50.8674 505.948 52.8561 505.948 55.1477C505.948 57.4583 505.555 59.4612 504.769 61.1562C503.983 62.8419 502.894 64.1487 501.502 65.0767C500.11 65.9953 498.505 66.4545 496.687 66.4545C495.285 66.4545 494.163 66.2225 493.32 65.7585C492.478 65.285 491.829 64.75 491.374 64.1534C490.92 63.5473 490.569 63.0455 490.323 62.6477H489.925V66H486.687ZM489.982 55.0909C489.982 56.7386 490.224 58.1922 490.707 59.4517C491.19 60.7017 491.895 61.6818 492.823 62.392C493.751 63.0928 494.888 63.4432 496.232 63.4432C497.634 63.4432 498.803 63.0739 499.741 62.3352C500.688 61.5871 501.398 60.5833 501.871 59.3239C502.354 58.0549 502.596 56.6439 502.596 55.0909C502.596 53.5568 502.359 52.1742 501.886 50.9432C501.422 49.7027 500.716 48.7225 499.769 48.0028C498.832 47.2737 497.653 46.9091 496.232 46.9091C494.869 46.9091 493.723 47.2547 492.795 47.946C491.867 48.6278 491.166 49.5843 490.692 50.8153C490.219 52.0369 489.982 53.4621 489.982 55.0909ZM519.94 66.4545C517.97 66.4545 516.242 65.9858 514.755 65.0483C513.278 64.1108 512.122 62.7992 511.289 61.1136C510.465 59.428 510.053 57.4583 510.053 55.2045C510.053 52.9318 510.465 50.9479 511.289 49.2528C512.122 47.5578 513.278 46.2415 514.755 45.304C516.242 44.3665 517.97 43.8977 519.94 43.8977C521.909 43.8977 523.633 44.3665 525.11 45.304C526.597 46.2415 527.752 47.5578 528.576 49.2528C529.409 50.9479 529.826 52.9318 529.826 55.2045C529.826 57.4583 529.409 59.428 528.576 61.1136C527.752 62.7992 526.597 64.1108 525.11 65.0483C523.633 65.9858 521.909 66.4545 519.94 66.4545ZM519.94 63.4432C521.436 63.4432 522.667 63.0597 523.633 62.2926C524.599 61.5256 525.314 60.517 525.778 59.267C526.242 58.017 526.474 56.6629 526.474 55.2045C526.474 53.7462 526.242 52.3873 525.778 51.1278C525.314 49.8684 524.599 48.8504 523.633 48.0739C522.667 47.2973 521.436 46.9091 519.94 46.9091C518.443 46.9091 517.212 47.2973 516.246 48.0739C515.281 48.8504 514.566 49.8684 514.102 51.1278C513.638 52.3873 513.406 53.7462 513.406 55.2045C513.406 56.6629 513.638 58.017 514.102 59.267C514.566 60.517 515.281 61.5256 516.246 62.2926C517.212 63.0597 518.443 63.4432 519.94 63.4432ZM541.364 66.5114C539.981 66.5114 538.726 66.2509 537.599 65.7301C536.473 65.1998 535.578 64.4375 534.915 63.4432C534.252 62.4394 533.92 61.2273 533.92 59.8068C533.92 58.5568 534.167 57.5436 534.659 56.767C535.152 55.9811 535.81 55.3655 536.634 54.9205C537.457 54.4754 538.366 54.1439 539.361 53.9261C540.365 53.6989 541.373 53.5189 542.386 53.3864C543.712 53.2159 544.787 53.0881 545.611 53.0028C546.444 52.9081 547.05 52.7519 547.429 52.5341C547.817 52.3163 548.011 51.9375 548.011 51.3977V51.2841C548.011 49.8826 547.628 48.7936 546.861 48.017C546.103 47.2405 544.953 46.8523 543.409 46.8523C541.809 46.8523 540.554 47.2027 539.645 47.9034C538.736 48.6042 538.097 49.3523 537.727 50.1477L534.545 49.0114C535.114 47.6856 535.871 46.6534 536.818 45.9148C537.775 45.1667 538.816 44.6458 539.943 44.3523C541.08 44.0492 542.197 43.8977 543.295 43.8977C543.996 43.8977 544.801 43.983 545.71 44.1534C546.629 44.3144 547.514 44.6506 548.366 45.1619C549.228 45.6733 549.943 46.4451 550.511 47.4773C551.08 48.5095 551.364 49.892 551.364 51.625V66H548.011V63.0455H547.841C547.614 63.5189 547.235 64.0256 546.705 64.5653C546.174 65.1051 545.469 65.5644 544.588 65.9432C543.707 66.322 542.633 66.5114 541.364 66.5114ZM541.875 63.5C543.201 63.5 544.318 63.2396 545.227 62.7188C546.146 62.1979 546.837 61.5256 547.301 60.7017C547.775 59.8778 548.011 59.0114 548.011 58.1023V55.0341C547.869 55.2045 547.557 55.3608 547.074 55.5028C546.6 55.6354 546.051 55.7538 545.426 55.858C544.811 55.9527 544.209 56.0379 543.622 56.1136C543.045 56.1799 542.576 56.2367 542.216 56.2841C541.345 56.3977 540.53 56.5824 539.773 56.8381C539.025 57.0843 538.419 57.4583 537.955 57.9602C537.5 58.4527 537.273 59.125 537.273 59.9773C537.273 61.142 537.704 62.0227 538.565 62.6193C539.437 63.2064 540.54 63.5 541.875 63.5ZM557.482 66V44.1818H560.721V47.4773H560.948C561.346 46.3977 562.066 45.5218 563.107 44.8494C564.149 44.1771 565.323 43.8409 566.63 43.8409C566.876 43.8409 567.184 43.8456 567.553 43.8551C567.923 43.8646 568.202 43.8788 568.391 43.8977V47.3068C568.278 47.2784 568.017 47.2358 567.61 47.179C567.212 47.1127 566.791 47.0795 566.346 47.0795C565.285 47.0795 564.338 47.3021 563.505 47.7472C562.681 48.1828 562.028 48.7888 561.545 49.5653C561.071 50.3324 560.835 51.2083 560.835 52.1932V66H557.482ZM579.94 66.4545C578.121 66.4545 576.516 65.9953 575.124 65.0767C573.732 64.1487 572.643 62.8419 571.857 61.1562C571.071 59.4612 570.678 57.4583 570.678 55.1477C570.678 52.8561 571.071 50.8674 571.857 49.1818C572.643 47.4962 573.737 46.1941 575.138 45.2756C576.54 44.357 578.159 43.8977 579.996 43.8977C581.417 43.8977 582.539 44.1345 583.363 44.608C584.196 45.072 584.831 45.6023 585.266 46.1989C585.711 46.786 586.057 47.2689 586.303 47.6477H586.587V36.9091H589.94V66H586.701V62.6477H586.303C586.057 63.0455 585.707 63.5473 585.252 64.1534C584.798 64.75 584.149 65.285 583.306 65.7585C582.463 66.2225 581.341 66.4545 579.94 66.4545ZM580.394 63.4432C581.739 63.4432 582.875 63.0928 583.803 62.392C584.731 61.6818 585.437 60.7017 585.92 59.4517C586.403 58.1922 586.644 56.7386 586.644 55.0909C586.644 53.4621 586.407 52.0369 585.934 50.8153C585.46 49.5843 584.76 48.6278 583.832 47.946C582.904 47.2547 581.758 46.9091 580.394 46.9091C578.974 46.9091 577.79 47.2737 576.843 48.0028C575.906 48.7225 575.2 49.7027 574.727 50.9432C574.263 52.1742 574.031 53.5568 574.031 55.0909C574.031 56.6439 574.267 58.0549 574.741 59.3239C575.224 60.5833 575.934 61.5871 576.871 62.3352C577.818 63.0739 578.993 63.4432 580.394 63.4432ZM612.969 66V69.125H594.787V66H612.969Z" fill="black"/>
</svg>
