<svg width="58" height="57" viewBox="0 0 58 57" fill="none" xmlns="http://www.w3.org/2000/svg">
<path d="M23.7497 56.5C8.79971 54.13 -0.560296 41.19 0.599704 25.32C1.6297 11.26 14.5497 -0.129997 29.2997 3.22179e-06C43.9197 0.130003 56.5597 11.48 57.5497 25.36C58.6897 41.24 49.2697 54.22 34.4497 56.48C34.4497 50.88 34.4097 45.34 34.5097 39.81C34.5197 39.2 35.4297 38.05 35.8697 38.07C43.1697 38.44 41.7397 33.14 42.2397 28.56L35.1297 28.07C33.2397 19.76 34.9197 19.14 42.0897 18.5C44.0897 11.9 42.7997 10.1 36.1397 10.23C28.1697 10.39 23.7997 14.55 23.8297 22.45C23.8397 26.21 23.8597 29.15 18.6697 28.38C15.8097 27.96 16.1797 30.5 16.2797 32.21C16.3997 34.33 15.1097 37.75 18.9397 37.59C23.8097 37.39 23.9697 40.03 23.8097 43.61C23.6197 47.78 23.7697 51.97 23.7697 56.5H23.7497Z" fill="url(#paint0_linear_23_769)"/>
<defs>
<linearGradient id="paint0_linear_23_769" x1="28.5197" y1="2.94" x2="29.6797" y2="55.29" gradientUnits="userSpaceOnUse">
<stop offset="0.36" stop-color="#8CF9F9"/>
<stop offset="0.59" stop-color="#34F79A"/>
</linearGradient>
</defs>
</svg>
