<svg width="75" height="74" viewBox="0 0 75 74" fill="none" xmlns="http://www.w3.org/2000/svg">
<path fill-rule="evenodd" clip-rule="evenodd" d="M37.0127 73.9999C57.4473 73.9999 74.0127 57.4345 74.0127 36.9999C74.0127 16.5654 57.4473 -1e-05 37.0127 -1e-05C16.5782 -1e-05 0.0127925 16.5654 0.0127925 36.9999C-0.0364175 57.3852 16.4491 73.9507 36.8344 73.9999C36.8939 74 36.9533 74 37.0127 73.9999Z" fill="#2775CA"/>
<path fill-rule="evenodd" clip-rule="evenodd" d="M47.1817 42.8597C47.1817 37.4633 43.9452 35.613 37.4722 34.8418C32.8488 34.2255 31.9247 32.9915 31.9247 30.8329C31.9247 28.6744 33.4663 27.287 36.5481 27.287C39.3218 27.287 40.8649 28.2114 41.6342 30.5248C41.7992 30.9815 42.2293 31.2884 42.7145 31.2959H45.1802C45.7621 31.3098 46.2452 30.849 46.2591 30.2669C46.2595 30.2501 46.2595 30.2334 46.2591 30.2166V30.0618C45.6455 26.6263 42.7996 24.0327 39.3233 23.741V20.0403C39.3233 19.424 38.8605 18.961 38.0897 18.8062H35.7773C35.1597 18.8062 34.6984 19.2692 34.5437 20.0403V23.5862C29.9203 24.2025 26.9918 27.287 26.9918 31.1411C26.9918 36.2293 30.0736 38.2344 36.5466 39.0056C40.8634 39.7752 42.2503 40.7011 42.2503 43.1678C42.2503 45.6345 40.0926 47.3315 37.1641 47.3315C33.1568 47.3315 31.7627 45.6345 31.3072 43.3226C31.1524 42.7063 30.6911 42.3967 30.2283 42.3967H27.6108C27.0289 42.3828 26.5459 42.8436 26.532 43.4257C26.5316 43.4425 26.5316 43.4592 26.532 43.4759V43.6308C27.1481 47.4849 29.6152 50.2612 34.7072 51.0323V54.7316C34.7072 55.3493 35.1685 55.8108 35.9393 55.9656H38.2517C38.8678 55.9656 39.3306 55.5027 39.4839 54.7316V51.0323C44.1087 50.2612 47.1904 47.0219 47.1904 42.8538L47.1817 42.8597Z" fill="white"/>
<path fill-rule="evenodd" clip-rule="evenodd" d="M45.4911 10.9519C44.8734 10.6438 44.2572 10.9519 44.1039 11.5682C43.9491 11.7229 43.9491 11.8763 43.9491 12.1858V14.3383C43.9491 14.9545 44.412 15.5707 44.8734 15.8788C56.8986 20.1954 63.0653 33.6078 58.5998 45.4797C56.2868 51.9544 51.1992 56.8872 44.8734 59.2061C44.2572 59.5142 43.9491 59.9771 43.9491 60.7481V62.9063C43.9491 63.5226 44.2572 63.9855 44.8734 64.1388C45.0282 64.1388 45.3363 64.1388 45.4911 63.9855C60.136 59.355 68.1528 43.7828 63.5325 29.1379C60.8128 20.5154 54.0916 13.7403 45.4911 10.9519V10.9519ZM29.1494 59.0454C17.1242 54.7289 10.9575 41.3165 15.423 29.4461C17.7346 22.9713 22.8221 18.0371 29.1494 15.7197C29.7656 15.4115 30.0737 14.9486 30.0737 14.1776V12.0252C30.0737 11.409 29.7656 10.9461 29.1494 10.7913C28.9946 10.7913 28.6865 10.7913 28.5317 10.9461C13.8839 15.5707 5.86999 31.1414 10.4946 45.7878C13.2209 54.3726 19.9469 61.0986 28.5317 63.8248C29.1494 64.1329 29.7656 63.8248 29.9204 63.2086C30.0737 63.0538 30.0737 62.9005 30.0737 62.5924V60.4341C30.0737 59.9712 29.6123 59.355 29.1494 59.0454V59.0454Z" fill="white"/>
</svg>
