<svg width="222" height="58" viewBox="0 0 222 58" fill="none" xmlns="http://www.w3.org/2000/svg">
<path d="M0 28.4528L18.8582 0H201.819L221.765 28.4528L201.819 58H18.8582L0 28.4528Z" fill="#34F79A"/>
<path d="M44.1591 25H42.0455C41.9205 24.392 41.7017 23.858 41.3892 23.3977C41.0824 22.9375 40.7074 22.5511 40.2642 22.2386C39.8267 21.9205 39.3409 21.6818 38.8068 21.5227C38.2727 21.3636 37.7159 21.2841 37.1364 21.2841C36.0795 21.2841 35.1222 21.5511 34.2642 22.0852C33.4119 22.6193 32.733 23.4062 32.2273 24.446C31.7273 25.4858 31.4773 26.7614 31.4773 28.2727C31.4773 29.7841 31.7273 31.0597 32.2273 32.0994C32.733 33.1392 33.4119 33.9261 34.2642 34.4602C35.1222 34.9943 36.0795 35.2614 37.1364 35.2614C37.7159 35.2614 38.2727 35.1818 38.8068 35.0227C39.3409 34.8636 39.8267 34.6278 40.2642 34.3153C40.7074 33.9972 41.0824 33.608 41.3892 33.1477C41.7017 32.6818 41.9205 32.1477 42.0455 31.5455H44.1591C44 32.4375 43.7102 33.2358 43.2898 33.9403C42.8693 34.6449 42.3466 35.2443 41.7216 35.7386C41.0966 36.2273 40.3949 36.5994 39.6165 36.8551C38.8438 37.1108 38.017 37.2386 37.1364 37.2386C35.6477 37.2386 34.3239 36.875 33.1648 36.1477C32.0057 35.4205 31.0938 34.3864 30.429 33.0455C29.7642 31.7045 29.4318 30.1136 29.4318 28.2727C29.4318 26.4318 29.7642 24.8409 30.429 23.5C31.0938 22.1591 32.0057 21.125 33.1648 20.3977C34.3239 19.6705 35.6477 19.3068 37.1364 19.3068C38.017 19.3068 38.8438 19.4347 39.6165 19.6903C40.3949 19.946 41.0966 20.321 41.7216 20.8153C42.3466 21.304 42.8693 21.9006 43.2898 22.6051C43.7102 23.304 44 24.1023 44.1591 25ZM52.62 37.2727C51.4382 37.2727 50.4013 36.9915 49.5092 36.429C48.6229 35.8665 47.9297 35.0795 47.4297 34.0682C46.9354 33.0568 46.6882 31.875 46.6882 30.5227C46.6882 29.1591 46.9354 27.9687 47.4297 26.9517C47.9297 25.9347 48.6229 25.1449 49.5092 24.5824C50.4013 24.0199 51.4382 23.7386 52.62 23.7386C53.8018 23.7386 54.8359 24.0199 55.7223 24.5824C56.6143 25.1449 57.3075 25.9347 57.8018 26.9517C58.3018 27.9687 58.5518 29.1591 58.5518 30.5227C58.5518 31.875 58.3018 33.0568 57.8018 34.0682C57.3075 35.0795 56.6143 35.8665 55.7223 36.429C54.8359 36.9915 53.8018 37.2727 52.62 37.2727ZM52.62 35.4659C53.5178 35.4659 54.2564 35.2358 54.8359 34.7756C55.4155 34.3153 55.8445 33.7102 56.1229 32.9602C56.4013 32.2102 56.5405 31.3977 56.5405 30.5227C56.5405 29.6477 56.4013 28.8324 56.1229 28.0767C55.8445 27.321 55.4155 26.7102 54.8359 26.2443C54.2564 25.7784 53.5178 25.5455 52.62 25.5455C51.7223 25.5455 50.9837 25.7784 50.4041 26.2443C49.8246 26.7102 49.3956 27.321 49.1172 28.0767C48.8388 28.8324 48.6996 29.6477 48.6996 30.5227C48.6996 31.3977 48.8388 32.2102 49.1172 32.9602C49.3956 33.7102 49.8246 34.3153 50.4041 34.7756C50.9837 35.2358 51.7223 35.4659 52.62 35.4659ZM61.6222 41.9091V23.9091H63.5653V25.9886H63.804C63.9517 25.7614 64.1563 25.4716 64.4176 25.1193C64.6847 24.7614 65.0653 24.4432 65.5597 24.1648C66.0597 23.8807 66.7358 23.7386 67.5881 23.7386C68.6903 23.7386 69.6619 24.0142 70.5028 24.5653C71.3438 25.1165 72 25.8977 72.4716 26.9091C72.9432 27.9205 73.179 29.1136 73.179 30.4886C73.179 31.875 72.9432 33.0767 72.4716 34.0938C72 35.1051 71.3466 35.8892 70.5114 36.446C69.6761 36.9972 68.7131 37.2727 67.6222 37.2727C66.7813 37.2727 66.108 37.1335 65.6023 36.8551C65.0966 36.571 64.7074 36.25 64.4347 35.892C64.1619 35.5284 63.9517 35.2273 63.804 34.9886H63.6335V41.9091H61.6222ZM63.5994 30.4545C63.5994 31.4432 63.7443 32.3153 64.0341 33.071C64.3239 33.821 64.7472 34.4091 65.304 34.8352C65.8608 35.2557 66.5426 35.4659 67.3494 35.4659C68.1903 35.4659 68.892 35.2443 69.4545 34.8011C70.0227 34.3523 70.4489 33.75 70.733 32.9943C71.0227 32.233 71.1676 31.3864 71.1676 30.4545C71.1676 29.5341 71.0256 28.7045 70.7415 27.9659C70.4631 27.2216 70.0398 26.6335 69.4716 26.2017C68.9091 25.7642 68.2017 25.5455 67.3494 25.5455C66.5313 25.5455 65.8438 25.7528 65.2869 26.1676C64.7301 26.5767 64.3097 27.1506 64.0256 27.8892C63.7415 28.6222 63.5994 29.4773 63.5994 30.4545ZM77.0739 41.9091C76.733 41.9091 76.429 41.8807 76.1619 41.8239C75.8949 41.7727 75.7102 41.7216 75.608 41.6705L76.1193 39.8977C76.608 40.0227 77.0398 40.0682 77.4148 40.0341C77.7898 40 78.1222 39.8324 78.4119 39.5312C78.7074 39.2358 78.9773 38.7557 79.2216 38.0909L79.5966 37.0682L74.7557 23.9091H76.9375L80.5511 34.3409H80.6875L84.3011 23.9091H86.483L80.9261 38.9091C80.6761 39.5852 80.3665 40.1449 79.9972 40.5881C79.6278 41.0369 79.1989 41.3693 78.7102 41.5852C78.2273 41.8011 77.6818 41.9091 77.0739 41.9091ZM110.206 25H108.092C107.967 24.392 107.749 23.858 107.436 23.3977C107.129 22.9375 106.754 22.5511 106.311 22.2386C105.874 21.9205 105.388 21.6818 104.854 21.5227C104.32 21.3636 103.763 21.2841 103.183 21.2841C102.126 21.2841 101.169 21.5511 100.311 22.0852C99.4588 22.6193 98.7798 23.4062 98.2741 24.446C97.7741 25.4858 97.5241 26.7614 97.5241 28.2727C97.5241 29.7841 97.7741 31.0597 98.2741 32.0994C98.7798 33.1392 99.4588 33.9261 100.311 34.4602C101.169 34.9943 102.126 35.2614 103.183 35.2614C103.763 35.2614 104.32 35.1818 104.854 35.0227C105.388 34.8636 105.874 34.6278 106.311 34.3153C106.754 33.9972 107.129 33.608 107.436 33.1477C107.749 32.6818 107.967 32.1477 108.092 31.5455H110.206C110.047 32.4375 109.757 33.2358 109.337 33.9403C108.916 34.6449 108.393 35.2443 107.768 35.7386C107.143 36.2273 106.442 36.5994 105.663 36.8551C104.891 37.1108 104.064 37.2386 103.183 37.2386C101.695 37.2386 100.371 36.875 99.2116 36.1477C98.0526 35.4205 97.1406 34.3864 96.4759 33.0455C95.8111 31.7045 95.4787 30.1136 95.4787 28.2727C95.4787 26.4318 95.8111 24.8409 96.4759 23.5C97.1406 22.1591 98.0526 21.125 99.2116 20.3977C100.371 19.6705 101.695 19.3068 103.183 19.3068C104.064 19.3068 104.891 19.4347 105.663 19.6903C106.442 19.946 107.143 20.321 107.768 20.8153C108.393 21.304 108.916 21.9006 109.337 22.6051C109.757 23.304 110.047 24.1023 110.206 25ZM118.667 37.2727C117.485 37.2727 116.448 36.9915 115.556 36.429C114.67 35.8665 113.977 35.0795 113.477 34.0682C112.982 33.0568 112.735 31.875 112.735 30.5227C112.735 29.1591 112.982 27.9687 113.477 26.9517C113.977 25.9347 114.67 25.1449 115.556 24.5824C116.448 24.0199 117.485 23.7386 118.667 23.7386C119.849 23.7386 120.883 24.0199 121.769 24.5824C122.661 25.1449 123.354 25.9347 123.849 26.9517C124.349 27.9687 124.599 29.1591 124.599 30.5227C124.599 31.875 124.349 33.0568 123.849 34.0682C123.354 35.0795 122.661 35.8665 121.769 36.429C120.883 36.9915 119.849 37.2727 118.667 37.2727ZM118.667 35.4659C119.565 35.4659 120.303 35.2358 120.883 34.7756C121.462 34.3153 121.891 33.7102 122.17 32.9602C122.448 32.2102 122.587 31.3977 122.587 30.5227C122.587 29.6477 122.448 28.8324 122.17 28.0767C121.891 27.321 121.462 26.7102 120.883 26.2443C120.303 25.7784 119.565 25.5455 118.667 25.5455C117.769 25.5455 117.031 25.7784 116.451 26.2443C115.871 26.7102 115.442 27.321 115.164 28.0767C114.886 28.8324 114.746 29.6477 114.746 30.5227C114.746 31.3977 114.886 32.2102 115.164 32.9602C115.442 33.7102 115.871 34.3153 116.451 34.7756C117.031 35.2358 117.769 35.4659 118.667 35.4659ZM129.68 29.125V37H127.669V23.9091H129.612V25.9545H129.783C130.089 25.2898 130.555 24.7557 131.18 24.3523C131.805 23.9432 132.612 23.7386 133.601 23.7386C134.487 23.7386 135.263 23.9205 135.928 24.2841C136.592 24.642 137.109 25.1875 137.479 25.9205C137.848 26.6477 138.033 27.5682 138.033 28.6818V37H136.021V28.8182C136.021 27.7898 135.754 26.9886 135.22 26.4148C134.686 25.8352 133.953 25.5455 133.021 25.5455C132.379 25.5455 131.805 25.6847 131.3 25.9631C130.8 26.2415 130.405 26.6477 130.115 27.1818C129.825 27.7159 129.68 28.3636 129.68 29.125ZM147.401 23.9091V25.6136H140.617V23.9091H147.401ZM142.594 20.7727H144.606V33.25C144.606 33.8182 144.688 34.2443 144.853 34.5284C145.023 34.8068 145.239 34.9943 145.501 35.0909C145.768 35.1818 146.049 35.2273 146.344 35.2273C146.566 35.2273 146.748 35.2159 146.89 35.1932C147.032 35.1648 147.146 35.142 147.231 35.125L147.64 36.9318C147.504 36.983 147.313 37.0341 147.069 37.0852C146.825 37.142 146.515 37.1705 146.14 37.1705C145.572 37.1705 145.015 37.0483 144.469 36.804C143.93 36.5597 143.481 36.1875 143.123 35.6875C142.771 35.1875 142.594 34.5568 142.594 33.7955V20.7727ZM150.427 37V23.9091H152.37V25.8864H152.506C152.745 25.2386 153.177 24.7131 153.802 24.3097C154.427 23.9062 155.131 23.7045 155.915 23.7045C156.063 23.7045 156.248 23.7074 156.469 23.7131C156.691 23.7187 156.859 23.7273 156.972 23.7386V25.7841C156.904 25.767 156.748 25.7415 156.504 25.7074C156.265 25.6676 156.012 25.6477 155.745 25.6477C155.109 25.6477 154.54 25.7812 154.04 26.0483C153.546 26.3097 153.154 26.6733 152.864 27.1392C152.58 27.5994 152.438 28.125 152.438 28.7159V37H150.427ZM163.209 37.3068C162.379 37.3068 161.626 37.1506 160.95 36.8381C160.274 36.5199 159.737 36.0625 159.339 35.4659C158.942 34.8636 158.743 34.1364 158.743 33.2841C158.743 32.5341 158.891 31.9261 159.186 31.4602C159.482 30.9886 159.876 30.6193 160.371 30.3523C160.865 30.0852 161.411 29.8864 162.007 29.7557C162.609 29.6193 163.214 29.5114 163.822 29.4318C164.618 29.3295 165.263 29.2528 165.757 29.2017C166.257 29.1449 166.621 29.0511 166.848 28.9205C167.081 28.7898 167.197 28.5625 167.197 28.2386V28.1705C167.197 27.3295 166.967 26.6761 166.507 26.2102C166.053 25.7443 165.362 25.5114 164.436 25.5114C163.476 25.5114 162.723 25.7216 162.178 26.142C161.632 26.5625 161.249 27.0114 161.027 27.4886L159.118 26.8068C159.459 26.0114 159.913 25.392 160.482 24.9489C161.055 24.5 161.68 24.1875 162.357 24.0114C163.038 23.8295 163.709 23.7386 164.368 23.7386C164.788 23.7386 165.271 23.7898 165.817 23.892C166.368 23.9886 166.899 24.1903 167.411 24.4972C167.928 24.804 168.357 25.267 168.697 25.8864C169.038 26.5057 169.209 27.3352 169.209 28.375V37H167.197V35.2273H167.095C166.959 35.5114 166.732 35.8153 166.413 36.1392C166.095 36.4631 165.672 36.7386 165.143 36.9659C164.615 37.1932 163.97 37.3068 163.209 37.3068ZM163.516 35.5C164.311 35.5 164.982 35.3438 165.527 35.0312C166.078 34.7188 166.493 34.3153 166.771 33.821C167.055 33.3267 167.197 32.8068 167.197 32.2614V30.4205C167.112 30.5227 166.925 30.6165 166.635 30.7017C166.351 30.7812 166.021 30.8523 165.646 30.9148C165.277 30.9716 164.916 31.0227 164.564 31.0682C164.217 31.108 163.936 31.142 163.72 31.1705C163.197 31.2386 162.709 31.3494 162.254 31.5028C161.805 31.6506 161.442 31.875 161.163 32.1761C160.891 32.4716 160.754 32.875 160.754 33.3864C160.754 34.0852 161.013 34.6136 161.53 34.9716C162.053 35.3239 162.714 35.5 163.516 35.5ZM178.198 37.2727C176.971 37.2727 175.914 36.983 175.028 36.4034C174.141 35.8239 173.46 35.0256 172.982 34.0085C172.505 32.9915 172.266 31.8295 172.266 30.5227C172.266 29.1932 172.511 28.0199 172.999 27.0028C173.494 25.9801 174.181 25.1818 175.062 24.608C175.948 24.0284 176.982 23.7386 178.164 23.7386C179.085 23.7386 179.914 23.9091 180.653 24.25C181.391 24.5909 181.996 25.0682 182.468 25.6818C182.94 26.2955 183.232 27.0114 183.346 27.8295H181.335C181.181 27.233 180.84 26.7045 180.312 26.2443C179.789 25.7784 179.085 25.5455 178.198 25.5455C177.414 25.5455 176.727 25.75 176.136 26.1591C175.55 26.5625 175.093 27.1335 174.763 27.8722C174.44 28.6051 174.278 29.4659 174.278 30.4545C174.278 31.4659 174.437 32.3466 174.755 33.0966C175.079 33.8466 175.533 34.429 176.119 34.8438C176.71 35.2585 177.403 35.4659 178.198 35.4659C178.721 35.4659 179.195 35.375 179.621 35.1932C180.048 35.0114 180.408 34.75 180.704 34.4091C180.999 34.0682 181.21 33.6591 181.335 33.1818H183.346C183.232 33.9545 182.951 34.6506 182.502 35.2699C182.059 35.8835 181.471 36.3722 180.738 36.7358C180.011 37.0938 179.164 37.2727 178.198 37.2727ZM191.979 23.9091V25.6136H185.195V23.9091H191.979ZM187.173 20.7727H189.184V33.25C189.184 33.8182 189.266 34.2443 189.431 34.5284C189.602 34.8068 189.817 34.9943 190.079 35.0909C190.346 35.1818 190.627 35.2273 190.923 35.2273C191.144 35.2273 191.326 35.2159 191.468 35.1932C191.61 35.1648 191.724 35.142 191.809 35.125L192.218 36.9318C192.082 36.983 191.891 37.0341 191.647 37.0852C191.403 37.142 191.093 37.1705 190.718 37.1705C190.15 37.1705 189.593 37.0483 189.048 36.804C188.508 36.5597 188.059 36.1875 187.701 35.6875C187.349 35.1875 187.173 34.5568 187.173 33.7955V20.7727Z" fill="black"/>
</svg>
