<svg width="70" height="52" viewBox="0 0 70 52" fill="none" xmlns="http://www.w3.org/2000/svg">
<path d="M49.6499 47.47C51.2699 46.35 52.7899 45.3 54.3099 44.24C54.1399 43.78 53.9699 43.33 53.7999 42.87C49.7699 43.82 45.7899 45.17 41.7099 45.61C37.3199 46.09 32.7899 46.09 28.4099 45.61C24.3199 45.16 20.3399 43.79 16.3099 42.83L15.7399 44.32C17.2599 45.32 18.7799 46.32 20.2999 47.33C18.6999 52.58 18.3199 52.77 13.4499 50.84C1.10989 45.93 -0.88011 43.02 1.38989 30.24C2.44989 24.26 5.00987 18.56 6.77987 12.7C9.17987 4.77997 15.6899 2.56997 22.7699 1.15997C23.5499 1.00997 24.9999 1.37997 25.2499 1.91997C26.5199 4.58997 28.7499 4.20997 30.9999 4.15997C33.7999 4.08997 36.6399 4.41997 39.3999 4.05997C41.2299 3.82997 42.9499 2.71998 44.6999 1.95998C45.2999 1.69998 45.9799 0.879964 46.3999 1.00996C51.7299 2.67996 57.8199 2.57997 61.2099 8.44997C67.1399 18.71 69.7399 29.67 68.9299 41.41C68.8299 42.91 67.6499 44.82 66.3799 45.66C63.3699 47.66 59.9499 49.04 56.7899 50.83C53.0199 52.95 50.7799 51.85 49.6499 47.48V47.47ZM23.4699 36.87C27.0499 36.86 30.4299 33.19 30.4499 29.3C30.4699 25.23 27.3799 21.94 23.4899 21.9C19.5199 21.86 16.6199 24.98 16.6499 29.25C16.6799 33.31 19.8799 36.89 23.4699 36.87ZM53.4899 29.23C53.4899 24.93 50.6499 21.88 46.6299 21.9C42.6599 21.92 39.6299 25.15 39.6999 29.27C39.7699 33.17 43.1799 36.87 46.6999 36.87C50.2899 36.87 53.4699 33.28 53.4799 29.22L53.4899 29.23Z" fill="url(#paint0_linear_23_767)"/>
<defs>
<linearGradient id="paint0_linear_23_767" x1="33.8899" y1="-5.13004" x2="35.0499" y2="47.22" gradientUnits="userSpaceOnUse">
<stop offset="0.36" stop-color="#8CF9F9"/>
<stop offset="0.59" stop-color="#34F79A"/>
</linearGradient>
</defs>
</svg>
