<svg width="390" height="102" viewBox="0 0 390 102" fill="none" xmlns="http://www.w3.org/2000/svg">
<path d="M0 50.0377L33.1643 0H354.922L390 50.0377L354.922 102H33.1643L0 50.0377Z" fill="#34F79A"/>
<path d="M61.125 65V68.125H42.9432V65H61.125ZM69.8928 65L61.9382 35.9091H65.5178L71.5973 59.6023H71.8814L78.0746 35.9091H82.0518L88.245 59.6023H88.5291L94.6087 35.9091H98.1882L90.2337 65H86.5973L80.1768 41.8182H79.9496L73.5291 65H69.8928ZM102.577 65V35.9091H106.1V48.8636H121.612V35.9091H125.134V65H121.612V51.9886H106.1V65H102.577ZM135.71 35.9091V65H132.187V35.9091H135.71ZM141.182 39.0341V35.9091H163V39.0341H153.852V65H150.33V39.0341H141.182ZM168.437 65V35.9091H185.994V39.0341H171.96V48.8636H185.085V51.9886H171.96V61.875H186.221V65H168.437ZM206.945 65V68.125H188.763V65H206.945ZM210.429 65V35.9091H220.259C222.541 35.9091 224.406 36.321 225.855 37.1449C227.313 37.9593 228.393 39.0625 229.094 40.4545C229.795 41.8466 230.145 43.3996 230.145 45.1136C230.145 46.8277 229.795 48.3854 229.094 49.7869C228.402 51.1884 227.332 52.3059 225.884 53.1392C224.435 53.9631 222.579 54.375 220.315 54.375H213.27V51.25H220.202C221.764 51.25 223.019 50.9801 223.966 50.4403C224.913 49.9006 225.599 49.1714 226.026 48.2528C226.461 47.3248 226.679 46.2784 226.679 45.1136C226.679 43.9489 226.461 42.9072 226.026 41.9886C225.599 41.0701 224.908 40.3504 223.952 39.8295C222.995 39.2992 221.726 39.0341 220.145 39.0341H213.952V65H210.429ZM234.044 65H230.351L241.033 35.9091H244.669L255.351 65H251.658L242.964 40.5114H242.737L234.044 65ZM235.408 53.6364H250.294V56.7614H235.408V53.6364ZM259.882 65V35.9091H269.712C271.994 35.9091 273.859 36.321 275.308 37.1449C276.767 37.9593 277.846 39.0625 278.547 40.4545C279.248 41.8466 279.598 43.3996 279.598 45.1136C279.598 46.8277 279.248 48.3854 278.547 49.7869C277.856 51.1884 276.786 52.3059 275.337 53.1392C273.888 53.9631 272.032 54.375 269.768 54.375H262.723V51.25H269.655C271.217 51.25 272.472 50.9801 273.419 50.4403C274.366 49.9006 275.053 49.1714 275.479 48.2528C275.914 47.3248 276.132 46.2784 276.132 45.1136C276.132 43.9489 275.914 42.9072 275.479 41.9886C275.053 41.0701 274.361 40.3504 273.405 39.8295C272.448 39.2992 271.179 39.0341 269.598 39.0341H263.405V65H259.882ZM285.273 65V35.9091H302.83V39.0341H288.795V48.8636H301.92V51.9886H288.795V61.875H303.057V65H285.273ZM309.179 65V35.9091H319.009C321.281 35.9091 323.147 36.2973 324.605 37.0739C326.063 37.8409 327.143 38.8968 327.844 40.2415C328.545 41.5862 328.895 43.1155 328.895 44.8295C328.895 46.5436 328.545 48.0634 327.844 49.3892C327.143 50.715 326.068 51.7566 324.619 52.5142C323.17 53.2623 321.319 53.6364 319.065 53.6364H311.111V50.4545H318.952C320.505 50.4545 321.755 50.2273 322.702 49.7727C323.658 49.3182 324.349 48.6742 324.776 47.8409C325.211 46.9981 325.429 45.9943 325.429 44.8295C325.429 43.6648 325.211 42.6468 324.776 41.7756C324.34 40.9044 323.644 40.232 322.688 39.7585C321.731 39.2756 320.467 39.0341 318.895 39.0341H312.702V65H309.179ZM322.872 51.9318L330.031 65H325.94L318.895 51.9318H322.872ZM349.367 65V68.125H331.185V65H349.367Z" fill="black"/>
</svg>
