<svg width="391" height="102" viewBox="0 0 391 102" fill="none" xmlns="http://www.w3.org/2000/svg">
<path d="M0.5 50.0377L33.6643 0H355.422L390.5 50.0377L355.422 102H33.6643L0.5 50.0377Z" fill="#34F79A"/>
<path d="M61.625 65V68.125H43.4432V65H61.625ZM83.3935 45C83.081 44.0436 82.669 43.1866 82.1577 42.429C81.6558 41.6619 81.0545 41.0085 80.3537 40.4688C79.6624 39.929 78.8764 39.517 77.9957 39.233C77.1151 38.9489 76.1491 38.8068 75.098 38.8068C73.3745 38.8068 71.8073 39.2519 70.3963 40.142C68.9853 41.0322 67.8632 42.3438 67.0298 44.0767C66.1965 45.8097 65.7798 47.9356 65.7798 50.4545C65.7798 52.9735 66.2012 55.0994 67.044 56.8324C67.8868 58.5653 69.0279 59.8769 70.4673 60.767C71.9067 61.6572 73.526 62.1023 75.3253 62.1023C76.992 62.1023 78.4598 61.7472 79.7287 61.0369C81.0071 60.3172 82.0014 59.304 82.7116 57.9972C83.4313 56.6809 83.7912 55.1326 83.7912 53.3523L84.8707 53.5795H76.1207V50.4545H87.2003V53.5795C87.2003 55.9754 86.6889 58.0587 85.6662 59.8295C84.6529 61.6004 83.2514 62.9735 81.4616 63.9489C79.6813 64.9148 77.6359 65.3977 75.3253 65.3977C72.7495 65.3977 70.4863 64.7917 68.5355 63.5795C66.5942 62.3674 65.0791 60.6439 63.9901 58.4091C62.9105 56.1742 62.3707 53.5227 62.3707 50.4545C62.3707 48.1534 62.6785 46.0843 63.294 44.2472C63.919 42.4006 64.7997 40.8286 65.9361 39.5312C67.0724 38.2339 68.4171 37.2396 69.9702 36.5483C71.5232 35.857 73.2325 35.5114 75.098 35.5114C76.6321 35.5114 78.062 35.7434 79.3878 36.2074C80.723 36.6619 81.9115 37.3106 82.9531 38.1534C84.0043 38.9867 84.8802 39.9858 85.581 41.1506C86.2817 42.3059 86.7647 43.589 87.0298 45H83.3935ZM93.2337 65V35.9091H110.79V39.0341H96.7564V48.8636H109.881V51.9886H96.7564V61.875H111.018V65H93.2337ZM115.549 39.0341V35.9091H137.367V39.0341H128.219V65H124.697V39.0341H115.549ZM169.963 43.1818C169.793 41.7424 169.101 40.625 167.889 39.8295C166.677 39.0341 165.19 38.6364 163.429 38.6364C162.141 38.6364 161.014 38.8447 160.048 39.2614C159.092 39.678 158.344 40.2509 157.804 40.9801C157.274 41.7093 157.009 42.5379 157.009 43.4659C157.009 44.2424 157.193 44.91 157.562 45.4688C157.941 46.018 158.424 46.4773 159.011 46.8466C159.598 47.2064 160.214 47.5047 160.858 47.7415C161.502 47.9687 162.094 48.1534 162.634 48.2955L165.588 49.0909C166.346 49.2898 167.188 49.5644 168.116 49.9148C169.054 50.2652 169.949 50.7434 170.801 51.3494C171.663 51.946 172.373 52.7131 172.932 53.6506C173.491 54.5881 173.77 55.7386 173.77 57.1023C173.77 58.6742 173.358 60.0947 172.534 61.3636C171.72 62.6326 170.527 63.6411 168.955 64.3892C167.392 65.1373 165.493 65.5114 163.259 65.5114C161.175 65.5114 159.371 65.1752 157.847 64.5028C156.331 63.8305 155.138 62.893 154.267 61.6903C153.405 60.4877 152.918 59.0909 152.804 57.5H156.44C156.535 58.5985 156.904 59.5076 157.548 60.2273C158.202 60.9375 159.026 61.4678 160.02 61.8182C161.024 62.1591 162.103 62.3295 163.259 62.3295C164.603 62.3295 165.811 62.1117 166.881 61.6761C167.951 61.2311 168.798 60.6155 169.423 59.8295C170.048 59.0341 170.361 58.1061 170.361 57.0455C170.361 56.0795 170.091 55.2936 169.551 54.6875C169.011 54.0814 168.301 53.589 167.42 53.2102C166.54 52.8314 165.588 52.5 164.565 52.2159L160.986 51.1932C158.713 50.5398 156.914 49.607 155.588 48.3949C154.262 47.1828 153.599 45.5966 153.599 43.6364C153.599 42.0076 154.04 40.5871 154.92 39.375C155.811 38.1534 157.004 37.2064 158.5 36.5341C160.006 35.8523 161.687 35.5114 163.543 35.5114C165.418 35.5114 167.084 35.8475 168.543 36.5199C170.001 37.1828 171.156 38.0919 172.009 39.2472C172.87 40.4025 173.325 41.714 173.372 43.1818H169.963ZM177.971 39.0341V35.9091H199.789V39.0341H190.641V65H187.119V39.0341H177.971ZM203.021 65H199.327L210.009 35.9091H213.646L224.327 65H220.634L211.941 40.5114H211.714L203.021 65ZM204.384 53.6364H219.271V56.7614H204.384V53.6364ZM228.859 65V35.9091H238.688C240.961 35.9091 242.826 36.2973 244.285 37.0739C245.743 37.8409 246.823 38.8968 247.523 40.2415C248.224 41.5862 248.575 43.1155 248.575 44.8295C248.575 46.5436 248.224 48.0634 247.523 49.3892C246.823 50.715 245.748 51.7566 244.299 52.5142C242.85 53.2623 240.999 53.6364 238.745 53.6364H230.79V50.4545H238.631C240.184 50.4545 241.434 50.2273 242.381 49.7727C243.338 49.3182 244.029 48.6742 244.455 47.8409C244.891 46.9981 245.109 45.9943 245.109 44.8295C245.109 43.6648 244.891 42.6468 244.455 41.7756C244.02 40.9044 243.324 40.232 242.367 39.7585C241.411 39.2756 240.147 39.0341 238.575 39.0341H232.381V65H228.859ZM242.552 51.9318L249.711 65H245.62L238.575 51.9318H242.552ZM252.854 39.0341V35.9091H274.672V39.0341H265.524V65H262.001V39.0341H252.854ZM280.109 65V35.9091H297.665V39.0341H283.631V48.8636H296.756V51.9886H283.631V61.875H297.893V65H280.109ZM312.992 65H304.015V35.9091H313.39C316.212 35.9091 318.627 36.4915 320.634 37.6562C322.642 38.8116 324.181 40.4735 325.251 42.642C326.321 44.8011 326.856 47.3864 326.856 50.3977C326.856 53.428 326.316 56.0369 325.237 58.2244C324.157 60.4025 322.585 62.0786 320.521 63.2528C318.456 64.4176 315.947 65 312.992 65ZM307.538 61.875H312.765C315.17 61.875 317.164 61.411 318.745 60.483C320.326 59.5549 321.505 58.2339 322.282 56.5199C323.058 54.8059 323.447 52.7652 323.447 50.3977C323.447 48.0492 323.063 46.0275 322.296 44.3324C321.529 42.6278 320.383 41.321 318.859 40.4119C317.334 39.4934 315.435 39.0341 313.163 39.0341H307.538V61.875ZM345.766 65V68.125H327.584V65H345.766Z" fill="black"/>
</svg>
