<svg width="31" height="31" viewBox="0 0 31 31" fill="none" xmlns="http://www.w3.org/2000/svg">
<path d="M15.4987 0C6.93977 0 0 6.93708 0 15.4987C0 24.0602 6.93977 31 15.4987 31C24.0575 31 31 24.0602 31 15.4987C31 6.93708 24.0602 0 15.4987 0ZM25.6524 10.2238L12.7993 23.0742L5.34761 15.6226C4.82228 15.0946 4.82228 14.2432 5.34761 13.7179C5.87295 13.1899 6.72695 13.1899 7.25228 13.7179L12.7993 19.2649L23.7477 8.31642C24.2731 7.79108 25.1271 7.79108 25.6524 8.31642C26.1777 8.84444 26.1777 9.69575 25.6524 10.2238Z" fill="#0FD5EF"/>
</svg>
