<svg width="58" height="59" viewBox="0 0 58 59" fill="none" xmlns="http://www.w3.org/2000/svg">
<path d="M-0.000109745 29.48C0.0798903 13.47 12.5599 1.02001 28.5499 0.990014C44.9099 0.970014 57.3399 13.61 57.2299 30.15C57.1299 45.77 44.5199 58.18 28.7199 58.22C12.5299 58.26 -0.0801097 45.64 -0.000109745 29.48ZM30.4399 28.31C28.7299 29.94 27.0299 31.58 25.2899 33.19C23.0999 35.23 23.2999 36.93 25.8499 38.52C28.3399 40.08 30.6899 41.85 33.1899 43.4C36.9599 45.74 38.9699 45 39.7399 40.74C40.8599 34.57 41.7899 28.37 42.5799 22.15C43.1699 17.46 42.0099 16.56 37.4199 18.37C29.0899 21.65 20.8599 25.15 12.6199 28.63C11.5599 29.08 10.6999 29.97 9.26989 31C18.0299 37.74 23.9199 31.64 30.4399 28.31Z" fill="url(#paint0_linear_23_768)"/>
<defs>
<linearGradient id="paint0_linear_23_768" x1="28.0899" y1="5.95001" x2="29.2499" y2="58.3" gradientUnits="userSpaceOnUse">
<stop offset="0.36" stop-color="#8CF9F9"/>
<stop offset="0.59" stop-color="#34F79A"/>
</linearGradient>
</defs>
</svg>
