<svg width="57" height="49" viewBox="0 0 57 49" fill="none" xmlns="http://www.w3.org/2000/svg">
<path d="M28 15.4699C27.91 9.55992 29.17 4.85992 34.23 2.02992C37.66 0.11992 41.43 -0.350084 44.65 1.75992C48 3.95992 51.1 4.67992 54.97 3.27992L51.49 7.76993H56.76C51.16 10.6999 51.74 15.2799 51.13 19.6099C47.87 42.6999 21.64 55.7399 0.709961 44.4599C6.57996 43.8099 12.05 42.7899 16.87 38.2399C11.89 37.4199 8.21998 35.7599 6.09998 31.3999C7.39998 30.8399 8.43995 30.3899 10.11 29.6799C5.42996 27.1799 1.81995 24.4599 1.10995 19.0499H5.92996C2.15996 14.3899 -0.480016 9.96992 2.13998 3.79992C9.61998 10.7199 17.57 15.6699 28 15.4599V15.4699Z" fill="url(#paint0_linear_23_770)"/>
<defs>
<linearGradient id="paint0_linear_23_770" x1="28.04" y1="-4.96008" x2="29.21" y2="47.3899" gradientUnits="userSpaceOnUse">
<stop offset="0.36" stop-color="#8CF9F9"/>
<stop offset="0.59" stop-color="#34F79A"/>
</linearGradient>
</defs>
</svg>
