<svg width="58" height="57" viewBox="0 0 58 57" fill="none" xmlns="http://www.w3.org/2000/svg">
<path d="M21.6998 41.14C20.2998 45.25 17.1598 45.78 14.2198 42.56C12.2698 40.43 10.6298 37.8499 6.23976 39.2899C10.7598 42.9099 11.0798 50.42 19.0498 49.59C19.5998 49.5299 20.5998 53.81 21.6098 56.71C8.38976 54.35 -0.750235 40.85 0.179765 26.84C1.14977 12.33 12.2498 1.73995 27.2598 1.00995C42.3198 0.26995 54.8098 9.99995 57.1398 24.2899C59.5498 39.0299 51.4098 52.87 37.5198 56.78C37.2198 51.63 36.9298 46.59 36.6198 41.21C37.4498 40.94 38.5798 40.55 39.7298 40.22C47.7798 37.87 51.1098 29.61 47.1398 22.24C46.4298 20.92 46.2598 19.16 46.3098 17.62C46.4698 12.29 44.7198 11.2 39.7298 13.11C37.4298 13.99 34.7698 14.03 32.2498 14.23C30.1598 14.4 28.0298 14.39 25.9398 14.21C23.2898 13.98 20.4998 13.92 18.0498 13.03C13.5298 11.38 12.1498 12.09 11.7998 16.72C11.6298 18.97 10.9698 21.19 10.4498 23.41C8.41978 31.95 10.1398 39.1799 21.7098 41.1499L21.6998 41.14Z" fill="url(#paint0_linear_23_771)"/>
<defs>
<linearGradient id="paint0_linear_23_771" x1="28.0998" y1="-4.31005" x2="29.2598" y2="48.04" gradientUnits="userSpaceOnUse">
<stop offset="0.36" stop-color="#8CF9F9"/>
<stop offset="0.59" stop-color="#34F79A"/>
</linearGradient>
</defs>
</svg>
