<svg width="390" height="102" viewBox="0 0 390 102" fill="none" xmlns="http://www.w3.org/2000/svg">
<path d="M0 50.0377L33.1643 0H354.922L390 50.0377L354.922 102H33.1643L0 50.0377Z" fill="#34F79A"/>
<path d="M121.659 36.9091H125.182V57.7045C125.182 59.5606 124.841 61.1373 124.159 62.4347C123.477 63.732 122.516 64.7169 121.276 65.3892C120.035 66.0616 118.572 66.3977 116.886 66.3977C115.295 66.3977 113.88 66.1089 112.639 65.5312C111.399 64.9441 110.423 64.1108 109.713 63.0312C109.003 61.9517 108.648 60.6686 108.648 59.1818H112.114C112.114 60.0057 112.317 60.7254 112.724 61.3409C113.141 61.947 113.709 62.4205 114.429 62.7614C115.149 63.1023 115.968 63.2727 116.886 63.2727C117.9 63.2727 118.761 63.0597 119.472 62.6335C120.182 62.2074 120.722 61.5824 121.091 60.7585C121.47 59.9252 121.659 58.9072 121.659 57.7045V36.9091ZM140.651 66.4545C138.681 66.4545 136.953 65.9858 135.466 65.0483C133.989 64.1108 132.833 62.7992 132 61.1136C131.176 59.428 130.764 57.4583 130.764 55.2045C130.764 52.9318 131.176 50.9479 132 49.2528C132.833 47.5578 133.989 46.2415 135.466 45.304C136.953 44.3665 138.681 43.8977 140.651 43.8977C142.62 43.8977 144.344 44.3665 145.821 45.304C147.308 46.2415 148.463 47.5578 149.287 49.2528C150.12 50.9479 150.537 52.9318 150.537 55.2045C150.537 57.4583 150.12 59.428 149.287 61.1136C148.463 62.7992 147.308 64.1108 145.821 65.0483C144.344 65.9858 142.62 66.4545 140.651 66.4545ZM140.651 63.4432C142.147 63.4432 143.378 63.0597 144.344 62.2926C145.31 61.5256 146.025 60.517 146.489 59.267C146.953 58.017 147.185 56.6629 147.185 55.2045C147.185 53.7462 146.953 52.3873 146.489 51.1278C146.025 49.8684 145.31 48.8504 144.344 48.0739C143.378 47.2973 142.147 46.9091 140.651 46.9091C139.154 46.9091 137.923 47.2973 136.957 48.0739C135.991 48.8504 135.277 49.8684 134.812 51.1278C134.348 52.3873 134.116 53.7462 134.116 55.2045C134.116 56.6629 134.348 58.017 134.812 59.267C135.277 60.517 135.991 61.5256 136.957 62.2926C137.923 63.0597 139.154 63.4432 140.651 63.4432ZM155.654 66V44.1818H159.006V66H155.654ZM157.359 40.5455C156.705 40.5455 156.142 40.3229 155.668 39.8778C155.204 39.4328 154.972 38.8977 154.972 38.2727C154.972 37.6477 155.204 37.1127 155.668 36.6676C156.142 36.2225 156.705 36 157.359 36C158.012 36 158.571 36.2225 159.035 36.6676C159.508 37.1127 159.745 37.6477 159.745 38.2727C159.745 38.8977 159.508 39.4328 159.035 39.8778C158.571 40.3229 158.012 40.5455 157.359 40.5455ZM168.499 52.875V66H165.146V44.1818H168.385V47.5909H168.669C169.18 46.483 169.957 45.5928 170.999 44.9205C172.04 44.2386 173.385 43.8977 175.033 43.8977C176.51 43.8977 177.803 44.2008 178.911 44.8068C180.018 45.4034 180.88 46.3125 181.496 47.5341C182.111 48.7462 182.419 50.2803 182.419 52.1364V66H179.067V52.3636C179.067 50.6496 178.622 49.3144 177.732 48.358C176.841 47.392 175.62 46.9091 174.067 46.9091C172.997 46.9091 172.04 47.1411 171.197 47.6051C170.364 48.0691 169.706 48.7462 169.223 49.6364C168.74 50.5265 168.499 51.6061 168.499 52.875ZM223.317 36.9091V66H219.908L204.056 43.1591H203.772V66H200.249V36.9091H203.658L219.567 59.8068H219.852V36.9091H223.317ZM238.776 66.4545C236.806 66.4545 235.078 65.9858 233.591 65.0483C232.114 64.1108 230.958 62.7992 230.125 61.1136C229.301 59.428 228.889 57.4583 228.889 55.2045C228.889 52.9318 229.301 50.9479 230.125 49.2528C230.958 47.5578 232.114 46.2415 233.591 45.304C235.078 44.3665 236.806 43.8977 238.776 43.8977C240.745 43.8977 242.469 44.3665 243.946 45.304C245.433 46.2415 246.588 47.5578 247.412 49.2528C248.245 50.9479 248.662 52.9318 248.662 55.2045C248.662 57.4583 248.245 59.428 247.412 61.1136C246.588 62.7992 245.433 64.1108 243.946 65.0483C242.469 65.9858 240.745 66.4545 238.776 66.4545ZM238.776 63.4432C240.272 63.4432 241.503 63.0597 242.469 62.2926C243.435 61.5256 244.15 60.517 244.614 59.267C245.078 58.017 245.31 56.6629 245.31 55.2045C245.31 53.7462 245.078 52.3873 244.614 51.1278C244.15 49.8684 243.435 48.8504 242.469 48.0739C241.503 47.2973 240.272 46.9091 238.776 46.9091C237.279 46.9091 236.048 47.2973 235.082 48.0739C234.116 48.8504 233.402 49.8684 232.938 51.1278C232.473 52.3873 232.241 53.7462 232.241 55.2045C232.241 56.6629 232.473 58.017 232.938 59.267C233.402 60.517 234.116 61.5256 235.082 62.2926C236.048 63.0597 237.279 63.4432 238.776 63.4432ZM257.98 66L251.332 44.1818H254.855L259.571 60.8864H259.798L264.457 44.1818H268.037L272.639 60.8295H272.866L277.582 44.1818H281.105L274.457 66H271.162L266.389 49.2386H266.048L261.276 66H257.98Z" fill="black"/>
</svg>
