<svg width="174" height="46" viewBox="0 0 174 46" fill="none" xmlns="http://www.w3.org/2000/svg">
<path d="M0.275391 23.0499L14.9868 45.2461H157.715L173.275 23.0499L157.715 -5.72205e-05H14.9868L0.275391 23.0499Z" fill="#34F79A"/>
<path d="M47.0481 21H45.639C45.5557 20.5947 45.4099 20.2386 45.2015 19.9318C44.997 19.625 44.747 19.3674 44.4515 19.1591C44.1599 18.947 43.836 18.7879 43.4799 18.6818C43.1239 18.5758 42.7527 18.5227 42.3663 18.5227C41.6618 18.5227 41.0235 18.7008 40.4515 19.0568C39.8833 19.4129 39.4307 19.9375 39.0936 20.6307C38.7602 21.3239 38.5936 22.1742 38.5936 23.1818C38.5936 24.1894 38.7602 25.0398 39.0936 25.733C39.4307 26.4261 39.8833 26.9508 40.4515 27.3068C41.0235 27.6629 41.6618 27.8409 42.3663 27.8409C42.7527 27.8409 43.1239 27.7879 43.4799 27.6818C43.836 27.5758 44.1599 27.4186 44.4515 27.2102C44.747 26.9981 44.997 26.7386 45.2015 26.4318C45.4099 26.1212 45.5557 25.7652 45.639 25.3636H47.0481C46.9421 25.9583 46.7489 26.4905 46.4686 26.9602C46.1883 27.4299 45.8398 27.8295 45.4231 28.1591C45.0065 28.4848 44.5386 28.733 44.0197 28.9034C43.5046 29.0739 42.9534 29.1591 42.3663 29.1591C41.3739 29.1591 40.4913 28.9167 39.7186 28.4318C38.9458 27.947 38.3379 27.2576 37.8947 26.3636C37.4515 25.4697 37.2299 24.4091 37.2299 23.1818C37.2299 21.9545 37.4515 20.8939 37.8947 20C38.3379 19.1061 38.9458 18.4167 39.7186 17.9318C40.4913 17.447 41.3739 17.2045 42.3663 17.2045C42.9534 17.2045 43.5046 17.2898 44.0197 17.4602C44.5386 17.6307 45.0065 17.8807 45.4231 18.2102C45.8398 18.536 46.1883 18.9337 46.4686 19.4034C46.7489 19.8693 46.9421 20.4015 47.0481 21ZM52.6887 29.1818C51.9009 29.1818 51.2096 28.9943 50.6149 28.6193C50.024 28.2443 49.5618 27.7197 49.2285 27.0455C48.899 26.3712 48.7342 25.5833 48.7342 24.6818C48.7342 23.7727 48.899 22.9792 49.2285 22.3011C49.5618 21.6231 50.024 21.0966 50.6149 20.7216C51.2096 20.3466 51.9009 20.1591 52.6887 20.1591C53.4766 20.1591 54.166 20.3466 54.7569 20.7216C55.3516 21.0966 55.8137 21.6231 56.1433 22.3011C56.4766 22.9792 56.6433 23.7727 56.6433 24.6818C56.6433 25.5833 56.4766 26.3712 56.1433 27.0455C55.8137 27.7197 55.3516 28.2443 54.7569 28.6193C54.166 28.9943 53.4766 29.1818 52.6887 29.1818ZM52.6887 27.9773C53.2872 27.9773 53.7797 27.8239 54.166 27.517C54.5524 27.2102 54.8384 26.8068 55.024 26.3068C55.2096 25.8068 55.3024 25.2652 55.3024 24.6818C55.3024 24.0985 55.2096 23.5549 55.024 23.0511C54.8384 22.5473 54.5524 22.1402 54.166 21.8295C53.7797 21.5189 53.2872 21.3636 52.6887 21.3636C52.0903 21.3636 51.5978 21.5189 51.2115 21.8295C50.8251 22.1402 50.5391 22.5473 50.3535 23.0511C50.1679 23.5549 50.0751 24.0985 50.0751 24.6818C50.0751 25.2652 50.1679 25.8068 50.3535 26.3068C50.5391 26.8068 50.8251 27.2102 51.2115 27.517C51.5978 27.8239 52.0903 27.9773 52.6887 27.9773ZM60.0311 23.75V29H58.6902V20.2727H59.9856V21.6364H60.0993C60.3038 21.1932 60.6144 20.8371 61.0311 20.5682C61.4477 20.2955 61.9856 20.1591 62.6447 20.1591C63.2356 20.1591 63.7527 20.2803 64.1958 20.5227C64.639 20.7614 64.9837 21.125 65.2299 21.6136C65.4761 22.0985 65.5993 22.7121 65.5993 23.4545V29H64.2583V23.5455C64.2583 22.8598 64.0803 22.3258 63.7243 21.9432C63.3682 21.5568 62.8796 21.3636 62.2583 21.3636C61.8303 21.3636 61.4477 21.4564 61.1106 21.642C60.7773 21.8277 60.514 22.0985 60.3208 22.4545C60.1277 22.8106 60.0311 23.2424 60.0311 23.75ZM74.8734 20.2727L71.6461 29H70.2825L67.0552 20.2727H68.5098L70.9189 27.2273H71.0098L73.4189 20.2727H74.8734ZM79.9899 29.1818C79.149 29.1818 78.4236 28.9962 77.8137 28.625C77.2077 28.25 76.7399 27.7273 76.4103 27.0568C76.0846 26.3826 75.9217 25.5985 75.9217 24.7045C75.9217 23.8106 76.0846 23.0227 76.4103 22.3409C76.7399 21.6553 77.1982 21.1212 77.7853 20.7386C78.3762 20.3523 79.0656 20.1591 79.8535 20.1591C80.3081 20.1591 80.7569 20.2348 81.2001 20.3864C81.6433 20.5379 82.0467 20.7841 82.4103 21.125C82.774 21.4621 83.0637 21.9091 83.2797 22.4659C83.4956 23.0227 83.6035 23.7083 83.6035 24.5227V25.0909H76.8762V23.9318H82.2399C82.2399 23.4394 82.1414 23 81.9444 22.6136C81.7512 22.2273 81.4747 21.9223 81.1149 21.6989C80.7588 21.4754 80.3384 21.3636 79.8535 21.3636C79.3194 21.3636 78.8573 21.4962 78.4672 21.7614C78.0808 22.0227 77.7834 22.3636 77.5751 22.7841C77.3668 23.2045 77.2626 23.6553 77.2626 24.1364V24.9091C77.2626 25.5682 77.3762 26.1269 77.6035 26.5852C77.8346 27.0398 78.1547 27.3864 78.5637 27.625C78.9728 27.8598 79.4482 27.9773 79.9899 27.9773C80.3422 27.9773 80.6603 27.928 80.9444 27.8295C81.2323 27.7273 81.4804 27.5758 81.6887 27.375C81.8971 27.1705 82.0581 26.9167 82.1717 26.6136L83.4672 26.9773C83.3308 27.4167 83.1016 27.803 82.7797 28.1364C82.4577 28.4659 82.06 28.7235 81.5865 28.9091C81.113 29.0909 80.5808 29.1818 79.9899 29.1818ZM85.6433 29V20.2727H86.9387V21.5909H87.0297C87.1887 21.1591 87.4766 20.8087 87.8933 20.5398C88.31 20.2708 88.7797 20.1364 89.3024 20.1364C89.4009 20.1364 89.524 20.1383 89.6717 20.142C89.8194 20.1458 89.9312 20.1515 90.0069 20.1591V21.5227C89.9615 21.5114 89.8573 21.4943 89.6944 21.4716C89.5353 21.4451 89.3668 21.4318 89.1887 21.4318C88.7645 21.4318 88.3857 21.5208 88.0524 21.6989C87.7228 21.8731 87.4615 22.1155 87.2683 22.4261C87.0789 22.733 86.9842 23.0833 86.9842 23.4773V29H85.6433ZM95.9387 20.2727V21.4091H91.416V20.2727H95.9387ZM92.7342 18.1818H94.0751V26.5C94.0751 26.8788 94.13 27.1629 94.2399 27.3523C94.3535 27.5379 94.4975 27.6629 94.6717 27.7273C94.8497 27.7879 95.0372 27.8182 95.2342 27.8182C95.3819 27.8182 95.5031 27.8106 95.5978 27.7955C95.6925 27.7765 95.7683 27.7614 95.8251 27.75L96.0978 28.9545C96.0069 28.9886 95.88 29.0227 95.7172 29.0568C95.5543 29.0947 95.3478 29.1136 95.0978 29.1136C94.719 29.1136 94.3478 29.0322 93.9842 28.8693C93.6243 28.7064 93.3251 28.4583 93.0865 28.125C92.8516 27.7917 92.7342 27.3712 92.7342 26.8636V18.1818ZM109.001 20.2727C108.933 19.697 108.657 19.25 108.172 18.9318C107.687 18.6136 107.092 18.4545 106.388 18.4545C105.872 18.4545 105.422 18.5379 105.035 18.7045C104.653 18.8712 104.354 19.1004 104.138 19.392C103.925 19.6837 103.819 20.0152 103.819 20.3864C103.819 20.697 103.893 20.964 104.041 21.1875C104.193 21.4072 104.386 21.5909 104.621 21.7386C104.855 21.8826 105.102 22.0019 105.359 22.0966C105.617 22.1875 105.854 22.2614 106.069 22.3182L107.251 22.6364C107.554 22.7159 107.891 22.8258 108.263 22.9659C108.638 23.1061 108.996 23.2973 109.336 23.5398C109.681 23.7784 109.965 24.0852 110.189 24.4602C110.412 24.8352 110.524 25.2955 110.524 25.8409C110.524 26.4697 110.359 27.0379 110.03 27.5455C109.704 28.053 109.227 28.4564 108.598 28.7557C107.973 29.0549 107.213 29.2045 106.319 29.2045C105.486 29.2045 104.765 29.0701 104.155 28.8011C103.549 28.5322 103.071 28.1572 102.723 27.6761C102.378 27.1951 102.183 26.6364 102.138 26H103.592C103.63 26.4394 103.778 26.803 104.035 27.0909C104.297 27.375 104.626 27.5871 105.024 27.7273C105.425 27.8636 105.857 27.9318 106.319 27.9318C106.857 27.9318 107.34 27.8447 107.768 27.6705C108.196 27.4924 108.535 27.2462 108.785 26.9318C109.035 26.6136 109.16 26.2424 109.16 25.8182C109.16 25.4318 109.052 25.1174 108.836 24.875C108.621 24.6326 108.336 24.4356 107.984 24.2841C107.632 24.1326 107.251 24 106.842 23.8864L105.41 23.4773C104.501 23.2159 103.782 22.8428 103.251 22.358C102.721 21.8731 102.456 21.2386 102.456 20.4545C102.456 19.803 102.632 19.2348 102.984 18.75C103.34 18.2614 103.818 17.8826 104.416 17.6136C105.018 17.3409 105.691 17.2045 106.433 17.2045C107.183 17.2045 107.85 17.339 108.433 17.608C109.016 17.8731 109.479 18.2367 109.819 18.6989C110.164 19.161 110.346 19.6856 110.365 20.2727H109.001ZM122.659 23.1818C122.659 24.4091 122.437 25.4697 121.994 26.3636C121.551 27.2576 120.943 27.947 120.17 28.4318C119.398 28.9167 118.515 29.1591 117.523 29.1591C116.53 29.1591 115.648 28.9167 114.875 28.4318C114.102 27.947 113.494 27.2576 113.051 26.3636C112.608 25.4697 112.386 24.4091 112.386 23.1818C112.386 21.9545 112.608 20.8939 113.051 20C113.494 19.1061 114.102 18.4167 114.875 17.9318C115.648 17.447 116.53 17.2045 117.523 17.2045C118.515 17.2045 119.398 17.447 120.17 17.9318C120.943 18.4167 121.551 19.1061 121.994 20C122.437 20.8939 122.659 21.9545 122.659 23.1818ZM121.295 23.1818C121.295 22.1742 121.127 21.3239 120.79 20.6307C120.456 19.9375 120.004 19.4129 119.432 19.0568C118.863 18.7008 118.227 18.5227 117.523 18.5227C116.818 18.5227 116.18 18.7008 115.608 19.0568C115.04 19.4129 114.587 19.9375 114.25 20.6307C113.916 21.3239 113.75 22.1742 113.75 23.1818C113.75 24.1894 113.916 25.0398 114.25 25.733C114.587 26.4261 115.04 26.9508 115.608 27.3068C116.18 27.6629 116.818 27.8409 117.523 27.8409C118.227 27.8409 118.863 27.6629 119.432 27.3068C120.004 26.9508 120.456 26.4261 120.79 25.733C121.127 25.0398 121.295 24.1894 121.295 23.1818ZM125.028 29V17.3636H126.437V27.75H131.846V29H125.028Z" fill="black"/>
</svg>
