<svg xmlns="http://www.w3.org/2000/svg" width="73.642" height="73.642" viewBox="0 0 73.642 73.642">
  <g id="Group_1875" data-name="Group 1875" transform="translate(40.672 -480.657)">
    <g id="Group_1856" data-name="Group 1856" transform="translate(-136.496 653.638)">
      <path id="Path_1906" data-name="Path 1906" d="M132.645-172.981a36.821,36.821,0,0,1,36.821,36.821,36.821,36.821,0,0,1-36.821,36.821A36.822,36.822,0,0,1,95.824-136.16a36.821,36.821,0,0,1,36.821-36.821" fill="#f0b90b"/>
      <path id="Path_1907" data-name="Path 1907" d="M123.118-140.115l5.575-5.557,1.175-1.175,2.786-2.786,9.488,9.518,5.523-5.557-15.011-15.035-15.06,15.035Z" fill="#fff"/>
      <rect id="Rectangle_1" data-name="Rectangle 1" width="7.843" height="7.843" transform="matrix(0.707, -0.707, 0.707, 0.707, 127.116, -136.169)" fill="#fff"/>
      <path id="Path_1908" data-name="Path 1908" d="M142.142-132.193l-9.49,9.491-3.332-3.332-.614-.614-5.588-5.545-5.523,5.523,15.06,15.035,15.011-15.035Z" fill="#fff"/>
      <rect id="Rectangle_2" data-name="Rectangle 2" width="7.843" height="7.843" transform="matrix(0.707, -0.707, 0.707, 0.707, 108.098, -136.154)" fill="#fff"/>
      <rect id="Rectangle_3" data-name="Rectangle 3" width="7.843" height="7.843" transform="translate(146.103 -136.157) rotate(-45)" fill="#fff"/>
    </g>
  </g>
</svg>
