<svg width="50" height="50" viewBox="0 0 50 50" fill="none" xmlns="http://www.w3.org/2000/svg">
<g clip-path="url(#clip0_495_73)">
<path d="M25 0C31.7925 0 32.64 0.0249998 35.305 0.15C37.9675 0.275 39.78 0.6925 41.375 1.3125C43.025 1.9475 44.415 2.8075 45.805 4.195C47.0762 5.44474 48.0599 6.95647 48.6875 8.625C49.305 10.2175 49.725 12.0325 49.85 14.695C49.9675 17.36 50 18.2075 50 25C50 31.7925 49.975 32.64 49.85 35.305C49.725 37.9675 49.305 39.78 48.6875 41.375C48.0617 43.0444 47.0778 44.5565 45.805 45.805C44.5549 47.0758 43.0433 48.0594 41.375 48.6875C39.7825 49.305 37.9675 49.725 35.305 49.85C32.64 49.9675 31.7925 50 25 50C18.2075 50 17.36 49.975 14.695 49.85C12.0325 49.725 10.22 49.305 8.625 48.6875C6.95581 48.0612 5.44382 47.0774 4.195 45.805C2.92352 44.5555 1.93983 43.0437 1.3125 41.375C0.6925 39.7825 0.275 37.9675 0.15 35.305C0.0324999 32.64 0 31.7925 0 25C0 18.2075 0.0249998 17.36 0.15 14.695C0.275 12.03 0.6925 10.22 1.3125 8.625C1.93809 6.95545 2.92201 5.4433 4.195 4.195C5.44418 2.92308 6.95607 1.93932 8.625 1.3125C10.22 0.6925 12.03 0.275 14.695 0.15C17.36 0.0324999 18.2075 0 25 0ZM25 12.5C21.6848 12.5 18.5054 13.817 16.1612 16.1612C13.817 18.5054 12.5 21.6848 12.5 25C12.5 28.3152 13.817 31.4946 16.1612 33.8388C18.5054 36.183 21.6848 37.5 25 37.5C28.3152 37.5 31.4946 36.183 33.8388 33.8388C36.183 31.4946 37.5 28.3152 37.5 25C37.5 21.6848 36.183 18.5054 33.8388 16.1612C31.4946 13.817 28.3152 12.5 25 12.5ZM41.25 11.875C41.25 11.0462 40.9208 10.2513 40.3347 9.66529C39.7487 9.07924 38.9538 8.75 38.125 8.75C37.2962 8.75 36.5013 9.07924 35.9153 9.66529C35.3292 10.2513 35 11.0462 35 11.875C35 12.7038 35.3292 13.4987 35.9153 14.0847C36.5013 14.6708 37.2962 15 38.125 15C38.9538 15 39.7487 14.6708 40.3347 14.0847C40.9208 13.4987 41.25 12.7038 41.25 11.875ZM25 17.5C26.9891 17.5 28.8968 18.2902 30.3033 19.6967C31.7098 21.1032 32.5 23.0109 32.5 25C32.5 26.9891 31.7098 28.8968 30.3033 30.3033C28.8968 31.7098 26.9891 32.5 25 32.5C23.0109 32.5 21.1032 31.7098 19.6967 30.3033C18.2902 28.8968 17.5 26.9891 17.5 25C17.5 23.0109 18.2902 21.1032 19.6967 19.6967C21.1032 18.2902 23.0109 17.5 25 17.5Z" fill="url(#paint0_linear_495_73)"/>
</g>
<defs>
<linearGradient id="paint0_linear_495_73" x1="25" y1="0" x2="25" y2="50" gradientUnits="userSpaceOnUse">
<stop stop-color="#8AF4F5"/>
<stop offset="1" stop-color="#30F997"/>
</linearGradient>
<clipPath id="clip0_495_73">
<rect width="50" height="50" fill="white"/>
</clipPath>
</defs>
</svg>
