<svg width="1920" height="8139" viewBox="0 0 1920 8139" fill="none" xmlns="http://www.w3.org/2000/svg">
<g clip-path="url(#clip0_6_495)">
<path d="M482.11 915.41C483.695 915.41 484.98 914.125 484.98 912.54C484.98 910.955 483.695 909.67 482.11 909.67C480.525 909.67 479.24 910.955 479.24 912.54C479.24 914.125 480.525 915.41 482.11 915.41Z" fill="#0FD5EF"/>
<path d="M532.9 1000.6C534.485 1000.6 535.77 999.315 535.77 997.73C535.77 996.145 534.485 994.86 532.9 994.86C531.315 994.86 530.03 996.145 530.03 997.73C530.03 999.315 531.315 1000.6 532.9 1000.6Z" fill="#0FD5EF"/>
<path d="M555.6 1093.46C557.185 1093.46 558.47 1092.18 558.47 1090.59C558.47 1089 557.185 1087.72 555.6 1087.72C554.015 1087.72 552.73 1089 552.73 1090.59C552.73 1092.18 554.015 1093.46 555.6 1093.46Z" fill="#0FD5EF"/>
<path d="M569.36 1149.18C570.945 1149.18 572.23 1147.9 572.23 1146.31C572.23 1144.73 570.945 1143.44 569.36 1143.44C567.775 1143.44 566.49 1144.73 566.49 1146.31C566.49 1147.9 567.775 1149.18 569.36 1149.18Z" fill="#0FD5EF"/>
<path d="M620.26 1173.26C621.845 1173.26 623.13 1171.98 623.13 1170.39C623.13 1168.8 621.845 1167.52 620.26 1167.52C618.675 1167.52 617.39 1168.8 617.39 1170.39C617.39 1171.98 618.675 1173.26 620.26 1173.26Z" fill="#0FD5EF"/>
<path d="M626.45 1124.42C628.035 1124.42 629.32 1123.14 629.32 1121.55C629.32 1119.96 628.035 1118.68 626.45 1118.68C624.865 1118.68 623.58 1119.96 623.58 1121.55C623.58 1123.14 624.865 1124.42 626.45 1124.42Z" fill="#0FD5EF"/>
<path d="M239.62 1317.26C241.205 1317.26 242.49 1315.98 242.49 1314.39C242.49 1312.8 241.205 1311.52 239.62 1311.52C238.035 1311.52 236.75 1312.8 236.75 1314.39C236.75 1315.98 238.035 1317.26 239.62 1317.26Z" fill="#0FD5EF"/>
<path d="M261.64 1377.8C263.225 1377.8 264.51 1376.52 264.51 1374.93C264.51 1373.34 263.225 1372.06 261.64 1372.06C260.055 1372.06 258.77 1373.34 258.77 1374.93C258.77 1376.52 260.055 1377.8 261.64 1377.8Z" fill="#0FD5EF"/>
<path d="M171.75 1284.24C173.335 1284.24 174.62 1282.96 174.62 1281.37C174.62 1279.78 173.335 1278.5 171.75 1278.5C170.165 1278.5 168.88 1279.78 168.88 1281.37C168.88 1282.96 170.165 1284.24 171.75 1284.24Z" fill="#0FD5EF"/>
<path d="M756.92 1623.6C758.505 1623.6 759.79 1622.32 759.79 1620.73C759.79 1619.14 758.505 1617.86 756.92 1617.86C755.335 1617.86 754.05 1619.14 754.05 1620.73C754.05 1622.32 755.335 1623.6 756.92 1623.6Z" fill="#0FD5EF"/>
<path d="M756.92 1513.54C758.505 1513.54 759.79 1512.26 759.79 1510.67C759.79 1509.08 758.505 1507.8 756.92 1507.8C755.335 1507.8 754.05 1509.08 754.05 1510.67C754.05 1512.26 755.335 1513.54 756.92 1513.54Z" fill="#0FD5EF"/>
<path d="M1208.18 1324.6C1209.77 1324.6 1211.05 1323.32 1211.05 1321.73C1211.05 1320.14 1209.77 1318.86 1208.18 1318.86C1206.59 1318.86 1205.31 1320.14 1205.31 1321.73C1205.31 1323.32 1206.59 1324.6 1208.18 1324.6Z" fill="#0FD5EF"/>
<path d="M1288.9 1445.67C1290.49 1445.67 1291.77 1444.39 1291.77 1442.8C1291.77 1441.21 1290.49 1439.93 1288.9 1439.93C1287.31 1439.93 1286.03 1441.21 1286.03 1442.8C1286.03 1444.39 1287.31 1445.67 1288.9 1445.67Z" fill="#0FD5EF"/>
<path d="M1334.76 1342.94C1336.35 1342.94 1337.63 1341.66 1337.63 1340.07C1337.63 1338.48 1336.35 1337.2 1334.76 1337.2C1333.17 1337.2 1331.89 1338.48 1331.89 1340.07C1331.89 1341.66 1333.17 1342.94 1334.76 1342.94Z" fill="#0FD5EF"/>
<path d="M1569.56 601.85C1571.15 601.85 1572.43 600.565 1572.43 598.98C1572.43 597.395 1571.15 596.11 1569.56 596.11C1567.98 596.11 1566.69 597.395 1566.69 598.98C1566.69 600.565 1567.98 601.85 1569.56 601.85Z" fill="#0FD5EF"/>
<path d="M1591.57 906.36C1593.16 906.36 1594.44 905.075 1594.44 903.49C1594.44 901.905 1593.16 900.62 1591.57 900.62C1589.98 900.62 1588.7 901.905 1588.7 903.49C1588.7 905.075 1589.98 906.36 1591.57 906.36Z" fill="#0FD5EF"/>
<path d="M1714.48 774.28C1716.07 774.28 1717.35 772.995 1717.35 771.41C1717.35 769.825 1716.07 768.54 1714.48 768.54C1712.89 768.54 1711.61 769.825 1711.61 771.41C1711.61 772.995 1712.89 774.28 1714.48 774.28Z" fill="#0FD5EF"/>
<path d="M1817.2 611.02C1818.79 611.02 1820.07 609.735 1820.07 608.15C1820.07 606.565 1818.79 605.28 1817.2 605.28C1815.61 605.28 1814.33 606.565 1814.33 608.15C1814.33 609.735 1815.61 611.02 1817.2 611.02Z" fill="#0FD5EF"/>
<path d="M274.48 618.36C276.065 618.36 277.35 617.075 277.35 615.49C277.35 613.905 276.065 612.62 274.48 612.62C272.895 612.62 271.61 613.905 271.61 615.49C271.61 617.075 272.895 618.36 274.48 618.36Z" fill="#0FD5EF"/>
<path d="M309.33 911.86C310.915 911.86 312.2 910.575 312.2 908.99C312.2 907.405 310.915 906.12 309.33 906.12C307.745 906.12 306.46 907.405 306.46 908.99C306.46 910.575 307.745 911.86 309.33 911.86Z" fill="#0FD5EF"/>
<path d="M116.72 777.95C118.305 777.95 119.59 776.665 119.59 775.08C119.59 773.495 118.305 772.21 116.72 772.21C115.135 772.21 113.85 773.495 113.85 775.08C113.85 776.665 115.135 777.95 116.72 777.95Z" fill="#0FD5EF"/>
<path d="M153.41 963.22C154.995 963.22 156.28 961.935 156.28 960.35C156.28 958.765 154.995 957.48 153.41 957.48C151.825 957.48 150.54 958.765 150.54 960.35C150.54 961.935 151.825 963.22 153.41 963.22Z" fill="#0FD5EF"/>
<path d="M489.1 1959.3C490.685 1959.3 491.97 1958.02 491.97 1956.43C491.97 1954.84 490.685 1953.56 489.1 1953.56C487.515 1953.56 486.23 1954.84 486.23 1956.43C486.23 1958.02 487.515 1959.3 489.1 1959.3Z" fill="#0FD5EF"/>
<path d="M478.1 2131.73C479.685 2131.73 480.97 2130.45 480.97 2128.86C480.97 2127.28 479.685 2125.99 478.1 2125.99C476.515 2125.99 475.23 2127.28 475.23 2128.86C475.23 2130.45 476.515 2131.73 478.1 2131.73Z" fill="#0FD5EF"/>
<path d="M452.44 2074.93C454.025 2074.93 455.31 2073.65 455.31 2072.06C455.31 2070.48 454.025 2069.19 452.44 2069.19C450.855 2069.19 449.57 2070.48 449.57 2072.06C449.57 2073.65 450.855 2074.93 452.44 2074.93Z" fill="#0FD5EF"/>
<path d="M454.25 2080.37C455.835 2080.37 457.12 2079.09 457.12 2077.5C457.12 2075.91 455.835 2074.63 454.25 2074.63C452.665 2074.63 451.38 2075.91 451.38 2077.5C451.38 2079.09 452.665 2080.37 454.25 2080.37Z" fill="#0FD5EF"/>
<path d="M481.76 2043.68C483.345 2043.68 484.63 2042.4 484.63 2040.81C484.63 2039.23 483.345 2037.94 481.76 2037.94C480.175 2037.94 478.89 2039.23 478.89 2040.81C478.89 2042.4 480.175 2043.68 481.76 2043.68Z" fill="#0FD5EF"/>
<path d="M503.78 2084.04C505.365 2084.04 506.65 2082.75 506.65 2081.17C506.65 2079.58 505.365 2078.3 503.78 2078.3C502.195 2078.3 500.91 2079.58 500.91 2081.17C500.91 2082.75 502.195 2084.04 503.78 2084.04Z" fill="#0FD5EF"/>
<path d="M445.08 2008.83C446.665 2008.83 447.95 2007.55 447.95 2005.96C447.95 2004.37 446.665 2003.09 445.08 2003.09C443.495 2003.09 442.21 2004.37 442.21 2005.96C442.21 2007.55 443.495 2008.83 445.08 2008.83Z" fill="#0FD5EF"/>
<path d="M415.73 2111.55C417.315 2111.55 418.6 2110.26 418.6 2108.68C418.6 2107.09 417.315 2105.81 415.73 2105.81C414.145 2105.81 412.86 2107.09 412.86 2108.68C412.86 2110.26 414.145 2111.55 415.73 2111.55Z" fill="#0FD5EF"/>
<path d="M232.29 2366.53C233.875 2366.53 235.16 2365.24 235.16 2363.66C235.16 2362.07 233.875 2360.79 232.29 2360.79C230.705 2360.79 229.42 2362.07 229.42 2363.66C229.42 2365.24 230.705 2366.53 232.29 2366.53Z" fill="#0FD5EF"/>
<path d="M245.13 2401.39C246.715 2401.39 248 2400.11 248 2398.52C248 2396.93 246.715 2395.65 245.13 2395.65C243.545 2395.65 242.26 2396.93 242.26 2398.52C242.26 2400.11 243.545 2401.39 245.13 2401.39Z" fill="#0FD5EF"/>
<path d="M303.83 2357.36C305.415 2357.36 306.7 2356.08 306.7 2354.49C306.7 2352.9 305.415 2351.62 303.83 2351.62C302.245 2351.62 300.96 2352.9 300.96 2354.49C300.96 2356.08 302.245 2357.36 303.83 2357.36Z" fill="#0FD5EF"/>
<path d="M296.49 2293.16C298.075 2293.16 299.36 2291.88 299.36 2290.29C299.36 2288.7 298.075 2287.42 296.49 2287.42C294.905 2287.42 293.62 2288.7 293.62 2290.29C293.62 2291.88 294.905 2293.16 296.49 2293.16Z" fill="#0FD5EF"/>
<path d="M828.47 2102.38C830.055 2102.38 831.34 2101.1 831.34 2099.51C831.34 2097.92 830.055 2096.64 828.47 2096.64C826.885 2096.64 825.6 2097.92 825.6 2099.51C825.6 2101.1 826.885 2102.38 828.47 2102.38Z" fill="#0FD5EF"/>
<path d="M830.3 1983.15C831.885 1983.15 833.17 1981.87 833.17 1980.28C833.17 1978.7 831.885 1977.41 830.3 1977.41C828.715 1977.41 827.43 1978.7 827.43 1980.28C827.43 1981.87 828.715 1983.15 830.3 1983.15Z" fill="#0FD5EF"/>
<path d="M839.47 1838.23C841.055 1838.23 842.34 1836.95 842.34 1835.36C842.34 1833.77 841.055 1832.49 839.47 1832.49C837.885 1832.49 836.6 1833.77 836.6 1835.36C836.6 1836.95 837.885 1838.23 839.47 1838.23Z" fill="#0FD5EF"/>
<path d="M905.51 1865.74C907.095 1865.74 908.38 1864.46 908.38 1862.87C908.38 1861.28 907.095 1860 905.51 1860C903.925 1860 902.64 1861.28 902.64 1862.87C902.64 1864.46 903.925 1865.74 905.51 1865.74Z" fill="#0FD5EF"/>
<path d="M1026.58 1832.73C1028.17 1832.73 1029.45 1831.45 1029.45 1829.86C1029.45 1828.27 1028.17 1826.99 1026.58 1826.99C1024.99 1826.99 1023.71 1828.27 1023.71 1829.86C1023.71 1831.45 1024.99 1832.73 1026.58 1832.73Z" fill="#0FD5EF"/>
<path d="M1032.08 1849.23C1033.67 1849.23 1034.95 1847.95 1034.95 1846.36C1034.95 1844.77 1033.67 1843.49 1032.08 1843.49C1030.49 1843.49 1029.21 1844.77 1029.21 1846.36C1029.21 1847.95 1030.49 1849.23 1032.08 1849.23Z" fill="#0FD5EF"/>
<path d="M1057.76 1834.56C1059.35 1834.56 1060.63 1833.27 1060.63 1831.69C1060.63 1830.1 1059.35 1828.82 1057.76 1828.82C1056.17 1828.82 1054.89 1830.1 1054.89 1831.69C1054.89 1833.27 1056.17 1834.56 1057.76 1834.56Z" fill="#0FD5EF"/>
<path d="M1281.56 2074.87C1283.15 2074.87 1284.43 2073.59 1284.43 2072C1284.43 2070.41 1283.15 2069.13 1281.56 2069.13C1279.98 2069.13 1278.69 2070.41 1278.69 2072C1278.69 2073.59 1279.98 2074.87 1281.56 2074.87Z" fill="#0FD5EF"/>
<path d="M1290.73 2124.39C1292.32 2124.39 1293.6 2123.11 1293.6 2121.52C1293.6 2119.93 1292.32 2118.65 1290.73 2118.65C1289.14 2118.65 1287.86 2119.93 1287.86 2121.52C1287.86 2123.11 1289.14 2124.39 1290.73 2124.39Z" fill="#0FD5EF"/>
<path d="M1303.57 2106.05C1305.16 2106.05 1306.44 2104.76 1306.44 2103.18C1306.44 2101.59 1305.16 2100.31 1303.57 2100.31C1301.98 2100.31 1300.7 2101.59 1300.7 2103.18C1300.7 2104.76 1301.98 2106.05 1303.57 2106.05Z" fill="#0FD5EF"/>
<path d="M1277.89 2100.55C1279.48 2100.55 1280.76 2099.26 1280.76 2097.68C1280.76 2096.09 1279.48 2094.81 1277.89 2094.81C1276.3 2094.81 1275.02 2096.09 1275.02 2097.68C1275.02 2099.26 1276.3 2100.55 1277.89 2100.55Z" fill="#0FD5EF"/>
<path d="M1092.62 2120.73C1094.21 2120.73 1095.49 2119.45 1095.49 2117.86C1095.49 2116.28 1094.21 2114.99 1092.62 2114.99C1091.03 2114.99 1089.75 2116.28 1089.75 2117.86C1089.75 2119.45 1091.03 2120.73 1092.62 2120.73Z" fill="#0FD5EF"/>
<path d="M1099.96 2144.57C1101.55 2144.57 1102.83 2143.29 1102.83 2141.7C1102.83 2140.11 1101.55 2138.83 1099.96 2138.83C1098.37 2138.83 1097.09 2140.11 1097.09 2141.7C1097.09 2143.29 1098.37 2144.57 1099.96 2144.57Z" fill="#0FD5EF"/>
<path d="M679.88 2377.54C681.465 2377.54 682.75 2376.25 682.75 2374.67C682.75 2373.08 681.465 2371.8 679.88 2371.8C678.295 2371.8 677.01 2373.08 677.01 2374.67C677.01 2376.25 678.295 2377.54 679.88 2377.54Z" fill="#0FD5EF"/>
<path d="M701.89 2293.16C703.475 2293.16 704.76 2291.88 704.76 2290.29C704.76 2288.7 703.475 2287.42 701.89 2287.42C700.305 2287.42 699.02 2288.7 699.02 2290.29C699.02 2291.88 700.305 2293.16 701.89 2293.16Z" fill="#0FD5EF"/>
<path d="M731.24 2392.22C732.825 2392.22 734.11 2390.94 734.11 2389.35C734.11 2387.77 732.825 2386.48 731.24 2386.48C729.655 2386.48 728.37 2387.77 728.37 2389.35C728.37 2390.94 729.655 2392.22 731.24 2392.22Z" fill="#0FD5EF"/>
<path d="M758.76 2362.87C760.345 2362.87 761.63 2361.59 761.63 2360C761.63 2358.41 760.345 2357.13 758.76 2357.13C757.175 2357.13 755.89 2358.41 755.89 2360C755.89 2361.59 757.175 2362.87 758.76 2362.87Z" fill="#0FD5EF"/>
<path d="M685.38 2494.94C686.965 2494.94 688.25 2493.65 688.25 2492.07C688.25 2490.48 686.965 2489.2 685.38 2489.2C683.795 2489.2 682.51 2490.48 682.51 2492.07C682.51 2493.65 683.795 2494.94 685.38 2494.94Z" fill="#0FD5EF"/>
<path d="M692.72 2606.84C694.305 2606.84 695.59 2605.56 695.59 2603.97C695.59 2602.38 694.305 2601.1 692.72 2601.1C691.135 2601.1 689.85 2602.38 689.85 2603.97C689.85 2605.56 691.135 2606.84 692.72 2606.84Z" fill="#0FD5EF"/>
<path d="M1604.41 1946.46C1606 1946.46 1607.28 1945.18 1607.28 1943.59C1607.28 1942 1606 1940.72 1604.41 1940.72C1602.82 1940.72 1601.54 1942 1601.54 1943.59C1601.54 1945.18 1602.82 1946.46 1604.41 1946.46Z" fill="#0FD5EF"/>
<path d="M1600.75 2089.54C1602.34 2089.54 1603.62 2088.25 1603.62 2086.67C1603.62 2085.08 1602.34 2083.8 1600.75 2083.8C1599.16 2083.8 1597.88 2085.08 1597.88 2086.67C1597.88 2088.25 1599.16 2089.54 1600.75 2089.54Z" fill="#0FD5EF"/>
<path d="M1657.61 2023.5C1659.2 2023.5 1660.48 2022.21 1660.48 2020.63C1660.48 2019.04 1659.2 2017.76 1657.61 2017.76C1656.02 2017.76 1654.74 2019.04 1654.74 2020.63C1654.74 2022.21 1656.02 2023.5 1657.61 2023.5Z" fill="#0FD5EF"/>
<path d="M1844.72 1774.02C1846.31 1774.02 1847.59 1772.74 1847.59 1771.15C1847.59 1769.56 1846.31 1768.28 1844.72 1768.28C1843.13 1768.28 1841.85 1769.56 1841.85 1771.15C1841.85 1772.74 1843.13 1774.02 1844.72 1774.02Z" fill="#0FD5EF"/>
<path d="M1870.4 1896.93C1871.98 1896.93 1873.27 1895.65 1873.27 1894.06C1873.27 1892.48 1871.98 1891.19 1870.4 1891.19C1868.81 1891.19 1867.53 1892.48 1867.53 1894.06C1867.53 1895.65 1868.81 1896.93 1870.4 1896.93Z" fill="#0FD5EF"/>
<path d="M1896.08 2005.16C1897.67 2005.16 1898.95 2003.88 1898.95 2002.29C1898.95 2000.7 1897.67 1999.42 1896.08 1999.42C1894.5 1999.42 1893.21 2000.7 1893.21 2002.29C1893.21 2003.88 1894.5 2005.16 1896.08 2005.16Z" fill="#0FD5EF"/>
<path d="M1776.85 2157.41C1778.44 2157.41 1779.72 2156.13 1779.72 2154.54C1779.72 2152.95 1778.44 2151.67 1776.85 2151.67C1775.26 2151.67 1773.98 2152.95 1773.98 2154.54C1773.98 2156.13 1775.26 2157.41 1776.85 2157.41Z" fill="#0FD5EF"/>
<path d="M1795.17 2234.39C1796.75 2234.39 1798.04 2233.11 1798.04 2231.52C1798.04 2229.93 1796.75 2228.65 1795.17 2228.65C1793.58 2228.65 1792.3 2229.93 1792.3 2231.52C1792.3 2233.11 1793.58 2234.39 1795.17 2234.39Z" fill="#0FD5EF"/>
<path d="M1793.36 2228.95C1794.95 2228.95 1796.23 2227.67 1796.23 2226.08C1796.23 2224.5 1794.95 2223.21 1793.36 2223.21C1791.78 2223.21 1790.49 2224.5 1790.49 2226.08C1790.49 2227.67 1791.78 2228.95 1793.36 2228.95Z" fill="#0FD5EF"/>
<path d="M1729.15 2001.49C1730.74 2001.49 1732.02 2000.21 1732.02 1998.62C1732.02 1997.03 1730.74 1995.75 1729.15 1995.75C1727.56 1995.75 1726.28 1997.03 1726.28 1998.62C1726.28 2000.21 1727.56 2001.49 1729.15 2001.49Z" fill="#0FD5EF"/>
<path d="M1580.57 1807.04C1582.16 1807.04 1583.44 1805.76 1583.44 1804.17C1583.44 1802.58 1582.16 1801.3 1580.57 1801.3C1578.98 1801.3 1577.7 1802.58 1577.7 1804.17C1577.7 1805.76 1578.98 1807.04 1580.57 1807.04Z" fill="#0FD5EF"/>
<path d="M1875.9 1401.64C1877.48 1401.64 1878.77 1400.36 1878.77 1398.77C1878.77 1397.18 1877.48 1395.9 1875.9 1395.9C1874.31 1395.9 1873.03 1397.18 1873.03 1398.77C1873.03 1400.36 1874.31 1401.64 1875.9 1401.64Z" fill="#0FD5EF"/>
<path d="M1575.06 1016.42C1576.65 1016.42 1577.93 1015.14 1577.93 1013.55C1577.93 1011.96 1576.65 1010.68 1575.06 1010.68C1573.48 1010.68 1572.19 1011.96 1572.19 1013.55C1572.19 1015.14 1573.48 1016.42 1575.06 1016.42Z" fill="#0FD5EF"/>
<path d="M1584.24 1051.27C1585.83 1051.27 1587.11 1049.99 1587.11 1048.4C1587.11 1046.81 1585.83 1045.53 1584.24 1045.53C1582.65 1045.53 1581.37 1046.81 1581.37 1048.4C1581.37 1049.99 1582.65 1051.27 1584.24 1051.27Z" fill="#0FD5EF"/>
<path d="M1285.23 1139.32C1286.82 1139.32 1288.1 1138.04 1288.1 1136.45C1288.1 1134.86 1286.82 1133.58 1285.23 1133.58C1283.64 1133.58 1282.36 1134.86 1282.36 1136.45C1282.36 1138.04 1283.64 1139.32 1285.23 1139.32Z" fill="#0FD5EF"/>
<path d="M1199.01 1454.84C1200.6 1454.84 1201.88 1453.56 1201.88 1451.97C1201.88 1450.38 1200.6 1449.1 1199.01 1449.1C1197.42 1449.1 1196.14 1450.38 1196.14 1451.97C1196.14 1453.56 1197.42 1454.84 1199.01 1454.84Z" fill="#0FD5EF"/>
<path d="M1153.15 2869.16C1154.74 2869.16 1156.02 2867.88 1156.02 2866.29C1156.02 2864.7 1154.74 2863.42 1153.15 2863.42C1151.56 2863.42 1150.28 2864.7 1150.28 2866.29C1150.28 2867.88 1151.56 2869.16 1153.15 2869.16Z" fill="#0FD5EF"/>
<path d="M1277.2 2866.18C1278.79 2866.18 1280.07 2864.9 1280.07 2863.31C1280.07 2861.73 1278.79 2860.44 1277.2 2860.44C1275.61 2860.44 1274.33 2861.73 1274.33 2863.31C1274.33 2864.9 1275.61 2866.18 1277.2 2866.18Z" fill="#0FD5EF"/>
<path d="M1351.5 2751.3C1353.09 2751.3 1354.37 2750.01 1354.37 2748.43C1354.37 2746.84 1353.09 2745.56 1351.5 2745.56C1349.91 2745.56 1348.63 2746.84 1348.63 2748.43C1348.63 2750.01 1349.91 2751.3 1351.5 2751.3Z" fill="#0FD5EF"/>
<path d="M1434.73 2960.42C1436.32 2960.42 1437.6 2959.13 1437.6 2957.55C1437.6 2955.96 1436.32 2954.68 1434.73 2954.68C1433.14 2954.68 1431.86 2955.96 1431.86 2957.55C1431.86 2959.13 1433.14 2960.42 1434.73 2960.42Z" fill="#0FD5EF"/>
<path d="M1752.54 2939.09C1754.13 2939.09 1755.41 2937.81 1755.41 2936.22C1755.41 2934.63 1754.13 2933.35 1752.54 2933.35C1750.95 2933.35 1749.67 2934.63 1749.67 2936.22C1749.67 2937.81 1750.95 2939.09 1752.54 2939.09Z" fill="#0FD5EF"/>
<path d="M1837.84 2939.09C1839.43 2939.09 1840.71 2937.81 1840.71 2936.22C1840.71 2934.63 1839.43 2933.35 1837.84 2933.35C1836.26 2933.35 1834.97 2934.63 1834.97 2936.22C1834.97 2937.81 1836.26 2939.09 1837.84 2939.09Z" fill="#0FD5EF"/>
<path d="M1921.76 3064.29C1923.35 3064.29 1924.63 3063 1924.63 3061.42C1924.63 3059.83 1923.35 3058.55 1921.76 3058.55C1920.17 3058.55 1918.89 3059.83 1918.89 3061.42C1918.89 3063 1920.17 3064.29 1921.76 3064.29Z" fill="#0FD5EF"/>
<path d="M1877.05 3062.92C1878.64 3062.92 1879.92 3061.63 1879.92 3060.05C1879.92 3058.46 1878.64 3057.18 1877.05 3057.18C1875.46 3057.18 1874.18 3058.46 1874.18 3060.05C1874.18 3061.63 1875.46 3062.92 1877.05 3062.92Z" fill="#0FD5EF"/>
<path d="M1673.43 3249.34C1675.02 3249.34 1676.3 3248.06 1676.3 3246.47C1676.3 3244.88 1675.02 3243.6 1673.43 3243.6C1671.84 3243.6 1670.56 3244.88 1670.56 3246.47C1670.56 3248.06 1671.84 3249.34 1673.43 3249.34Z" fill="#0FD5EF"/>
<path d="M1469.82 2644.67C1471.41 2644.67 1472.69 2643.38 1472.69 2641.8C1472.69 2640.21 1471.41 2638.93 1469.82 2638.93C1468.23 2638.93 1466.95 2640.21 1466.95 2641.8C1466.95 2643.38 1468.23 2644.67 1469.82 2644.67Z" fill="#0FD5EF"/>
<path d="M1480.13 2670.13C1481.72 2670.13 1483 2668.84 1483 2667.26C1483 2665.67 1481.72 2664.39 1480.13 2664.39C1478.54 2664.39 1477.26 2665.67 1477.26 2667.26C1477.26 2668.84 1478.54 2670.13 1480.13 2670.13Z" fill="#0FD5EF"/>
<path d="M1755.98 2442.43C1757.57 2442.43 1758.85 2441.15 1758.85 2439.56C1758.85 2437.98 1757.57 2436.69 1755.98 2436.69C1754.39 2436.69 1753.11 2437.98 1753.11 2439.56C1753.11 2441.15 1754.39 2442.43 1755.98 2442.43Z" fill="#0FD5EF"/>
<path d="M1769.05 2458.94C1770.64 2458.94 1771.92 2457.65 1771.92 2456.07C1771.92 2454.48 1770.64 2453.2 1769.05 2453.2C1767.46 2453.2 1766.18 2454.48 1766.18 2456.07C1766.18 2457.65 1767.46 2458.94 1769.05 2458.94Z" fill="#0FD5EF"/>
<path d="M1912.13 2251.2C1913.71 2251.2 1915 2249.92 1915 2248.33C1915 2246.75 1913.71 2245.46 1912.13 2245.46C1910.54 2245.46 1909.26 2246.75 1909.26 2248.33C1909.26 2249.92 1910.54 2251.2 1912.13 2251.2Z" fill="#0FD5EF"/>
<path d="M1874.3 2188.6C1875.89 2188.6 1877.17 2187.32 1877.17 2185.73C1877.17 2184.14 1875.89 2182.86 1874.3 2182.86C1872.71 2182.86 1871.43 2184.14 1871.43 2185.73C1871.43 2187.32 1872.71 2188.6 1874.3 2188.6Z" fill="#0FD5EF"/>
<path d="M1769.05 1797.87C1770.64 1797.87 1771.92 1796.58 1771.92 1795C1771.92 1793.41 1770.64 1792.13 1769.05 1792.13C1767.46 1792.13 1766.18 1793.41 1766.18 1795C1766.18 1796.58 1767.46 1797.87 1769.05 1797.87Z" fill="#0FD5EF"/>
<path d="M1810.33 1662.36C1811.92 1662.36 1813.2 1661.08 1813.2 1659.49C1813.2 1657.9 1811.92 1656.62 1810.33 1656.62C1808.75 1656.62 1807.46 1657.9 1807.46 1659.49C1807.46 1661.08 1808.75 1662.36 1810.33 1662.36Z" fill="#0FD5EF"/>
<path d="M1417.54 1720.14C1419.13 1720.14 1420.41 1718.85 1420.41 1717.27C1420.41 1715.68 1419.13 1714.4 1417.54 1714.4C1415.95 1714.4 1414.67 1715.68 1414.67 1717.27C1414.67 1718.85 1415.95 1720.14 1417.54 1720.14Z" fill="#0FD5EF"/>
<path d="M1403.09 1798.56C1404.68 1798.56 1405.96 1797.27 1405.96 1795.69C1405.96 1794.1 1404.68 1792.82 1403.09 1792.82C1401.5 1792.82 1400.22 1794.1 1400.22 1795.69C1400.22 1797.27 1401.5 1798.56 1403.09 1798.56Z" fill="#0FD5EF"/>
<path d="M1630.1 2297.29C1631.69 2297.29 1632.97 2296 1632.97 2294.42C1632.97 2292.83 1631.69 2291.55 1630.1 2291.55C1628.51 2291.55 1627.23 2292.83 1627.23 2294.42C1627.23 2296 1628.51 2297.29 1630.1 2297.29Z" fill="#0FD5EF"/>
<path d="M1661.74 2287.66C1663.33 2287.66 1664.61 2286.38 1664.61 2284.79C1664.61 2283.2 1663.33 2281.92 1661.74 2281.92C1660.15 2281.92 1658.87 2283.2 1658.87 2284.79C1658.87 2286.38 1660.15 2287.66 1661.74 2287.66Z" fill="#0FD5EF"/>
<path d="M1610.83 2312.42C1612.42 2312.42 1613.7 2311.14 1613.7 2309.55C1613.7 2307.96 1612.42 2306.68 1610.83 2306.68C1609.24 2306.68 1607.96 2307.96 1607.96 2309.55C1607.96 2311.14 1609.24 2312.42 1610.83 2312.42Z" fill="#0FD5EF"/>
<path d="M1442.3 2057.9C1443.89 2057.9 1445.17 2056.62 1445.17 2055.03C1445.17 2053.44 1443.89 2052.16 1442.3 2052.16C1440.71 2052.16 1439.43 2053.44 1439.43 2055.03C1439.43 2056.62 1440.71 2057.9 1442.3 2057.9Z" fill="#0FD5EF"/>
<path d="M1315.73 1993.92C1317.32 1993.92 1318.6 1992.64 1318.6 1991.05C1318.6 1989.47 1317.32 1988.18 1315.73 1988.18C1314.14 1988.18 1312.86 1989.47 1312.86 1991.05C1312.86 1992.64 1314.14 1993.92 1315.73 1993.92Z" fill="#0FD5EF"/>
<path d="M1218.73 2126C1220.32 2126 1221.6 2124.71 1221.6 2123.13C1221.6 2121.54 1220.32 2120.26 1218.73 2120.26C1217.14 2120.26 1215.86 2121.54 1215.86 2123.13C1215.86 2124.71 1217.14 2126 1218.73 2126Z" fill="#0FD5EF"/>
<path d="M1128.62 2216.8C1130.21 2216.8 1131.49 2215.51 1131.49 2213.93C1131.49 2212.34 1130.21 2211.06 1128.62 2211.06C1127.03 2211.06 1125.75 2212.34 1125.75 2213.93C1125.75 2215.51 1127.03 2216.8 1128.62 2216.8Z" fill="#0FD5EF"/>
<path d="M1144.44 2062.02C1146.02 2062.02 1147.31 2060.73 1147.31 2059.15C1147.31 2057.56 1146.02 2056.28 1144.44 2056.28C1142.85 2056.28 1141.57 2057.56 1141.57 2059.15C1141.57 2060.73 1142.85 2062.02 1144.44 2062.02Z" fill="#0FD5EF"/>
<path d="M1284.77 1698.81C1286.36 1698.81 1287.64 1697.52 1287.64 1695.94C1287.64 1694.35 1286.36 1693.07 1284.77 1693.07C1283.18 1693.07 1281.9 1694.35 1281.9 1695.94C1281.9 1697.52 1283.18 1698.81 1284.77 1698.81Z" fill="#0FD5EF"/>
<path d="M1187.78 1458.74C1189.37 1458.74 1190.65 1457.46 1190.65 1455.87C1190.65 1454.28 1189.37 1453 1187.78 1453C1186.19 1453 1184.91 1454.28 1184.91 1455.87C1184.91 1457.46 1186.19 1458.74 1187.78 1458.74Z" fill="#0FD5EF"/>
<path d="M878.91 1454.61C880.495 1454.61 881.78 1453.33 881.78 1451.74C881.78 1450.15 880.495 1448.87 878.91 1448.87C877.325 1448.87 876.04 1450.15 876.04 1451.74C876.04 1453.33 877.325 1454.61 878.91 1454.61Z" fill="#0FD5EF"/>
<path d="M874.78 1414.71C876.365 1414.71 877.65 1413.43 877.65 1411.84C877.65 1410.25 876.365 1408.97 874.78 1408.97C873.195 1408.97 871.91 1410.25 871.91 1411.84C871.91 1413.43 873.195 1414.71 874.78 1414.71Z" fill="#0FD5EF"/>
<path d="M1279.96 1157.44C1281.55 1157.44 1282.83 1156.16 1282.83 1154.57C1282.83 1152.98 1281.55 1151.7 1279.96 1151.7C1278.37 1151.7 1277.09 1152.98 1277.09 1154.57C1277.09 1156.16 1278.37 1157.44 1279.96 1157.44Z" fill="#0FD5EF"/>
<path d="M314.15 1292.95C315.735 1292.95 317.02 1291.67 317.02 1290.08C317.02 1288.49 315.735 1287.21 314.15 1287.21C312.565 1287.21 311.28 1288.49 311.28 1290.08C311.28 1291.67 312.565 1292.95 314.15 1292.95Z" fill="#0FD5EF"/>
<path d="M327.9 1284.01C329.485 1284.01 330.77 1282.73 330.77 1281.14C330.77 1279.55 329.485 1278.27 327.9 1278.27C326.315 1278.27 325.03 1279.55 325.03 1281.14C325.03 1282.73 326.315 1284.01 327.9 1284.01Z" fill="#0FD5EF"/>
<path d="M335.47 1279.2C337.055 1279.2 338.34 1277.92 338.34 1276.33C338.34 1274.74 337.055 1273.46 335.47 1273.46C333.885 1273.46 332.6 1274.74 332.6 1276.33C332.6 1277.92 333.885 1279.2 335.47 1279.2Z" fill="#0FD5EF"/>
<path d="M172.44 1073.52C174.025 1073.52 175.31 1072.24 175.31 1070.65C175.31 1069.06 174.025 1067.78 172.44 1067.78C170.855 1067.78 169.57 1069.06 169.57 1070.65C169.57 1072.24 170.855 1073.52 172.44 1073.52Z" fill="#0FD5EF"/>
<path d="M139.42 1209.03C141.005 1209.03 142.29 1207.75 142.29 1206.16C142.29 1204.57 141.005 1203.29 139.42 1203.29C137.835 1203.29 136.55 1204.57 136.55 1206.16C136.55 1207.75 137.835 1209.03 139.42 1209.03Z" fill="#0FD5EF"/>
<path d="M281.13 1246.18C282.715 1246.18 284 1244.9 284 1243.31C284 1241.73 282.715 1240.44 281.13 1240.44C279.545 1240.44 278.26 1241.73 278.26 1243.31C278.26 1244.9 279.545 1246.18 281.13 1246.18Z" fill="#0FD5EF"/>
<path d="M199.27 1765.54C200.855 1765.54 202.14 1764.26 202.14 1762.67C202.14 1761.08 200.855 1759.8 199.27 1759.8C197.685 1759.8 196.4 1761.08 196.4 1762.67C196.4 1764.26 197.685 1765.54 199.27 1765.54Z" fill="#0FD5EF"/>
<path d="M214.4 1925.13C215.985 1925.13 217.27 1923.85 217.27 1922.26C217.27 1920.68 215.985 1919.39 214.4 1919.39C212.815 1919.39 211.53 1920.68 211.53 1922.26C211.53 1923.85 212.815 1925.13 214.4 1925.13Z" fill="#0FD5EF"/>
<path d="M364.36 2197.54C365.945 2197.54 367.23 2196.25 367.23 2194.67C367.23 2193.08 365.945 2191.8 364.36 2191.8C362.775 2191.8 361.49 2193.08 361.49 2194.67C361.49 2196.25 362.775 2197.54 364.36 2197.54Z" fill="#0FD5EF"/>
<path d="M584.49 2310.36C586.075 2310.36 587.36 2309.08 587.36 2307.49C587.36 2305.9 586.075 2304.62 584.49 2304.62C582.905 2304.62 581.62 2305.9 581.62 2307.49C581.62 2309.08 582.905 2310.36 584.49 2310.36Z" fill="#0FD5EF"/>
<path d="M593.43 2290.41C595.015 2290.41 596.3 2289.13 596.3 2287.54C596.3 2285.95 595.015 2284.67 593.43 2284.67C591.845 2284.67 590.56 2285.95 590.56 2287.54C590.56 2289.13 591.845 2290.41 593.43 2290.41Z" fill="#0FD5EF"/>
<path d="M723.45 2044.83C725.035 2044.83 726.32 2043.55 726.32 2041.96C726.32 2040.37 725.035 2039.09 723.45 2039.09C721.865 2039.09 720.58 2040.37 720.58 2041.96C720.58 2043.55 721.865 2044.83 723.45 2044.83Z" fill="#0FD5EF"/>
<path d="M757.84 1964.34C759.425 1964.34 760.71 1963.06 760.71 1961.47C760.71 1959.89 759.425 1958.6 757.84 1958.6C756.255 1958.6 754.97 1959.89 754.97 1961.47C754.97 1963.06 756.255 1964.34 757.84 1964.34Z" fill="#0FD5EF"/>
<path d="M627.14 1790.99C628.725 1790.99 630.01 1789.71 630.01 1788.12C630.01 1786.53 628.725 1785.25 627.14 1785.25C625.555 1785.25 624.27 1786.53 624.27 1788.12C624.27 1789.71 625.555 1790.99 627.14 1790.99Z" fill="#0FD5EF"/>
<path d="M670.48 1756.6C672.065 1756.6 673.35 1755.31 673.35 1753.73C673.35 1752.14 672.065 1750.86 670.48 1750.86C668.895 1750.86 667.61 1752.14 667.61 1753.73C667.61 1755.31 668.895 1756.6 670.48 1756.6Z" fill="#0FD5EF"/>
<path d="M589.99 2602.02C591.575 2602.02 592.86 2600.73 592.86 2599.15C592.86 2597.56 591.575 2596.28 589.99 2596.28C588.405 2596.28 587.12 2597.56 587.12 2599.15C587.12 2600.73 588.405 2602.02 589.99 2602.02Z" fill="#0FD5EF"/>
<path d="M601 2617.16C602.585 2617.16 603.87 2615.88 603.87 2614.29C603.87 2612.7 602.585 2611.42 601 2611.42C599.415 2611.42 598.13 2612.7 598.13 2614.29C598.13 2615.88 599.415 2617.16 601 2617.16Z" fill="#0FD5EF"/>
<path d="M845.89 2388.78C847.475 2388.78 848.76 2387.49 848.76 2385.91C848.76 2384.32 847.475 2383.04 845.89 2383.04C844.305 2383.04 843.02 2384.32 843.02 2385.91C843.02 2387.49 844.305 2388.78 845.89 2388.78Z" fill="#0FD5EF"/>
<path d="M846.58 2422.48C848.165 2422.48 849.45 2421.19 849.45 2419.61C849.45 2418.02 848.165 2416.74 846.58 2416.74C844.995 2416.74 843.71 2418.02 843.71 2419.61C843.71 2421.19 844.995 2422.48 846.58 2422.48Z" fill="#0FD5EF"/>
<path d="M1232.49 2381.9C1234.08 2381.9 1235.36 2380.61 1235.36 2379.03C1235.36 2377.44 1234.08 2376.16 1232.49 2376.16C1230.9 2376.16 1229.62 2377.44 1229.62 2379.03C1229.62 2380.61 1230.9 2381.9 1232.49 2381.9Z" fill="#0FD5EF"/>
<path d="M1356.31 2674.25C1357.9 2674.25 1359.18 2672.96 1359.18 2671.38C1359.18 2669.79 1357.9 2668.51 1356.31 2668.51C1354.73 2668.51 1353.44 2669.79 1353.44 2671.38C1353.44 2672.96 1354.73 2674.25 1356.31 2674.25Z" fill="#0FD5EF"/>
<path d="M1359.75 2650.18C1361.34 2650.18 1362.62 2648.9 1362.62 2647.31C1362.62 2645.73 1361.34 2644.44 1359.75 2644.44C1358.16 2644.44 1356.88 2645.73 1356.88 2647.31C1356.88 2648.9 1358.16 2650.18 1359.75 2650.18Z" fill="#0FD5EF"/>
<path d="M1267.57 2654.3C1269.16 2654.3 1270.44 2653.01 1270.44 2651.43C1270.44 2649.84 1269.16 2648.56 1267.57 2648.56C1265.98 2648.56 1264.7 2649.84 1264.7 2651.43C1264.7 2653.01 1265.98 2654.3 1267.57 2654.3Z" fill="#0FD5EF"/>
<path d="M1136.87 2527.04C1138.46 2527.04 1139.74 2525.75 1139.74 2524.17C1139.74 2522.58 1138.46 2521.3 1136.87 2521.3C1135.28 2521.3 1134 2522.58 1134 2524.17C1134 2525.75 1135.28 2527.04 1136.87 2527.04Z" fill="#0FD5EF"/>
<path d="M587.24 1307.4C588.825 1307.4 590.11 1306.12 590.11 1304.53C590.11 1302.94 588.825 1301.66 587.24 1301.66C585.655 1301.66 584.37 1302.94 584.37 1304.53C584.37 1306.12 585.655 1307.4 587.24 1307.4Z" fill="#0FD5EF"/>
<path d="M583.8 1320.47C585.385 1320.47 586.67 1319.19 586.67 1317.6C586.67 1316.01 585.385 1314.73 583.8 1314.73C582.215 1314.73 580.93 1316.01 580.93 1317.6C580.93 1319.19 582.215 1320.47 583.8 1320.47Z" fill="#0FD5EF"/>
<path d="M394.66 3426.72C396.245 3426.72 397.53 3425.44 397.53 3423.85C397.53 3422.27 396.245 3420.98 394.66 3420.98C393.075 3420.98 391.79 3422.27 391.79 3423.85C391.79 3425.44 393.075 3426.72 394.66 3426.72Z" fill="#0FD5EF"/>
<path d="M397.38 3426.81C398.965 3426.81 400.25 3425.52 400.25 3423.94C400.25 3422.35 398.965 3421.07 397.38 3421.07C395.795 3421.07 394.51 3422.35 394.51 3423.94C394.51 3425.52 395.795 3426.81 397.38 3426.81Z" fill="#0FD5EF"/>
<path d="M490.94 3567.15C492.525 3567.15 493.81 3565.86 493.81 3564.28C493.81 3562.69 492.525 3561.41 490.94 3561.41C489.355 3561.41 488.07 3562.69 488.07 3564.28C488.07 3565.86 489.355 3567.15 490.94 3567.15Z" fill="#0FD5EF"/>
<path d="M581.74 3311.25C583.325 3311.25 584.61 3309.96 584.61 3308.38C584.61 3306.79 583.325 3305.51 581.74 3305.51C580.155 3305.51 578.87 3306.79 578.87 3308.38C578.87 3309.96 580.155 3311.25 581.74 3311.25Z" fill="#0FD5EF"/>
<path d="M895.42 3007.93C897.005 3007.93 898.29 3006.65 898.29 3005.06C898.29 3003.48 897.005 3002.19 895.42 3002.19C893.835 3002.19 892.55 3003.48 892.55 3005.06C892.55 3006.65 893.835 3007.93 895.42 3007.93Z" fill="#0FD5EF"/>
<path d="M895.42 3011.32C897.005 3011.32 898.29 3010.04 898.29 3008.45C898.29 3006.86 897.005 3005.58 895.42 3005.58C893.835 3005.58 892.55 3006.86 892.55 3008.45C892.55 3010.04 893.835 3011.32 895.42 3011.32Z" fill="#0FD5EF"/>
<path d="M892.67 2906.76C894.255 2906.76 895.54 2905.47 895.54 2903.89C895.54 2902.3 894.255 2901.02 892.67 2901.02C891.085 2901.02 889.8 2902.3 889.8 2903.89C889.8 2905.47 891.085 2906.76 892.67 2906.76Z" fill="#0FD5EF"/>
<path d="M902.76 2760.01C904.345 2760.01 905.63 2758.72 905.63 2757.14C905.63 2755.55 904.345 2754.27 902.76 2754.27C901.175 2754.27 899.89 2755.55 899.89 2757.14C899.89 2758.72 901.175 2760.01 902.76 2760.01Z" fill="#0FD5EF"/>
<path d="M1005.48 2707.73C1007.07 2707.73 1008.35 2706.44 1008.35 2704.86C1008.35 2703.27 1007.07 2701.99 1005.48 2701.99C1003.89 2701.99 1002.61 2703.27 1002.61 2704.86C1002.61 2706.44 1003.89 2707.73 1005.48 2707.73Z" fill="#0FD5EF"/>
<path d="M1059.6 2814.13C1061.19 2814.13 1062.47 2812.84 1062.47 2811.26C1062.47 2809.67 1061.19 2808.39 1059.6 2808.39C1058.01 2808.39 1056.73 2809.67 1056.73 2811.26C1056.73 2812.84 1058.01 2814.13 1059.6 2814.13Z" fill="#0FD5EF"/>
<path d="M841.31 2519.71C842.895 2519.71 844.18 2518.42 844.18 2516.84C844.18 2515.25 842.895 2513.97 841.31 2513.97C839.725 2513.97 838.44 2515.25 838.44 2516.84C838.44 2518.42 839.725 2519.71 841.31 2519.71Z" fill="#0FD5EF"/>
<path d="M1406.3 2280.32C1407.89 2280.32 1409.17 2279.04 1409.17 2277.45C1409.17 2275.86 1407.89 2274.58 1406.3 2274.58C1404.71 2274.58 1403.43 2275.86 1403.43 2277.45C1403.43 2279.04 1404.71 2280.32 1406.3 2280.32Z" fill="#0FD5EF"/>
<path d="M1398.96 2352.78C1400.55 2352.78 1401.83 2351.49 1401.83 2349.91C1401.83 2348.32 1400.55 2347.04 1398.96 2347.04C1397.37 2347.04 1396.09 2348.32 1396.09 2349.91C1396.09 2351.49 1397.37 2352.78 1398.96 2352.78Z" fill="#0FD5EF"/>
<path d="M1346.68 2556.39C1348.27 2556.39 1349.55 2555.11 1349.55 2553.52C1349.55 2551.93 1348.27 2550.65 1346.68 2550.65C1345.09 2550.65 1343.81 2551.93 1343.81 2553.52C1343.81 2555.11 1345.09 2556.39 1346.68 2556.39Z" fill="#0FD5EF"/>
<path d="M1359.52 2547.22C1361.11 2547.22 1362.39 2545.94 1362.39 2544.35C1362.39 2542.77 1361.11 2541.48 1359.52 2541.48C1357.93 2541.48 1356.65 2542.77 1356.65 2544.35C1356.65 2545.94 1357.93 2547.22 1359.52 2547.22Z" fill="#0FD5EF"/>
<path d="M1380.62 2606.84C1382.21 2606.84 1383.49 2605.56 1383.49 2603.97C1383.49 2602.38 1382.21 2601.1 1380.62 2601.1C1379.03 2601.1 1377.75 2602.38 1377.75 2603.97C1377.75 2605.56 1379.03 2606.84 1380.62 2606.84Z" fill="#0FD5EF"/>
<path d="M1269.64 2226.2C1271.23 2226.2 1272.51 2224.92 1272.51 2223.33C1272.51 2221.75 1271.23 2220.46 1269.64 2220.46C1268.05 2220.46 1266.77 2221.75 1266.77 2223.33C1266.77 2224.92 1268.05 2226.2 1269.64 2226.2Z" fill="#0FD5EF"/>
<path d="M1428.31 2120.73C1429.9 2120.73 1431.18 2119.45 1431.18 2117.86C1431.18 2116.28 1429.9 2114.99 1428.31 2114.99C1426.73 2114.99 1425.44 2116.28 1425.44 2117.86C1425.44 2119.45 1426.73 2120.73 1428.31 2120.73Z" fill="#0FD5EF"/>
<path d="M1254.96 1894.18C1256.55 1894.18 1257.83 1892.9 1257.83 1891.31C1257.83 1889.73 1256.55 1888.44 1254.96 1888.44C1253.37 1888.44 1252.09 1889.73 1252.09 1891.31C1252.09 1892.9 1253.37 1894.18 1254.96 1894.18Z" fill="#0FD5EF"/>
<path d="M1295.32 1783.2C1296.91 1783.2 1298.19 1781.92 1298.19 1780.33C1298.19 1778.74 1296.91 1777.46 1295.32 1777.46C1293.73 1777.46 1292.45 1778.74 1292.45 1780.33C1292.45 1781.92 1293.73 1783.2 1295.32 1783.2Z" fill="#0FD5EF"/>
<path d="M1333.84 1918.02C1335.43 1918.02 1336.71 1916.74 1336.71 1915.15C1336.71 1913.56 1335.43 1912.28 1333.84 1912.28C1332.25 1912.28 1330.97 1913.56 1330.97 1915.15C1330.97 1916.74 1332.25 1918.02 1333.84 1918.02Z" fill="#0FD5EF"/>
<path d="M1052.26 1564.9C1053.85 1564.9 1055.13 1563.62 1055.13 1562.03C1055.13 1560.44 1053.85 1559.16 1052.26 1559.16C1050.67 1559.16 1049.39 1560.44 1049.39 1562.03C1049.39 1563.62 1050.67 1564.9 1052.26 1564.9Z" fill="#0FD5EF"/>
<path d="M1065.1 1580.5C1066.69 1580.5 1067.97 1579.22 1067.97 1577.63C1067.97 1576.04 1066.69 1574.76 1065.1 1574.76C1063.51 1574.76 1062.23 1576.04 1062.23 1577.63C1062.23 1579.22 1063.51 1580.5 1065.1 1580.5Z" fill="#0FD5EF"/>
<path d="M876.16 1697.9C877.745 1697.9 879.03 1696.62 879.03 1695.03C879.03 1693.45 877.745 1692.16 876.16 1692.16C874.575 1692.16 873.29 1693.45 873.29 1695.03C873.29 1696.62 874.575 1697.9 876.16 1697.9Z" fill="#0FD5EF"/>
<path d="M882.58 1726.33C884.165 1726.33 885.45 1725.04 885.45 1723.46C885.45 1721.87 884.165 1720.59 882.58 1720.59C880.995 1720.59 879.71 1721.87 879.71 1723.46C879.71 1725.04 880.995 1726.33 882.58 1726.33Z" fill="#0FD5EF"/>
<path d="M419.4 816.47C420.985 816.47 422.27 815.185 422.27 813.6C422.27 812.015 420.985 810.73 419.4 810.73C417.815 810.73 416.53 812.015 416.53 813.6C416.53 815.185 417.815 816.47 419.4 816.47Z" fill="#0FD5EF"/>
<path d="M418.48 799.96C420.065 799.96 421.35 798.675 421.35 797.09C421.35 795.505 420.065 794.22 418.48 794.22C416.895 794.22 415.61 795.505 415.61 797.09C415.61 798.675 416.895 799.96 418.48 799.96Z" fill="#0FD5EF"/>
<path d="M537.71 633.03C539.295 633.03 540.58 631.745 540.58 630.16C540.58 628.575 539.295 627.29 537.71 627.29C536.125 627.29 534.84 628.575 534.84 630.16C534.84 631.745 536.125 633.03 537.71 633.03Z" fill="#0FD5EF"/>
<path d="M549.64 671.55C551.225 671.55 552.51 670.265 552.51 668.68C552.51 667.095 551.225 665.81 549.64 665.81C548.055 665.81 546.77 667.095 546.77 668.68C546.77 670.265 548.055 671.55 549.64 671.55Z" fill="#0FD5EF"/>
<path d="M382.71 420.24C384.295 420.24 385.58 418.955 385.58 417.37C385.58 415.785 384.295 414.5 382.71 414.5C381.125 414.5 379.84 415.785 379.84 417.37C379.84 418.955 381.125 420.24 382.71 420.24Z" fill="#0FD5EF"/>
<path d="M877.08 319.35C878.665 319.35 879.95 318.065 879.95 316.48C879.95 314.895 878.665 313.61 877.08 313.61C875.495 313.61 874.21 314.895 874.21 316.48C874.21 318.065 875.495 319.35 877.08 319.35Z" fill="#0FD5EF"/>
<path d="M919.27 510.13C920.855 510.13 922.14 508.845 922.14 507.26C922.14 505.675 920.855 504.39 919.27 504.39C917.685 504.39 916.4 505.675 916.4 507.26C916.4 508.845 917.685 510.13 919.27 510.13Z" fill="#0FD5EF"/>
<path d="M988.97 470.69C990.555 470.69 991.84 469.405 991.84 467.82C991.84 466.235 990.555 464.95 988.97 464.95C987.385 464.95 986.1 466.235 986.1 467.82C986.1 469.405 987.385 470.69 988.97 470.69Z" fill="#0FD5EF"/>
<path d="M1308.16 336.78C1309.75 336.78 1311.03 335.495 1311.03 333.91C1311.03 332.325 1309.75 331.04 1308.16 331.04C1306.57 331.04 1305.29 332.325 1305.29 333.91C1305.29 335.495 1306.57 336.78 1308.16 336.78Z" fill="#0FD5EF"/>
<path d="M1432.9 547.73C1434.49 547.73 1435.77 546.445 1435.77 544.86C1435.77 543.275 1434.49 541.99 1432.9 541.99C1431.31 541.99 1430.03 543.275 1430.03 544.86C1430.03 546.445 1431.31 547.73 1432.9 547.73Z" fill="#0FD5EF"/>
<path d="M1446.66 514.71C1448.25 514.71 1449.53 513.425 1449.53 511.84C1449.53 510.255 1448.25 508.97 1446.66 508.97C1445.07 508.97 1443.79 510.255 1443.79 511.84C1443.79 513.425 1445.07 514.71 1446.66 514.71Z" fill="#0FD5EF"/>
<path d="M1657.61 323.94C1659.2 323.94 1660.48 322.655 1660.48 321.07C1660.48 319.485 1659.2 318.2 1657.61 318.2C1656.02 318.2 1654.74 319.485 1654.74 321.07C1654.74 322.655 1656.02 323.94 1657.61 323.94Z" fill="#0FD5EF"/>
<path d="M190.1 3067.27C191.685 3067.27 192.97 3065.98 192.97 3064.4C192.97 3062.81 191.685 3061.53 190.1 3061.53C188.515 3061.53 187.23 3062.81 187.23 3064.4C187.23 3065.98 188.515 3067.27 190.1 3067.27Z" fill="#0FD5EF"/>
<path d="M175.42 3014.08C177.005 3014.08 178.29 3012.79 178.29 3011.21C178.29 3009.62 177.005 3008.34 175.42 3008.34C173.835 3008.34 172.55 3009.62 172.55 3011.21C172.55 3012.79 173.835 3014.08 175.42 3014.08Z" fill="#0FD5EF"/>
<path d="M168.08 3047.09C169.665 3047.09 170.95 3045.81 170.95 3044.22C170.95 3042.63 169.665 3041.35 168.08 3041.35C166.495 3041.35 165.21 3042.63 165.21 3044.22C165.21 3045.81 166.495 3047.09 168.08 3047.09Z" fill="#0FD5EF"/>
<path d="M168.08 2685.72C169.665 2685.72 170.95 2684.44 170.95 2682.85C170.95 2681.27 169.665 2679.98 168.08 2679.98C166.495 2679.98 165.21 2681.27 165.21 2682.85C165.21 2684.44 166.495 2685.72 168.08 2685.72Z" fill="#0FD5EF"/>
<path d="M184.59 2715.07C186.175 2715.07 187.46 2713.79 187.46 2712.2C187.46 2710.61 186.175 2709.33 184.59 2709.33C183.005 2709.33 181.72 2710.61 181.72 2712.2C181.72 2713.79 183.005 2715.07 184.59 2715.07Z" fill="#0FD5EF"/>
<path d="M206.61 2683.88C208.195 2683.88 209.48 2682.59 209.48 2681.01C209.48 2679.42 208.195 2678.14 206.61 2678.14C205.025 2678.14 203.74 2679.42 203.74 2681.01C203.74 2682.59 205.025 2683.88 206.61 2683.88Z" fill="#0FD5EF"/>
<path d="M1479.68 3298.41C1481.27 3298.41 1482.55 3297.13 1482.55 3295.54C1482.55 3293.95 1481.27 3292.67 1479.68 3292.67C1478.09 3292.67 1476.81 3293.95 1476.81 3295.54C1476.81 3297.13 1478.09 3298.41 1479.68 3298.41Z" fill="#0FD5EF"/>
<path d="M1525.54 3516.7C1527.13 3516.7 1528.41 3515.42 1528.41 3513.83C1528.41 3512.25 1527.13 3510.96 1525.54 3510.96C1523.95 3510.96 1522.67 3512.25 1522.67 3513.83C1522.67 3515.42 1523.95 3516.7 1525.54 3516.7Z" fill="#0FD5EF"/>
<path d="M1538.38 3483.68C1539.97 3483.68 1541.25 3482.4 1541.25 3480.81C1541.25 3479.23 1539.97 3477.94 1538.38 3477.94C1536.79 3477.94 1535.51 3479.23 1535.51 3480.81C1535.51 3482.4 1536.79 3483.68 1538.38 3483.68Z" fill="#0FD5EF"/>
<path d="M1580.57 3509.36C1582.16 3509.36 1583.44 3508.08 1583.44 3506.49C1583.44 3504.9 1582.16 3503.62 1580.57 3503.62C1578.98 3503.62 1577.7 3504.9 1577.7 3506.49C1577.7 3508.08 1578.98 3509.36 1580.57 3509.36Z" fill="#0FD5EF"/>
<path d="M1624.59 3562.56C1626.18 3562.56 1627.46 3561.27 1627.46 3559.69C1627.46 3558.1 1626.18 3556.82 1624.59 3556.82C1623 3556.82 1621.72 3558.1 1621.72 3559.69C1621.72 3561.27 1623 3562.56 1624.59 3562.56Z" fill="#0FD5EF"/>
<path d="M1811.7 3349.77C1813.29 3349.77 1814.57 3348.48 1814.57 3346.9C1814.57 3345.31 1813.29 3344.03 1811.7 3344.03C1810.11 3344.03 1808.83 3345.31 1808.83 3346.9C1808.83 3348.48 1810.11 3349.77 1811.7 3349.77Z" fill="#0FD5EF"/>
<path d="M1833.71 3375.45C1835.3 3375.45 1836.58 3374.17 1836.58 3372.58C1836.58 3371 1835.3 3369.71 1833.71 3369.71C1832.12 3369.71 1830.84 3371 1830.84 3372.58C1830.84 3374.17 1832.12 3375.45 1833.71 3375.45Z" fill="#0FD5EF"/>
<path d="M1852.06 3313.08C1853.65 3313.08 1854.93 3311.79 1854.93 3310.21C1854.93 3308.62 1853.65 3307.34 1852.06 3307.34C1850.48 3307.34 1849.19 3308.62 1849.19 3310.21C1849.19 3311.79 1850.48 3313.08 1852.06 3313.08Z" fill="#0FD5EF"/>
<path d="M1806.2 3047.09C1807.79 3047.09 1809.07 3045.81 1809.07 3044.22C1809.07 3042.63 1807.79 3041.35 1806.2 3041.35C1804.61 3041.35 1803.33 3042.63 1803.33 3044.22C1803.33 3045.81 1804.61 3047.09 1806.2 3047.09Z" fill="#0FD5EF"/>
<path d="M1918.1 2718.74C1919.69 2718.74 1920.97 2717.46 1920.97 2715.87C1920.97 2714.29 1919.69 2713 1918.1 2713C1916.52 2713 1915.23 2714.29 1915.23 2715.87C1915.23 2717.46 1916.52 2718.74 1918.1 2718.74Z" fill="#0FD5EF"/>
<path d="M1775.01 2639.86C1776.6 2639.86 1777.88 2638.58 1777.88 2636.99C1777.88 2635.4 1776.6 2634.12 1775.01 2634.12C1773.42 2634.12 1772.14 2635.4 1772.14 2636.99C1772.14 2638.58 1773.42 2639.86 1775.01 2639.86Z" fill="#0FD5EF"/>
<path d="M1815.37 2632.52C1816.96 2632.52 1818.24 2631.23 1818.24 2629.65C1818.24 2628.06 1816.96 2626.78 1815.37 2626.78C1813.79 2626.78 1812.5 2628.06 1812.5 2629.65C1812.5 2631.23 1813.79 2632.52 1815.37 2632.52Z" fill="#0FD5EF"/>
<path d="M1850.22 2735.25C1851.81 2735.25 1853.09 2733.96 1853.09 2732.38C1853.09 2730.79 1851.81 2729.51 1850.22 2729.51C1848.63 2729.51 1847.35 2730.79 1847.35 2732.38C1847.35 2733.96 1848.63 2735.25 1850.22 2735.25Z" fill="#0FD5EF"/>
<path d="M1919.93 2526.13C1921.51 2526.13 1922.8 2524.84 1922.8 2523.26C1922.8 2521.67 1921.51 2520.39 1919.93 2520.39C1918.34 2520.39 1917.06 2521.67 1917.06 2523.26C1917.06 2524.84 1918.34 2526.13 1919.93 2526.13Z" fill="#0FD5EF"/>
<path d="M157.99 3322.25C159.575 3322.25 160.86 3320.96 160.86 3319.38C160.86 3317.79 159.575 3316.51 157.99 3316.51C156.405 3316.51 155.12 3317.79 155.12 3319.38C155.12 3320.96 156.405 3322.25 157.99 3322.25Z" fill="#0FD5EF"/>
<path d="M199.27 3501.11C200.855 3501.11 202.14 3499.83 202.14 3498.24C202.14 3496.65 200.855 3495.37 199.27 3495.37C197.685 3495.37 196.4 3496.65 196.4 3498.24C196.4 3499.83 197.685 3501.11 199.27 3501.11Z" fill="#0FD5EF"/>
<path d="M213.03 3410.3C214.615 3410.3 215.9 3409.01 215.9 3407.43C215.9 3405.84 214.615 3404.56 213.03 3404.56C211.445 3404.56 210.16 3405.84 210.16 3407.43C210.16 3409.01 211.445 3410.3 213.03 3410.3Z" fill="#0FD5EF"/>
<path d="M295.57 3289.23C297.155 3289.23 298.44 3287.94 298.44 3286.36C298.44 3284.77 297.155 3283.49 295.57 3283.49C293.985 3283.49 292.7 3284.77 292.7 3286.36C292.7 3287.94 293.985 3289.23 295.57 3289.23Z" fill="#0FD5EF"/>
<path d="M276.31 3234.2C277.895 3234.2 279.18 3232.92 279.18 3231.33C279.18 3229.75 277.895 3228.46 276.31 3228.46C274.725 3228.46 273.44 3229.75 273.44 3231.33C273.44 3232.92 274.725 3234.2 276.31 3234.2Z" fill="#0FD5EF"/>
<path d="M763.34 3330.51C764.925 3330.51 766.21 3329.22 766.21 3327.64C766.21 3326.05 764.925 3324.77 763.34 3324.77C761.755 3324.77 760.47 3326.05 760.47 3327.64C760.47 3329.22 761.755 3330.51 763.34 3330.51Z" fill="#0FD5EF"/>
<path d="M1818.12 1286.99C1819.71 1286.99 1820.99 1285.71 1820.99 1284.12C1820.99 1282.53 1819.71 1281.25 1818.12 1281.25C1816.54 1281.25 1815.25 1282.53 1815.25 1284.12C1815.25 1285.71 1816.54 1286.99 1818.12 1286.99Z" fill="#0FD5EF"/>
<path d="M1860.31 972.39C1861.9 972.39 1863.18 971.105 1863.18 969.52C1863.18 967.935 1861.9 966.65 1860.31 966.65C1858.73 966.65 1857.44 967.935 1857.44 969.52C1857.44 971.105 1858.73 972.39 1860.31 972.39Z" fill="#0FD5EF"/>
<path d="M902.76 3547.43C904.345 3547.43 905.63 3546.15 905.63 3544.56C905.63 3542.98 904.345 3541.69 902.76 3541.69C901.175 3541.69 899.89 3542.98 899.89 3544.56C899.89 3546.15 901.175 3547.43 902.76 3547.43Z" fill="#0FD5EF"/>
<path d="M758.3 3668.95C759.885 3668.95 761.17 3667.67 761.17 3666.08C761.17 3664.5 759.885 3663.21 758.3 3663.21C756.715 3663.21 755.43 3664.5 755.43 3666.08C755.43 3667.67 756.715 3668.95 758.3 3668.95Z" fill="#0FD5EF"/>
<path d="M1037.59 3696.47C1039.18 3696.47 1040.46 3695.19 1040.46 3693.6C1040.46 3692.02 1039.18 3690.73 1037.59 3690.73C1036 3690.73 1034.72 3692.02 1034.72 3693.6C1034.72 3695.19 1036 3696.47 1037.59 3696.47Z" fill="#0FD5EF"/>
<path d="M1082.53 3751.5C1084.12 3751.5 1085.4 3750.21 1085.4 3748.63C1085.4 3747.04 1084.12 3745.76 1082.53 3745.76C1080.94 3745.76 1079.66 3747.04 1079.66 3748.63C1079.66 3750.21 1080.94 3751.5 1082.53 3751.5Z" fill="#0FD5EF"/>
<path d="M466.17 3669.41C467.755 3669.41 469.04 3668.13 469.04 3666.54C469.04 3664.95 467.755 3663.67 466.17 3663.67C464.585 3663.67 463.3 3664.95 463.3 3666.54C463.3 3668.13 464.585 3669.41 466.17 3669.41Z" fill="#0FD5EF"/>
<path d="M479.93 3697.39C481.515 3697.39 482.8 3696.11 482.8 3694.52C482.8 3692.93 481.515 3691.65 479.93 3691.65C478.345 3691.65 477.06 3692.93 477.06 3694.52C477.06 3696.11 478.345 3697.39 479.93 3697.39Z" fill="#0FD5EF"/>
<path d="M334.55 3819.83C336.135 3819.83 337.42 3818.54 337.42 3816.96C337.42 3815.37 336.135 3814.09 334.55 3814.09C332.965 3814.09 331.68 3815.37 331.68 3816.96C331.68 3818.54 332.965 3819.83 334.55 3819.83Z" fill="#0FD5EF"/>
<path d="M1890.12 3598.33C1891.71 3598.33 1892.99 3597.04 1892.99 3595.46C1892.99 3593.87 1891.71 3592.59 1890.12 3592.59C1888.54 3592.59 1887.25 3593.87 1887.25 3595.46C1887.25 3597.04 1888.54 3598.33 1890.12 3598.33Z" fill="#0FD5EF"/>
<path d="M1755.29 3749.67C1756.88 3749.67 1758.16 3748.38 1758.16 3746.8C1758.16 3745.21 1756.88 3743.93 1755.29 3743.93C1753.7 3743.93 1752.42 3745.21 1752.42 3746.8C1752.42 3748.38 1753.7 3749.67 1755.29 3749.67Z" fill="#0FD5EF"/>
<path d="M1768.59 3773.97C1770.18 3773.97 1771.46 3772.69 1771.46 3771.1C1771.46 3769.52 1770.18 3768.23 1768.59 3768.23C1767 3768.23 1765.72 3769.52 1765.72 3771.1C1765.72 3772.69 1767 3773.97 1768.59 3773.97Z" fill="#0FD5EF"/>
<path d="M1778.68 3708.85C1780.27 3708.85 1781.55 3707.56 1781.55 3705.98C1781.55 3704.39 1780.27 3703.11 1778.68 3703.11C1777.09 3703.11 1775.81 3704.39 1775.81 3705.98C1775.81 3707.56 1777.09 3708.85 1778.68 3708.85Z" fill="#0FD5EF"/>
<path d="M1802.53 3762.97C1804.12 3762.97 1805.4 3761.69 1805.4 3760.1C1805.4 3758.52 1804.12 3757.23 1802.53 3757.23C1800.94 3757.23 1799.66 3758.52 1799.66 3760.1C1799.66 3761.69 1800.94 3762.97 1802.53 3762.97Z" fill="#0FD5EF"/>
<path d="M1800.24 3791.4C1801.83 3791.4 1803.11 3790.11 1803.11 3788.53C1803.11 3786.94 1801.83 3785.66 1800.24 3785.66C1798.65 3785.66 1797.37 3786.94 1797.37 3788.53C1797.37 3790.11 1798.65 3791.4 1800.24 3791.4Z" fill="#0FD5EF"/>
<path d="M1692.92 3804.7C1694.51 3804.7 1695.79 3803.42 1695.79 3801.83C1695.79 3800.25 1694.51 3798.96 1692.92 3798.96C1691.33 3798.96 1690.05 3800.25 1690.05 3801.83C1690.05 3803.42 1691.33 3804.7 1692.92 3804.7Z" fill="#0FD5EF"/>
<path d="M1602.58 3655.2C1604.17 3655.2 1605.45 3653.92 1605.45 3652.33C1605.45 3650.75 1604.17 3649.46 1602.58 3649.46C1600.99 3649.46 1599.71 3650.75 1599.71 3652.33C1599.71 3653.92 1600.99 3655.2 1602.58 3655.2Z" fill="#0FD5EF"/>
<path d="M441.41 4477.92C442.995 4477.92 444.28 4476.63 444.28 4475.05C444.28 4473.46 442.995 4472.18 441.41 4472.18C439.825 4472.18 438.54 4473.46 438.54 4475.05C438.54 4476.63 439.825 4477.92 441.41 4477.92Z" fill="#0FD5EF"/>
<path d="M604.8 4555.07C606.385 4555.07 607.67 4553.79 607.67 4552.2C607.67 4550.62 606.385 4549.33 604.8 4549.33C603.215 4549.33 601.93 4550.62 601.93 4552.2C601.93 4553.79 603.215 4555.07 604.8 4555.07Z" fill="#0FD5EF"/>
<path d="M608.34 4556.8C609.925 4556.8 611.21 4555.52 611.21 4553.93C611.21 4552.35 609.925 4551.06 608.34 4551.06C606.755 4551.06 605.47 4552.35 605.47 4553.93C605.47 4555.52 606.755 4556.8 608.34 4556.8Z" fill="#0FD5EF"/>
<path d="M639.52 4439.4C641.105 4439.4 642.39 4438.11 642.39 4436.53C642.39 4434.94 641.105 4433.66 639.52 4433.66C637.935 4433.66 636.65 4434.94 636.65 4436.53C636.65 4438.11 637.935 4439.4 639.52 4439.4Z" fill="#0FD5EF"/>
<path d="M839.47 4301.82C841.055 4301.82 842.34 4300.54 842.34 4298.95C842.34 4297.37 841.055 4296.08 839.47 4296.08C837.885 4296.08 836.6 4297.37 836.6 4298.95C836.6 4300.54 837.885 4301.82 839.47 4301.82Z" fill="#0FD5EF"/>
<path d="M960.54 4545.8C962.125 4545.8 963.41 4544.52 963.41 4542.93C963.41 4541.35 962.125 4540.06 960.54 4540.06C958.955 4540.06 957.67 4541.35 957.67 4542.93C957.67 4544.52 958.955 4545.8 960.54 4545.8Z" fill="#0FD5EF"/>
<path d="M1114.63 4366.02C1116.22 4366.02 1117.5 4364.73 1117.5 4363.15C1117.5 4361.56 1116.22 4360.28 1114.63 4360.28C1113.04 4360.28 1111.76 4361.56 1111.76 4363.15C1111.76 4364.73 1113.04 4366.02 1114.63 4366.02Z" fill="#0FD5EF"/>
<path d="M1613.7 4357.8C1615.29 4357.8 1616.57 4356.52 1616.57 4354.93C1616.57 4353.35 1615.29 4352.06 1613.7 4352.06C1612.11 4352.06 1610.83 4353.35 1610.83 4354.93C1610.83 4356.52 1612.11 4357.8 1613.7 4357.8Z" fill="#0FD5EF"/>
<path d="M1611.75 4358.69C1613.34 4358.69 1614.62 4357.4 1614.62 4355.82C1614.62 4354.23 1613.34 4352.95 1611.75 4352.95C1610.16 4352.95 1608.88 4354.23 1608.88 4355.82C1608.88 4357.4 1610.16 4358.69 1611.75 4358.69Z" fill="#0FD5EF"/>
<path d="M1611.86 4399.12C1613.45 4399.12 1614.73 4397.84 1614.73 4396.25C1614.73 4394.66 1613.45 4393.38 1611.86 4393.38C1610.27 4393.38 1608.99 4394.66 1608.99 4396.25C1608.99 4397.84 1610.27 4399.12 1611.86 4399.12Z" fill="#0FD5EF"/>
<path d="M1613.59 4399.04C1615.18 4399.04 1616.46 4397.75 1616.46 4396.17C1616.46 4394.58 1615.18 4393.3 1613.59 4393.3C1612 4393.3 1610.72 4394.58 1610.72 4396.17C1610.72 4397.75 1612 4399.04 1613.59 4399.04Z" fill="#0FD5EF"/>
<path d="M1652.11 4373.36C1653.7 4373.36 1654.98 4372.08 1654.98 4370.49C1654.98 4368.91 1653.7 4367.62 1652.11 4367.62C1650.52 4367.62 1649.24 4368.91 1649.24 4370.49C1649.24 4372.08 1650.52 4373.36 1652.11 4373.36Z" fill="#0FD5EF"/>
<path d="M1870.4 4217.44C1871.98 4217.44 1873.27 4216.15 1873.27 4214.57C1873.27 4212.98 1871.98 4211.7 1870.4 4211.7C1868.81 4211.7 1867.53 4212.98 1867.53 4214.57C1867.53 4216.15 1868.81 4217.44 1870.4 4217.44Z" fill="#0FD5EF"/>
<path d="M1888.75 4421.06C1890.34 4421.06 1891.62 4419.77 1891.62 4418.19C1891.62 4416.6 1890.34 4415.32 1888.75 4415.32C1887.16 4415.32 1885.88 4416.6 1885.88 4418.19C1885.88 4419.77 1887.16 4421.06 1888.75 4421.06Z" fill="#0FD5EF"/>
<path d="M1164.16 3859.73C1165.75 3859.73 1167.03 3858.44 1167.03 3856.86C1167.03 3855.27 1165.75 3853.99 1164.16 3853.99C1162.57 3853.99 1161.29 3855.27 1161.29 3856.86C1161.29 3858.44 1162.57 3859.73 1164.16 3859.73Z" fill="#0FD5EF"/>
<path d="M1182.5 3819.37C1184.09 3819.37 1185.37 3818.09 1185.37 3816.5C1185.37 3814.91 1184.09 3813.63 1182.5 3813.63C1180.91 3813.63 1179.63 3814.91 1179.63 3816.5C1179.63 3818.09 1180.91 3819.37 1182.5 3819.37Z" fill="#0FD5EF"/>
<path d="M189.68 3705.78C191.265 3705.78 192.55 3704.49 192.55 3702.91C192.55 3701.32 191.265 3700.04 189.68 3700.04C188.095 3700.04 186.81 3701.32 186.81 3702.91C186.81 3704.49 188.095 3705.78 189.68 3705.78Z" fill="#0FD5EF"/>
<path d="M193.76 3705.64C195.345 3705.64 196.63 3704.36 196.63 3702.77C196.63 3701.18 195.345 3699.9 193.76 3699.9C192.175 3699.9 190.89 3701.18 190.89 3702.77C190.89 3704.36 192.175 3705.64 193.76 3705.64Z" fill="#0FD5EF"/>
<path d="M113.05 3613.92C114.635 3613.92 115.92 3612.63 115.92 3611.05C115.92 3609.46 114.635 3608.18 113.05 3608.18C111.465 3608.18 110.18 3609.46 110.18 3611.05C110.18 3612.63 111.465 3613.92 113.05 3613.92Z" fill="#0FD5EF"/>
<path d="M177.26 5220.85C178.845 5220.85 180.13 5219.57 180.13 5217.98C180.13 5216.39 178.845 5215.11 177.26 5215.11C175.675 5215.11 174.39 5216.39 174.39 5217.98C174.39 5219.57 175.675 5220.85 177.26 5220.85Z" fill="#0FD5EF"/>
<path d="M210.27 5308.9C211.855 5308.9 213.14 5307.61 213.14 5306.03C213.14 5304.44 211.855 5303.16 210.27 5303.16C208.685 5303.16 207.4 5304.44 207.4 5306.03C207.4 5307.61 208.685 5308.9 210.27 5308.9Z" fill="#0FD5EF"/>
<path d="M248.8 5237.36C250.385 5237.36 251.67 5236.08 251.67 5234.49C251.67 5232.91 250.385 5231.62 248.8 5231.62C247.215 5231.62 245.93 5232.91 245.93 5234.49C245.93 5236.08 247.215 5237.36 248.8 5237.36Z" fill="#0FD5EF"/>
<path d="M125.89 5466.66C127.475 5466.66 128.76 5465.38 128.76 5463.79C128.76 5462.2 127.475 5460.92 125.89 5460.92C124.305 5460.92 123.02 5462.2 123.02 5463.79C123.02 5465.38 124.305 5466.66 125.89 5466.66Z" fill="#0FD5EF"/>
<path d="M778.94 5290.56C780.525 5290.56 781.81 5289.27 781.81 5287.69C781.81 5286.1 780.525 5284.82 778.94 5284.82C777.355 5284.82 776.07 5286.1 776.07 5287.69C776.07 5289.27 777.355 5290.56 778.94 5290.56Z" fill="#0FD5EF"/>
<path d="M795.45 5200.67C797.035 5200.67 798.32 5199.38 798.32 5197.8C798.32 5196.21 797.035 5194.93 795.45 5194.93C793.865 5194.93 792.58 5196.21 792.58 5197.8C792.58 5199.38 793.865 5200.67 795.45 5200.67Z" fill="#0FD5EF"/>
<path d="M1674.12 5211.68C1675.71 5211.68 1676.99 5210.4 1676.99 5208.81C1676.99 5207.23 1675.71 5205.94 1674.12 5205.94C1672.53 5205.94 1671.25 5207.23 1671.25 5208.81C1671.25 5210.4 1672.53 5211.68 1674.12 5211.68Z" fill="#0FD5EF"/>
<path d="M1859.4 5219.02C1860.98 5219.02 1862.27 5217.73 1862.27 5216.15C1862.27 5214.56 1860.98 5213.28 1859.4 5213.28C1857.81 5213.28 1856.53 5214.56 1856.53 5216.15C1856.53 5217.73 1857.81 5219.02 1859.4 5219.02Z" fill="#0FD5EF"/>
<path d="M1677.79 5354.76C1679.38 5354.76 1680.66 5353.48 1680.66 5351.89C1680.66 5350.31 1679.38 5349.02 1677.79 5349.02C1676.2 5349.02 1674.92 5350.31 1674.92 5351.89C1674.92 5353.48 1676.2 5354.76 1677.79 5354.76Z" fill="#0FD5EF"/>
<path d="M1778.68 5573.06C1780.27 5573.06 1781.55 5571.77 1781.55 5570.19C1781.55 5568.6 1780.27 5567.32 1778.68 5567.32C1777.09 5567.32 1775.81 5568.6 1775.81 5570.19C1775.81 5571.77 1777.09 5573.06 1778.68 5573.06Z" fill="#0FD5EF"/>
<path d="M1406.3 5666.61C1407.89 5666.61 1409.17 5665.33 1409.17 5663.74C1409.17 5662.16 1407.89 5660.87 1406.3 5660.87C1404.71 5660.87 1403.43 5662.16 1403.43 5663.74C1403.43 5665.33 1404.71 5666.61 1406.3 5666.61Z" fill="#0FD5EF"/>
<path d="M1376.95 5943.6C1378.54 5943.6 1379.82 5942.32 1379.82 5940.73C1379.82 5939.14 1378.54 5937.86 1376.95 5937.86C1375.36 5937.86 1374.08 5939.14 1374.08 5940.73C1374.08 5942.32 1375.36 5943.6 1376.95 5943.6Z" fill="#0FD5EF"/>
<path d="M1110.96 5327.25C1112.55 5327.25 1113.83 5325.96 1113.83 5324.38C1113.83 5322.79 1112.55 5321.51 1110.96 5321.51C1109.37 5321.51 1108.09 5322.79 1108.09 5324.38C1108.09 5325.96 1109.37 5327.25 1110.96 5327.25Z" fill="#0FD5EF"/>
<path d="M1175.17 5252.04C1176.76 5252.04 1178.04 5250.75 1178.04 5249.17C1178.04 5247.58 1176.76 5246.3 1175.17 5246.3C1173.58 5246.3 1172.3 5247.58 1172.3 5249.17C1172.3 5250.75 1173.58 5252.04 1175.17 5252.04Z" fill="#0FD5EF"/>
<path d="M1182.5 6215.09C1184.09 6215.09 1185.37 6213.81 1185.37 6212.22C1185.37 6210.64 1184.09 6209.35 1182.5 6209.35C1180.91 6209.35 1179.63 6210.64 1179.63 6212.22C1179.63 6213.81 1180.91 6215.09 1182.5 6215.09Z" fill="#0FD5EF"/>
<path d="M984.39 6018.81C985.975 6018.81 987.26 6017.52 987.26 6015.94C987.26 6014.35 985.975 6013.07 984.39 6013.07C982.805 6013.07 981.52 6014.35 981.52 6015.94C981.52 6017.52 982.805 6018.81 984.39 6018.81Z" fill="#0FD5EF"/>
<path d="M973.38 6057.34C974.965 6057.34 976.25 6056.06 976.25 6054.47C976.25 6052.89 974.965 6051.6 973.38 6051.6C971.795 6051.6 970.51 6052.89 970.51 6054.47C970.51 6056.06 971.795 6057.34 973.38 6057.34Z" fill="#0FD5EF"/>
<path d="M289.15 6022.48C290.735 6022.48 292.02 6021.19 292.02 6019.61C292.02 6018.02 290.735 6016.74 289.15 6016.74C287.565 6016.74 286.28 6018.02 286.28 6019.61C286.28 6021.19 287.565 6022.48 289.15 6022.48Z" fill="#0FD5EF"/>
<path d="M313 6088.52C314.585 6088.52 315.87 6087.23 315.87 6085.65C315.87 6084.06 314.585 6082.78 313 6082.78C311.415 6082.78 310.13 6084.06 310.13 6085.65C310.13 6087.23 311.415 6088.52 313 6088.52Z" fill="#0FD5EF"/>
<path d="M335.01 6099.53C336.595 6099.53 337.88 6098.25 337.88 6096.66C337.88 6095.08 336.595 6093.79 335.01 6093.79C333.425 6093.79 332.14 6095.08 332.14 6096.66C332.14 6098.25 333.425 6099.53 335.01 6099.53Z" fill="#0FD5EF"/>
<path d="M131.4 5857.39C132.985 5857.39 134.27 5856.11 134.27 5854.52C134.27 5852.93 132.985 5851.65 131.4 5851.65C129.815 5851.65 128.53 5852.93 128.53 5854.52C128.53 5856.11 129.815 5857.39 131.4 5857.39Z" fill="#0FD5EF"/>
<path d="M136.9 6105.03C138.485 6105.03 139.77 6103.75 139.77 6102.16C139.77 6100.58 138.485 6099.29 136.9 6099.29C135.315 6099.29 134.03 6100.58 134.03 6102.16C134.03 6103.75 135.315 6105.03 136.9 6105.03Z" fill="#0FD5EF"/>
<path d="M140.57 6134.38C142.155 6134.38 143.44 6133.09 143.44 6131.51C143.44 6129.92 142.155 6128.64 140.57 6128.64C138.985 6128.64 137.7 6129.92 137.7 6131.51C137.7 6133.09 138.985 6134.38 140.57 6134.38Z" fill="#0FD5EF"/>
<path d="M89.2 6027.99C90.785 6027.99 92.07 6026.71 92.07 6025.12C92.07 6023.54 90.785 6022.25 89.2 6022.25C87.6149 6022.25 86.33 6023.54 86.33 6025.12C86.33 6026.71 87.6149 6027.99 89.2 6027.99Z" fill="#0FD5EF"/>
<path d="M1705.28 6081.25C1706.87 6081.25 1708.15 6079.96 1708.15 6078.38C1708.15 6076.79 1706.87 6075.51 1705.28 6075.51C1703.69 6075.51 1702.41 6076.79 1702.41 6078.38C1702.41 6079.96 1703.69 6081.25 1705.28 6081.25Z" fill="#0FD5EF"/>
<path d="M1703.47 6086.69C1705.06 6086.69 1706.34 6085.4 1706.34 6083.82C1706.34 6082.23 1705.06 6080.95 1703.47 6080.95C1701.88 6080.95 1700.6 6082.23 1700.6 6083.82C1700.6 6085.4 1701.88 6086.69 1703.47 6086.69Z" fill="#0FD5EF"/>
<path d="M1844.72 6070.18C1846.31 6070.18 1847.59 6068.9 1847.59 6067.31C1847.59 6065.73 1846.31 6064.44 1844.72 6064.44C1843.13 6064.44 1841.85 6065.73 1841.85 6067.31C1841.85 6068.9 1843.13 6070.18 1844.72 6070.18Z" fill="#0FD5EF"/>
<path d="M1855.73 6158.23C1857.32 6158.23 1858.6 6156.94 1858.6 6155.36C1858.6 6153.77 1857.32 6152.49 1855.73 6152.49C1854.14 6152.49 1852.86 6153.77 1852.86 6155.36C1852.86 6156.94 1854.14 6158.23 1855.73 6158.23Z" fill="#0FD5EF"/>
<path d="M1839.22 6103.2C1840.81 6103.2 1842.09 6101.92 1842.09 6100.33C1842.09 6098.75 1840.81 6097.46 1839.22 6097.46C1837.63 6097.46 1836.35 6098.75 1836.35 6100.33C1836.35 6101.92 1837.63 6103.2 1839.22 6103.2Z" fill="#0FD5EF"/>
<path d="M1292.57 6545.29C1294.16 6545.29 1295.44 6544 1295.44 6542.42C1295.44 6540.83 1294.16 6539.55 1292.57 6539.55C1290.98 6539.55 1289.7 6540.83 1289.7 6542.42C1289.7 6544 1290.98 6545.29 1292.57 6545.29Z" fill="#0FD5EF"/>
<path d="M1415.47 6418.71C1417.06 6418.71 1418.34 6417.42 1418.34 6415.84C1418.34 6414.25 1417.06 6412.97 1415.47 6412.97C1413.88 6412.97 1412.6 6414.25 1412.6 6415.84C1412.6 6417.42 1413.88 6418.71 1415.47 6418.71Z" fill="#0FD5EF"/>
<path d="M1413.64 6442.56C1415.23 6442.56 1416.51 6441.27 1416.51 6439.69C1416.51 6438.1 1415.23 6436.82 1413.64 6436.82C1412.05 6436.82 1410.77 6438.1 1410.77 6439.69C1410.77 6441.27 1412.05 6442.56 1413.64 6442.56Z" fill="#0FD5EF"/>
<path d="M1422.81 6484.75C1424.4 6484.75 1425.68 6483.46 1425.68 6481.88C1425.68 6480.29 1424.4 6479.01 1422.81 6479.01C1421.23 6479.01 1419.94 6480.29 1419.94 6481.88C1419.94 6483.46 1421.23 6484.75 1422.81 6484.75Z" fill="#0FD5EF"/>
<path d="M1686.96 6317.82C1688.55 6317.82 1689.83 6316.54 1689.83 6314.95C1689.83 6313.37 1688.55 6312.08 1686.96 6312.08C1685.37 6312.08 1684.09 6313.37 1684.09 6314.95C1684.09 6316.54 1685.37 6317.82 1686.96 6317.82Z" fill="#0FD5EF"/>
<path d="M1184.34 6383.86C1185.93 6383.86 1187.21 6382.58 1187.21 6380.99C1187.21 6379.41 1185.93 6378.12 1184.34 6378.12C1182.75 6378.12 1181.47 6379.41 1181.47 6380.99C1181.47 6382.58 1182.75 6383.86 1184.34 6383.86Z" fill="#0FD5EF"/>
<path d="M665.98 6386.01C667.565 6386.01 668.85 6384.73 668.85 6383.14C668.85 6381.56 667.565 6380.27 665.98 6380.27C664.395 6380.27 663.11 6381.56 663.11 6383.14C663.11 6384.73 664.395 6386.01 665.98 6386.01Z" fill="#0FD5EF"/>
<path d="M665.2 6385.69C666.785 6385.69 668.07 6384.4 668.07 6382.82C668.07 6381.23 666.785 6379.95 665.2 6379.95C663.615 6379.95 662.33 6381.23 662.33 6382.82C662.33 6384.4 663.615 6385.69 665.2 6385.69Z" fill="#0FD5EF"/>
<path d="M955.04 6347.17C956.625 6347.17 957.91 6345.88 957.91 6344.3C957.91 6342.71 956.625 6341.43 955.04 6341.43C953.455 6341.43 952.17 6342.71 952.17 6344.3C952.17 6345.88 953.455 6347.17 955.04 6347.17Z" fill="#0FD5EF"/>
<path d="M454.25 6343.5C455.835 6343.5 457.12 6342.21 457.12 6340.63C457.12 6339.04 455.835 6337.76 454.25 6337.76C452.665 6337.76 451.38 6339.04 451.38 6340.63C451.38 6342.21 452.665 6343.5 454.25 6343.5Z" fill="#0FD5EF"/>
<path d="M1864.9 6314.15C1866.48 6314.15 1867.77 6312.86 1867.77 6311.28C1867.77 6309.69 1866.48 6308.41 1864.9 6308.41C1863.31 6308.41 1862.03 6309.69 1862.03 6311.28C1862.03 6312.86 1863.31 6314.15 1864.9 6314.15Z" fill="#0FD5EF"/>
<path d="M839.47 6554.46C841.055 6554.46 842.34 6553.17 842.34 6551.59C842.34 6550 841.055 6548.72 839.47 6548.72C837.885 6548.72 836.6 6550 836.6 6551.59C836.6 6553.17 837.885 6554.46 839.47 6554.46Z" fill="#0FD5EF"/>
<path d="M246.96 6829.62C248.545 6829.62 249.83 6828.34 249.83 6826.75C249.83 6825.16 248.545 6823.88 246.96 6823.88C245.375 6823.88 244.09 6825.16 244.09 6826.75C244.09 6828.34 245.375 6829.62 246.96 6829.62Z" fill="#0FD5EF"/>
<path d="M309.33 6618.66C310.915 6618.66 312.2 6617.38 312.2 6615.79C312.2 6614.2 310.915 6612.92 309.33 6612.92C307.745 6612.92 306.46 6614.2 306.46 6615.79C306.46 6617.38 307.745 6618.66 309.33 6618.66Z" fill="#0FD5EF"/>
<path d="M399.22 6739.73C400.805 6739.73 402.09 6738.44 402.09 6736.86C402.09 6735.27 400.805 6733.99 399.22 6733.99C397.635 6733.99 396.35 6735.27 396.35 6736.86C396.35 6738.44 397.635 6739.73 399.22 6739.73Z" fill="#0FD5EF"/>
<path d="M1631.93 6772.75C1633.52 6772.75 1634.8 6771.46 1634.8 6769.88C1634.8 6768.29 1633.52 6767.01 1631.93 6767.01C1630.34 6767.01 1629.06 6768.29 1629.06 6769.88C1629.06 6771.46 1630.34 6772.75 1631.93 6772.75Z" fill="#0FD5EF"/>
<path d="M1765.84 6840.62C1767.43 6840.62 1768.71 6839.34 1768.71 6837.75C1768.71 6836.16 1767.43 6834.88 1765.84 6834.88C1764.25 6834.88 1762.97 6836.16 1762.97 6837.75C1762.97 6839.34 1764.25 6840.62 1765.84 6840.62Z" fill="#0FD5EF"/>
<path d="M1828.21 6996.55C1829.8 6996.55 1831.08 6995.27 1831.08 6993.68C1831.08 6992.1 1829.8 6990.81 1828.21 6990.81C1826.62 6990.81 1825.34 6992.1 1825.34 6993.68C1825.34 6995.27 1826.62 6996.55 1828.21 6996.55Z" fill="#0FD5EF"/>
<path d="M584.49 6481.05C586.075 6481.05 587.36 6479.77 587.36 6478.18C587.36 6476.6 586.075 6475.31 584.49 6475.31C582.905 6475.31 581.62 6476.6 581.62 6478.18C581.62 6479.77 582.905 6481.05 584.49 6481.05Z" fill="#0FD5EF"/>
<path d="M586.33 6479.25C587.915 6479.25 589.2 6477.96 589.2 6476.38C589.2 6474.79 587.915 6473.51 586.33 6473.51C584.745 6473.51 583.46 6474.79 583.46 6476.38C583.46 6477.96 584.745 6479.25 586.33 6479.25Z" fill="#0FD5EF"/>
<path d="M621.18 6580.14C622.765 6580.14 624.05 6578.86 624.05 6577.27C624.05 6575.68 622.765 6574.4 621.18 6574.4C619.595 6574.4 618.31 6575.68 618.31 6577.27C618.31 6578.86 619.595 6580.14 621.18 6580.14Z" fill="#0FD5EF"/>
<path d="M386.38 7921.08C387.965 7921.08 389.25 7919.8 389.25 7918.21C389.25 7916.62 387.965 7915.34 386.38 7915.34C384.795 7915.34 383.51 7916.62 383.51 7918.21C383.51 7919.8 384.795 7921.08 386.38 7921.08Z" fill="#0FD5EF"/>
<path d="M492.55 7609.57C494.135 7609.57 495.42 7608.29 495.42 7606.7C495.42 7605.12 494.135 7603.83 492.55 7603.83C490.965 7603.83 489.68 7605.12 489.68 7606.7C489.68 7608.29 490.965 7609.57 492.55 7609.57Z" fill="#0FD5EF"/>
<path d="M493.69 7614.74C495.275 7614.74 496.56 7613.46 496.56 7611.87C496.56 7610.29 495.275 7609 493.69 7609C492.105 7609 490.82 7610.29 490.82 7611.87C490.82 7613.46 492.105 7614.74 493.69 7614.74Z" fill="#0FD5EF"/>
<path d="M570.73 7785.34C572.315 7785.34 573.6 7784.06 573.6 7782.47C573.6 7780.89 572.315 7779.6 570.73 7779.6C569.145 7779.6 567.86 7780.89 567.86 7782.47C567.86 7784.06 569.145 7785.34 570.73 7785.34Z" fill="#0FD5EF"/>
<path d="M865.15 7521.18C866.735 7521.18 868.02 7519.9 868.02 7518.31C868.02 7516.73 866.735 7515.44 865.15 7515.44C863.565 7515.44 862.28 7516.73 862.28 7518.31C862.28 7519.9 863.565 7521.18 865.15 7521.18Z" fill="#0FD5EF"/>
<path d="M999.98 7631.25C1001.57 7631.25 1002.85 7629.96 1002.85 7628.38C1002.85 7626.79 1001.57 7625.51 999.98 7625.51C998.395 7625.51 997.11 7626.79 997.11 7628.38C997.11 7629.96 998.395 7631.25 999.98 7631.25Z" fill="#0FD5EF"/>
<path d="M862.4 7848.62C863.985 7848.62 865.27 7847.34 865.27 7845.75C865.27 7844.16 863.985 7842.88 862.4 7842.88C860.815 7842.88 859.53 7844.16 859.53 7845.75C859.53 7847.34 860.815 7848.62 862.4 7848.62Z" fill="#0FD5EF"/>
<path d="M1195.19 7943.82C1196.77 7943.82 1198.06 7942.54 1198.06 7940.95C1198.06 7939.37 1196.77 7938.08 1195.19 7938.08C1193.6 7938.08 1192.32 7939.37 1192.32 7940.95C1192.32 7942.54 1193.6 7943.82 1195.19 7943.82Z" fill="#0FD5EF"/>
<path d="M1192.59 7947.68C1194.18 7947.68 1195.46 7946.39 1195.46 7944.81C1195.46 7943.22 1194.18 7941.94 1192.59 7941.94C1191 7941.94 1189.72 7943.22 1189.72 7944.81C1189.72 7946.39 1191 7947.68 1192.59 7947.68Z" fill="#0FD5EF"/>
<path d="M1373.04 7457.1C1374.63 7457.1 1375.91 7455.82 1375.91 7454.23C1375.91 7452.64 1374.63 7451.36 1373.04 7451.36C1371.45 7451.36 1370.17 7452.64 1370.17 7454.23C1370.17 7455.82 1371.45 7457.1 1373.04 7457.1Z" fill="#0FD5EF"/>
<path d="M1374.2 7457.9C1375.79 7457.9 1377.07 7456.61 1377.07 7455.03C1377.07 7453.44 1375.79 7452.16 1374.2 7452.16C1372.61 7452.16 1371.33 7453.44 1371.33 7455.03C1371.33 7456.61 1372.61 7457.9 1374.2 7457.9Z" fill="#0FD5EF"/>
<path d="M1374.2 7589.97C1375.79 7589.97 1377.07 7588.69 1377.07 7587.1C1377.07 7585.52 1375.79 7584.23 1374.2 7584.23C1372.61 7584.23 1371.33 7585.52 1371.33 7587.1C1371.33 7588.69 1372.61 7589.97 1374.2 7589.97Z" fill="#0FD5EF"/>
<path d="M1828.21 7199.25C1829.8 7199.25 1831.08 7197.96 1831.08 7196.38C1831.08 7194.79 1829.8 7193.51 1828.21 7193.51C1826.62 7193.51 1825.34 7194.79 1825.34 7196.38C1825.34 7197.96 1826.62 7199.25 1828.21 7199.25Z" fill="#0FD5EF"/>
<path d="M1852.97 7584.47C1854.56 7584.47 1855.84 7583.19 1855.84 7581.6C1855.84 7580.02 1854.56 7578.73 1852.97 7578.73C1851.38 7578.73 1850.1 7580.02 1850.1 7581.6C1850.1 7583.19 1851.38 7584.47 1852.97 7584.47Z" fill="#0FD5EF"/>
<path d="M1833.71 7658.76C1835.3 7658.76 1836.58 7657.48 1836.58 7655.89C1836.58 7654.31 1835.3 7653.02 1833.71 7653.02C1832.12 7653.02 1830.84 7654.31 1830.84 7655.89C1830.84 7657.48 1832.12 7658.76 1833.71 7658.76Z" fill="#0FD5EF"/>
<path d="M1786.25 8096.27C1787.84 8096.27 1789.12 8094.99 1789.12 8093.4C1789.12 8091.82 1787.84 8090.53 1786.25 8090.53C1784.66 8090.53 1783.38 8091.82 1783.38 8093.4C1783.38 8094.99 1784.66 8096.27 1786.25 8096.27Z" fill="#0FD5EF"/>
<path d="M1870.86 8010.28C1872.45 8010.28 1873.73 8009 1873.73 8007.41C1873.73 8005.83 1872.45 8004.54 1870.86 8004.54C1869.28 8004.54 1867.99 8005.83 1867.99 8007.41C1867.99 8009 1869.28 8010.28 1870.86 8010.28Z" fill="#0FD5EF"/>
<path d="M1922.45 8106.59C1924.04 8106.59 1925.32 8105.31 1925.32 8103.72C1925.32 8102.14 1924.04 8100.85 1922.45 8100.85C1920.86 8100.85 1919.58 8102.14 1919.58 8103.72C1919.58 8105.31 1920.86 8106.59 1922.45 8106.59Z" fill="#0FD5EF"/>
<path d="M1816.52 7821.8C1818.11 7821.8 1819.39 7820.52 1819.39 7818.93C1819.39 7817.35 1818.11 7816.06 1816.52 7816.06C1814.93 7816.06 1813.65 7817.35 1813.65 7818.93C1813.65 7820.52 1814.93 7821.8 1816.52 7821.8Z" fill="#0FD5EF"/>
<path d="M1258.63 7855.04C1260.22 7855.04 1261.5 7853.75 1261.5 7852.17C1261.5 7850.58 1260.22 7849.3 1258.63 7849.3C1257.04 7849.3 1255.76 7850.58 1255.76 7852.17C1255.76 7853.75 1257.04 7855.04 1258.63 7855.04Z" fill="#0FD5EF"/>
<path d="M1172.41 7688.11C1174 7688.11 1175.28 7686.83 1175.28 7685.24C1175.28 7683.66 1174 7682.37 1172.41 7682.37C1170.82 7682.37 1169.54 7683.66 1169.54 7685.24C1169.54 7686.83 1170.82 7688.11 1172.41 7688.11Z" fill="#0FD5EF"/>
<path d="M1165.08 7672.52C1166.67 7672.52 1167.95 7671.23 1167.95 7669.65C1167.95 7668.06 1166.67 7666.78 1165.08 7666.78C1163.49 7666.78 1162.21 7668.06 1162.21 7669.65C1162.21 7671.23 1163.49 7672.52 1165.08 7672.52Z" fill="#0FD5EF"/>
<path d="M1380.62 7701.87C1382.21 7701.87 1383.49 7700.59 1383.49 7699C1383.49 7697.41 1382.21 7696.13 1380.62 7696.13C1379.03 7696.13 1377.75 7697.41 1377.75 7699C1377.75 7700.59 1379.03 7701.87 1380.62 7701.87Z" fill="#0FD5EF"/>
<path d="M1370.53 7713.8C1372.12 7713.8 1373.4 7712.52 1373.4 7710.93C1373.4 7709.35 1372.12 7708.06 1370.53 7708.06C1368.94 7708.06 1367.66 7709.35 1367.66 7710.93C1367.66 7712.52 1368.94 7713.8 1370.53 7713.8Z" fill="#0FD5EF"/>
<path d="M990.81 7803.68C992.395 7803.68 993.68 7802.4 993.68 7800.81C993.68 7799.23 992.395 7797.94 990.81 7797.94C989.225 7797.94 987.94 7799.23 987.94 7800.81C987.94 7802.4 989.225 7803.68 990.81 7803.68Z" fill="#0FD5EF"/>
<path d="M489.1 7384.52C490.685 7384.52 491.97 7383.23 491.97 7381.65C491.97 7380.06 490.685 7378.78 489.1 7378.78C487.515 7378.78 486.23 7380.06 486.23 7381.65C486.23 7383.23 487.515 7384.52 489.1 7384.52Z" fill="#0FD5EF"/>
<path d="M109.38 7360.67C110.965 7360.67 112.25 7359.38 112.25 7357.8C112.25 7356.21 110.965 7354.93 109.38 7354.93C107.795 7354.93 106.51 7356.21 106.51 7357.8C106.51 7359.38 107.795 7360.67 109.38 7360.67Z" fill="#0FD5EF"/>
<path d="M159.83 7046.08C161.415 7046.08 162.7 7044.8 162.7 7043.21C162.7 7041.62 161.415 7040.34 159.83 7040.34C158.245 7040.34 156.96 7041.62 156.96 7043.21C156.96 7044.8 158.245 7046.08 159.83 7046.08Z" fill="#0FD5EF"/>
<path d="M102.96 8002.71C104.545 8002.71 105.83 8001.43 105.83 7999.84C105.83 7998.26 104.545 7996.97 102.96 7996.97C101.375 7996.97 100.09 7998.26 100.09 7999.84C100.09 8001.43 101.375 8002.71 102.96 8002.71Z" fill="#0FD5EF"/>
<path d="M107.55 7962.36C109.135 7962.36 110.42 7961.08 110.42 7959.49C110.42 7957.91 109.135 7956.62 107.55 7956.62C105.965 7956.62 104.68 7957.91 104.68 7959.49C104.68 7961.08 105.965 7962.36 107.55 7962.36Z" fill="#0FD5EF"/>
<path d="M125.89 7991.71C127.475 7991.71 128.76 7990.43 128.76 7988.84C128.76 7987.26 127.475 7985.97 125.89 7985.97C124.305 7985.97 123.02 7987.26 123.02 7988.84C123.02 7990.43 124.305 7991.71 125.89 7991.71Z" fill="#0FD5EF"/>
<path d="M692.72 7972.44C694.305 7972.44 695.59 7971.15 695.59 7969.57C695.59 7967.98 694.305 7966.7 692.72 7966.7C691.135 7966.7 689.85 7967.98 689.85 7969.57C689.85 7971.15 691.135 7972.44 692.72 7972.44Z" fill="#0FD5EF"/>
<path d="M684.47 7942.18C686.055 7942.18 687.34 7940.9 687.34 7939.31C687.34 7937.73 686.055 7936.44 684.47 7936.44C682.885 7936.44 681.6 7937.73 681.6 7939.31C681.6 7940.9 682.885 7942.18 684.47 7942.18Z" fill="#0FD5EF"/>
<path d="M377.2 8042.15C378.785 8042.15 380.07 8040.86 380.07 8039.28C380.07 8037.69 378.785 8036.41 377.2 8036.41C375.615 8036.41 374.33 8037.69 374.33 8039.28C374.33 8040.86 375.615 8042.15 377.2 8042.15Z" fill="#0FD5EF"/>
<path d="M1616.34 7801.85C1617.93 7801.85 1619.21 7800.57 1619.21 7798.98C1619.21 7797.39 1617.93 7796.11 1616.34 7796.11C1614.75 7796.11 1613.47 7797.39 1613.47 7798.98C1613.47 7800.57 1614.75 7801.85 1616.34 7801.85Z" fill="#0FD5EF"/>
<path d="M1644.77 7915.58C1646.36 7915.58 1647.64 7914.3 1647.64 7912.71C1647.64 7911.12 1646.36 7909.84 1644.77 7909.84C1643.18 7909.84 1641.9 7911.12 1641.9 7912.71C1641.9 7914.3 1643.18 7915.58 1644.77 7915.58Z" fill="#0FD5EF"/>
<path d="M1662.2 7910.99C1663.79 7910.99 1665.07 7909.71 1665.07 7908.12C1665.07 7906.54 1663.79 7905.25 1662.2 7905.25C1660.61 7905.25 1659.33 7906.54 1659.33 7908.12C1659.33 7909.71 1660.61 7910.99 1662.2 7910.99Z" fill="#0FD5EF"/>
<path d="M1817.2 6072.01C1818.79 6072.01 1820.07 6070.73 1820.07 6069.14C1820.07 6067.56 1818.79 6066.27 1817.2 6066.27C1815.61 6066.27 1814.33 6067.56 1814.33 6069.14C1814.33 6070.73 1815.61 6072.01 1817.2 6072.01Z" fill="#0FD5EF"/>
<path d="M1826.38 6088.52C1827.96 6088.52 1829.25 6087.23 1829.25 6085.65C1829.25 6084.06 1827.96 6082.78 1826.38 6082.78C1824.79 6082.78 1823.51 6084.06 1823.51 6085.65C1823.51 6087.23 1824.79 6088.52 1826.38 6088.52Z" fill="#0FD5EF"/>
<path d="M1630.1 5949.11C1631.69 5949.11 1632.97 5947.83 1632.97 5946.24C1632.97 5944.66 1631.69 5943.37 1630.1 5943.37C1628.51 5943.37 1627.23 5944.66 1627.23 5946.24C1627.23 5947.83 1628.51 5949.11 1630.1 5949.11Z" fill="#0FD5EF"/>
<path d="M1657.61 5805.11C1659.2 5805.11 1660.48 5803.83 1660.48 5802.24C1660.48 5800.66 1659.2 5799.37 1657.61 5799.37C1656.02 5799.37 1654.74 5800.66 1654.74 5802.24C1654.74 5803.83 1656.02 5805.11 1657.61 5805.11Z" fill="#0FD5EF"/>
<path d="M1812.62 5860.14C1814.21 5860.14 1815.49 5858.86 1815.49 5857.27C1815.49 5855.68 1814.21 5854.4 1812.62 5854.4C1811.04 5854.4 1809.75 5855.68 1809.75 5857.27C1809.75 5858.86 1811.04 5860.14 1812.62 5860.14Z" fill="#0FD5EF"/>
<path d="M1896.08 5794.1C1897.67 5794.1 1898.95 5792.82 1898.95 5791.23C1898.95 5789.64 1897.67 5788.36 1896.08 5788.36C1894.5 5788.36 1893.21 5789.64 1893.21 5791.23C1893.21 5792.82 1894.5 5794.1 1896.08 5794.1Z" fill="#0FD5EF"/>
<path d="M1902.5 5806.02C1904.09 5806.02 1905.37 5804.73 1905.37 5803.15C1905.37 5801.56 1904.09 5800.28 1902.5 5800.28C1900.91 5800.28 1899.63 5801.56 1899.63 5803.15C1899.63 5804.73 1900.91 5806.02 1902.5 5806.02Z" fill="#0FD5EF"/>
<path d="M264.39 5382.28C265.975 5382.28 267.26 5381 267.26 5379.41C267.26 5377.83 265.975 5376.54 264.39 5376.54C262.805 5376.54 261.52 5377.83 261.52 5379.41C261.52 5381 262.805 5382.28 264.39 5382.28Z" fill="#0FD5EF"/>
<path d="M585.41 5114.46C586.995 5114.46 588.28 5113.17 588.28 5111.59C588.28 5110 586.995 5108.72 585.41 5108.72C583.825 5108.72 582.54 5110 582.54 5111.59C582.54 5113.17 583.825 5114.46 585.41 5114.46Z" fill="#0FD5EF"/>
<path d="M790.86 5383.2C792.445 5383.2 793.73 5381.92 793.73 5380.33C793.73 5378.75 792.445 5377.46 790.86 5377.46C789.275 5377.46 787.99 5378.75 787.99 5380.33C787.99 5381.92 789.275 5383.2 790.86 5383.2Z" fill="#0FD5EF"/>
<path d="M1273.31 5112.62C1274.9 5112.62 1276.18 5111.34 1276.18 5109.75C1276.18 5108.16 1274.9 5106.88 1273.31 5106.88C1271.73 5106.88 1270.44 5108.16 1270.44 5109.75C1270.44 5111.34 1271.73 5112.62 1273.31 5112.62Z" fill="#0FD5EF"/>
<path d="M1501.69 5496.01C1503.27 5496.01 1504.56 5494.73 1504.56 5493.14C1504.56 5491.56 1503.27 5490.27 1501.69 5490.27C1500.1 5490.27 1498.82 5491.56 1498.82 5493.14C1498.82 5494.73 1500.1 5496.01 1501.69 5496.01Z" fill="#0FD5EF"/>
<path d="M1891.5 5337.34C1893.09 5337.34 1894.37 5336.06 1894.37 5334.47C1894.37 5332.89 1893.09 5331.6 1891.5 5331.6C1889.91 5331.6 1888.63 5332.89 1888.63 5334.47C1888.63 5336.06 1889.91 5337.34 1891.5 5337.34Z" fill="#0FD5EF"/>
<path d="M1601.66 4628.34C1603.25 4628.34 1604.53 4627.06 1604.53 4625.47C1604.53 4623.89 1603.25 4622.6 1601.66 4622.6C1600.07 4622.6 1598.79 4623.89 1598.79 4625.47C1598.79 4627.06 1600.07 4628.34 1601.66 4628.34Z" fill="#0FD5EF"/>
<path d="M1716.31 4581.57C1717.9 4581.57 1719.18 4580.29 1719.18 4578.7C1719.18 4577.12 1717.9 4575.83 1716.31 4575.83C1714.73 4575.83 1713.44 4577.12 1713.44 4578.7C1713.44 4580.29 1714.73 4581.57 1716.31 4581.57Z" fill="#0FD5EF"/>
<path d="M1905.26 4580.65C1906.85 4580.65 1908.13 4579.36 1908.13 4577.78C1908.13 4576.19 1906.85 4574.91 1905.26 4574.91C1903.67 4574.91 1902.39 4576.19 1902.39 4577.78C1902.39 4579.36 1903.67 4580.65 1905.26 4580.65Z" fill="#0FD5EF"/>
<path d="M1908.92 4627.43C1910.5 4627.43 1911.79 4626.15 1911.79 4624.56C1911.79 4622.98 1910.5 4621.69 1908.92 4621.69C1907.33 4621.69 1906.05 4622.98 1906.05 4624.56C1906.05 4626.15 1907.33 4627.43 1908.92 4627.43Z" fill="#0FD5EF"/>
<path d="M1269.64 4341.26C1271.23 4341.26 1272.51 4339.98 1272.51 4338.39C1272.51 4336.81 1271.23 4335.52 1269.64 4335.52C1268.05 4335.52 1266.77 4336.81 1266.77 4338.39C1266.77 4339.98 1268.05 4341.26 1269.64 4341.26Z" fill="#0FD5EF"/>
<path d="M1266.89 4233.95C1268.48 4233.95 1269.76 4232.67 1269.76 4231.08C1269.76 4229.5 1268.48 4228.21 1266.89 4228.21C1265.3 4228.21 1264.02 4229.5 1264.02 4231.08C1264.02 4232.67 1265.3 4233.95 1266.89 4233.95Z" fill="#0FD5EF"/>
<path d="M1706.22 4234.87C1707.81 4234.87 1709.09 4233.59 1709.09 4232C1709.09 4230.41 1707.81 4229.13 1706.22 4229.13C1704.63 4229.13 1703.35 4230.41 1703.35 4232C1703.35 4233.59 1704.63 4234.87 1706.22 4234.87Z" fill="#0FD5EF"/>
<path d="M944.95 4432.98C946.535 4432.98 947.82 4431.69 947.82 4430.11C947.82 4428.52 946.535 4427.24 944.95 4427.24C943.365 4427.24 942.08 4428.52 942.08 4430.11C942.08 4431.69 943.365 4432.98 944.95 4432.98Z" fill="#0FD5EF"/>
<path d="M939.45 4443.07C941.035 4443.07 942.32 4441.79 942.32 4440.2C942.32 4438.62 941.035 4437.33 939.45 4437.33C937.865 4437.33 936.58 4438.62 936.58 4440.2C936.58 4441.79 937.865 4443.07 939.45 4443.07Z" fill="#0FD5EF"/>
<path d="M834.89 4629.26C836.475 4629.26 837.76 4627.98 837.76 4626.39C837.76 4624.81 836.475 4623.52 834.89 4623.52C833.305 4623.52 832.02 4624.81 832.02 4626.39C832.02 4627.98 833.305 4629.26 834.89 4629.26Z" fill="#0FD5EF"/>
<path d="M521.2 4631.09C522.785 4631.09 524.07 4629.81 524.07 4628.22C524.07 4626.64 522.785 4625.35 521.2 4625.35C519.615 4625.35 518.33 4626.64 518.33 4628.22C518.33 4629.81 519.615 4631.09 521.2 4631.09Z" fill="#0FD5EF"/>
<path d="M456.08 4284.39C457.665 4284.39 458.95 4283.11 458.95 4281.52C458.95 4279.93 457.665 4278.65 456.08 4278.65C454.495 4278.65 453.21 4279.93 453.21 4281.52C453.21 4283.11 454.495 4284.39 456.08 4284.39Z" fill="#0FD5EF"/>
<path d="M257.97 4287.15C259.555 4287.15 260.84 4285.86 260.84 4284.28C260.84 4282.69 259.555 4281.41 257.97 4281.41C256.385 4281.41 255.1 4282.69 255.1 4284.28C255.1 4285.86 256.385 4287.15 257.97 4287.15Z" fill="#0FD5EF"/>
<path d="M153.87 4739.32C155.455 4739.32 156.74 4738.04 156.74 4736.45C156.74 4734.87 155.455 4733.58 153.87 4733.58C152.285 4733.58 151 4734.87 151 4736.45C151 4738.04 152.285 4739.32 153.87 4739.32Z" fill="#0FD5EF"/>
<path d="M166.25 4670.53C167.835 4670.53 169.12 4669.25 169.12 4667.66C169.12 4666.08 167.835 4664.79 166.25 4664.79C164.665 4664.79 163.38 4666.08 163.38 4667.66C163.38 4669.25 164.665 4670.53 166.25 4670.53Z" fill="#0FD5EF"/>
<path d="M191.01 4691.17C192.595 4691.17 193.88 4689.88 193.88 4688.3C193.88 4686.71 192.595 4685.43 191.01 4685.43C189.425 4685.43 188.14 4686.71 188.14 4688.3C188.14 4689.88 189.425 4691.17 191.01 4691.17Z" fill="#0FD5EF"/>
<path d="M135.98 4586.61C137.565 4586.61 138.85 4585.33 138.85 4583.74C138.85 4582.16 137.565 4580.87 135.98 4580.87C134.395 4580.87 133.11 4582.16 133.11 4583.74C133.11 4585.33 134.395 4586.61 135.98 4586.61Z" fill="#0FD5EF"/>
<path d="M80.95 4995.22C82.535 4995.22 83.82 4993.94 83.82 4992.35C83.82 4990.77 82.535 4989.48 80.95 4989.48C79.3649 4989.48 78.08 4990.77 78.08 4992.35C78.08 4993.94 79.3649 4995.22 80.95 4995.22Z" fill="#0FD5EF"/>
<path d="M100.21 4963.58C101.795 4963.58 103.08 4962.3 103.08 4960.71C103.08 4959.12 101.795 4957.84 100.21 4957.84C98.6249 4957.84 97.34 4959.12 97.34 4960.71C97.34 4962.3 98.6249 4963.58 100.21 4963.58Z" fill="#0FD5EF"/>
<path d="M120.85 5072.27C122.435 5072.27 123.72 5070.98 123.72 5069.4C123.72 5067.81 122.435 5066.53 120.85 5066.53C119.265 5066.53 117.98 5067.81 117.98 5069.4C117.98 5070.98 119.265 5072.27 120.85 5072.27Z" fill="#0FD5EF"/>
<path d="M582.97 1318.17L876.88 1428.31L1187.38 1455.06L1628.96 2293.61" stroke="#0FD5EF" stroke-miterlimit="10"/>
<path d="M1094.68 1882.65L756.29 1963.49L667.33 1753.89L617.8 1739.21" stroke="#0FD5EF" stroke-miterlimit="10"/>
<path d="M585.31 1304.45L875.53 1412.45L1277.97 1153.45L1443.54 1272.65" stroke="#0FD5EF" stroke-miterlimit="10"/>
<path d="M2020.19 1563.08L1808.95 1658.53L1768.28 1796.38L1417.3 1717.17L1403.09 1795L1660.36 2284.04" stroke="#0FD5EF" stroke-miterlimit="10"/>
<path d="M85.59 2102.14L583.81 2307.07L510.06 2448.39" stroke="#0FD5EF" stroke-miterlimit="10"/>
<path d="M81.24 1695.84L198.72 1761.07L215.15 1922.65L365.57 2194.14L590.28 2286.78L877.41 2118.95" stroke="#0FD5EF" stroke-miterlimit="10"/>
<path d="M336.46 1275.43L63.8101 898.91" stroke="#0FD5EF" stroke-miterlimit="10"/>
<path d="M327.22 1280L173.58 1070.54L33.71 1016.3" stroke="#0FD5EF" stroke-miterlimit="10"/>
<path d="M590.28 2598.16L844.36 2385.71L1356.31 2672.56L1477.88 2666.66" stroke="#0FD5EF" stroke-miterlimit="10"/>
<path d="M1232.49 2380.11L1135.03 2524.2L1359.06 2647.59L1466.83 2642.49" stroke="#0FD5EF" stroke-miterlimit="10"/>
<path d="M1639.27 1126.31L2035.5 534.45" stroke="#0FD5EF" stroke-miterlimit="10"/>
<path d="M1643.94 1130.75L1855.73 971.36L2064.85 921.83" stroke="#0FD5EF" stroke-miterlimit="10"/>
<path d="M415.93 1209.67L160.75 883.99L168.08 713.56L41.51 445.98" stroke="#0FD5EF" stroke-miterlimit="10"/>
<path d="M52.8 329.32L158.91 44.99L323.78 -48.57" stroke="#0FD5EF" stroke-miterlimit="10"/>
<path d="M516.16 1756.48L626.68 1787.66L721.46 2041.8L896.24 1998.86" stroke="#0FD5EF" stroke-miterlimit="10"/>
<path d="M341.36 2496.29L15.83 2682.85" stroke="#0FD5EF" stroke-miterlimit="10"/>
<path d="M25 2541.58L348.39 2478.88" stroke="#0FD5EF" stroke-miterlimit="10"/>
<path d="M2067.6 1636.18L1872.24 2188.26L1867.65 2361.4L1757.59 2436.42" stroke="#0FD5EF" stroke-miterlimit="10"/>
<path d="M1768.28 2455.83L1891.71 2377.33L1910.76 2249.01L2175.35 2069.16" stroke="#0FD5EF" stroke-miterlimit="10"/>
<path d="M1730.58 1260.8L1816.43 1282.95L1938.27 1207.73L2052.85 1184.03" stroke="#0FD5EF" stroke-miterlimit="10"/>
<path d="M1144.24 2040.57L1316.41 1991.31L1443.54 2056.12L1609.48 2309.82" stroke="#0FD5EF" stroke-miterlimit="10"/>
<path d="M601 2614.07L845.16 2419.14L1266.84 2651.6L982.85 3092.38" stroke="#0FD5EF" stroke-miterlimit="10"/>
<path d="M1001.03 3092.38L1151.9 2863.59H1276.06L1351.27 2749.8H1415.61" stroke="#0FD5EF" stroke-miterlimit="10"/>
<path d="M1751.78 2935.08H1838.93L1876.82 3060.73H1919.93L2007.06 3437.58" stroke="#0FD5EF" stroke-miterlimit="10"/>
<path d="M314.73 1288.14L281.52 1241.93L139.42 1205.47L-120.6 1410.02" stroke="#0FD5EF" stroke-miterlimit="10"/>
<path d="M1128.62 2211.18L1216.67 2123.37L1144.7 2057.81" stroke="#0FD5EF" stroke-miterlimit="10"/>
<path d="M1768.28 1796.38L1872.24 2188.26" stroke="#0FD5EF" stroke-miterlimit="10"/>
<path d="M1114.63 1882.65L1285.23 1695.93L1172.64 1476.68L879.95 1453.26L876.95 1437.31" stroke="#0FD5EF" stroke-miterlimit="10"/>
<path d="M1224.72 3092.38L1433.44 2953.91L1673.06 3245.56H1930.94L2007.06 3590.87" stroke="#0FD5EF" stroke-miterlimit="10"/>
<path d="M282.7 3073.57H669.06L965.71 3356.32" stroke="#0FD5EF" stroke-miterlimit="10"/>
<path d="M905.51 3543.18L758.76 3666.08L467.09 3667.92L333.18 3818.34" stroke="#0FD5EF" stroke-miterlimit="10"/>
<path d="M482.68 3694.52H1036.67L1083.45 3750.47L1620.92 3565.19L1932.77 3564.28L1998.81 3911.89" stroke="#0FD5EF" stroke-miterlimit="10"/>
<path d="M257.05 4284.35H454.25L1600.75 4625.47H1907.09" stroke="#0FD5EF" stroke-miterlimit="10"/>
<path d="M1905.26 4578.24H1712.64L1268.26 4338.85L1267.34 4231.54H1705.76L1957.54 3968.76L1890.12 3594.54" stroke="#0FD5EF" stroke-miterlimit="10"/>
<path d="M521.2 4629.14H834.89L940.36 4439.28" stroke="#0FD5EF" stroke-miterlimit="10"/>
<path d="M790.86 5379.41H264.39L582.66 5113.42L1272.39 5110.67L1502.61 5494.98L2002.48 5220.73" stroke="#0FD5EF" stroke-miterlimit="10"/>
<path d="M663.37 6382.82H1178.83L1817.2 6069.14L1657.61 5801.32L1844.72 5705.93L1890.58 5333.55L2020.82 5265.68" stroke="#0FD5EF" stroke-miterlimit="10"/>
<path d="M1826.38 6085.65L1685.13 6314.95L1417.31 6439.69L2029.99 6437.86" stroke="#0FD5EF" stroke-miterlimit="10"/>
<path d="M1936.44 6678.16L1424.64 6483.72H2017.15" stroke="#0FD5EF" stroke-miterlimit="10"/>
<path d="M111.22 7361.47L554.22 8186.95L1162.33 7672.4L1924.52 7815.49L2150.15 7391.74" stroke="#0FD5EF" stroke-miterlimit="10"/>
<path d="M1539.29 8172.28L1814.45 7820.99L1259.55 7852.17L1171.5 7684.33" stroke="#0FD5EF" stroke-miterlimit="10"/>
<path d="M380.87 7914.54L-254.74 7537.57" stroke="#0FD5EF" stroke-miterlimit="10"/>
<path d="M1377.87 7699.92L2040.08 7259.66" stroke="#0FD5EF" stroke-miterlimit="10"/>
<path d="M988.97 7798.98L490.94 7383.49" stroke="#0FD5EF" stroke-miterlimit="10"/>
</g>
<defs>
<clipPath id="clip0_6_495">
<rect width="2430.63" height="8351.63" fill="white" transform="translate(-255 -49)"/>
</clipPath>
</defs>
</svg>
