<svg width="419" height="411" viewBox="0 0 419 411" fill="none" xmlns="http://www.w3.org/2000/svg">
<path d="M397.006 243.188C409.004 232.028 372.297 173.064 315.018 111.49C257.74 49.9158 201.581 9.04758 189.583 20.2084C177.585 31.3691 214.292 90.3325 271.571 151.907C328.849 213.481 385.008 254.349 397.006 243.188Z" stroke="#0FD5EF" stroke-width="4" stroke-miterlimit="10"/>
<path d="M319.453 258.554C330.351 248.416 305.239 203.706 263.365 158.691C221.49 113.676 178.71 85.4021 167.812 95.5397C156.914 105.677 182.025 150.387 223.9 195.402C265.774 240.418 308.555 268.691 319.453 258.554Z" stroke="#0FD5EF" stroke-width="4" stroke-miterlimit="10"/>
<path d="M252.671 277.532C262.473 268.414 246.295 235.089 216.537 203.099C186.779 171.109 154.709 152.568 144.907 161.686C135.105 170.804 151.282 204.129 181.041 236.119C210.799 268.109 242.869 286.651 252.671 277.532Z" stroke="#0FD5EF" stroke-width="4" stroke-miterlimit="10"/>
<path d="M205.342 309.437C214.044 301.342 199.68 271.754 173.258 243.351C146.836 214.947 118.363 198.484 109.66 206.579C100.958 214.674 115.323 244.262 141.745 272.665C168.166 301.069 196.64 317.532 205.342 309.437Z" stroke="#0FD5EF" stroke-width="4" stroke-miterlimit="10"/>
<path d="M162.001 337.656C169.607 330.58 157.056 304.723 133.967 279.903C110.878 255.082 85.9945 240.697 78.3882 247.773C70.7819 254.848 83.3331 280.705 106.422 305.526C129.511 330.346 154.394 344.732 162.001 337.656Z" stroke="#0FD5EF" stroke-width="4" stroke-miterlimit="10"/>
<path d="M131.302 375.197C137.808 369.145 122.447 342.055 96.9922 314.691C71.5372 287.327 45.6273 270.051 39.1209 276.103C32.6145 282.156 47.9754 309.245 73.4304 336.609C98.8854 363.973 124.795 381.25 131.302 375.197Z" stroke="#0FD5EF" stroke-width="4" stroke-miterlimit="10"/>
<path d="M104.25 401.284C109.656 396.254 93.108 369.676 67.2882 341.92C41.4683 314.164 16.1543 295.74 10.7478 300.769C5.34133 305.798 21.8896 332.376 47.7095 360.133C73.5294 387.889 98.8433 406.313 104.25 401.284Z" stroke="#0FD5EF" stroke-width="4" stroke-miterlimit="10"/>
<path d="M187.58 24.082C187.58 24.082 219.23 203.712 10.76 300.792" stroke="#0FD5EF" stroke-width="4" stroke-miterlimit="10"/>
<path d="M226.78 99.0022C217.41 131.222 177.08 233.422 24.54 335.242" stroke="#0FD5EF" stroke-width="4" stroke-miterlimit="10"/>
<path d="M272.26 151.282L47.72 360.152" stroke="#0FD5EF" stroke-width="4" stroke-miterlimit="10"/>
<path d="M323.79 201.492C288.26 209.682 185.91 244.482 76.23 385.552" stroke="#0FD5EF" stroke-width="4" stroke-miterlimit="10"/>
<path d="M392.66 244.542C392.66 244.542 215.78 200.002 103.9 400.922" stroke="#0FD5EF" stroke-width="4" stroke-miterlimit="10"/>
</svg>
