<svg width="278" height="296" viewBox="0 0 278 296" fill="none" xmlns="http://www.w3.org/2000/svg">
<path d="M23.57 155.51C22.56 155.3 21.54 155.1 20.53 154.88L21.36 150.97C21.69 151.04 22.02 151.1 22.35 151.17C20.1 142.44 18.85 133.31 18.69 123.92H16.82V119.92H18.69C18.85 110.36 20.16 101.07 22.48 92.19C22.14 92.26 21.8 92.33 21.47 92.4L20.64 88.49C21.66 88.27 22.69 88.07 23.71 87.86C26.42 78.94 30.16 70.48 34.79 62.59C34.73 62.62 34.66 62.64 34.6 62.67L32.95 59.03C34.28 58.43 35.62 57.85 36.96 57.28C38.51 53.21 40.19 49.18 42.01 45.24C24.92 66.17 14.66 92.87 14.66 121.93C14.66 140.32 18.78 157.76 26.12 173.4C27.79 173.85 29.52 174.35 31.29 174.89C28.16 168.72 25.56 162.24 23.55 155.51H23.57Z" fill="#0FD5EF"/>
<path d="M73.26 18.63L76.88 20.34C76.85 20.4 76.83 20.45 76.8 20.51C76.92 20.47 77.05 20.43 77.17 20.38C85.53 15.51 94.55 11.63 104.05 8.92996C104.33 7.85996 104.61 6.77998 104.9 5.70998L108.76 6.75996C108.67 7.09996 108.59 7.42997 108.49 7.76997C116.73 5.77997 125.3 4.64996 134.11 4.50996V1.64997H138.11V4.50996C146.84 4.65996 155.34 5.75997 163.52 7.71997C163.4 7.26997 163.29 6.81997 163.16 6.37997L167.02 5.31998C167.35 6.49998 167.65 7.68997 167.97 8.87997C177.3 11.51 186.15 15.27 194.39 19.99C194.57 20.05 194.74 20.11 194.92 20.17C194.85 20.02 194.79 19.87 194.72 19.73L198.33 18C198.97 19.33 199.57 20.67 200.19 22.01C203.65 23.28 207.06 24.64 210.42 26.12L208.82 29.76C215.11 34.73 220.87 40.33 226.02 46.45C225.98 46.38 225.95 46.3 225.92 46.22L229.53 44.51C231.51 48.68 233.32 52.93 234.98 57.25C236.66 57.97 238.33 58.71 239.99 59.47L238.32 63.1C238.06 62.98 237.79 62.87 237.53 62.75C242.14 70.62 245.86 79.07 248.55 87.96C249.77 88.21 250.99 88.46 252.2 88.72L251.36 92.63C250.83 92.52 250.3 92.41 249.77 92.3C252.08 101.15 253.37 110.4 253.53 119.92H255.88V123.92H253.53C253.37 133.27 252.12 142.36 249.9 151.06C250.39 150.96 250.89 150.86 251.38 150.75L252.22 154.66C251.04 154.91 249.87 155.15 248.69 155.4C246.44 162.96 243.44 170.21 239.79 177.05C241.63 176.41 243.44 175.81 245.2 175.26C253.11 159.15 257.56 141.05 257.56 121.92C257.56 54.95 203.08 0.469971 136.11 0.469971C107.6 0.469971 81.36 10.35 60.62 26.86C64.21 25.24 67.86 23.75 71.55 22.37C72.11 21.12 72.67 19.86 73.26 18.62V18.63Z" fill="#0FD5EF"/>
<path d="M45.46 47.34C50.61 41.09 56.39 35.39 62.71 30.32C62.5 30.41 62.29 30.5 62.09 30.59L60.46 27C53.74 32.37 47.6 38.42 42.15 45.07L45.73 46.73C45.64 46.93 45.55 47.13 45.46 47.33V47.34Z" fill="#0FD5EF"/>
<path d="M137.7 40.73C136.51 40.73 135.32 40.74 134.12 40.75V76.35C134.79 76.35 135.45 76.34 136.12 76.34C136.79 76.34 137.45 76.35 138.12 76.35V40.73C137.98 40.73 137.84 40.73 137.7 40.73Z" fill="#0FD5EF"/>
<path d="M136.12 80.3501H135.87C135.29 80.3501 134.7 80.3501 134.12 80.3601V119.93H135.57C136.84 118.26 137.61 117.34 137.66 117.29L138.12 116.75V80.3701C137.45 80.3701 136.79 80.3601 136.12 80.3601V80.3501Z" fill="#0FD5EF"/>
<path d="M137.72 36.7301C137.85 36.7301 137.98 36.7301 138.12 36.7301V14.5701C137.9 14.5701 137.68 14.5601 137.45 14.5601C136.34 14.5601 135.23 14.5701 134.12 14.5901V36.7501C135.32 36.7501 136.52 36.7201 137.72 36.7301Z" fill="#0FD5EF"/>
<path d="M138.12 1.6499H134.12V10.5999C135.24 10.5799 136.36 10.5699 137.48 10.5699C137.69 10.5699 137.91 10.5799 138.12 10.5799V1.6499Z" fill="#0FD5EF"/>
<path d="M31.26 152.98C29.67 143.42 28.85 133.72 28.82 123.93H24.82C24.85 133.44 25.61 142.85 27.08 152.15C28.47 152.43 29.86 152.7 31.26 152.97V152.98Z" fill="#0FD5EF"/>
<path d="M35.08 62.47C32.32 70.45 30.09 78.62 28.43 86.9C29.85 86.62 31.27 86.35 32.69 86.08C34.53 77.31 37 68.67 40.1 60.28C38.42 60.99 36.74 61.73 35.07 62.48L35.08 62.47Z" fill="#0FD5EF"/>
<path d="M27.64 91.1401C25.95 100.67 25.01 110.32 24.84 119.94H28.84C29.02 110.04 30.05 100.12 31.86 90.3201C30.45 90.5901 29.04 90.8601 27.64 91.1501V91.1401Z" fill="#0FD5EF"/>
<path d="M27.8 156.38C28.95 162.71 30.44 168.98 32.26 175.18C33.77 175.65 35.31 176.15 36.88 176.69C34.89 170.27 33.27 163.76 32.01 157.2C30.6 156.93 29.2 156.67 27.8 156.39V156.38Z" fill="#0FD5EF"/>
<path d="M42.1 55.1301C43.16 52.5001 44.28 49.9101 45.47 47.3401C45.56 47.1401 45.65 46.9401 45.74 46.7401L42.16 45.0801L42.11 45.0601C42.08 45.1201 42.06 45.1801 42.03 45.2501C40.2 49.1901 38.52 53.2101 36.98 57.2901C38.68 56.5501 40.39 55.8401 42.11 55.1401L42.1 55.1301Z" fill="#0FD5EF"/>
<path d="M101.26 39.2199C102.68 31.8399 104.29 24.4899 106.08 17.1799C104.64 17.4299 103.2 17.6899 101.77 17.9699C100.02 25.2199 98.45 32.5099 97.07 39.8299C98.47 39.6099 99.86 39.4199 101.26 39.2199Z" fill="#0FD5EF"/>
<path d="M95.18 161.53C94.05 149.04 93.45 136.49 93.39 123.93H89.39C89.45 136.39 90.03 148.83 91.13 161.22C92.48 161.33 93.83 161.43 95.18 161.53Z" fill="#0FD5EF"/>
<path d="M101.17 204.18C99.77 203.98 98.37 203.78 96.97 203.55C98.17 209.93 99.51 216.28 100.98 222.61C101.69 223.63 102.38 224.66 103.06 225.69C104.02 225.87 104.99 226.03 105.96 226.2C104.17 218.9 102.57 211.56 101.16 204.18H101.17Z" fill="#0FD5EF"/>
<path d="M91.18 82.1799C90.05 94.7199 89.45 107.32 89.39 119.93H93.39C93.45 107.21 94.06 94.5099 95.22 81.8699C93.87 81.9699 92.52 82.0699 91.17 82.1799H91.18Z" fill="#0FD5EF"/>
<path d="M96.3 44.0099C94.28 55.3199 92.68 66.6999 91.55 78.1399C92.9 78.0299 94.25 77.9299 95.6 77.8299C96.77 66.2799 98.4 54.7799 100.48 43.3599C99.09 43.5699 97.69 43.7799 96.3 44.0099Z" fill="#0FD5EF"/>
<path d="M100.39 200.02C98.32 188.6 96.7 177.11 95.55 165.57C94.2 165.47 92.85 165.37 91.51 165.27C92.63 176.69 94.21 188.07 96.22 199.37C97.61 199.6 99 199.81 100.4 200.02H100.39Z" fill="#0FD5EF"/>
<path d="M105.91 230.26C106.54 231.32 107.15 232.37 107.74 233.43C107.55 232.68 107.37 231.92 107.19 231.16C107.13 230.92 107.06 230.69 107 230.45C106.63 230.39 106.27 230.33 105.9 230.26H105.91Z" fill="#0FD5EF"/>
<path d="M108.77 6.76997L104.91 5.71997C104.62 6.78997 104.35 7.86997 104.06 8.93997C103.64 10.53 103.22 12.11 102.82 13.7C104.26 13.43 105.7 13.19 107.14 12.96C107.58 11.23 108.04 9.49997 108.5 7.77997C108.59 7.43997 108.67 7.10997 108.77 6.76997Z" fill="#0FD5EF"/>
<path d="M53.29 160.84C54.76 169.8 56.66 178.22 58.81 186.05C60.45 186.91 62.09 187.81 63.73 188.76C61.28 180.37 59.1 171.25 57.44 161.46C56.05 161.26 54.67 161.05 53.28 160.84H53.29Z" fill="#0FD5EF"/>
<path d="M66.36 46.72C68.75 39.53 71.46 32.46 74.51 25.55C72.76 26.19 71.03 26.85 69.31 27.54C66.47 34.28 63.91 41.1501 61.68 48.1301C63.24 47.6501 64.8 47.17 66.36 46.72Z" fill="#0FD5EF"/>
<path d="M56.87 86.0701C55.49 86.2701 54.11 86.4901 52.72 86.7001C51.16 97.2301 50.28 107.83 50.13 118.42C50.13 118.93 50.13 119.43 50.13 119.93H54.13C54.13 119.44 54.13 118.96 54.13 118.47C54.29 107.66 55.22 96.8101 56.87 86.0601V86.0701Z" fill="#0FD5EF"/>
<path d="M56.79 157.32C55.21 146.87 54.23 135.71 54.12 123.93H50.12C50.22 135.46 51.14 146.41 52.65 156.69C54.03 156.9 55.41 157.12 56.79 157.32Z" fill="#0FD5EF"/>
<path d="M60.27 52.7601C57.36 62.5401 55.06 72.5001 53.39 82.5601C54.77 82.3501 56.16 82.1401 57.54 81.9401C59.32 71.5901 61.77 61.3501 64.88 51.3101C63.34 51.7801 61.8 52.2601 60.26 52.7601H60.27Z" fill="#0FD5EF"/>
<path d="M73.26 18.6299C72.67 19.8699 72.12 21.1299 71.55 22.3799C73.29 21.7299 75.04 21.0999 76.8 20.5099C76.83 20.4499 76.85 20.3999 76.88 20.3399L73.26 18.6299Z" fill="#0FD5EF"/>
<path d="M243.42 123.93C243.42 133.67 242.66 143.32 241.12 152.85C242.51 152.58 243.9 152.31 245.29 152.02C246.71 142.76 247.43 133.38 247.42 123.92H243.42V123.93Z" fill="#0FD5EF"/>
<path d="M231.84 60.25C234.99 68.67 237.51 77.34 239.39 86.14C240.82 86.41 242.24 86.69 243.66 86.97C241.96 78.67 239.7 70.47 236.89 62.48C235.21 61.72 233.53 60.98 231.83 60.26L231.84 60.25Z" fill="#0FD5EF"/>
<path d="M240.25 90.3799C242.1 100.15 243.16 110.05 243.38 119.93H247.38C247.17 110.33 246.2 100.71 244.48 91.2099C243.07 90.9299 241.66 90.6599 240.25 90.3799Z" fill="#0FD5EF"/>
<path d="M234.98 57.25C233.32 52.93 231.51 48.68 229.53 44.51L225.92 46.22C225.96 46.29 225.99 46.37 226.02 46.45C227.37 49.3 228.64 52.19 229.84 55.11C231.56 55.81 233.28 56.52 234.98 57.26V57.25Z" fill="#0FD5EF"/>
<path d="M240.38 157.07C239.01 164.41 237.18 171.68 234.89 178.85C236.49 178.24 238.06 177.66 239.62 177.12C241.69 170.25 243.34 163.29 244.59 156.26C243.19 156.54 241.79 156.81 240.38 157.08V157.07Z" fill="#0FD5EF"/>
<path d="M180.81 165.22C179.46 165.33 178.11 165.43 176.77 165.53C175.9 174.34 174.76 183.13 173.36 191.87C173.68 194.43 173.91 197.03 174.05 199.65C174.76 199.54 175.46 199.44 176.17 199.32C178.16 188.02 179.71 176.64 180.82 165.22H180.81Z" fill="#0FD5EF"/>
<path d="M175.04 39.8601C173.63 32.4801 172.04 25.1301 170.26 17.8301C168.83 17.5501 167.39 17.3001 165.95 17.0601C167.77 24.4101 169.4 31.7901 170.84 39.2201C172.24 39.4201 173.64 39.6501 175.04 39.8701V39.8601Z" fill="#0FD5EF"/>
<path d="M178.85 123.93C178.81 136.48 178.23 149.01 177.12 161.49C178.47 161.39 179.82 161.28 181.17 161.17C182.25 148.79 182.82 136.37 182.85 123.93H178.85Z" fill="#0FD5EF"/>
<path d="M176.95 81.8999C178.13 94.5299 178.76 107.22 178.84 119.93H182.84C182.76 107.33 182.14 94.7499 180.99 82.2199C179.64 82.1099 178.29 82.0099 176.94 81.8999H176.95Z" fill="#0FD5EF"/>
<path d="M174.18 203.67C174.18 204.22 174.2 204.76 174.2 205.31C174.2 207.03 174.15 208.73 174.07 210.42C174.54 208.11 174.98 205.8 175.41 203.48C175 203.55 174.59 203.61 174.18 203.67Z" fill="#0FD5EF"/>
<path d="M171.63 43.3799C173.73 54.7999 175.38 66.3099 176.57 77.8599C177.92 77.9599 179.27 78.0599 180.63 78.1699C179.47 66.7299 177.86 55.3399 175.82 44.0299C174.43 43.7999 173.04 43.5899 171.64 43.3799H171.63Z" fill="#0FD5EF"/>
<path d="M167.02 5.32007L163.16 6.38007C163.28 6.83007 163.4 7.28006 163.52 7.72006C163.98 9.42006 164.44 11.1201 164.88 12.8301C166.32 13.0601 167.76 13.3001 169.2 13.5701C168.8 12.0101 168.39 10.4401 167.97 8.88007C167.65 7.69007 167.35 6.50007 167.02 5.32007Z" fill="#0FD5EF"/>
<path d="M219.42 86.7599C218.04 86.5499 216.65 86.3299 215.26 86.1299C216.98 97.0999 217.94 108.17 218.1 119.21C218.1 119.45 218.1 119.69 218.1 119.93H222.1C222.1 119.67 222.1 119.41 222.1 119.15C221.94 108.34 221.04 97.4999 219.41 86.7599H219.42Z" fill="#0FD5EF"/>
<path d="M210.32 48.1199C208.02 41.0099 205.39 34.0099 202.45 27.1499C200.73 26.4699 198.99 25.8199 197.25 25.1899C200.39 32.2099 203.18 39.3999 205.63 46.7099C207.2 47.1699 208.76 47.6299 210.32 48.1099V48.1199Z" fill="#0FD5EF"/>
<path d="M214.93 161.36C213.09 172.41 210.6 182.63 207.79 191.88C208.49 191.66 209.19 191.44 209.9 191.22C210.81 190.65 211.73 190.09 212.65 189.55C215.19 180.72 217.42 171.09 219.08 160.74C217.7 160.95 216.31 161.16 214.93 161.36Z" fill="#0FD5EF"/>
<path d="M218.13 123.93C218.06 135.68 217.12 146.81 215.57 157.23C216.95 157.03 218.33 156.81 219.71 156.6C221.18 146.35 222.07 135.43 222.13 123.93H218.13Z" fill="#0FD5EF"/>
<path d="M207.13 51.3201C210.28 61.3701 212.77 71.6301 214.58 81.9901C215.97 82.1901 217.35 82.4001 218.74 82.6101C217.04 72.5401 214.71 62.5701 211.76 52.7801C210.22 52.2801 208.68 51.7901 207.13 51.3201Z" fill="#0FD5EF"/>
<path d="M194.72 19.72C194.79 19.87 194.85 20.02 194.92 20.16C196.68 20.75 198.44 21.36 200.18 22C199.57 20.66 198.96 19.31 198.32 17.99L194.71 19.72H194.72Z" fill="#0FD5EF"/>
<path d="M93.39 119.93H16.83V123.93H132.65C133.79 122.32 134.78 120.98 135.57 119.93H93.39Z" fill="#0FD5EF"/>
<path d="M182.85 123.93H255.89V119.93H142.79C143.59 120.98 144.58 122.32 145.71 123.93H182.85Z" fill="#0FD5EF"/>
<path d="M31.87 90.3101C38.79 88.9701 45.75 87.7701 52.72 86.7001C54.1 86.4901 55.48 86.2701 56.87 86.0701C68.26 84.4101 79.71 83.1201 91.18 82.1801C92.53 82.0701 93.88 81.9701 95.23 81.8701C108.18 80.9101 121.16 80.4001 134.13 80.3601C134.71 80.3601 135.3 80.3501 135.88 80.3501H136.13C136.8 80.3501 137.46 80.3601 138.13 80.3601C151.08 80.4101 164.03 80.9301 176.96 81.9001C178.31 82.0001 179.66 82.1001 181.01 82.2201C192.47 83.1701 203.9 84.4701 215.28 86.1301C216.67 86.3301 218.05 86.5501 219.44 86.7601C226.41 87.8301 233.35 89.0401 240.27 90.3801C241.68 90.6501 243.09 90.9201 244.5 91.2101C246.27 91.5701 248.03 91.9401 249.8 92.3101C250.33 92.4201 250.86 92.5301 251.39 92.6401L252.23 88.7301C251.01 88.4701 249.79 88.2201 248.58 87.9701C246.95 87.6301 245.33 87.3001 243.7 86.9701C242.28 86.6901 240.85 86.4101 239.43 86.1401C232.57 84.8301 225.68 83.6601 218.77 82.6101C217.39 82.4001 216 82.1901 214.61 81.9901C203.33 80.3701 192 79.0901 180.65 78.1701C179.3 78.0601 177.95 77.9601 176.59 77.8601C163.79 76.9101 150.96 76.4101 138.14 76.3601C137.47 76.3601 136.81 76.3501 136.14 76.3501C135.47 76.3501 134.81 76.3601 134.14 76.3601C121.29 76.4001 108.44 76.9001 95.62 77.8401C94.27 77.9401 92.92 78.0401 91.57 78.1501C80.2 79.0701 68.85 80.3301 57.56 81.9501C56.17 82.1501 54.79 82.3601 53.41 82.5701C46.49 83.6101 39.59 84.7901 32.72 86.0901C31.3 86.3601 29.88 86.6301 28.46 86.9101C26.88 87.2201 25.31 87.5501 23.74 87.8701C22.72 88.0801 21.69 88.2901 20.67 88.5001L21.5 92.4101C21.84 92.3401 22.17 92.2701 22.51 92.2001C24.22 91.8401 25.94 91.4801 27.66 91.1401C29.07 90.8601 30.48 90.5901 31.88 90.3101H31.87Z" fill="#0FD5EF"/>
<path d="M40.11 60.27C46.7 57.47 53.43 54.97 60.26 52.76C61.79 52.26 63.33 51.78 64.88 51.31C75.18 48.2 85.69 45.76 96.3 44.01C97.69 43.78 99.08 43.57 100.48 43.36C111.64 41.71 122.89 40.84 134.12 40.75C135.31 40.75 136.5 40.72 137.7 40.73C137.84 40.73 137.98 40.73 138.12 40.73C149.3 40.83 160.51 41.72 171.63 43.37C173.02 43.58 174.42 43.79 175.81 44.02C186.39 45.77 196.87 48.21 207.13 51.31C208.68 51.78 210.22 52.27 211.76 52.77C218.57 54.97 225.27 57.46 231.84 60.24C233.54 60.96 235.22 61.71 236.9 62.46C237.11 62.55 237.32 62.64 237.53 62.74C237.79 62.86 238.06 62.97 238.32 63.09L239.99 59.46C238.33 58.7 236.66 57.97 234.98 57.24C233.28 56.5 231.56 55.79 229.84 55.09C223.44 52.5 216.93 50.16 210.33 48.11C208.77 47.62 207.21 47.16 205.64 46.71C195.6 43.8 185.37 41.5 175.05 39.85C173.65 39.63 172.25 39.4 170.85 39.2C159.99 37.65 149.05 36.82 138.13 36.73C138 36.73 137.87 36.73 137.73 36.73C136.53 36.73 135.33 36.75 134.13 36.75C123.16 36.84 112.17 37.66 101.27 39.21C99.87 39.41 98.47 39.6 97.08 39.82C86.72 41.47 76.45 43.78 66.38 46.7C64.81 47.15 63.25 47.63 61.7 48.11C55.07 50.17 48.54 52.51 42.12 55.12C40.4 55.82 38.69 56.53 36.99 57.27C35.65 57.85 34.31 58.42 32.98 59.02L34.63 62.66C34.69 62.63 34.76 62.61 34.82 62.58C34.91 62.54 35.01 62.5 35.1 62.46C36.77 61.71 38.44 60.98 40.13 60.26L40.11 60.27Z" fill="#0FD5EF"/>
<path d="M62.71 30.3301C64.89 29.3601 67.09 28.4301 69.31 27.5401C71.03 26.8501 72.77 26.1901 74.51 25.5501C83.37 22.3201 92.5 19.7901 101.77 17.9801C103.2 17.7001 104.64 17.4401 106.08 17.1901C115.36 15.6001 124.75 14.7301 134.12 14.6001C135.23 14.5901 136.34 14.5701 137.45 14.5701C137.67 14.5701 137.89 14.5801 138.12 14.5801C147.4 14.6701 156.72 15.5101 165.94 17.0501C167.38 17.2901 168.82 17.5501 170.25 17.8201C179.42 19.5801 188.47 22.0501 197.24 25.1901C198.99 25.8101 200.72 26.4701 202.44 27.1501C204.58 27.9901 206.7 28.8601 208.79 29.7801V29.7501L210.4 26.1101C207.04 24.6401 203.62 23.2701 200.17 22.0001C198.43 21.3601 196.67 20.7401 194.91 20.1601C194.73 20.1001 194.56 20.0401 194.38 19.9801C186.16 17.2601 177.72 15.1101 169.19 13.5601C167.75 13.3001 166.32 13.0501 164.87 12.8201C155.99 11.4201 147.03 10.6601 138.11 10.5801C137.9 10.5801 137.68 10.5701 137.47 10.5701C136.35 10.5701 135.23 10.5801 134.11 10.6001C125.1 10.7201 116.07 11.5101 107.13 12.9501C105.69 13.1801 104.25 13.4301 102.81 13.6901C94.12 15.3001 85.53 17.5501 77.16 20.3801C77.04 20.4201 76.91 20.4601 76.79 20.5101C75.03 21.1101 73.28 21.7301 71.54 22.3801C67.85 23.7601 64.2 25.2501 60.61 26.8701C60.55 26.9001 60.49 26.9201 60.43 26.9501L60.45 27.0001L62.08 30.5901C62.29 30.5001 62.5 30.4101 62.7 30.3201L62.71 30.3301Z" fill="#0FD5EF"/>
<path d="M91.14 161.22C79.65 160.28 68.19 158.98 56.79 157.32C55.41 157.12 54.03 156.9 52.65 156.69C45.49 155.59 38.36 154.35 31.26 152.97C29.87 152.7 28.47 152.43 27.08 152.15C25.5 151.83 23.93 151.51 22.36 151.17C22.03 151.1 21.7 151.04 21.37 150.97L20.54 154.88C21.55 155.1 22.56 155.3 23.58 155.51C24.99 155.8 26.4 156.1 27.81 156.38C29.21 156.66 30.62 156.92 32.02 157.19C39.09 158.54 46.18 159.75 53.3 160.83C54.68 161.04 56.07 161.25 57.46 161.45C68.77 163.07 80.13 164.34 91.52 165.26C92.87 165.37 94.22 165.47 95.56 165.56C100.67 165.93 105.78 166.24 110.9 166.47C111.35 165.14 111.81 163.82 112.29 162.53C106.59 162.28 100.89 161.95 95.19 161.52C93.84 161.42 92.49 161.32 91.14 161.21V161.22Z" fill="#0FD5EF"/>
<path d="M180.81 165.22C192.22 164.29 203.6 163 214.93 161.36C216.32 161.16 217.7 160.95 219.08 160.74C226.21 159.66 233.31 158.43 240.38 157.07C241.78 156.8 243.19 156.53 244.59 156.25C245.96 155.97 247.33 155.69 248.7 155.4C249.88 155.15 251.06 154.92 252.23 154.66L251.39 150.75C250.9 150.86 250.4 150.95 249.91 151.06C248.37 151.39 246.83 151.71 245.29 152.02C243.9 152.3 242.51 152.57 241.12 152.85C234.01 154.24 226.87 155.49 219.71 156.59C218.33 156.8 216.95 157.02 215.57 157.22C204.15 158.9 192.67 160.2 181.17 161.16C179.82 161.27 178.47 161.38 177.12 161.48C173.4 161.76 169.68 162.01 165.96 162.21C166.44 163.5 166.9 164.81 167.35 166.13C170.49 165.95 173.62 165.74 176.75 165.51C178.1 165.41 179.45 165.31 180.79 165.2L180.81 165.22Z" fill="#0FD5EF"/>
<path d="M176.16 199.32C175.45 199.44 174.75 199.54 174.04 199.65C174.11 200.98 174.16 202.33 174.18 203.68C174.59 203.62 175 203.55 175.41 203.49C183.59 202.17 191.7 200.45 199.71 198.33C203.03 195.75 206.44 193.39 209.89 191.23C209.19 191.45 208.49 191.68 207.78 191.89C197.42 195.05 186.84 197.54 176.15 199.33L176.16 199.32Z" fill="#0FD5EF"/>
<path d="M96.22 199.37C88.22 198.05 80.28 196.34 72.44 194.24C75.2 196.14 77.92 198.18 80.57 200.37C86 201.61 91.47 202.68 96.97 203.56C98.37 203.78 99.77 203.99 101.17 204.19C102.17 204.33 103.17 204.47 104.17 204.6C104.17 203.26 104.21 201.92 104.27 200.59C102.98 200.42 101.69 200.22 100.39 200.03C99 199.82 97.6 199.61 96.21 199.38L96.22 199.37Z" fill="#0FD5EF"/>
<path d="M171.55 229.4C171.85 229.34 172.15 229.27 172.46 229.21C173.42 227.63 174.42 226.06 175.47 224.49C174.45 224.72 173.42 224.93 172.4 225.14C172.14 226.57 171.86 227.99 171.56 229.4H171.55Z" fill="#0FD5EF"/>
<path d="M103.07 225.69C104.06 227.2 105.01 228.73 105.92 230.26C106.29 230.32 106.65 230.39 107.02 230.45H107.05C106.74 229.06 106.45 227.66 106.18 226.24C106.11 226.23 106.04 226.22 105.97 226.2C105 226.03 104.04 225.88 103.07 225.69Z" fill="#0FD5EF"/>
<path d="M171.55 229.4C171.85 227.99 172.13 226.58 172.39 225.14C173.25 220.36 173.83 215.44 174.07 210.41C174.15 208.72 174.2 207.02 174.2 205.3C174.2 204.75 174.2 204.21 174.18 203.66C174.16 202.31 174.11 200.97 174.04 199.63C173.9 197.01 173.67 194.41 173.35 191.85C172.23 182.75 170.06 174.1 167.35 166.13C166.9 164.8 166.44 163.49 165.96 162.21C159.62 145.11 151.06 131.5 145.71 123.92C144.57 122.31 143.58 120.97 142.79 119.92C141.52 118.25 140.75 117.33 140.7 117.28L139.18 115.49L138.12 116.74L137.66 117.28C137.61 117.34 136.84 118.26 135.57 119.92C134.77 120.97 133.78 122.31 132.65 123.92C127.27 131.55 118.64 145.28 112.28 162.53C111.8 163.82 111.34 165.14 110.89 166.47C107.39 176.87 104.81 188.4 104.27 200.57C104.21 201.9 104.18 203.24 104.17 204.58C104.17 204.82 104.17 205.06 104.17 205.3C104.17 212.5 104.92 219.51 106.18 226.23C106.45 227.65 106.74 229.05 107.05 230.45C107.1 230.69 107.15 230.92 107.21 231.16C107.39 231.92 107.57 232.68 107.76 233.43C115.04 246.46 119.61 259.63 122.45 270.29C130.2 284.43 137.52 293.15 137.67 293.34L139.19 295.13L140.71 293.34C140.86 293.16 147.47 285.28 154.78 272.36C157.69 260.87 162.67 246.04 171.07 231.55C171.24 230.84 171.4 230.12 171.55 229.4ZM139.18 288.83C132.75 280.51 108.16 246.04 108.16 205.31C108.16 164.58 132.75 130.12 139.18 121.79C145.61 130.11 170.2 164.58 170.2 205.31C170.2 246.04 145.61 280.51 139.18 288.83Z" fill="#0FD5EF"/>
<path d="M105.91 230.26C105 228.73 104.05 227.21 103.06 225.69C102.39 224.66 101.69 223.63 100.98 222.61C97.28 217.3 93.07 212.15 88.26 207.35C85.78 204.87 83.2 202.55 80.56 200.37C77.91 198.18 75.19 196.14 72.43 194.24C69.56 192.27 66.65 190.44 63.73 188.76C62.09 187.82 60.45 186.91 58.81 186.05C51.3 182.12 43.83 179.07 36.88 176.69C35.31 176.15 33.77 175.65 32.26 175.18C31.94 175.08 31.62 174.98 31.31 174.89C29.53 174.35 27.81 173.86 26.14 173.4C12.36 169.66 2.57001 168.8 2.35001 168.79L0.0100098 168.6L0.20001 170.94C0.24001 171.46 4.76001 222.87 38.76 256.87C72.76 290.87 124.17 295.39 124.69 295.43L127.03 295.62L126.84 293.28C126.82 293.06 125.99 283.65 122.44 270.29C119.61 259.63 115.03 246.46 107.75 233.43C107.16 232.37 106.55 231.31 105.92 230.26H105.91ZM122.57 291.17C112.13 289.84 70.38 282.84 41.58 254.04C12.81 225.27 5.80001 183.49 4.45001 173.05C14.89 174.39 56.67 181.41 85.44 210.18C114.21 238.95 121.23 280.74 122.57 291.18V291.17Z" fill="#0FD5EF"/>
<path d="M275.4 168.79C275.14 168.81 262.27 169.94 245.21 175.27C243.45 175.82 241.64 176.41 239.8 177.06C239.74 177.08 239.68 177.1 239.62 177.12C238.07 177.66 236.49 178.24 234.89 178.85C227.7 181.62 220.11 185.12 212.64 189.55C211.72 190.09 210.8 190.65 209.89 191.22C206.44 193.38 203.03 195.74 199.71 198.32C196.17 201.07 192.73 204.07 189.46 207.34C184.09 212.71 179.45 218.52 175.45 224.49C174.4 226.05 173.4 227.63 172.44 229.21C171.97 229.99 171.5 230.77 171.05 231.55C162.64 246.04 157.66 260.87 154.76 272.36C151.66 284.61 150.92 293.07 150.9 293.27L150.71 295.61L153.05 295.42C153.57 295.38 204.98 290.86 238.98 256.86C272.98 222.86 277.5 171.45 277.54 170.93L277.73 168.59L275.39 168.78L275.4 168.79ZM236.17 254.04C207.4 282.81 165.62 289.82 155.18 291.17C156.52 280.73 163.53 238.95 192.31 210.18C221.08 181.41 262.86 174.4 273.3 173.05C271.96 183.49 264.95 225.27 236.17 254.04Z" fill="#0FD5EF"/>
</svg>
