<svg width="249" height="249" viewBox="0 0 249 249" fill="none" xmlns="http://www.w3.org/2000/svg">
<g clip-path="url(#clip0_5_97)">
<path d="M234.89 26.75H227.35V34.28H234.89V26.75Z" fill="#0FD5EF"/>
<path d="M234.89 13.3799H227.35V20.9099H234.89V13.3799Z" fill="#0FD5EF"/>
<path d="M248.25 80.2402H240.72V87.7802H248.25V80.2402Z" fill="#0FD5EF"/>
<path d="M248.25 66.8701H240.72V74.4001H248.25V66.8701Z" fill="#0FD5EF"/>
<path d="M234.89 200.6H227.35V208.13H234.89V200.6Z" fill="#0FD5EF"/>
<path d="M234.89 173.86H227.35V181.4H234.89V173.86Z" fill="#0FD5EF"/>
<path d="M234.89 160.48H227.35V168.01H234.89V160.48Z" fill="#0FD5EF"/>
<path d="M234.89 147.11H227.35V154.65H234.89V147.11Z" fill="#0FD5EF"/>
<path d="M234.89 133.74H227.35V141.27H234.89V133.74Z" fill="#0FD5EF"/>
<path d="M234.89 106.99H227.35V114.53H234.89V106.99Z" fill="#0FD5EF"/>
<path d="M234.89 93.6201H227.35V101.15H234.89V93.6201Z" fill="#0FD5EF"/>
<path d="M234.89 53.5H227.35V61.03H234.89V53.5Z" fill="#0FD5EF"/>
<path d="M234.89 0H227.35V7.54H234.89V0Z" fill="#0FD5EF"/>
<path d="M221.51 240.72H213.98V248.25H221.51V240.72Z" fill="#0FD5EF"/>
<path d="M221.51 200.6H213.98V208.13H221.51V200.6Z" fill="#0FD5EF"/>
<path d="M221.51 120.37H213.98V127.9H221.51V120.37Z" fill="#0FD5EF"/>
<path d="M221.51 40.1201H213.98V47.6601H221.51V40.1201Z" fill="#0FD5EF"/>
<path d="M221.51 0H213.98V7.54H221.51V0Z" fill="#0FD5EF"/>
<path d="M208.14 240.72H200.6V248.25H208.14V240.72Z" fill="#0FD5EF"/>
<path d="M208.14 200.6H200.6V208.13H208.14V200.6Z" fill="#0FD5EF"/>
<path d="M208.14 106.99H200.6V114.53H208.14V106.99Z" fill="#0FD5EF"/>
<path d="M208.14 26.75H200.6V34.28H208.14V26.75Z" fill="#0FD5EF"/>
<path d="M208.14 0H200.6V7.54H208.14V0Z" fill="#0FD5EF"/>
<path d="M194.76 240.72H187.23V248.25H194.76V240.72Z" fill="#0FD5EF"/>
<path d="M194.76 227.35H187.23V234.88H194.76V227.35Z" fill="#0FD5EF"/>
<path d="M194.76 213.98H187.23V221.52H194.76V213.98Z" fill="#0FD5EF"/>
<path d="M194.76 200.6H187.23V208.13H194.76V200.6Z" fill="#0FD5EF"/>
<path d="M194.76 133.74H187.23V141.27H194.76V133.74Z" fill="#0FD5EF"/>
<path d="M194.76 120.37H187.23V127.9H194.76V120.37Z" fill="#0FD5EF"/>
<path d="M194.76 66.8701H187.23V74.4001H194.76V66.8701Z" fill="#0FD5EF"/>
<path d="M194.76 40.1201H187.23V47.6601H194.76V40.1201Z" fill="#0FD5EF"/>
<path d="M194.76 13.3799H187.23V20.9099H194.76V13.3799Z" fill="#0FD5EF"/>
<path d="M181.39 200.6H173.86V208.13H181.39V200.6Z" fill="#0FD5EF"/>
<path d="M181.39 160.48H173.86V168.01H181.39V160.48Z" fill="#0FD5EF"/>
<path d="M181.39 147.11H173.86V154.65H181.39V147.11Z" fill="#0FD5EF"/>
<path d="M181.39 66.8701H173.86V74.4001H181.39V66.8701Z" fill="#0FD5EF"/>
<path d="M181.39 40.1201H173.86V47.6601H181.39V40.1201Z" fill="#0FD5EF"/>
<path d="M168.02 200.6H160.48V208.13H168.02V200.6Z" fill="#0FD5EF"/>
<path d="M168.02 173.86H160.48V181.4H168.02V173.86Z" fill="#0FD5EF"/>
<path d="M168.02 120.37H160.48V127.9H168.02V120.37Z" fill="#0FD5EF"/>
<path d="M168.02 93.6201H160.48V101.15H168.02V93.6201Z" fill="#0FD5EF"/>
<path d="M168.02 40.1201H160.48V47.6601H168.02V40.1201Z" fill="#0FD5EF"/>
<path d="M168.02 0H160.48V7.54H168.02V0Z" fill="#0FD5EF"/>
<path d="M154.64 173.86H147.11V181.4H154.64V173.86Z" fill="#0FD5EF"/>
<path d="M154.64 133.74H147.11V141.27H154.64V133.74Z" fill="#0FD5EF"/>
<path d="M154.64 93.6201H147.11V101.15H154.64V93.6201Z" fill="#0FD5EF"/>
<path d="M154.64 66.8701H147.11V74.4001H154.64V66.8701Z" fill="#0FD5EF"/>
<path d="M154.64 53.5H147.11V61.03H154.64V53.5Z" fill="#0FD5EF"/>
<path d="M154.64 40.1201H147.11V47.6601H154.64V40.1201Z" fill="#0FD5EF"/>
<path d="M154.64 13.3799H147.11V20.9099H154.64V13.3799Z" fill="#0FD5EF"/>
<path d="M141.27 227.35H133.74V234.88H141.27V227.35Z" fill="#0FD5EF"/>
<path d="M141.27 200.6H133.74V208.13H141.27V200.6Z" fill="#0FD5EF"/>
<path d="M141.27 173.86H133.74V181.4H141.27V173.86Z" fill="#0FD5EF"/>
<path d="M141.27 147.11H133.74V154.65H141.27V147.11Z" fill="#0FD5EF"/>
<path d="M127.9 227.35H120.36V234.88H127.9V227.35Z" fill="#0FD5EF"/>
<path d="M127.9 200.6H120.36V208.13H127.9V200.6Z" fill="#0FD5EF"/>
<path d="M127.9 173.86H120.36V181.4H127.9V173.86Z" fill="#0FD5EF"/>
<path d="M127.9 147.11H120.36V154.65H127.9V147.11Z" fill="#0FD5EF"/>
<path d="M127.9 93.6201H120.36V101.15H127.9V93.6201Z" fill="#0FD5EF"/>
<path d="M127.9 53.5H120.36V61.03H127.9V53.5Z" fill="#0FD5EF"/>
<path d="M127.9 40.1201H120.36V47.6601H127.9V40.1201Z" fill="#0FD5EF"/>
<path d="M127.9 0H120.36V7.54H127.9V0Z" fill="#0FD5EF"/>
<path d="M114.52 227.35H106.99V234.88H114.52V227.35Z" fill="#0FD5EF"/>
<path d="M114.52 200.6H106.99V208.13H114.52V200.6Z" fill="#0FD5EF"/>
<path d="M114.52 173.86H106.99V181.4H114.52V173.86Z" fill="#0FD5EF"/>
<path d="M114.52 147.11H106.99V154.65H114.52V147.11Z" fill="#0FD5EF"/>
<path d="M114.52 133.74H106.99V141.27H114.52V133.74Z" fill="#0FD5EF"/>
<path d="M114.52 93.6201H106.99V101.15H114.52V93.6201Z" fill="#0FD5EF"/>
<path d="M114.52 66.8701H106.99V74.4001H114.52V66.8701Z" fill="#0FD5EF"/>
<path d="M114.52 40.1201H106.99V47.6601H114.52V40.1201Z" fill="#0FD5EF"/>
<path d="M114.52 13.3799H106.99V20.9099H114.52V13.3799Z" fill="#0FD5EF"/>
<path d="M101.15 240.72H93.61V248.25H101.15V240.72Z" fill="#0FD5EF"/>
<path d="M101.15 227.35H93.61V234.88H101.15V227.35Z" fill="#0FD5EF"/>
<path d="M101.15 213.98H93.61V221.52H101.15V213.98Z" fill="#0FD5EF"/>
<path d="M101.15 200.6H93.61V208.13H101.15V200.6Z" fill="#0FD5EF"/>
<path d="M101.15 160.48H93.61V168.01H101.15V160.48Z" fill="#0FD5EF"/>
<path d="M101.15 66.8701H93.61V74.4001H101.15V66.8701Z" fill="#0FD5EF"/>
<path d="M101.15 40.1201H93.61V47.6601H101.15V40.1201Z" fill="#0FD5EF"/>
<path d="M87.77 160.48H80.24V168.01H87.77V160.48Z" fill="#0FD5EF"/>
<path d="M87.77 40.1201H80.24V47.6601H87.77V40.1201Z" fill="#0FD5EF"/>
<path d="M87.77 0H80.24V7.54H87.77V0Z" fill="#0FD5EF"/>
<path d="M74.4 240.72H66.87V248.25H74.4V240.72Z" fill="#0FD5EF"/>
<path d="M74.4 227.35H66.87V234.88H74.4V227.35Z" fill="#0FD5EF"/>
<path d="M74.4 213.98H66.87V221.52H74.4V213.98Z" fill="#0FD5EF"/>
<path d="M74.4 200.6H66.87V208.13H74.4V200.6Z" fill="#0FD5EF"/>
<path d="M74.4 147.11H66.87V154.65H74.4V147.11Z" fill="#0FD5EF"/>
<path d="M74.4 133.74H66.87V141.27H74.4V133.74Z" fill="#0FD5EF"/>
<path d="M74.4 120.37H66.87V127.9H74.4V120.37Z" fill="#0FD5EF"/>
<path d="M74.4 66.8701H66.87V74.4001H74.4V66.8701Z" fill="#0FD5EF"/>
<path d="M74.4 53.5H66.87V61.03H74.4V53.5Z" fill="#0FD5EF"/>
<path d="M74.4 40.1201H66.87V47.6601H74.4V40.1201Z" fill="#0FD5EF"/>
<path d="M74.4 13.3799H66.87V20.9099H74.4V13.3799Z" fill="#0FD5EF"/>
<path d="M61.03 240.72H53.49V248.25H61.03V240.72Z" fill="#0FD5EF"/>
<path d="M61.03 106.99H53.49V114.53H61.03V106.99Z" fill="#0FD5EF"/>
<path d="M61.03 26.75H53.49V34.28H61.03V26.75Z" fill="#0FD5EF"/>
<path d="M61.03 0H53.49V7.54H61.03V0Z" fill="#0FD5EF"/>
<path d="M47.65 240.72H40.12V248.25H47.65V240.72Z" fill="#0FD5EF"/>
<path d="M47.65 227.35H40.12V234.88H47.65V227.35Z" fill="#0FD5EF"/>
<path d="M47.65 213.98H40.12V221.52H47.65V213.98Z" fill="#0FD5EF"/>
<path d="M47.65 120.37H40.12V127.9H47.65V120.37Z" fill="#0FD5EF"/>
<path d="M47.65 80.2402H40.12V87.7802H47.65V80.2402Z" fill="#0FD5EF"/>
<path d="M47.65 66.8701H40.12V74.4001H47.65V66.8701Z" fill="#0FD5EF"/>
<path d="M47.65 26.75H40.12V34.28H47.65V26.75Z" fill="#0FD5EF"/>
<path d="M47.65 0H40.12V7.54H47.65V0Z" fill="#0FD5EF"/>
<path d="M34.28 213.98H26.75V221.52H34.28V213.98Z" fill="#0FD5EF"/>
<path d="M34.28 120.37H26.75V127.9H34.28V120.37Z" fill="#0FD5EF"/>
<path d="M34.28 40.1201H26.75V47.6601H34.28V40.1201Z" fill="#0FD5EF"/>
<path d="M34.28 0H26.75V7.54H34.28V0Z" fill="#0FD5EF"/>
<path d="M20.91 240.72H13.37V248.25H20.91V240.72Z" fill="#0FD5EF"/>
<path d="M20.91 227.35H13.37V234.88H20.91V227.35Z" fill="#0FD5EF"/>
<path d="M20.91 213.98H13.37V221.52H20.91V213.98Z" fill="#0FD5EF"/>
<path d="M20.91 200.6H13.37V208.13H20.91V200.6Z" fill="#0FD5EF"/>
<path d="M20.91 173.86H13.37V181.4H20.91V173.86Z" fill="#0FD5EF"/>
<path d="M20.91 160.48H13.37V168.01H20.91V160.48Z" fill="#0FD5EF"/>
<path d="M20.91 147.11H13.37V154.65H20.91V147.11Z" fill="#0FD5EF"/>
<path d="M20.91 133.74H13.37V141.27H20.91V133.74Z" fill="#0FD5EF"/>
<path d="M20.91 106.99H13.37V114.53H20.91V106.99Z" fill="#0FD5EF"/>
<path d="M20.91 93.6201H13.37V101.15H20.91V93.6201Z" fill="#0FD5EF"/>
<path d="M20.91 53.5H13.37V61.03H20.91V53.5Z" fill="#0FD5EF"/>
<path d="M20.91 26.75H13.37V34.28H20.91V26.75Z" fill="#0FD5EF"/>
<path d="M20.91 13.3799H13.37V20.9099H20.91V13.3799Z" fill="#0FD5EF"/>
<path d="M20.91 0H13.37V7.54H20.91V0Z" fill="#0FD5EF"/>
<path d="M7.53 80.2402H0V87.7802H7.53V80.2402Z" fill="#0FD5EF"/>
<path d="M7.53 66.8701H0V74.4001H7.53V66.8701Z" fill="#0FD5EF"/>
</g>
<defs>
<clipPath id="clip0_5_97">
<rect width="248.26" height="248.26" fill="white"/>
</clipPath>
</defs>
</svg>
