<svg width="499" height="324" viewBox="0 0 499 324" fill="none" xmlns="http://www.w3.org/2000/svg">
<g clip-path="url(#clip0_5_266)">
<path d="M4.38 272.81L15.37 259.84H14.67V256.84H17.91L28.9 243.87H28.2V240.87H31.44L42.43 227.9C42.2 227.9 41.96 227.9 41.73 227.9V224.9C42.81 224.9 43.91 224.88 45 224.87L55.96 211.94H55.26V208.94H58.5L69.49 195.97C69.26 195.97 69.02 195.97 68.79 195.97V192.97C69.87 192.97 70.96 192.96 72.05 192.95L83.02 180C82.79 180 82.56 180 82.32 180V177C83.41 177 84.49 176.99 85.57 176.98L96.5 164.08C96.24 164.06 95.99 164.04 95.73 164.02L95.97 161.03C96.95 161.11 97.93 161.17 98.9 161.25L110.07 148.06H109.38V145.06H112.62L123.61 132.09H122.91V130.59L121.77 129.62L0 273.34L1.14 274.31V272.81H4.38Z" fill="#0FD5EF"/>
<path d="M71.67 226.99H71.42L61.48 240.87H65.17L75.24 226.83C74.05 226.88 72.86 226.94 71.68 226.99H71.67Z" fill="#0FD5EF"/>
<path d="M133.85 145.08L143.15 132.11H139.45L130.16 145.08H133.85Z" fill="#0FD5EF"/>
<path d="M99.99 192.3L108.89 179.88C107.66 179.88 106.44 179.87 105.2 179.88L96.25 192.37C97.49 192.34 98.74 192.32 99.99 192.31V192.3Z" fill="#0FD5EF"/>
<path d="M115.52 165.49L107.36 176.87C108.59 176.87 109.81 176.88 111.04 176.89L119.05 165.71C117.87 165.63 116.7 165.56 115.52 165.48V165.49Z" fill="#0FD5EF"/>
<path d="M128.01 148.08L117.58 162.62C118.76 162.7 119.93 162.77 121.11 162.85L131.7 148.08H128.01Z" fill="#0FD5EF"/>
<path d="M88.06 208.94L97.82 195.33C96.57 195.35 95.32 195.38 94.07 195.41L84.37 208.94H88.06Z" fill="#0FD5EF"/>
<path d="M47.88 259.84L38.58 272.81H42.27L51.57 259.84H47.88Z" fill="#0FD5EF"/>
<path d="M59.32 243.87L50.03 256.84H53.72L63.01 243.87H59.32Z" fill="#0FD5EF"/>
<path d="M82.22 211.94L73.65 223.9C74.92 223.84 76.19 223.79 77.46 223.73L85.91 211.94H82.22Z" fill="#0FD5EF"/>
<path d="M93.67 243.87L86.06 256.84H89.54L97.15 243.87H93.67Z" fill="#0FD5EF"/>
<path d="M104.14 226.01L95.42 240.87H98.9L107.61 226.02C106.46 226.01 105.3 226.01 104.14 226.01Z" fill="#0FD5EF"/>
<path d="M117.38 209.38L125.06 196.29C123.98 196.2 122.88 196.1 121.75 196L114.05 209.13C115.18 209.2 116.3 209.28 117.38 209.38Z" fill="#0FD5EF"/>
<path d="M112.34 212.05L105.9 223.02C107.06 223.02 108.21 223.03 109.36 223.05L115.7 212.25C114.6 212.17 113.48 212.1 112.34 212.05Z" fill="#0FD5EF"/>
<path d="M149.86 148.08L140.5 164.03C141.62 164.09 142.75 164.15 143.87 164.21L153.33 148.08H149.85H149.86Z" fill="#0FD5EF"/>
<path d="M155.1 145.08L162.71 132.11H159.23L151.62 145.08H155.1Z" fill="#0FD5EF"/>
<path d="M138.8 166.94L132.38 177.89C133.47 177.99 134.57 178.11 135.66 178.23L142.17 167.13C141.05 167.07 139.92 167.01 138.8 166.95V166.94Z" fill="#0FD5EF"/>
<path d="M84.3 259.84L76.7 272.81H80.17L87.78 259.84H84.3Z" fill="#0FD5EF"/>
<path d="M126.74 193.43L133.99 181.07C132.89 180.96 131.79 180.85 130.69 180.76L123.42 193.15C124.55 193.25 125.65 193.34 126.73 193.44L126.74 193.43Z" fill="#0FD5EF"/>
<path d="M144.21 218.08C145.05 218.6 145.88 219.16 146.71 219.73C147.71 218.25 148.72 216.76 149.76 215.28C152.55 211.31 154.49 207.03 156 202.63C155.1 202.15 154.19 201.72 153.28 201.33C151.83 205.63 149.99 209.74 147.3 213.56C146.24 215.07 145.21 216.58 144.2 218.08H144.21Z" fill="#0FD5EF"/>
<path d="M154.19 198.46C155.11 198.85 156.02 199.28 156.93 199.74C158 196.2 158.85 192.61 159.68 189.06C159.89 188.15 160.11 187.24 160.33 186.32C159.37 186.02 158.41 185.73 157.45 185.46C157.22 186.44 156.99 187.41 156.76 188.37C155.95 191.81 155.15 195.19 154.19 198.45V198.46Z" fill="#0FD5EF"/>
<path d="M142.56 220.54C141.49 222.17 140.45 223.82 139.42 225.46C140.49 225.64 141.54 225.84 142.59 226.04C143.4 224.76 144.22 223.47 145.06 222.2C144.23 221.62 143.4 221.06 142.56 220.54Z" fill="#0FD5EF"/>
<path d="M128.87 243.87C126.66 248.06 124.48 252.36 122.3 256.84H125.64C127.83 252.37 130.02 248.06 132.26 243.87H128.86H128.87Z" fill="#0FD5EF"/>
<path d="M120.85 259.84C118.86 264 116.85 268.31 114.79 272.81H118.09C120.15 268.31 122.17 264 124.18 259.84H120.85Z" fill="#0FD5EF"/>
<path d="M137.71 228.24C135.2 232.37 132.8 236.56 130.47 240.87H133.89C136.15 236.75 138.46 232.74 140.89 228.78C139.83 228.59 138.78 228.4 137.71 228.24Z" fill="#0FD5EF"/>
<path d="M171.46 148.08C168.83 153.69 166.26 159.4 163.95 165.2C165.01 165.25 166.07 165.3 167.12 165.34C169.48 159.51 172.1 153.75 174.77 148.08H171.46Z" fill="#0FD5EF"/>
<path d="M172.87 145.08H176.19C176.58 144.27 176.96 143.45 177.35 142.64C178.99 139.19 180.67 135.63 182.29 132.11H178.98C177.55 135.21 176.08 138.32 174.64 141.35C174.05 142.59 173.46 143.83 172.88 145.07L172.87 145.08Z" fill="#0FD5EF"/>
<path d="M165.94 168.28C164.89 168.24 163.84 168.19 162.79 168.14C161.8 170.75 160.86 173.38 160.01 176.04C159.32 178.19 158.73 180.37 158.17 182.54C159.13 182.81 160.09 183.1 161.05 183.4C161.6 181.23 162.19 179.07 162.87 176.95C163.8 174.04 164.83 171.15 165.94 168.28Z" fill="#0FD5EF"/>
<path d="M159.2 259.84H156.11C155.72 261.42 155.35 262.98 154.99 264.47C154.22 267.7 153.54 270.54 152.86 272.81H155.98C156.6 270.63 157.21 268.05 157.9 265.17C158.31 263.46 158.74 261.67 159.19 259.85L159.2 259.84Z" fill="#0FD5EF"/>
<path d="M162.58 240.87H164.99C164.5 240.32 164.01 239.78 163.52 239.24C163.2 239.76 162.88 240.3 162.57 240.87H162.58Z" fill="#0FD5EF"/>
<path d="M161.13 243.87C159.41 247.8 158.04 252.36 156.87 256.84H159.97C161.2 252.25 162.63 247.65 164.42 243.87H161.13Z" fill="#0FD5EF"/>
<path d="M182.93 239.76L182.99 239.58C184.31 235.08 185.2 230.26 185.81 225.26C184.86 224.71 183.92 224.13 182.99 223.54C182.4 228.81 181.52 233.88 180.16 238.54C181.08 238.94 182.01 239.34 182.93 239.75V239.76Z" fill="#0FD5EF"/>
<path d="M190.62 169.2C189.61 169.17 188.59 169.13 187.58 169.09C186.91 172.18 186.32 175.29 185.87 178.44C185.26 182.66 184.94 187.36 184.71 192.34C185.7 192.71 186.68 193.07 187.66 193.44C187.89 188.18 188.21 183.24 188.84 178.87C189.31 175.59 189.92 172.38 190.62 169.2Z" fill="#0FD5EF"/>
<path d="M183.33 220.2C184.26 220.81 185.21 221.4 186.17 221.97C186.86 215.03 187.12 207.84 187.37 200.77C187.42 199.36 187.47 197.97 187.52 196.59C186.54 196.23 185.55 195.87 184.56 195.5C184.49 197.2 184.43 198.92 184.37 200.67C184.14 207.18 183.9 213.81 183.32 220.2H183.33Z" fill="#0FD5EF"/>
<path d="M193.43 148.08C191.52 153.99 189.72 160 188.26 166.12C189.28 166.15 190.3 166.2 191.33 166.23C192.81 160.14 194.62 154.14 196.59 148.08H193.43Z" fill="#0FD5EF"/>
<path d="M194.41 145.08H197.57C198.19 143.22 198.81 141.34 199.44 139.46C200.26 137.02 201.07 134.57 201.88 132.12H198.72C198.02 134.26 197.31 136.39 196.6 138.51C195.87 140.69 195.14 142.88 194.41 145.09V145.08Z" fill="#0FD5EF"/>
<path d="M196.61 243.87C195.76 248.19 194.91 252.51 194.07 256.84H197.13C197.98 252.52 198.82 248.2 199.67 243.87H196.61Z" fill="#0FD5EF"/>
<path d="M196.53 259.84H193.47C192.72 263.65 191.97 267.46 191.23 271.27L190.93 272.81H193.99L194.18 271.85C194.96 267.85 195.75 263.85 196.53 259.85V259.84Z" fill="#0FD5EF"/>
<path d="M207.83 287.1C208.44 282.94 209.27 279.74 210.14 276.39C210.19 276.2 210.24 276 210.29 275.81H207.19C206.38 278.95 205.6 281.98 204.99 285.8C205.93 286.25 206.88 286.68 207.83 287.1Z" fill="#0FD5EF"/>
<path d="M210.71 183.27C210.35 188.98 210.19 194.79 210.13 200.75C211.13 201.02 212.13 201.28 213.13 201.53C213.19 195.36 213.34 189.34 213.71 183.46C213.99 178.99 214.42 174.6 214.95 170.24C214.82 170.08 214.68 169.93 214.55 169.77C213.7 169.75 212.84 169.75 211.99 169.73C211.45 174.19 211 178.68 210.72 183.27H210.71Z" fill="#0FD5EF"/>
<path d="M210.14 218.8C210.17 223.17 210.19 227.63 210.18 232.1C211.17 232.37 212.17 232.63 213.18 232.88C213.2 228.14 213.18 223.42 213.15 218.78C213.12 213.96 213.1 209.25 213.11 204.62C212.11 204.37 211.11 204.11 210.11 203.84C210.09 208.72 210.11 213.7 210.14 218.79V218.8Z" fill="#0FD5EF"/>
<path d="M213.09 240.87C213.12 239.24 213.14 237.6 213.16 235.97C212.15 235.73 211.15 235.48 210.16 235.22C210.15 237.11 210.12 238.99 210.09 240.88H213.09V240.87Z" fill="#0FD5EF"/>
<path d="M230.85 243.87L230.01 256.84H233.01L233.86 243.87H230.85Z" fill="#0FD5EF"/>
<path d="M229.81 259.84L228.97 272.81H231.97L232.82 259.84H229.81Z" fill="#0FD5EF"/>
<path d="M236.05 295.11C236.05 288.75 236.04 282.25 235.93 275.8H232.93C233.03 282.08 233.05 288.42 233.05 294.64C234.05 294.81 235.05 294.96 236.05 295.1V295.11Z" fill="#0FD5EF"/>
<path d="M234.86 315.66C235.28 315.91 235.71 316.16 236.13 316.4C236.13 316.21 236.13 316.02 236.13 315.83C235.71 315.78 235.29 315.72 234.87 315.67L234.86 315.66Z" fill="#0FD5EF"/>
<path d="M236.09 312.77C236.05 307.89 236.05 302.96 236.05 298.14C235.05 298 234.05 297.85 233.05 297.69C233.05 302.51 233.05 307.46 233.08 312.36C234.08 312.52 235.08 312.64 236.08 312.77H236.09Z" fill="#0FD5EF"/>
<path d="M235.67 236.31C236.66 236.38 237.66 236.45 238.67 236.5C238.67 231.4 238.68 226.3 238.68 221.2C238.68 217.1 238.68 212.96 238.68 208.82C237.67 208.74 236.68 208.64 235.68 208.54C235.68 212.78 235.68 217.01 235.68 221.2C235.68 226.23 235.68 231.27 235.67 236.3V236.31Z" fill="#0FD5EF"/>
<path d="M238.69 205.81C238.7 199.01 238.73 192.17 238.79 185.33C237.78 185.07 236.78 184.76 235.8 184.43C235.73 191.48 235.71 198.53 235.69 205.54C236.69 205.64 237.68 205.74 238.69 205.82V205.81Z" fill="#0FD5EF"/>
<path d="M238.66 240.87C238.66 240.42 238.66 239.96 238.66 239.51C237.65 239.45 236.65 239.39 235.66 239.32C235.66 239.84 235.66 240.35 235.66 240.87H238.66Z" fill="#0FD5EF"/>
<path d="M265.93 312.34C266.03 307.55 266.12 302.75 266.21 297.96C265.21 298.11 264.21 298.24 263.2 298.36C263.11 303.16 263.02 307.97 262.92 312.77C263.93 312.64 264.93 312.5 265.93 312.34Z" fill="#0FD5EF"/>
<path d="M264.54 243.87C264.38 248.18 264.24 252.51 264.12 256.84H267.12C267.25 252.51 267.39 248.19 267.55 243.87H264.55H264.54Z" fill="#0FD5EF"/>
<path d="M264.03 259.84C263.91 264.17 263.81 268.49 263.71 272.81H266.71C266.81 268.49 266.91 264.17 267.03 259.84H264.03Z" fill="#0FD5EF"/>
<path d="M266.27 294.92C266.39 288.6 266.51 282.22 266.65 275.8H263.65C263.51 282.36 263.39 288.88 263.27 295.33C264.27 295.21 265.28 295.07 266.28 294.91L266.27 294.92Z" fill="#0FD5EF"/>
<path d="M262.85 316.18C263.12 316.03 263.38 315.87 263.65 315.71C263.39 315.75 263.12 315.78 262.86 315.82C262.86 315.94 262.86 316.06 262.86 316.18H262.85Z" fill="#0FD5EF"/>
<path d="M262.85 205.61C262.81 198.84 262.75 192.04 262.66 185.22C261.68 185.49 260.68 185.72 259.67 185.93C259.76 192.6 259.81 199.25 259.85 205.87C260.86 205.8 261.85 205.7 262.85 205.61Z" fill="#0FD5EF"/>
<path d="M263.01 240.87C263.01 240.39 263.01 239.91 263.01 239.43C262.02 239.49 261.02 239.54 260.01 239.58C260.01 240.01 260.01 240.44 260.01 240.87H263.01Z" fill="#0FD5EF"/>
<path d="M259.99 236.58C261 236.54 262 236.48 262.99 236.42C262.97 231.75 262.94 227.08 262.93 222.4C262.91 217.83 262.89 213.22 262.87 208.61C261.87 208.7 260.88 208.79 259.87 208.86C259.89 213.39 259.91 217.92 259.93 222.41C259.95 227.13 259.97 231.85 260 236.57L259.99 236.58Z" fill="#0FD5EF"/>
<path d="M299.29 243.87C300.19 248.42 301.02 252.65 301.84 256.84H304.9C304.08 252.64 303.25 248.42 302.35 243.87H299.29Z" fill="#0FD5EF"/>
<path d="M305.48 259.84H302.42C302.97 262.65 303.52 265.47 304.1 268.42L304.96 272.81H308.02L307.05 267.84C306.51 265.1 306 262.46 305.49 259.84H305.48Z" fill="#0FD5EF"/>
<path d="M293.21 287.12C293.37 286.93 293.53 286.74 293.69 286.55C292.85 283.14 292.14 279.58 291.53 275.81H288.49C289.18 280.14 290 284.2 290.98 288.07C291.73 287.76 292.47 287.44 293.21 287.12Z" fill="#0FD5EF"/>
<path d="M288.86 240.87C288.83 239.21 288.81 237.56 288.79 235.89C287.8 236.12 286.81 236.34 285.79 236.55C285.8 237.99 285.83 239.42 285.85 240.86H288.85L288.86 240.87Z" fill="#0FD5EF"/>
<path d="M285.83 201.78C286.83 201.54 287.83 201.3 288.83 201.04C288.77 194.98 288.61 189.07 288.25 183.27C287.96 178.69 287.52 174.19 286.98 169.73C286.84 169.73 286.7 169.73 286.56 169.73C285.83 170.62 285.06 171.48 284.26 172.32C284.68 175.99 285.03 179.69 285.26 183.45C285.63 189.41 285.79 195.52 285.84 201.78H285.83Z" fill="#0FD5EF"/>
<path d="M285.78 233.49C286.79 233.27 287.79 233.05 288.78 232.81C288.76 228.1 288.78 223.4 288.81 218.8C288.84 213.81 288.87 208.93 288.84 204.14C287.85 204.39 286.85 204.64 285.84 204.88C285.86 209.42 285.83 214.05 285.8 218.78C285.77 223.61 285.75 228.55 285.77 233.49H285.78Z" fill="#0FD5EF"/>
<path d="M339.27 256.84H342.49C342.13 255.93 341.78 255.02 341.43 254.12C340.14 250.82 338.81 247.42 337.58 243.88H334.41C335.75 247.83 337.21 251.59 338.64 255.22C338.85 255.77 339.07 256.31 339.28 256.85L339.27 256.84Z" fill="#0FD5EF"/>
<path d="M340.44 259.84C342.04 264.01 343.52 268.19 344.76 272.81H347.86C346.65 268.18 345.18 263.92 343.65 259.84H340.45H340.44Z" fill="#0FD5EF"/>
<path d="M310.69 166.12C309.23 160 307.43 153.99 305.52 148.08H302.36C304.33 154.14 306.14 160.13 307.62 166.23C308.64 166.2 309.66 166.16 310.69 166.12Z" fill="#0FD5EF"/>
<path d="M312.91 223.15C313.87 222.56 314.82 221.95 315.74 221.32C315.06 214.43 314.81 207.34 314.57 200.66C314.51 199.03 314.45 197.41 314.39 195.82C313.41 196.2 312.42 196.58 311.43 196.95C311.48 198.21 311.52 199.48 311.57 200.77C311.83 207.99 312.1 215.7 312.91 223.15Z" fill="#0FD5EF"/>
<path d="M318.85 238.71C317.58 234.36 316.71 229.62 316.11 224.69C315.19 225.28 314.26 225.86 313.31 226.42C313.94 231.13 314.82 235.69 316.08 239.91C317 239.51 317.93 239.11 318.85 238.71Z" fill="#0FD5EF"/>
<path d="M301.39 145.08H304.55C303.82 142.88 303.09 140.68 302.36 138.5C301.65 136.38 300.94 134.24 300.24 132.11H297.08C297.89 134.57 298.7 137.02 299.52 139.45C300.15 141.34 300.78 143.21 301.39 145.07V145.08Z" fill="#0FD5EF"/>
<path d="M311.31 193.8C312.3 193.43 313.28 193.04 314.26 192.66C314.03 187.56 313.7 182.75 313.08 178.44C312.63 175.29 312.04 172.17 311.37 169.09C310.36 169.12 309.34 169.16 308.33 169.19C309.03 172.37 309.64 175.59 310.11 178.87C310.75 183.34 311.07 188.4 311.31 193.8Z" fill="#0FD5EF"/>
<path d="M376.71 256.84C374.58 252.4 372.44 248.09 370.23 243.87H366.84C369.07 248.09 371.23 252.4 373.38 256.84H376.71Z" fill="#0FD5EF"/>
<path d="M359.83 225.68C358.73 223.94 357.62 222.2 356.46 220.47C355.61 221 354.78 221.54 353.95 222.11C354.87 223.48 355.76 224.86 356.64 226.24C357.7 226.04 358.76 225.86 359.83 225.68Z" fill="#0FD5EF"/>
<path d="M352.24 219.62C353.07 219.05 353.9 218.5 354.75 217.97C353.73 216.49 352.7 215.02 351.63 213.54C348.76 209.59 346.85 205.31 345.38 200.82C344.46 201.2 343.54 201.62 342.65 202.08C344.19 206.7 346.21 211.18 349.2 215.3C350.24 216.74 351.25 218.18 352.25 219.62H352.24Z" fill="#0FD5EF"/>
<path d="M374.82 259.84C376.82 264.03 378.81 268.35 380.85 272.81H384.15C382.11 268.35 380.12 264.04 378.14 259.84H374.82Z" fill="#0FD5EF"/>
<path d="M341.74 199.18C342.65 198.73 343.57 198.31 344.5 197.94C343.6 194.8 342.86 191.57 342.1 188.27C341.92 187.49 341.74 186.7 341.55 185.91C340.59 186.17 339.62 186.44 338.66 186.73C338.83 187.47 339 188.21 339.17 188.94C339.95 192.34 340.74 195.78 341.73 199.18H341.74Z" fill="#0FD5EF"/>
<path d="M368.64 240.87C366.38 236.66 364.03 232.53 361.54 228.45C360.47 228.61 359.41 228.79 358.35 228.97C360.76 232.88 363.04 236.84 365.23 240.87H368.64Z" fill="#0FD5EF"/>
<path d="M322.77 145.08H326.09C325.52 143.87 324.94 142.67 324.37 141.47C322.91 138.4 321.42 135.25 319.97 132.12H316.66C318.29 135.68 320 139.27 321.66 142.76C322.03 143.53 322.4 144.31 322.76 145.09L322.77 145.08Z" fill="#0FD5EF"/>
<path d="M335.02 165.19C332.71 159.39 330.14 153.69 327.5 148.07H324.19C326.86 153.74 329.49 159.49 331.85 165.33C332.91 165.29 333.97 165.24 335.02 165.19Z" fill="#0FD5EF"/>
<path d="M337.96 183.81C338.92 183.53 339.89 183.25 340.85 182.99C340.28 180.66 339.66 178.33 338.94 176.04C338.1 173.39 337.16 170.76 336.17 168.14C335.12 168.19 334.07 168.23 333.02 168.28C334.13 171.15 335.15 174.04 336.07 176.95C336.78 179.19 337.39 181.5 337.95 183.81H337.96Z" fill="#0FD5EF"/>
<path d="M411.17 259.84L418.78 272.81H422.26L414.65 259.84H411.17Z" fill="#0FD5EF"/>
<path d="M412.89 256.84L405.28 243.87H401.81L409.41 256.84H412.89Z" fill="#0FD5EF"/>
<path d="M393.15 223.2L386.54 211.93C386.29 211.93 386.04 211.93 385.8 211.94C384.9 211.96 384.02 212.01 383.15 212.07L389.7 223.24C390.85 223.22 392 223.2 393.15 223.19V223.2Z" fill="#0FD5EF"/>
<path d="M403.52 240.87L394.9 226.18C393.74 226.18 392.59 226.19 391.44 226.21L400.04 240.87H403.52Z" fill="#0FD5EF"/>
<path d="M384.82 208.98L377.21 196.01C376.09 196.11 374.98 196.21 373.9 196.29L381.46 209.18C382.56 209.09 383.68 209.02 384.82 208.98Z" fill="#0FD5EF"/>
<path d="M347.33 145.08L339.72 132.11H336.24L343.85 145.08H347.33Z" fill="#0FD5EF"/>
<path d="M358.45 164.03L349.09 148.08H345.61L355.07 164.21C356.19 164.15 357.32 164.09 358.44 164.03H358.45Z" fill="#0FD5EF"/>
<path d="M366.82 178.31L360.15 166.94C359.03 167 357.9 167.06 356.78 167.12L363.55 178.67C364.64 178.54 365.73 178.42 366.82 178.31Z" fill="#0FD5EF"/>
<path d="M375.52 193.14L368.5 181.17C367.41 181.27 366.31 181.39 365.22 181.51L372.21 193.42C373.29 193.33 374.4 193.24 375.53 193.14H375.52Z" fill="#0FD5EF"/>
<path d="M414.44 208.74L404.88 195.41C403.63 195.38 402.38 195.36 401.13 195.33L410.73 208.72C411.96 208.72 413.2 208.72 414.43 208.73L414.44 208.74Z" fill="#0FD5EF"/>
<path d="M437.48 240.87L427.58 227.06C426.31 227.01 425.04 226.95 423.77 226.9L433.78 240.87H437.47H437.48Z" fill="#0FD5EF"/>
<path d="M425.36 223.97L416.6 211.76C415.37 211.76 414.13 211.74 412.89 211.74L421.55 223.82C422.82 223.87 424.09 223.92 425.35 223.98L425.36 223.97Z" fill="#0FD5EF"/>
<path d="M448.93 256.84L439.63 243.87H435.94L445.23 256.84H448.93Z" fill="#0FD5EF"/>
<path d="M391.72 177.05L383.44 165.5C382.26 165.58 381.09 165.65 379.91 165.73L388.08 177.12C389.29 177.09 390.51 177.07 391.73 177.06L391.72 177.05Z" fill="#0FD5EF"/>
<path d="M447.38 259.84L456.68 272.81H460.37L451.08 259.84H447.38Z" fill="#0FD5EF"/>
<path d="M368.79 145.08L359.5 132.11H355.81L365.1 145.08H368.79Z" fill="#0FD5EF"/>
<path d="M381.37 162.62L370.94 148.07H367.25L377.84 162.84C379.02 162.76 380.19 162.69 381.37 162.61V162.62Z" fill="#0FD5EF"/>
<path d="M402.7 192.36L393.85 180.02C392.63 180.03 391.41 180.05 390.19 180.07L398.96 192.3C400.21 192.31 401.45 192.34 402.7 192.36Z" fill="#0FD5EF"/>
<path d="M377.19 129.64L376.05 130.61V132.11H375.35L386.34 145.08H389.58V148.08H388.88L400.05 161.27C401.03 161.19 402.01 161.13 402.98 161.05L403.22 164.04C402.96 164.06 402.71 164.08 402.45 164.1L413.39 177.01C414.47 177.01 415.54 177.01 416.63 177.01V180.01C416.4 180.01 416.17 180.01 415.93 180.01L426.9 192.95C427.99 192.96 429.08 192.97 430.16 192.97V195.97C429.93 195.97 429.69 195.97 429.46 195.97L440.44 208.93C441.52 208.93 442.61 208.93 443.68 208.93V211.93C443.45 211.93 443.22 211.93 442.98 211.93L453.94 224.87C455.03 224.88 456.12 224.9 457.2 224.9V227.9C456.97 227.9 456.73 227.9 456.5 227.9L467.49 240.87H470.73V243.87H470.03L481.02 256.84H484.26V259.84H483.56L494.55 272.81H497.79V274.31L498.93 273.34L377.17 129.64H377.19Z" fill="#0FD5EF"/>
<path d="M297.08 132.11H376.05V129.11H295.72C295.96 130.1 296.17 131.1 296.35 132.11H297.07H297.08Z" fill="#0FD5EF"/>
<path d="M123.6 132.11H204.71C204.89 131.1 205.1 130.1 205.34 129.11H122.9V132.11H123.6Z" fill="#0FD5EF"/>
<path d="M131.7 148.08H204.65C204.48 147.09 204.33 146.09 204.23 145.08H109.37V148.08H131.69H131.7Z" fill="#0FD5EF"/>
<path d="M365.1 145.08H296.84C296.74 146.09 296.59 147.09 296.42 148.08H389.58V145.08H365.1Z" fill="#0FD5EF"/>
<path d="M377.84 162.85C371.38 163.28 364.92 163.67 358.44 164.03C357.32 164.09 356.19 164.15 355.07 164.21C348.39 164.57 341.71 164.9 335.02 165.19C333.96 165.24 332.9 165.29 331.85 165.33C324.8 165.63 317.75 165.89 310.69 166.11C309.67 166.14 308.65 166.19 307.62 166.22C301.35 166.41 295.09 166.56 288.83 166.69C288.11 167.74 287.35 168.75 286.54 169.73C286.68 169.73 286.82 169.73 286.96 169.73C294.08 169.59 301.2 169.41 308.32 169.2C309.33 169.17 310.35 169.13 311.36 169.1C318.58 168.87 325.8 168.6 333.01 168.29C334.06 168.25 335.11 168.2 336.16 168.15C343.04 167.84 349.9 167.5 356.77 167.13C357.89 167.07 359.02 167.01 360.14 166.95C366.73 166.58 373.32 166.17 379.89 165.73C381.07 165.65 382.24 165.58 383.42 165.5C389.77 165.06 396.11 164.6 402.44 164.1C402.7 164.08 402.95 164.06 403.21 164.04L402.97 161.05C401.99 161.13 401.01 161.19 400.04 161.27C393.82 161.75 387.59 162.2 381.36 162.63C380.18 162.71 379.01 162.78 377.83 162.86L377.84 162.85Z" fill="#0FD5EF"/>
<path d="M119.05 165.72C125.63 166.16 132.21 166.56 138.8 166.94C139.92 167 141.05 167.06 142.17 167.12C149.04 167.5 155.92 167.84 162.8 168.14C163.85 168.19 164.9 168.24 165.95 168.28C173.16 168.59 180.37 168.86 187.59 169.09C188.6 169.12 189.62 169.17 190.63 169.2C197.75 169.42 204.87 169.59 211.99 169.73C212.84 169.75 213.7 169.75 214.55 169.77C213.75 168.79 212.99 167.78 212.27 166.74C205.3 166.61 198.32 166.44 191.34 166.23C190.32 166.2 189.3 166.16 188.27 166.12C181.22 165.9 174.18 165.63 167.13 165.34C166.07 165.3 165.01 165.25 163.96 165.2C157.27 164.91 150.58 164.58 143.89 164.22C142.77 164.16 141.64 164.1 140.52 164.04C134.05 163.68 127.58 163.29 121.12 162.86C119.94 162.78 118.77 162.71 117.59 162.63C111.35 162.21 105.12 161.75 98.91 161.27C97.93 161.19 96.95 161.13 95.98 161.05L95.74 164.04C96 164.06 96.25 164.08 96.51 164.1C102.84 164.6 109.18 165.06 115.53 165.5C116.71 165.58 117.88 165.65 119.06 165.73L119.05 165.72Z" fill="#0FD5EF"/>
<path d="M391.72 177.05C390.5 177.07 389.28 177.09 388.07 177.11C380.86 177.27 373.82 177.6 366.82 178.31C365.73 178.42 364.64 178.54 363.55 178.67C355.98 179.56 348.46 180.93 340.85 182.99C339.89 183.25 338.93 183.52 337.96 183.81C333.17 185.22 328.34 186.91 323.43 188.96C320.42 190.22 317.36 191.46 314.26 192.67C313.28 193.05 312.3 193.43 311.31 193.81C304.13 196.52 296.66 199.01 288.83 201.05C287.84 201.31 286.84 201.55 285.83 201.79C278.52 203.55 270.87 204.89 262.85 205.61C261.85 205.7 260.86 205.8 259.85 205.87C256.46 206.11 253.01 206.24 249.48 206.24C245.95 206.24 242.22 206.09 238.69 205.82C237.68 205.74 236.69 205.64 235.69 205.54C227.97 204.77 220.51 203.4 213.13 201.53C212.13 201.28 211.13 201.02 210.13 200.75C202.68 198.74 195.26 196.26 187.66 193.45C186.68 193.09 185.7 192.73 184.71 192.35C179.88 190.53 174.97 188.58 169.91 186.55C166.96 185.36 164.01 184.32 161.06 183.4C160.1 183.1 159.14 182.81 158.18 182.54C150.69 180.41 143.19 179.07 135.66 178.22C134.57 178.1 133.48 177.98 132.38 177.88C125.32 177.22 118.22 176.97 111.04 176.89C109.82 176.88 108.59 176.87 107.36 176.87C102.96 176.86 98.53 176.89 94.05 176.93C91.24 176.95 88.41 176.97 85.57 176.98C84.48 176.98 83.41 177 82.32 177V180C82.55 180 82.78 180 83.02 180C86.73 180 90.42 179.97 94.08 179.94C97.82 179.91 101.53 179.87 105.22 179.87C106.45 179.87 107.68 179.87 108.91 179.87C116.26 179.91 123.51 180.12 130.71 180.74C131.81 180.83 132.91 180.94 134.01 181.05C141.88 181.87 149.69 183.23 157.48 185.45C158.44 185.72 159.4 186.01 160.36 186.31C163.18 187.19 166 188.19 168.81 189.32C174.21 191.49 179.45 193.56 184.59 195.49C185.58 195.86 186.57 196.22 187.55 196.58C195.17 199.38 202.63 201.84 210.13 203.83C211.13 204.1 212.13 204.36 213.13 204.61C220.51 206.44 227.97 207.78 235.71 208.53C236.71 208.63 237.7 208.73 238.71 208.81C242.24 209.08 245.83 209.22 249.5 209.22C253.17 209.22 256.5 209.09 259.89 208.86C260.9 208.79 261.89 208.7 262.89 208.61C270.92 207.9 278.56 206.6 285.88 204.86C286.89 204.62 287.88 204.37 288.88 204.12C296.76 202.11 304.26 199.64 311.47 196.95C312.46 196.58 313.45 196.2 314.43 195.82C317.89 194.49 321.29 193.11 324.63 191.72C329.37 189.74 334.05 188.09 338.7 186.72C339.66 186.44 340.63 186.16 341.59 185.9C349.51 183.75 357.35 182.37 365.26 181.49C366.35 181.37 367.44 181.25 368.54 181.15C375.66 180.48 382.86 180.18 390.23 180.05C391.44 180.03 392.66 180.01 393.89 180C398.98 179.95 404.16 179.96 409.47 179.97C411.62 179.97 413.79 179.97 415.98 179.98C416.21 179.98 416.44 179.98 416.68 179.98V176.98C415.59 176.98 414.52 176.98 413.44 176.98C412.12 176.98 410.79 176.98 409.48 176.98C403.43 176.96 397.54 176.95 391.76 177.03L391.72 177.05Z" fill="#0FD5EF"/>
<path d="M402.7 192.36C401.46 192.33 400.21 192.31 398.96 192.3C391.71 192.21 384.44 192.33 377.37 192.98C376.74 193.04 376.14 193.09 375.52 193.14C374.39 193.24 373.29 193.33 372.2 193.42C371.31 193.49 370.42 193.56 369.56 193.63C359.93 194.37 351.83 195 344.49 197.95C343.56 198.32 342.64 198.74 341.73 199.19C337.32 201.4 333.15 204.6 329.06 209.39C325.14 213.98 320.72 217.95 315.74 221.34C314.82 221.97 313.87 222.58 312.91 223.17C305.98 227.4 298 230.59 288.78 232.82C287.8 233.06 286.8 233.29 285.78 233.5C278.88 234.98 271.31 235.95 262.98 236.44C261.99 236.5 260.99 236.55 259.98 236.6C256.6 236.75 253.1 236.82 249.47 236.82C245.84 236.82 242.16 236.72 238.66 236.52C237.65 236.46 236.65 236.4 235.66 236.33C227.61 235.74 220.13 234.6 213.16 232.89C212.15 232.64 211.15 232.38 210.16 232.11C201.35 229.7 193.39 226.34 186.16 221.99C185.2 221.41 184.25 220.83 183.32 220.22C178.49 217.05 173.98 213.42 169.78 209.3C165.34 204.95 161.15 201.92 156.92 199.76C156.01 199.29 155.1 198.87 154.18 198.48C146.25 195.1 138 194.4 127.61 193.53C127.32 193.51 127.01 193.48 126.72 193.45C125.64 193.36 124.54 193.26 123.41 193.16C122.8 193.11 122.19 193.05 121.57 193C114.5 192.35 107.23 192.23 99.98 192.32C98.73 192.33 97.49 192.36 96.24 192.38C92.86 192.45 89.48 192.54 86.14 192.64C81.49 192.78 76.71 192.92 72.03 192.97C70.94 192.98 69.85 192.99 68.77 192.99V195.99C69 195.99 69.24 195.99 69.47 195.99C75 195.98 80.71 195.81 86.23 195.65C88.82 195.57 91.43 195.5 94.05 195.43C95.3 195.4 96.55 195.38 97.8 195.35C105.7 195.21 113.64 195.28 121.29 195.98C121.44 195.99 121.58 196.01 121.73 196.02C122.86 196.12 123.96 196.22 125.04 196.31C125.82 196.38 126.6 196.44 127.36 196.51C137.82 197.39 145.75 198.06 153.28 201.34C154.19 201.74 155.09 202.17 156 202.64C159.83 204.67 163.63 207.47 167.68 211.44C172.41 216.07 177.49 220.1 182.98 223.56C183.91 224.15 184.85 224.72 185.8 225.28C193.17 229.56 201.24 232.87 210.15 235.24C211.14 235.5 212.14 235.75 213.15 235.99C220.14 237.65 227.62 238.76 235.66 239.34C236.65 239.41 237.65 239.47 238.66 239.53C242.16 239.72 245.76 239.82 249.47 239.82C253.18 239.82 256.6 239.74 260 239.6C261.01 239.56 262.01 239.5 263 239.45C271.29 238.97 278.87 238.02 285.8 236.58C286.81 236.37 287.81 236.15 288.8 235.92C298.11 233.73 306.22 230.59 313.32 226.44C314.27 225.88 315.2 225.3 316.12 224.71C321.86 220.99 326.91 216.55 331.36 211.35C335.03 207.06 338.72 204.14 342.66 202.09C343.56 201.62 344.47 201.21 345.39 200.83C352.32 197.98 360.11 197.38 369.81 196.63C371.14 196.53 372.51 196.42 373.91 196.31C374.99 196.22 376.1 196.13 377.22 196.03C377.37 196.02 377.51 196.01 377.66 195.99C385.31 195.29 393.24 195.22 401.15 195.36C402.4 195.38 403.65 195.41 404.9 195.44C407.52 195.5 410.13 195.58 412.72 195.66C418.24 195.82 423.95 195.99 429.48 196C429.71 196 429.95 196 430.18 196V193C429.1 193 428.01 192.99 426.92 192.98C422.23 192.93 417.46 192.79 412.81 192.65C409.47 192.55 406.1 192.45 402.71 192.39L402.7 192.36Z" fill="#0FD5EF"/>
<path d="M414.44 208.74C413.21 208.74 411.97 208.74 410.74 208.73C402.42 208.69 394.02 208.72 385.72 208.95C385.42 208.95 385.12 208.98 384.82 208.99C383.68 209.03 382.56 209.1 381.46 209.19C371.05 210.08 362.5 213.13 354.75 217.97C353.91 218.5 353.07 219.05 352.24 219.62C347.74 222.72 343.48 226.44 339.25 230.7C339.33 230.67 339.41 230.64 339.49 230.62C341.51 229.94 343.56 229.32 345.62 228.76C348.33 226.3 351.08 224.09 353.93 222.12C354.76 221.55 355.59 221 356.44 220.48C364.15 215.69 372.68 212.76 383.13 212.08C384 212.02 384.88 211.98 385.78 211.95C386.03 211.95 386.28 211.95 386.52 211.94C395.26 211.71 404.11 211.7 412.87 211.75C414.11 211.75 415.34 211.76 416.58 211.77C419.18 211.79 421.79 211.81 424.36 211.84C430.46 211.9 436.77 211.95 442.97 211.96C443.2 211.96 443.44 211.96 443.67 211.96V208.96C442.59 208.96 441.51 208.96 440.43 208.96C435.06 208.94 429.65 208.9 424.39 208.85C421.09 208.82 417.76 208.79 414.42 208.77L414.44 208.74Z" fill="#0FD5EF"/>
<path d="M329.94 240.87H333.92C334.24 240.5 334.56 240.13 334.88 239.76C336.9 237.49 338.89 235.34 340.89 233.31C340.75 233.36 340.6 233.4 340.46 233.45C338.52 234.1 336.59 234.79 334.68 235.51C334 236.25 333.32 237 332.64 237.77C331.73 238.79 330.84 239.83 329.94 240.87Z" fill="#0FD5EF"/>
<path d="M293.69 286.55C293.53 286.74 293.37 286.93 293.21 287.12C293.31 287.07 293.42 287.03 293.52 286.99L294.74 289.73C292.83 290.58 290.88 291.37 288.92 292.11L288.59 292.49C283.65 298.15 276.9 305.88 269.38 311.76C269.57 311.72 269.76 311.69 269.94 311.66L270.52 314.6C268.24 315.05 265.95 315.42 263.65 315.73C263.38 315.89 263.12 316.05 262.85 316.2C258.48 318.7 253.96 320.3 249.47 320.3C244.98 320.3 240.46 318.82 236.12 316.42C235.69 316.18 235.27 315.94 234.85 315.68C232.54 315.37 230.24 314.98 227.97 314.52L228.57 311.58C228.74 311.61 228.91 311.64 229.09 311.67C221.5 305.7 214.59 297.65 208.97 290.87C206.88 290.01 204.82 289.09 202.8 288.1C203.41 288.84 204.04 289.6 204.69 290.39C215.47 303.49 231.77 323.29 249.48 323.29C265.7 323.29 280.84 305.94 290.86 294.46L292 293.16C296.12 288.45 300.32 283.33 305.61 276.54L306.05 275.82H302.36C299.15 279.92 296.34 283.4 293.7 286.56L293.69 286.55Z" fill="#0FD5EF"/>
<path d="M204.68 285.65C204.45 285.37 204.21 285.08 203.98 284.81C201.72 282.11 199.37 279.21 196.68 275.8H192.8L193.08 276.07C196.32 280.21 199.06 283.6 201.68 286.73C201.99 287.1 202.31 287.49 202.63 287.87L203.9 285.27C204.16 285.4 204.42 285.51 204.68 285.64V285.65Z" fill="#0FD5EF"/>
<path d="M157.62 233.01C157.93 233.32 158.24 233.63 158.55 233.95C160.2 235.64 161.85 237.4 163.52 239.25C164.01 239.79 164.49 240.33 164.99 240.88H168.98C167.24 238.88 165.54 236.99 163.86 235.19C161.79 234.43 159.71 233.7 157.62 233.01Z" fill="#0FD5EF"/>
<path d="M85.91 211.94H107.12C108.92 211.94 110.65 211.98 112.33 212.05C113.48 212.1 114.6 212.16 115.69 212.25C126.25 213.05 134.55 215.53 142.56 220.55C143.4 221.07 144.23 221.63 145.06 222.21C147.63 224 150.2 226.06 152.82 228.43C153.15 228.52 153.48 228.6 153.8 228.69C155.63 229.22 157.44 229.8 159.24 230.39C154.95 226.12 150.84 222.6 146.7 219.73C145.87 219.15 145.03 218.6 144.2 218.08C136.12 213.03 127.73 210.36 117.37 209.39C116.28 209.29 115.17 209.21 114.04 209.14C111.83 209.01 109.53 208.95 107.12 208.95H55.26V211.95H85.91V211.94Z" fill="#0FD5EF"/>
<path d="M425.36 223.97C424.09 223.92 422.83 223.87 421.56 223.81C412.11 223.43 402.59 223.12 393.16 223.19C392.01 223.19 390.86 223.21 389.71 223.24C379.56 223.42 369.53 224.11 359.83 225.68C358.76 225.85 357.7 226.04 356.64 226.24C352.92 226.93 349.25 227.76 345.64 228.75C343.57 229.32 341.53 229.93 339.51 230.61C339.43 230.64 339.35 230.67 339.27 230.69C332.31 233.04 325.6 235.8 318.86 238.7C317.94 239.1 317.01 239.5 316.09 239.9C315.36 240.22 314.62 240.54 313.89 240.86H321.42C325.82 238.97 330.22 237.17 334.69 235.5C336.6 234.79 338.53 234.1 340.47 233.44C340.61 233.39 340.76 233.35 340.9 233.3C346.54 231.43 352.38 230.01 358.36 228.96C359.42 228.77 360.49 228.6 361.55 228.44C371.24 226.95 381.28 226.34 391.45 226.2C392.6 226.19 393.76 226.18 394.91 226.17C404.49 226.14 414.17 226.49 423.77 226.89C425.04 226.94 426.31 227 427.58 227.05H427.71C437.75 227.48 447.24 227.87 456.52 227.89C456.75 227.89 456.99 227.89 457.22 227.89V224.89C456.14 224.89 455.04 224.87 453.96 224.86C445.54 224.78 436.92 224.44 427.84 224.06C427.02 224.03 426.19 223.99 425.37 223.96L425.36 223.97Z" fill="#0FD5EF"/>
<path d="M314.5 243.87H313.97L314.05 244.07L314.5 243.87Z" fill="#0FD5EF"/>
<path d="M71.67 226.99C72.86 226.94 74.05 226.88 75.23 226.83C84.85 226.4 94.56 226.02 104.14 226.01C105.3 226.01 106.46 226.01 107.61 226.02C117.91 226.12 128.03 226.72 137.71 228.23C138.78 228.4 139.83 228.58 140.89 228.77C145.01 229.51 149.05 230.41 152.97 231.55C154.53 232 156.07 232.49 157.62 232.99C159.71 233.67 161.79 234.4 163.86 235.17C168.59 236.91 173.28 238.84 177.97 240.86H185.47C184.62 240.48 183.77 240.11 182.93 239.74C182.01 239.33 181.08 238.93 180.16 238.53C173.24 235.53 166.33 232.71 159.25 230.37C157.45 229.77 155.64 229.2 153.81 228.67C153.49 228.58 153.15 228.5 152.83 228.41C149.49 227.47 146.07 226.69 142.6 226.03C141.55 225.83 140.49 225.63 139.43 225.45C129.75 223.85 119.64 223.19 109.37 223.04C108.22 223.02 107.06 223.02 105.91 223.01C96.49 222.97 86.94 223.31 77.47 223.72C76.2 223.78 74.93 223.83 73.66 223.89C72.96 223.92 72.25 223.95 71.55 223.98C62.29 224.4 53.5 224.77 45.01 224.86C43.92 224.87 42.82 224.89 41.74 224.89V227.89C41.97 227.89 42.21 227.89 42.44 227.89C51.7 227.87 61.29 227.45 71.43 226.99H71.68H71.67Z" fill="#0FD5EF"/>
<path d="M433.79 240.87H403.52H400.05H368.64H365.23H333.92H329.94H321.41H317.63V243.87H334.41H337.58H366.84H370.23H401.81H405.28H435.94H439.63H470.05H470.75V240.87H467.51H437.48H433.79Z" fill="#0FD5EF"/>
<path d="M63.01 243.87H93.67H97.15H128.87H132.26H161.13H164.42H196.61H199.66H230.85H233.86H264.54H267.54H299.29H302.35H313.97H314.5H317.63V240.87H313.88H288.86H285.86H263.01H260.01H238.66H235.66H213.09H210.09H185.47H177.97H168.98H164.99H162.58H133.89H130.47H98.91H95.43H65.17H61.47H31.44H28.2V243.87H28.9H59.32H63.01Z" fill="#0FD5EF"/>
<path d="M445.23 256.84H412.89H409.41H376.71H373.38H342.49H339.27H304.9H301.84H267.11H264.11H233.01H230.01H197.12H194.06H159.97H156.87H125.64H122.3H89.54H86.06H53.72H50.03H17.91H14.67V259.84H15.37H47.88H51.57H84.3H87.78H120.85H124.18H156.1H159.2H193.48H196.53H229.81H232.82H264.03H267.03H302.43H305.48H340.44H343.64H374.82H378.14H411.17H414.65H447.38H451.08H483.58H484.28V256.84H481.04H448.93H445.23Z" fill="#0FD5EF"/>
<path d="M494.57 272.81H460.37H456.68H422.26H418.78H384.16H380.86H347.85H344.75H308.02H306.78V275.81H497.81V274.31V272.81H494.57Z" fill="#0FD5EF"/>
<path d="M304.96 272.81H266.71H263.71H231.97H228.97H193.99H190.93H155.98H152.86H118.1H114.8H80.17H76.7H42.27H38.58H4.38001H1.14001V274.31V275.81H192.8H196.69H207.18H210.28H232.93H235.93H263.64H266.64H288.49H291.53H302.35H306.04H306.78V272.81H304.96Z" fill="#0FD5EF"/>
<path d="M233.05 297.69C234.05 297.85 235.05 298 236.05 298.14C240.27 298.71 244.52 299.05 248.76 299.12C249.33 299.12 249.9 299.13 250.47 299.13C254.71 299.13 258.96 298.87 263.2 298.36C264.2 298.24 265.21 298.11 266.21 297.96C273.95 296.82 281.59 294.85 288.92 292.1C290.88 291.36 292.82 290.57 294.74 289.72L293.52 286.98C293.42 287.03 293.31 287.07 293.21 287.11C292.47 287.44 291.73 287.75 290.98 288.06C283.06 291.33 274.73 293.63 266.27 294.91C265.27 295.06 264.27 295.2 263.26 295.33C258.46 295.92 253.62 296.19 248.81 296.11C244.55 296.04 240.29 295.7 236.05 295.1C235.05 294.96 234.05 294.81 233.05 294.64C224.38 293.17 215.87 290.63 207.82 287.09C206.87 286.67 205.92 286.24 204.98 285.79C204.88 285.74 204.77 285.69 204.67 285.64C204.41 285.52 204.15 285.4 203.89 285.27L202.62 287.87L202.57 287.97C202.64 288 202.71 288.04 202.78 288.07C204.81 289.06 206.87 289.98 208.95 290.84C216.68 294.03 224.79 296.33 233.04 297.69H233.05Z" fill="#0FD5EF"/>
<path d="M262.92 312.78C257.89 313.43 252.81 313.73 247.76 313.64C243.87 313.58 239.97 313.27 236.1 312.77C235.1 312.64 234.09 312.52 233.1 312.36C231.76 312.15 230.43 311.91 229.1 311.64C228.93 311.61 228.76 311.58 228.58 311.55L227.98 314.49C230.26 314.95 232.56 315.34 234.86 315.65C235.28 315.71 235.7 315.76 236.12 315.81C239.97 316.29 243.84 316.57 247.7 316.63C248.28 316.63 248.87 316.64 249.45 316.64C253.92 316.64 258.4 316.36 262.85 315.8C263.11 315.77 263.38 315.73 263.64 315.69C265.94 315.39 268.23 315.02 270.51 314.56L269.93 311.62C269.74 311.66 269.55 311.69 269.37 311.72C268.22 311.94 267.07 312.14 265.92 312.32C264.92 312.48 263.92 312.62 262.91 312.75L262.92 312.78Z" fill="#0FD5EF"/>
<path d="M203.98 140.28C203.98 141.9 204.06 143.5 204.23 145.08C204.33 146.09 204.48 147.09 204.65 148.08C205.81 154.92 208.46 161.25 212.26 166.74C212.98 167.78 213.74 168.8 214.54 169.77C214.67 169.93 214.81 170.08 214.94 170.24C220.4 176.72 227.59 181.68 235.79 184.43C236.77 184.76 237.77 185.07 238.78 185.33C242.53 186.31 246.47 186.83 250.53 186.83C253.66 186.83 256.71 186.52 259.66 185.92C260.67 185.72 261.66 185.48 262.65 185.21C271.01 182.95 278.44 178.42 284.25 172.32C285.05 171.48 285.82 170.62 286.55 169.73C287.35 168.75 288.11 167.73 288.84 166.69C292.63 161.22 295.27 154.89 296.42 148.07C296.59 147.08 296.74 146.08 296.84 145.07C297 143.49 297.09 141.89 297.09 140.27C297.09 137.48 296.83 134.76 296.36 132.1C296.18 131.09 295.97 130.09 295.73 129.1C290.71 108.81 272.36 93.71 250.54 93.71C228.72 93.71 210.37 108.8 205.35 129.1C205.11 130.09 204.9 131.09 204.72 132.1C204.25 134.75 203.99 137.48 203.99 140.27L203.98 140.28ZM250.53 96.73C274.55 96.73 294.08 116.27 294.08 140.28C294.08 164.29 274.54 183.83 250.53 183.83C226.52 183.83 206.98 164.29 206.98 140.28C206.98 116.27 226.52 96.73 250.53 96.73Z" fill="#0FD5EF"/>
<path d="M249.48 49.04C263 49.04 274 38.04 274 24.52C274 11 262.99 0 249.48 0C235.97 0 224.96 11 224.96 24.52C224.96 38.04 235.96 49.04 249.48 49.04ZM249.48 3C261.34 3 271 12.65 271 24.52C271 36.39 261.35 46.04 249.48 46.04C237.61 46.04 227.96 36.39 227.96 24.52C227.96 12.65 237.61 3 249.48 3Z" fill="#0FD5EF"/>
<path d="M161.85 105.77C175.94 105.77 187.39 94.3099 187.39 80.2299C187.39 66.1499 175.93 54.6899 161.85 54.6899C147.77 54.6899 136.31 66.1499 136.31 80.2299C136.31 94.3099 147.77 105.77 161.85 105.77ZM161.85 57.6799C174.28 57.6799 184.39 67.7899 184.39 80.2199C184.39 92.6499 174.28 102.76 161.85 102.76C149.42 102.76 139.31 92.6499 139.31 80.2199C139.31 67.7899 149.42 57.6799 161.85 57.6799Z" fill="#0FD5EF"/>
<path d="M341.1 105.77C355.19 105.77 366.64 94.3099 366.64 80.2299C366.64 66.1499 355.18 54.6899 341.1 54.6899C327.02 54.6899 315.56 66.1499 315.56 80.2299C315.56 94.3099 327.02 105.77 341.1 105.77ZM341.1 57.6799C353.53 57.6799 363.64 67.7899 363.64 80.2199C363.64 92.6499 353.53 102.76 341.1 102.76C328.67 102.76 318.56 92.6499 318.56 80.2199C318.56 67.7899 328.67 57.6799 341.1 57.6799Z" fill="#0FD5EF"/>
</g>
<defs>
<clipPath id="clip0_5_266">
<rect width="498.95" height="323.28" fill="white"/>
</clipPath>
</defs>
</svg>
