<svg width="268" height="266" viewBox="0 0 268 266" fill="none" xmlns="http://www.w3.org/2000/svg">
<g clip-path="url(#clip0_2_312)">
<path d="M69.1 122.17L93.42 127.19C93.48 126.68 93.55 126.18 93.66 125.67C93.76 125.19 93.89 124.72 94.03 124.25L69.59 119.2C69.52 120.02 69.4 120.85 69.22 121.68C69.19 121.84 69.14 122 69.1 122.16V122.17Z" fill="#0FD5EF"/>
<path d="M205.14 35.3899L216.77 23.5299L220.19 40.1299C221.18 39.9999 222.17 39.7999 223.13 39.5099L218.57 17.4099L203.09 33.1999C203.71 33.9999 204.4 34.7199 205.14 35.3999V35.3899Z" fill="#0FD5EF"/>
<path d="M96.37 127.8L111.5 130.92L122.36 119.84C121.72 119.07 121 118.37 120.21 117.75L110.5 127.65L96.98 124.86C96.83 125.33 96.71 125.8 96.61 126.28C96.5 126.79 96.43 127.29 96.38 127.79L96.37 127.8Z" fill="#0FD5EF"/>
<path d="M181.55 154.56L39.9 232.09C40.44 232.94 40.91 233.83 41.32 234.73L182.97 157.2C182.97 157.2 182.93 157.15 182.91 157.12C182.37 156.3 181.93 155.44 181.54 154.57L181.55 154.56Z" fill="#0FD5EF"/>
<path d="M124.45 117.7L203.04 37.5301C202.31 36.8501 201.61 36.1301 200.97 35.3501L122.32 115.6C123.1 116.24 123.81 116.95 124.46 117.7H124.45Z" fill="#0FD5EF"/>
<path d="M243.44 138.06C242.44 138.2 241.47 138.43 240.51 138.73L243.97 155.5L227.98 152.16C227.94 152.34 227.88 152.51 227.84 152.69C227.67 153.5 227.58 154.31 227.51 155.13L247.83 159.37L243.44 138.06Z" fill="#0FD5EF"/>
<path d="M225.03 151.54L215.39 149.53C215.33 150.03 215.26 150.52 215.16 151.01C215.06 151.5 214.92 151.98 214.78 152.46L224.55 154.5C224.63 153.69 224.74 152.88 224.9 152.07C224.94 151.89 224.98 151.71 225.03 151.54Z" fill="#0FD5EF"/>
<path d="M45.52 135.73L49.2 118.06L66.16 121.56C66.2 121.4 66.25 121.24 66.29 121.07C66.46 120.24 66.56 119.41 66.62 118.59L46.88 114.52L42.59 135.1C43.13 135.26 43.67 135.41 44.23 135.53C44.66 135.62 45.09 135.67 45.52 135.73Z" fill="#0FD5EF"/>
<path d="M27.34 222.86L44.9 138.69C44.47 138.63 44.04 138.55 43.61 138.47C43.05 138.35 42.51 138.21 41.97 138.05L24.4 222.27C24.96 222.34 25.52 222.42 26.07 222.53C26.5 222.62 26.92 222.75 27.34 222.86Z" fill="#0FD5EF"/>
<path d="M239.9 135.76C240.85 135.47 241.83 135.25 242.83 135.1L223.73 42.46C222.77 42.74 221.79 42.95 220.8 43.09L239.9 135.76Z" fill="#0FD5EF"/>
<path d="M23.55 241.03L26.73 225.79C26.31 225.67 25.89 225.55 25.46 225.46C24.9 225.34 24.34 225.26 23.79 225.2L19.29 246.78L38.69 236.16C38.29 235.25 37.82 234.36 37.27 233.52L23.55 241.03Z" fill="#0FD5EF"/>
<path d="M212.45 148.92L198.09 145.92L197.55 145.81L184.19 153.12C184.53 153.93 184.94 154.72 185.44 155.47C185.5 155.57 185.58 155.65 185.64 155.75L198.02 148.97L211.84 151.85C211.99 151.38 212.12 150.89 212.22 150.4C212.32 149.91 212.4 149.41 212.45 148.92Z" fill="#0FD5EF"/>
<path d="M39.77 231.86C36.84 227.39 32.46 224.24 27.35 222.86C26.93 222.75 26.51 222.62 26.08 222.53C25.52 222.41 24.97 222.34 24.41 222.27C19.29 221.61 14.16 222.76 9.8 225.62C4.96 228.79 1.65 233.65 0.470001 239.31C-0.709999 244.97 0.380001 250.75 3.55 255.59C6.72 260.43 11.58 263.74 17.24 264.92C18.73 265.23 20.22 265.38 21.7 265.38C25.87 265.38 29.95 264.17 33.52 261.84C38.36 258.67 41.67 253.81 42.85 248.15C43.81 243.57 43.25 238.91 41.33 234.74C40.91 233.84 40.45 232.95 39.91 232.1C39.86 232.03 39.83 231.95 39.78 231.87L39.77 231.86ZM39.91 247.53C38.89 252.41 36.04 256.6 31.87 259.32C27.7 262.04 22.72 262.99 17.85 261.97C12.97 260.95 8.79 258.1 6.06 253.93C3.33 249.76 2.39 244.78 3.41 239.91C4.43 235.03 7.28 230.84 11.45 228.12C14.52 226.11 18.04 225.07 21.63 225.07C22.35 225.07 23.08 225.12 23.8 225.21C24.36 225.28 24.92 225.35 25.47 225.47C25.9 225.56 26.32 225.68 26.74 225.8C31.07 227.02 34.78 229.71 37.27 233.51V233.53C37.84 234.38 38.3 235.27 38.7 236.17C40.28 239.72 40.73 243.65 39.92 247.53H39.91Z" fill="#0FD5EF"/>
<path d="M44.9 138.69C45.95 138.84 47 138.92 48.04 138.92C57.91 138.92 66.79 132.11 69.1 122.17C69.14 122.01 69.19 121.85 69.22 121.69C69.39 120.86 69.51 120.03 69.59 119.21C70.57 108.42 63.31 98.3399 52.45 96.0799C46.79 94.8999 41.01 95.9899 36.17 99.1599C31.33 102.33 28.02 107.19 26.84 112.85C24.52 123.98 31.23 134.92 41.97 138.05C42.51 138.21 43.05 138.35 43.61 138.47C44.04 138.56 44.47 138.63 44.9 138.69ZM29.78 113.46C30.8 108.58 33.65 104.39 37.82 101.67C40.89 99.6599 44.41 98.6199 48 98.6199C49.28 98.6199 50.57 98.7499 51.85 99.0199C61.08 100.95 67.28 109.44 66.62 118.6C66.56 119.42 66.47 120.25 66.29 121.08C66.26 121.25 66.2 121.4 66.16 121.57C63.94 130.93 54.96 137.03 45.52 135.73C45.09 135.67 44.66 135.62 44.23 135.53C43.67 135.41 43.13 135.26 42.59 135.1C33.47 132.32 27.8 122.97 29.78 113.47V113.46Z" fill="#0FD5EF"/>
<path d="M264.21 144.64C261.04 139.8 256.18 136.49 250.52 135.31C247.91 134.77 245.32 134.72 242.83 135.1C241.83 135.25 240.86 135.47 239.9 135.76C232.7 137.92 226.85 143.77 225.03 151.55C224.99 151.73 224.94 151.9 224.9 152.08C224.73 152.89 224.62 153.7 224.55 154.51C224.09 159.37 225.27 164.21 227.99 168.36C231.16 173.2 236.02 176.51 241.68 177.69C243.17 178 244.66 178.15 246.15 178.15C250.32 178.15 254.4 176.94 257.96 174.61C262.8 171.44 266.11 166.58 267.29 160.92C268.47 155.26 267.38 149.48 264.21 144.64ZM264.35 160.31C263.33 165.19 260.48 169.38 256.31 172.1C252.14 174.83 247.16 175.77 242.29 174.75C237.41 173.73 233.22 170.88 230.5 166.71C228.23 163.23 227.21 159.19 227.52 155.12C227.58 154.31 227.68 153.49 227.85 152.68C227.89 152.5 227.94 152.33 227.99 152.15C229.56 145.58 234.47 140.63 240.53 138.72C241.48 138.42 242.46 138.19 243.46 138.05C244.33 137.92 245.22 137.84 246.11 137.84C247.37 137.84 248.64 137.97 249.92 138.24C254.8 139.26 258.99 142.11 261.71 146.28C264.44 150.45 265.38 155.43 264.36 160.3L264.35 160.31Z" fill="#0FD5EF"/>
<path d="M203.04 37.5301C205.89 40.1801 209.4 42.0301 213.31 42.8401C214.8 43.1501 216.29 43.3001 217.78 43.3001C218.8 43.3001 219.81 43.2301 220.81 43.0801C221.8 42.9401 222.78 42.7301 223.74 42.4501C225.79 41.8601 227.76 40.9601 229.6 39.7601C234.44 36.5901 237.75 31.7301 238.93 26.0701C241.37 14.3801 233.84 2.89012 222.16 0.46012C210.48 -1.97988 198.98 5.55012 196.55 17.2301C195.37 22.8901 196.46 28.6701 199.63 33.5101C200.05 34.1501 200.51 34.7601 200.98 35.3501C201.62 36.1301 202.32 36.8501 203.05 37.5301H203.04ZM202.13 31.8701C199.4 27.7001 198.46 22.7201 199.48 17.8501C201.31 9.06012 209.09 3.01012 217.73 3.01012C218.99 3.01012 220.26 3.14012 221.54 3.41012C231.61 5.51012 238.09 15.4101 235.99 25.4701C234.97 30.3501 232.12 34.5401 227.95 37.2601C226.44 38.2501 224.81 39.0001 223.13 39.5101C222.17 39.8001 221.19 40.0001 220.19 40.1301C218.13 40.4001 216.02 40.3501 213.92 39.9101C210.58 39.2101 207.58 37.6401 205.14 35.3901C204.41 34.7201 203.72 33.9901 203.09 33.1901C202.75 32.7601 202.43 32.3301 202.13 31.8601V31.8701Z" fill="#0FD5EF"/>
<path d="M93.43 127.19C92.34 136.23 98.35 144.78 107.42 146.68C108.64 146.93 109.85 147.06 111.05 147.06C119.28 147.06 126.68 141.29 128.43 132.93C129.6 127.31 127.95 121.75 124.46 117.71C123.81 116.95 123.1 116.25 122.32 115.61C120.17 113.84 117.58 112.54 114.67 111.93C110.03 110.96 105.29 111.86 101.32 114.46C97.76 116.79 95.22 120.24 94.03 124.27C93.89 124.74 93.76 125.21 93.66 125.69C93.55 126.2 93.48 126.7 93.42 127.21L93.43 127.19ZM102.97 116.95C105.4 115.36 108.18 114.53 111.02 114.53C112.03 114.53 113.05 114.63 114.06 114.85C116.39 115.34 118.46 116.36 120.2 117.75C120.99 118.38 121.71 119.08 122.35 119.84C125.14 123.19 126.44 127.72 125.49 132.31C123.83 140.27 116 145.4 108.03 143.74C100.57 142.18 95.6 135.22 96.36 127.8C96.41 127.3 96.49 126.79 96.59 126.29C96.69 125.81 96.81 125.33 96.96 124.87C97.98 121.62 100.07 118.85 102.95 116.96L102.97 116.95Z" fill="#0FD5EF"/>
<path d="M215.39 149.53C215.9 145.37 214.95 141.21 212.63 137.66C210.03 133.69 206.05 130.97 201.4 130.01C196.76 129.04 192.01 129.94 188.05 132.54C184.08 135.14 181.36 139.12 180.4 143.77C179.63 147.46 180.06 151.2 181.56 154.57C181.95 155.45 182.4 156.31 182.93 157.12C182.95 157.15 182.97 157.17 182.99 157.2C185.59 161.12 189.55 163.81 194.16 164.77C195.38 165.02 196.61 165.15 197.82 165.15C201.24 165.15 204.58 164.16 207.51 162.24C211.06 159.92 213.59 156.48 214.79 152.46C214.93 151.98 215.06 151.5 215.17 151.01C215.27 150.52 215.34 150.02 215.4 149.53H215.39ZM205.86 159.73C202.56 161.89 198.62 162.64 194.76 161.83C191.01 161.05 187.79 158.89 185.63 155.75C185.57 155.66 185.49 155.57 185.43 155.47C184.94 154.72 184.53 153.93 184.18 153.12C183.02 150.38 182.7 147.35 183.33 144.38C184.13 140.52 186.39 137.21 189.69 135.05C192.12 133.46 194.9 132.63 197.74 132.63C198.75 132.63 199.77 132.73 200.78 132.95C204.64 133.75 207.95 136.01 210.11 139.31C211.99 142.19 212.8 145.55 212.44 148.92C212.39 149.42 212.31 149.91 212.21 150.4C212.11 150.89 211.98 151.38 211.83 151.85C210.81 155.08 208.73 157.85 205.85 159.73H205.86Z" fill="#0FD5EF"/>
</g>
<defs>
<clipPath id="clip0_2_312">
<rect width="267.75" height="265.38" fill="white"/>
</clipPath>
</defs>
</svg>
