<svg width="306" height="294" viewBox="0 0 306 294" fill="none" xmlns="http://www.w3.org/2000/svg">
<g clip-path="url(#clip0_5_394)">
<path d="M43.75 157.68C43.75 146.16 45.28 135 48.12 124.37C46.45 125.36 44.81 126.4 43.21 127.49C40.95 137.19 39.75 147.3 39.75 157.68C39.75 214.8 75.98 263.61 126.66 282.36C128.45 281.62 130.21 280.82 131.93 279.97C80.75 262.89 43.75 214.53 43.75 157.68Z" fill="#0FD5EF"/>
<path d="M234.29 40C233.93 41.31 233.49 42.59 232.96 43.82C273.7 65.5 301.5 108.4 301.5 157.67C301.5 228.73 243.69 286.55 172.62 286.55C160.4 286.55 148.57 284.84 137.35 281.64C135.67 282.56 133.96 283.44 132.21 284.26C144.96 288.34 158.53 290.55 172.61 290.55C245.88 290.55 305.49 230.94 305.49 157.67C305.49 106.64 276.57 62.25 234.27 40H234.29Z" fill="#0FD5EF"/>
<path d="M172.46 28.8C172.58 27.44 172.78 26.11 173.07 24.8C172.92 24.8 172.78 24.8 172.63 24.8C111.8 24.8 60.39 65.89 44.69 121.77C46.33 120.76 48.01 119.8 49.72 118.89C66.2 66.77 114.98 28.87 172.46 28.8Z" fill="#0FD5EF"/>
<path d="M102.03 210.9C101.08 211.84 99.99 212.63 98.8 213.26C114.5 234.06 138.78 248.04 166.33 249.9C167.18 248.63 168 247.34 168.79 246.03C141.55 244.86 117.46 231.32 102.02 210.9H102.03Z" fill="#0FD5EF"/>
<path d="M85.71 189.2C86.86 188.55 88.12 188.06 89.45 187.77C86.04 178.37 84.18 168.24 84.18 157.68C84.18 141.07 88.79 125.52 96.78 112.23C95.51 112.18 94.24 112.14 92.95 112.14C92.7 112.14 92.44 112.14 92.19 112.14C84.55 125.59 80.18 141.13 80.18 157.67C80.18 168.73 82.14 179.35 85.72 189.19L85.71 189.2Z" fill="#0FD5EF"/>
<path d="M265.08 157.68C265.08 106.7 223.61 65.23 172.63 65.23C139.86 65.23 111.02 82.37 94.59 108.16C96.15 108.19 97.7 108.25 99.24 108.36C115.14 84.77 142.1 69.23 172.63 69.23C221.4 69.23 261.08 108.91 261.08 157.68C261.08 206.45 221.81 245.71 173.39 246.12C172.62 247.47 171.82 248.8 170.99 250.11C171.54 250.11 172.08 250.13 172.63 250.13C223.61 250.13 265.08 208.66 265.08 157.68Z" fill="#0FD5EF"/>
<path d="M170.99 250.1C171.82 248.79 172.62 247.46 173.39 246.11C181.03 232.66 185.4 217.12 185.4 200.58C185.4 190.33 183.72 180.47 180.63 171.25C179.48 171.93 178.25 172.47 176.94 172.84C179.83 181.57 181.4 190.9 181.4 200.59C181.4 217.2 176.79 232.75 168.8 246.04C168.01 247.35 167.19 248.64 166.34 249.91C157.72 262.69 145.86 273.1 131.94 279.97C130.21 280.82 128.45 281.62 126.67 282.36C116.27 286.66 104.89 289.04 92.96 289.04C44.19 289.04 4.51 249.36 4.51 200.59C4.51 170.25 19.87 143.43 43.22 127.49C44.82 126.4 46.46 125.36 48.13 124.37C61.08 116.73 76.13 112.29 92.2 112.15C92.45 112.15 92.7 112.15 92.96 112.15C94.24 112.15 95.52 112.18 96.79 112.24C123.32 113.38 146.85 126.25 162.33 145.78C163.34 144.9 164.46 144.16 165.67 143.56C149.94 123.56 126.16 110.19 99.25 108.37C97.71 108.27 96.16 108.2 94.6 108.17C94.05 108.17 93.51 108.15 92.96 108.15C77.35 108.15 62.64 112.04 49.73 118.9C48.02 119.81 46.34 120.77 44.7 121.78C18.2 138.04 0.5 167.28 0.5 200.58C0.5 251.56 41.97 293.03 92.95 293.03C106.98 293.03 120.3 289.88 132.22 284.26C133.96 283.44 135.68 282.57 137.36 281.64C151.04 274.11 162.62 263.23 170.99 250.1Z" fill="#0FD5EF"/>
<path d="M188.4 157.68C188.4 148.98 181.32 141.9 172.62 141.9C170.12 141.9 167.76 142.5 165.65 143.54C164.44 144.14 163.32 144.88 162.31 145.76C158.97 148.66 156.85 152.92 156.85 157.67C156.85 166.37 163.93 173.45 172.63 173.45C174.13 173.45 175.57 173.23 176.94 172.84C178.25 172.47 179.48 171.93 180.63 171.25C185.28 168.5 188.41 163.45 188.41 157.68H188.4ZM179.24 167.42C178.14 168.17 176.91 168.72 175.59 169.07C174.64 169.32 173.65 169.46 172.63 169.46C166.14 169.46 160.85 164.18 160.85 157.68C160.85 154.23 162.35 151.13 164.73 148.97C165.72 148.07 166.85 147.33 168.1 146.81C169.49 146.23 171.02 145.9 172.62 145.9C179.11 145.9 184.4 151.18 184.4 157.68C184.4 161.72 182.35 165.3 179.24 167.42Z" fill="#0FD5EF"/>
<path d="M172.33 31.56C172.33 48.96 186.49 63.12 203.89 63.12C216.94 63.12 228.17 55.16 232.96 43.83C233.48 42.59 233.92 41.32 234.29 40.01C235.04 37.32 235.45 34.49 235.45 31.57C235.45 14.17 221.29 0.0100098 203.89 0.0100098C188.81 0.0100098 176.17 10.65 173.07 24.81C172.78 26.11 172.58 27.45 172.46 28.81C172.38 29.72 172.33 30.64 172.33 31.57V31.56ZM203.89 4.00001C219.08 4.00001 231.45 16.36 231.45 31.56C231.45 33.83 231.17 36.04 230.65 38.15C230.32 39.47 229.9 40.75 229.39 41.99C225.27 52.02 215.39 59.11 203.89 59.11C188.7 59.11 176.33 46.75 176.33 31.55C176.33 30.64 176.38 29.74 176.46 28.85C176.59 27.49 176.83 26.17 177.15 24.87C180.14 12.89 190.99 3.99001 203.88 3.99001L203.89 4.00001Z" fill="#0FD5EF"/>
<path d="M78.72 201.14C78.72 208.7 84.87 214.85 92.43 214.85C94.73 214.85 96.9 214.27 98.8 213.27C99.99 212.64 101.08 211.85 102.03 210.91C104.56 208.42 106.14 204.96 106.14 201.14C106.14 193.58 99.99 187.43 92.43 187.43C91.41 187.43 90.41 187.55 89.45 187.77C88.12 188.07 86.87 188.55 85.71 189.2C81.54 191.55 78.72 196.02 78.72 201.14ZM92.43 191.43C97.78 191.43 102.14 195.79 102.14 201.14C102.14 203.62 101.19 205.89 99.65 207.6C98.76 208.6 97.66 209.41 96.43 209.97C95.21 210.53 93.85 210.84 92.43 210.84C87.08 210.84 82.72 206.48 82.72 201.13C82.72 197.71 84.5 194.7 87.19 192.97C88.3 192.25 89.57 191.76 90.93 191.55C91.42 191.47 91.92 191.42 92.43 191.42V191.43Z" fill="#0FD5EF"/>
</g>
<defs>
<clipPath id="clip0_5_394">
<rect width="305" height="293.03" fill="white" transform="translate(0.5)"/>
</clipPath>
</defs>
</svg>
