<svg width="406" height="98" viewBox="0 0 406 98" fill="none" xmlns="http://www.w3.org/2000/svg">
<path d="M98.3564 47.9307H84.2451V45.9551H98.3564V47.9307ZM113.929 43H101.577V19.1934H104.366V40.4766H113.929V43ZM128.92 43H126.197V40.7422H126.131C125.555 41.5944 124.825 42.2529 123.939 42.7178C123.065 43.1715 122.097 43.3984 121.034 43.3984C119.341 43.3984 118.013 42.9447 117.05 42.0371C116.098 41.1296 115.622 39.9951 115.622 38.6338C115.622 37.04 116.12 35.806 117.116 34.9316C118.112 34.0462 119.507 33.4984 121.3 33.2881L126.197 32.7236V31.6445C126.197 30.416 125.876 29.4974 125.234 28.8887C124.604 28.2689 123.735 27.959 122.628 27.959C121.576 27.959 120.708 28.1969 120.021 28.6729C119.335 29.1377 118.81 29.7907 118.444 30.6318L116.07 29.6523C116.624 28.3685 117.476 27.3724 118.627 26.6641C119.789 25.9557 121.173 25.6016 122.777 25.6016C124.758 25.6016 126.275 26.1328 127.326 27.1953C128.389 28.2467 128.92 29.7243 128.92 31.6279V43ZM126.197 36.0938V34.9316L121.482 35.4629C120.431 35.5846 119.656 35.889 119.158 36.376C118.66 36.8519 118.411 37.4883 118.411 38.2852C118.411 39.1595 118.699 39.8623 119.274 40.3936C119.85 40.9137 120.603 41.1738 121.532 41.1738C122.927 41.1738 124.05 40.6979 124.902 39.7461C125.766 38.7832 126.197 37.5658 126.197 36.0938ZM147.464 43H144.741V40.5762H144.675C144.11 41.4505 143.363 42.1423 142.434 42.6514C141.515 43.1494 140.513 43.3984 139.429 43.3984C137.425 43.3984 135.909 42.8174 134.88 41.6553C133.862 40.4932 133.353 38.7389 133.353 36.3926V26H136.059V36.0938C136.059 37.8424 136.368 39.1042 136.988 39.8789C137.608 40.6536 138.61 41.041 139.993 41.041C141.399 41.041 142.539 40.5374 143.413 39.5303C144.299 38.512 144.741 37.2393 144.741 35.7119V26H147.464V43ZM166.755 43H164.032V32.9062C164.032 31.235 163.711 29.9954 163.069 29.1875C162.427 28.3685 161.47 27.959 160.197 27.959C158.758 27.959 157.591 28.4681 156.694 29.4863C155.809 30.4935 155.366 31.7663 155.366 33.3047V43H152.644V26H155.366V28.4238H155.433C156.075 27.4831 156.86 26.7803 157.79 26.3154C158.72 25.8395 159.793 25.6016 161.011 25.6016C162.87 25.6016 164.292 26.2048 165.277 27.4111C166.262 28.6064 166.755 30.3385 166.755 32.6074V43ZM185.382 40.4434C184.629 41.4616 183.711 42.2087 182.626 42.6846C181.541 43.1494 180.379 43.3818 179.14 43.3818C176.384 43.3818 174.237 42.5905 172.698 41.0078C171.171 39.4251 170.407 37.3278 170.407 34.7158C170.407 31.8936 171.199 29.6689 172.781 28.042C174.364 26.415 176.417 25.6016 178.94 25.6016C180.257 25.6016 181.469 25.8506 182.576 26.3486C183.683 26.8356 184.613 27.5771 185.365 28.5732L183.34 30.0674C182.654 29.2705 181.951 28.7227 181.231 28.4238C180.523 28.1139 179.726 27.959 178.841 27.959C177.192 27.959 175.836 28.5677 174.773 29.7852C173.722 30.9915 173.196 32.5687 173.196 34.5166C173.196 36.4867 173.728 38.0638 174.79 39.248C175.864 40.4323 177.336 41.0244 179.206 41.0244C179.937 41.0244 180.667 40.875 181.397 40.5762C182.139 40.2663 182.792 39.724 183.356 38.9492L185.382 40.4434ZM203.245 43H200.522V32.9062C200.522 31.235 200.201 29.9954 199.56 29.1875C198.929 28.3685 197.971 27.959 196.688 27.959C195.249 27.959 194.081 28.4681 193.185 29.4863C192.299 30.4935 191.856 31.7718 191.856 33.3213V43H189.134V17.832H191.856V28.4238H191.923C192.565 27.4831 193.351 26.7803 194.28 26.3154C195.21 25.8395 196.284 25.6016 197.501 25.6016C199.36 25.6016 200.783 26.1992 201.768 27.3945C202.753 28.5898 203.245 30.3275 203.245 32.6074V43ZM219.183 34.2676V43H216.394V19.1934H222.935C225.48 19.1934 227.45 19.8298 228.845 21.1025C230.25 22.3643 230.953 24.1406 230.953 26.4316C230.953 28.7227 230.173 30.6042 228.612 32.0762C227.063 33.5371 224.965 34.2676 222.32 34.2676H219.183ZM219.183 21.7168V31.7441H222.104C224.03 31.7441 225.497 31.2904 226.504 30.3828C227.522 29.4753 228.031 28.2025 228.031 26.5645C228.031 24.9486 227.566 23.7367 226.637 22.9287C225.707 22.1208 224.312 21.7168 222.453 21.7168H219.183ZM243.454 28.5566C243.188 28.4349 242.901 28.3353 242.591 28.2578C242.292 28.1803 241.954 28.1416 241.578 28.1416C240.361 28.1416 239.37 28.7227 238.606 29.8848C237.854 31.0469 237.478 32.5299 237.478 34.334V43H234.755V26H237.478V29.1045H237.544C237.931 28.042 238.523 27.2119 239.32 26.6143C240.117 26.0055 241.008 25.7012 241.993 25.7012C242.447 25.7012 242.856 25.7399 243.222 25.8174C243.587 25.8838 244.002 26.0277 244.467 26.249L243.454 28.5566ZM261.035 34.9814H248.767C248.767 37.0843 249.265 38.6227 250.261 39.5967C251.268 40.5596 252.463 41.041 253.847 41.041C254.887 41.041 255.8 40.8031 256.586 40.3271C257.383 39.8402 258.041 39.1208 258.562 38.1689L260.786 39.2979C260.188 40.5153 259.286 41.5059 258.08 42.2695C256.885 43.0221 255.413 43.3984 253.664 43.3984C251.406 43.3984 249.552 42.6514 248.103 41.1572C246.664 39.6631 245.944 37.4661 245.944 34.5664C245.944 31.9876 246.675 29.8516 248.136 28.1582C249.597 26.4538 251.467 25.6016 253.747 25.6016C256.06 25.6016 257.853 26.3044 259.126 27.71C260.399 29.1045 261.035 31.0524 261.035 33.5537V34.9814ZM258.246 32.707C258.246 31.235 257.842 30.0785 257.034 29.2373C256.226 28.3851 255.114 27.959 253.697 27.959C252.325 27.959 251.201 28.4128 250.327 29.3203C249.464 30.2279 248.949 31.3568 248.783 32.707H258.246ZM263.808 39.6631L266.132 38.6504C266.508 39.4915 267.028 40.1003 267.692 40.4766C268.368 40.8529 269.192 41.041 270.166 41.041C271.096 41.041 271.865 40.8086 272.474 40.3438C273.093 39.8789 273.403 39.2093 273.403 38.335C273.403 37.6709 273.132 37.1009 272.59 36.625C272.059 36.138 271.217 35.7673 270.066 35.5127C267.919 35.0368 266.458 34.3838 265.684 33.5537C264.92 32.7236 264.538 31.7441 264.538 30.6152C264.538 29.0215 265.091 27.7874 266.198 26.9131C267.316 26.0387 268.65 25.6016 270.199 25.6016C271.45 25.6016 272.579 25.8617 273.586 26.3818C274.604 26.902 275.362 27.7044 275.86 28.7891L273.636 29.8184C273.304 29.1875 272.861 28.7227 272.308 28.4238C271.754 28.1139 271.029 27.959 270.133 27.959C269.27 27.959 268.545 28.1693 267.958 28.5898C267.371 29.0104 267.078 29.5915 267.078 30.333C267.078 31.0303 267.316 31.5671 267.792 31.9434C268.268 32.3086 269.214 32.6517 270.631 32.9727C272.479 33.3822 273.835 34.013 274.698 34.8652C275.562 35.7064 275.993 36.8076 275.993 38.1689C275.993 39.8291 275.418 41.1185 274.267 42.0371C273.127 42.9447 271.76 43.3984 270.166 43.3984C268.517 43.3984 267.167 43.0609 266.115 42.3857C265.075 41.6995 264.306 40.792 263.808 39.6631ZM292.18 43H289.457V40.7422H289.391C288.815 41.5944 288.085 42.2529 287.199 42.7178C286.325 43.1715 285.356 43.3984 284.294 43.3984C282.601 43.3984 281.272 42.9447 280.31 42.0371C279.358 41.1296 278.882 39.9951 278.882 38.6338C278.882 37.04 279.38 35.806 280.376 34.9316C281.372 34.0462 282.767 33.4984 284.56 33.2881L289.457 32.7236V31.6445C289.457 30.416 289.136 29.4974 288.494 28.8887C287.863 28.2689 286.994 27.959 285.888 27.959C284.836 27.959 283.967 28.1969 283.281 28.6729C282.595 29.1377 282.069 29.7907 281.704 30.6318L279.33 29.6523C279.883 28.3685 280.736 27.3724 281.887 26.6641C283.049 25.9557 284.432 25.6016 286.037 25.6016C288.018 25.6016 289.535 26.1328 290.586 27.1953C291.648 28.2467 292.18 29.7243 292.18 31.6279V43ZM289.457 36.0938V34.9316L284.742 35.4629C283.691 35.5846 282.916 35.889 282.418 36.376C281.92 36.8519 281.671 37.4883 281.671 38.2852C281.671 39.1595 281.959 39.8623 282.534 40.3936C283.11 40.9137 283.862 41.1738 284.792 41.1738C286.187 41.1738 287.31 40.6979 288.162 39.7461C289.025 38.7832 289.457 37.5658 289.457 36.0938ZM296.978 43V17.832H299.7V43H296.978ZM318.809 34.9814H306.54C306.54 37.0843 307.038 38.6227 308.034 39.5967C309.041 40.5596 310.237 41.041 311.62 41.041C312.66 41.041 313.574 40.8031 314.359 40.3271C315.156 39.8402 315.815 39.1208 316.335 38.1689L318.56 39.2979C317.962 40.5153 317.06 41.5059 315.854 42.2695C314.658 43.0221 313.186 43.3984 311.438 43.3984C309.18 43.3984 307.326 42.6514 305.876 41.1572C304.437 39.6631 303.718 37.4661 303.718 34.5664C303.718 31.9876 304.448 29.8516 305.909 28.1582C307.37 26.4538 309.241 25.6016 311.521 25.6016C313.834 25.6016 315.627 26.3044 316.899 27.71C318.172 29.1045 318.809 31.0524 318.809 33.5537V34.9814ZM316.02 32.707C316.02 31.235 315.616 30.0785 314.808 29.2373C314 28.3851 312.887 27.959 311.471 27.959C310.098 27.959 308.975 28.4128 308.101 29.3203C307.237 30.2279 306.723 31.3568 306.557 32.707H316.02ZM115.888 80V56.1934H122.462C126.59 56.1934 129.717 57.1452 131.842 59.0488C133.978 60.9525 135.046 63.8688 135.046 67.7979C135.046 71.6273 133.889 74.6211 131.576 76.7793C129.263 78.9264 126.136 80 122.196 80H115.888ZM118.677 58.7168V77.4766H122.229C125.351 77.4766 127.78 76.6797 129.518 75.0859C131.255 73.4922 132.124 71.085 132.124 67.8643C132.124 64.6657 131.322 62.3415 129.717 60.8916C128.112 59.4417 125.672 58.7168 122.396 58.7168H118.677ZM151.066 80H148.344V77.7422H148.277C147.702 78.5944 146.971 79.2529 146.086 79.7178C145.212 80.1715 144.243 80.3984 143.181 80.3984C141.487 80.3984 140.159 79.9447 139.196 79.0371C138.244 78.1296 137.769 76.9951 137.769 75.6338C137.769 74.04 138.267 72.806 139.263 71.9316C140.259 71.0462 141.653 70.4984 143.446 70.2881L148.344 69.7236V68.6445C148.344 67.416 148.023 66.4974 147.381 65.8887C146.75 65.2689 145.881 64.959 144.774 64.959C143.723 64.959 142.854 65.1969 142.168 65.6729C141.482 66.1377 140.956 66.7907 140.591 67.6318L138.217 66.6523C138.77 65.3685 139.622 64.3724 140.773 63.6641C141.936 62.9557 143.319 62.6016 144.924 62.6016C146.905 62.6016 148.421 63.1328 149.473 64.1953C150.535 65.2467 151.066 66.7243 151.066 68.6279V80ZM148.344 73.0938V71.9316L143.629 72.4629C142.577 72.5846 141.803 72.889 141.305 73.376C140.807 73.8519 140.558 74.4883 140.558 75.2852C140.558 76.1595 140.845 76.8623 141.421 77.3936C141.996 77.9137 142.749 78.1738 143.679 78.1738C145.073 78.1738 146.197 77.6979 147.049 76.7461C147.912 75.7832 148.344 74.5658 148.344 73.0938ZM154.835 76.6631L157.159 75.6504C157.535 76.4915 158.056 77.1003 158.72 77.4766C159.395 77.8529 160.219 78.041 161.193 78.041C162.123 78.041 162.892 77.8086 163.501 77.3438C164.121 76.8789 164.431 76.2093 164.431 75.335C164.431 74.6709 164.16 74.1009 163.617 73.625C163.086 73.138 162.245 72.7673 161.094 72.5127C158.947 72.0368 157.486 71.3838 156.711 70.5537C155.947 69.7236 155.565 68.7441 155.565 67.6152C155.565 66.0215 156.119 64.7874 157.226 63.9131C158.343 63.0387 159.677 62.6016 161.227 62.6016C162.477 62.6016 163.606 62.8617 164.613 63.3818C165.632 63.902 166.39 64.7044 166.888 65.7891L164.663 66.8184C164.331 66.1875 163.888 65.7227 163.335 65.4238C162.782 65.1139 162.057 64.959 161.16 64.959C160.297 64.959 159.572 65.1693 158.985 65.5898C158.399 66.0104 158.105 66.5915 158.105 67.333C158.105 68.0303 158.343 68.5671 158.819 68.9434C159.295 69.3086 160.242 69.6517 161.658 69.9727C163.507 70.3822 164.862 71.013 165.726 71.8652C166.589 72.7064 167.021 73.8076 167.021 75.1689C167.021 76.8291 166.445 78.1185 165.294 79.0371C164.154 79.9447 162.787 80.3984 161.193 80.3984C159.544 80.3984 158.194 80.0609 157.143 79.3857C156.102 78.6995 155.333 77.792 154.835 76.6631ZM185.282 80H182.56V69.9062C182.56 68.235 182.239 66.9954 181.597 66.1875C180.966 65.3685 180.008 64.959 178.725 64.959C177.286 64.959 176.118 65.4681 175.222 66.4863C174.336 67.4935 173.894 68.7718 173.894 70.3213V80H171.171V54.832H173.894V65.4238H173.96C174.602 64.4831 175.388 63.7803 176.317 63.3154C177.247 62.8395 178.321 62.6016 179.538 62.6016C181.397 62.6016 182.82 63.1992 183.805 64.3945C184.79 65.5898 185.282 67.3275 185.282 69.6074V80ZM192.886 77.9414H192.819V80H190.097V54.832H192.819V65.5898H192.886C193.517 64.6602 194.325 63.9297 195.31 63.3984C196.295 62.8672 197.412 62.6016 198.663 62.6016C200.965 62.6016 202.764 63.3652 204.059 64.8926C205.354 66.4089 206.001 68.4951 206.001 71.1514C206.001 73.9515 205.32 76.1927 203.959 77.875C202.598 79.5573 200.694 80.3984 198.248 80.3984C197.064 80.3984 196.012 80.1882 195.094 79.7676C194.186 79.3359 193.45 78.7272 192.886 77.9414ZM192.819 70.6865V73.0605C192.819 74.444 193.29 75.6227 194.23 76.5967C195.171 77.5596 196.405 78.041 197.933 78.041C199.626 78.041 200.926 77.4378 201.834 76.2314C202.753 75.0251 203.212 73.3704 203.212 71.2676C203.212 69.2422 202.775 67.6872 201.9 66.6025C201.037 65.5068 199.858 64.959 198.364 64.959C196.693 64.959 195.348 65.5068 194.33 66.6025C193.323 67.6872 192.819 69.0485 192.819 70.6865ZM217.307 80.3984C214.661 80.3984 212.592 79.6126 211.098 78.041C209.604 76.4583 208.856 74.3444 208.856 71.6992C208.856 68.9655 209.687 66.7686 211.347 65.1084C213.007 63.4372 215.082 62.6016 217.572 62.6016C220.118 62.6016 222.132 63.415 223.615 65.042C225.109 66.6579 225.856 68.7884 225.856 71.4336C225.856 73.9902 225.087 76.1263 223.549 77.8418C222.021 79.5462 219.941 80.3984 217.307 80.3984ZM217.456 78.041C219.172 78.041 220.533 77.471 221.54 76.3311C222.558 75.18 223.067 73.5807 223.067 71.5332C223.067 69.5853 222.558 68.0081 221.54 66.8018C220.533 65.5843 219.172 64.9756 217.456 64.9756C215.741 64.9756 214.34 65.5898 213.256 66.8184C212.182 68.0358 211.646 69.6296 211.646 71.5996C211.646 73.6693 212.182 75.263 213.256 76.3809C214.34 77.4876 215.741 78.041 217.456 78.041ZM241.91 80H239.188V77.7422H239.121C238.546 78.5944 237.815 79.2529 236.93 79.7178C236.055 80.1715 235.087 80.3984 234.024 80.3984C232.331 80.3984 231.003 79.9447 230.04 79.0371C229.088 78.1296 228.612 76.9951 228.612 75.6338C228.612 74.04 229.11 72.806 230.106 71.9316C231.103 71.0462 232.497 70.4984 234.29 70.2881L239.188 69.7236V68.6445C239.188 67.416 238.867 66.4974 238.225 65.8887C237.594 65.2689 236.725 64.959 235.618 64.959C234.567 64.959 233.698 65.1969 233.012 65.6729C232.326 66.1377 231.8 66.7907 231.435 67.6318L229.061 66.6523C229.614 65.3685 230.466 64.3724 231.617 63.6641C232.779 62.9557 234.163 62.6016 235.768 62.6016C237.749 62.6016 239.265 63.1328 240.316 64.1953C241.379 65.2467 241.91 66.7243 241.91 68.6279V80ZM239.188 73.0938V71.9316L234.473 72.4629C233.421 72.5846 232.646 72.889 232.148 73.376C231.65 73.8519 231.401 74.4883 231.401 75.2852C231.401 76.1595 231.689 76.8623 232.265 77.3936C232.84 77.9137 233.593 78.1738 234.522 78.1738C235.917 78.1738 237.04 77.6979 237.893 76.7461C238.756 75.7832 239.188 74.5658 239.188 73.0938ZM255.407 65.5566C255.142 65.4349 254.854 65.3353 254.544 65.2578C254.245 65.1803 253.908 65.1416 253.531 65.1416C252.314 65.1416 251.323 65.7227 250.56 66.8848C249.807 68.0469 249.431 69.5299 249.431 71.334V80H246.708V63H249.431V66.1045H249.497C249.884 65.042 250.477 64.2119 251.273 63.6143C252.07 63.0055 252.961 62.7012 253.946 62.7012C254.4 62.7012 254.81 62.7399 255.175 62.8174C255.54 62.8838 255.955 63.0277 256.42 63.249L255.407 65.5566ZM271.046 77.5098C270.415 78.4505 269.607 79.1699 268.622 79.668C267.648 80.1549 266.563 80.3984 265.368 80.3984C262.989 80.3984 261.146 79.6403 259.84 78.124C258.545 76.5967 257.897 74.5215 257.897 71.8984C257.897 69.0208 258.633 66.752 260.105 65.0918C261.577 63.4316 263.498 62.6016 265.866 62.6016C267.017 62.6016 268.035 62.8118 268.921 63.2324C269.817 63.653 270.526 64.2285 271.046 64.959H271.112V54.832H273.835V80H271.112V77.5098H271.046ZM260.687 71.7656C260.687 73.6914 261.129 75.2188 262.015 76.3477C262.911 77.4766 264.145 78.041 265.717 78.041C267.377 78.041 268.688 77.4987 269.651 76.4141C270.625 75.3294 271.112 73.9626 271.112 72.3135V69.8066C271.112 68.4564 270.642 67.3109 269.701 66.3701C268.771 65.4294 267.565 64.959 266.082 64.959C264.433 64.959 263.121 65.54 262.147 66.7021C261.174 67.8643 260.687 69.5521 260.687 71.7656ZM290.802 84.9307H276.69V82.9551H290.802V84.9307Z" fill="#34F799"/>
<mask id="path-2-inside-1_32_60" fill="white">
<path fill-rule="evenodd" clip-rule="evenodd" d="M0 0H364L406 49L364 98H0L42 49L0 0Z"/>
</mask>
<path d="M364 0L366.277 -1.95237L365.379 -3H364V0ZM0 0V-3H-6.52266L-2.27777 1.95237L0 0ZM406 49L408.277 50.9524L409.951 49L408.277 47.0476L406 49ZM364 98V101H365.379L366.277 99.9524L364 98ZM0 98L-2.27777 96.0476L-6.52266 101H0V98ZM42 49L44.2778 50.9524L45.9512 49L44.2778 47.0476L42 49ZM364 -3H0V3H364V-3ZM408.277 47.0476L366.277 -1.95237L361.722 1.95237L403.722 50.9524L408.277 47.0476ZM366.277 99.9524L408.277 50.9524L403.722 47.0476L361.722 96.0476L366.277 99.9524ZM0 101H364V95H0V101ZM2.27777 99.9524L44.2778 50.9524L39.7222 47.0476L-2.27777 96.0476L2.27777 99.9524ZM44.2778 47.0476L2.27777 -1.95237L-2.27777 1.95237L39.7222 50.9524L44.2778 47.0476Z" fill="#34F799" mask="url(#path-2-inside-1_32_60)"/>
</svg>
