<svg width="85" height="111" viewBox="0 0 85 111" fill="none" xmlns="http://www.w3.org/2000/svg">
<path opacity="0.4" d="M70.8668 45.262C70.2578 44.2382 69.6221 43.221 68.9596 42.2038C68.5113 41.5146 68.0428 40.8253 67.5677 40.1427C65.0917 36.5893 62.2744 33.1431 59.0557 29.931C57.3961 28.2714 55.6696 26.7189 53.9029 25.26C52.1296 23.7945 50.3094 22.4294 48.4624 21.1579C46.5419 19.8396 44.5946 18.615 42.6405 17.4908C41.5431 16.8618 40.4456 16.2528 39.3481 15.6773C34.3226 13.0474 29.3237 11.0064 24.6729 9.41371C23.6223 9.05235 22.5917 8.71775 21.5812 8.40323C21.3671 8.33632 21.153 8.26941 20.9455 8.20919C19.7544 7.84783 18.6034 7.51991 17.4858 7.21208C8.26445 4.70933 1.71312 4.13384 1.5659 4.12715L0 4L0.127145 5.56589C0.153913 5.91387 3.17863 40.3167 25.931 63.069C48.6833 85.8214 83.0861 88.8461 83.4341 88.8729L85 89L84.8729 87.4341C84.8595 87.2869 84.3041 80.9899 81.9284 72.0495C80.0346 64.916 76.9698 56.1028 72.0981 47.3833C71.7033 46.674 71.2951 45.9647 70.8735 45.262H70.8668ZM82.0154 86.0221C75.0291 85.1321 47.0906 80.4478 27.8181 61.1753C8.56558 41.9228 3.87459 13.9642 2.97119 6.97787C9.95749 7.87457 37.9161 12.5723 57.1686 31.8247C76.421 51.0772 81.1187 79.0425 82.0154 86.0288V86.0221Z" fill="#0FD5EF"/>
<path d="M51.3606 22.2848V89H43.2818V30.7545H42.8909L26.603 41.5697V33.3606L43.2818 22.2848H51.3606Z" fill="#34F79A"/>
</svg>
