<svg width="182" height="138" viewBox="0 0 182 138" fill="none" xmlns="http://www.w3.org/2000/svg">
<path d="M30.4485 116.912C26.1485 116.912 22.3154 116.174 18.9492 114.697C15.6048 113.22 12.9444 111.168 10.9682 108.54C9.01364 105.891 7.9495 102.818 7.77576 99.3212H15.9848C16.1586 101.471 16.897 103.328 18.2 104.892C19.503 106.434 21.2078 107.628 23.3144 108.475C25.421 109.322 27.7556 109.745 30.3182 109.745C33.1849 109.745 35.7258 109.246 37.9409 108.247C40.1561 107.248 41.8934 105.858 43.153 104.077C44.4126 102.296 45.0424 100.233 45.0424 97.8879C45.0424 95.4338 44.4343 93.273 43.2182 91.4053C42.002 89.5159 40.2212 88.0391 37.8758 86.975C35.5303 85.9109 32.6636 85.3788 29.2758 85.3788H23.9333V78.2121H29.2758C31.9253 78.2121 34.249 77.7343 36.247 76.7788C38.2667 75.8232 39.8412 74.4768 40.9705 72.7394C42.1215 71.002 42.697 68.9606 42.697 66.6151C42.697 64.3566 42.1975 62.3912 41.1985 60.7189C40.1995 59.0467 38.7879 57.7437 36.9636 56.8098C35.1611 55.876 33.0328 55.4091 30.5788 55.4091C28.2768 55.4091 26.1051 55.8326 24.0636 56.6795C22.0439 57.5048 20.3934 58.7101 19.1121 60.2955C17.8308 61.8591 17.1359 63.7485 17.0273 65.9636H9.20909C9.33939 62.4672 10.3927 59.405 12.3689 56.7773C14.3452 54.1278 16.9295 52.0646 20.122 50.5879C23.3361 49.1111 26.8652 48.3727 30.7091 48.3727C34.8354 48.3727 38.3753 49.2088 41.3288 50.8811C44.2823 52.5316 46.5518 54.7141 48.1371 57.4288C49.7225 60.1434 50.5152 63.0752 50.5152 66.2242C50.5152 69.9813 49.527 73.1846 47.5508 75.8341C45.5962 78.4836 42.9359 80.3187 39.5697 81.3394V81.8606C43.7828 82.5556 47.073 84.3472 49.4402 87.2356C51.8073 90.1023 52.9909 93.653 52.9909 97.8879C52.9909 101.515 52.0028 104.772 50.0265 107.661C48.072 110.527 45.4008 112.786 42.0129 114.436C38.625 116.087 34.7702 116.912 30.4485 116.912Z" fill="#34F79A"/>
<path opacity="0.4" d="M112.259 74.1899C112.456 73.2715 112.64 72.3532 112.811 71.4153C113.376 68.3021 113.757 65.0977 113.915 61.8216C113.967 60.7209 114 59.6137 114 58.4935C114 58.1353 114 57.7836 113.987 57.4254C113.974 56.5461 113.941 55.6733 113.895 54.8006C113.803 53.0942 113.652 51.4008 113.442 49.7335C112.706 43.8066 111.281 38.1728 109.501 32.982C109.205 32.1157 108.903 31.2625 108.587 30.4288C104.423 19.2916 98.8002 10.4274 95.286 5.49048C94.5372 4.44188 93.8869 3.56913 93.368 2.88527C92.5338 1.79759 92.028 1.19839 91.9951 1.16583L90.9967 0L90.3004 0.814128L89.9983 1.16583C89.9654 1.20491 89.4597 1.8041 88.6255 2.88527C88.1 3.56913 87.4497 4.44188 86.7074 5.49048C83.1735 10.4599 77.5048 19.4023 73.3271 30.6373C73.0119 31.4775 72.7097 32.3372 72.4141 33.2034C70.1151 39.977 68.4204 47.4865 68.0657 55.4128C68.0263 56.2791 68.0066 57.1518 68 58.0245C68 58.1809 68 58.3372 68 58.4935C68 63.1829 68.4926 67.7485 69.3203 72.1253C69.4976 73.0501 69.6881 73.9619 69.8918 74.8738C69.9246 75.0301 69.9574 75.1799 69.9969 75.3362C70.1151 75.8312 70.2333 76.3261 70.3581 76.8146C75.1401 85.3011 78.1419 93.8788 80.0074 100.822C85.0981 110.031 89.9063 115.71 90.0049 115.834L91.0033 117L92.0017 115.834C92.1002 115.717 96.4421 110.585 101.244 102.17C103.155 94.6864 106.426 85.0275 111.944 75.5902C112.056 75.1277 112.161 74.6588 112.259 74.1899V74.1899ZM90.9967 112.897C86.7731 107.478 70.6209 85.0276 70.6209 58.5C70.6209 31.9724 86.7731 9.52855 90.9967 4.1032C95.2203 9.52204 111.373 31.9724 111.373 58.5C111.373 85.0276 95.2203 107.478 90.9967 112.897Z" fill="#0FD5EF"/>
<path opacity="0.4" d="M70.0331 74.8057C69.4313 73.818 68.803 72.8367 68.1483 71.8555C67.7052 71.1905 67.2423 70.5256 66.7728 69.8671C64.3259 66.4391 61.5418 63.1145 58.3609 60.0157C56.7208 58.4147 55.0146 56.917 53.2688 55.5097C51.5163 54.0959 49.7175 52.7789 47.8923 51.5523C45.9943 50.2806 44.0699 49.0992 42.1389 48.0146C41.0543 47.4078 39.9698 46.8203 38.8852 46.2651C33.9188 43.7281 28.9787 41.7591 24.3826 40.2226C23.3444 39.874 22.3259 39.5512 21.3273 39.2478C21.1157 39.1833 20.9041 39.1187 20.6991 39.0606C19.522 38.712 18.3845 38.3957 17.2801 38.0987C8.16722 35.6843 1.69296 35.1291 1.54747 35.1227L0 35L0.12565 36.5106C0.152102 36.8463 3.14124 70.0349 25.6259 91.9842C48.1105 113.934 82.1086 116.852 82.4525 116.877L84 117L83.8743 115.489C83.8611 115.347 83.3122 109.273 80.9646 100.648C79.0931 93.766 76.0642 85.2639 71.2499 76.8521C70.8597 76.1678 70.4563 75.4836 70.0397 74.8057H70.0331ZM81.0505 114.127C74.1464 113.269 46.5366 108.75 27.4908 90.1573C8.46481 71.5843 3.829 44.6125 2.93623 37.8728C9.84034 38.7378 37.47 43.2697 56.496 61.8427C75.522 80.4157 80.1644 107.394 81.0505 114.134V114.127Z" fill="#0FD5EF"/>
<path opacity="0.4" d="M180.459 35.1291C180.287 35.142 171.776 35.8715 160.494 39.3124C159.33 39.6674 158.133 40.0483 156.916 40.468C156.877 40.4809 156.837 40.4938 156.797 40.5067C155.772 40.8553 154.727 41.2297 153.669 41.6235C148.914 43.4118 143.895 45.6712 138.955 48.5311C138.347 48.8797 137.738 49.2412 137.137 49.6092C134.855 51.0036 132.6 52.5272 130.404 54.1927C128.063 55.968 125.788 57.9047 123.626 60.0157C120.075 63.4824 117.006 67.2332 114.361 71.0872C113.667 72.0943 113.005 73.1143 112.37 74.1343C112.06 74.6379 111.749 75.1414 111.451 75.6449C105.889 84.9992 102.596 94.573 100.678 101.991C98.6282 109.899 98.1389 115.36 98.1256 115.489L98 117L99.5475 116.877C99.8914 116.852 133.889 113.934 156.374 91.9842C178.859 70.0349 181.848 36.8463 181.874 36.5106L182 35L180.453 35.1227L180.459 35.1291ZM154.516 90.1638C135.49 108.737 107.86 113.262 100.956 114.134C101.842 107.394 106.478 80.4221 125.511 61.8492C144.537 43.2762 172.166 38.7507 179.07 37.8792C178.184 44.619 173.548 71.5908 154.516 90.1638V90.1638Z" fill="#0FD5EF"/>
</svg>
