<svg width="116" height="141" viewBox="0 0 116 141" fill="none" xmlns="http://www.w3.org/2000/svg">
<path d="M23.9061 119V113.136L45.9273 89.0303C48.5116 86.2071 50.6399 83.753 52.3121 81.6682C53.9843 79.5616 55.2222 77.5854 56.0258 75.7394C56.851 73.8717 57.2636 71.9172 57.2636 69.8758C57.2636 67.5303 56.699 65.4997 55.5697 63.7841C54.4621 62.0684 52.9419 60.7437 51.0091 59.8098C49.0763 58.876 46.9045 58.4091 44.4939 58.4091C41.9313 58.4091 39.6944 58.9412 37.7833 60.0053C35.8939 61.0477 34.428 62.5136 33.3856 64.403C32.3649 66.2924 31.8545 68.5076 31.8545 71.0485H24.1667C24.1667 67.1394 25.0679 63.7081 26.8705 60.7545C28.673 57.801 31.127 55.499 34.2326 53.8485C37.3599 52.198 40.8672 51.3727 44.7545 51.3727C48.6636 51.3727 52.1275 52.198 55.1462 53.8485C58.1649 55.499 60.5321 57.725 62.2477 60.5265C63.9634 63.328 64.8212 66.4444 64.8212 69.8758C64.8212 72.3298 64.376 74.7295 63.4856 77.075C62.6169 79.3987 61.0967 81.9939 58.925 84.8606C56.775 87.7056 53.7889 91.1803 49.9667 95.2848L34.9818 111.312V111.833H65.9939V119H23.9061Z" fill="#34F79A"/>
<path opacity="0.4" d="M113.326 75.2529C113.524 74.3214 113.709 73.3899 113.881 72.4386C114.449 69.2807 114.832 66.0304 114.991 62.7074C115.044 61.5909 115.077 60.4679 115.077 59.3316C115.077 58.9682 115.077 58.6115 115.064 58.2481C115.05 57.3563 115.017 56.471 114.971 55.5858C114.879 53.8549 114.727 52.1373 114.515 50.446C113.775 44.4343 112.342 38.7198 110.551 33.4545C110.254 32.5759 109.95 31.7104 109.633 30.8648C105.445 19.568 99.7897 10.5768 96.2553 5.56914C95.5021 4.50552 94.8481 3.62027 94.3262 2.92661C93.4872 1.82335 92.9785 1.21556 92.9455 1.18253L91.9413 0L91.241 0.825793L90.9371 1.18253C90.9041 1.22217 90.3954 1.82995 89.5564 2.92661C89.0279 3.62027 88.3739 4.50552 87.6274 5.56914C84.0732 10.6098 78.3719 19.6803 74.1702 31.0762C73.8531 31.9285 73.5492 32.8005 73.252 33.6791C70.9397 40.5497 69.2353 48.1669 68.8786 56.2068C68.8389 57.0854 68.8191 57.9707 68.8125 58.8559C68.8125 59.0145 68.8125 59.173 68.8125 59.3316C68.8125 64.0881 69.308 68.7192 70.1404 73.1587C70.3187 74.0968 70.5103 75.0216 70.7151 75.9465C70.7482 76.1051 70.7812 76.257 70.8208 76.4156C70.9397 76.9177 71.0587 77.4197 71.1842 77.9152C75.9936 86.5233 79.0127 95.2238 80.8889 102.266C86.0088 111.608 90.8447 117.368 90.9438 117.494L91.9479 118.676L92.9521 117.494C93.0512 117.375 97.418 112.169 102.247 103.634C104.17 96.043 107.46 86.2458 113.009 76.6732C113.121 76.2042 113.227 75.7285 113.326 75.2529ZM91.9413 114.514C87.6934 109.018 71.4484 86.2458 71.4484 59.3382C71.4484 32.4305 87.6934 9.66507 91.9413 4.16199C96.1892 9.65847 112.434 32.4305 112.434 59.3382C112.434 86.2458 96.1892 109.018 91.9413 114.514Z" fill="#0FD5EF"/>
<path opacity="0.4" d="M69.9612 75.8207C69.36 74.8099 68.7324 73.8057 68.0784 72.8016C67.6357 72.1211 67.1733 71.4406 66.7043 70.7668C64.2599 67.2588 61.4786 63.8566 58.301 60.6855C56.6626 59.0471 54.9582 57.5145 53.2141 56.0743C51.4634 54.6275 49.6665 53.2798 47.8431 52.0246C45.9471 50.7231 44.0247 49.5142 42.0956 48.4043C41.0122 47.7833 39.9287 47.1821 38.8453 46.614C33.8839 44.0177 28.949 42.0028 24.3576 40.4305C23.3204 40.0737 22.303 39.7434 21.3055 39.4329C21.0941 39.3668 20.8827 39.3008 20.6779 39.2413C19.5019 38.8846 18.3656 38.5609 17.2624 38.257C8.15884 35.7862 1.69122 35.2181 1.54588 35.2115L0 35.0859L0.125521 36.6318C0.151946 36.9753 3.13801 70.9386 25.5996 93.4001C48.0612 115.862 82.0244 118.848 82.3679 118.874L83.9138 119L83.7883 117.454C83.775 117.308 83.2267 111.092 80.8815 102.266C79.0119 95.2235 75.9862 86.5229 71.1768 77.9149C70.787 77.2146 70.384 76.5143 69.9678 75.8207H69.9612ZM80.9674 116.06C74.0703 115.181 46.4888 110.557 27.4626 91.5305C8.45612 72.5241 3.82507 44.9228 2.93322 38.0257C9.83024 38.911 37.4315 43.5487 56.438 62.5551C75.4444 81.5616 80.0821 109.169 80.9674 116.066V116.06Z" fill="#0FD5EF"/>
</svg>
