<svg width="254" height="180" viewBox="0 0 254 180" fill="none" xmlns="http://www.w3.org/2000/svg">
<g clip-path="url(#clip0_23_2480)">
<path d="M0 63.8442V128.644L43.3206 66.4935H66.8447L73.2294 0L23.3074 64.7772L0 63.8442Z" fill="#0FD5EF"/>
<path d="M207.683 130.65L252.85 65.8496L230.991 66.7825L211.381 65.9966L217.717 0L167.797 64.7772L148.743 64.0141L154.89 0L104.971 64.7772L81.6611 63.8442V128.644L124.982 66.4935H144.49V128.644L187.808 66.4935H207.683V130.65Z" fill="#0FD5EF"/>
<path d="M15.2172 169.441H5.62243C4.73511 169.441 4.29145 168.967 4.29145 168.016V167.152C4.29145 166.71 4.39344 166.363 4.59742 166.11C4.8014 165.856 5.15327 165.727 5.64792 165.727H18.4682C18.843 165.727 19.0317 165.539 19.0317 165.166V162.748C19.0317 162.375 18.843 162.188 18.4682 162.188H4.90594C3.35313 162.188 2.21083 162.57 1.4765 163.334C0.742167 164.097 0.375 165.098 0.375 166.335V168.194C0.375 169.601 0.749816 170.683 1.502 171.439C2.25163 172.194 3.37098 172.572 4.85495 172.572H14.4497C15.337 172.572 15.7807 173.046 15.7807 173.997V175.039C15.7807 175.48 15.6787 175.827 15.4747 176.083C15.2708 176.337 14.9189 176.466 14.4242 176.466H0.989494C0.59683 176.466 0.400498 176.654 0.400498 177.026V179.445C0.400498 179.817 0.59683 180.005 0.989494 180.005H15.1662C16.719 180.005 17.8613 179.622 18.5957 178.859C19.33 178.096 19.6972 177.095 19.6972 175.857V173.822C19.6972 172.415 19.3223 171.332 18.5702 170.577C17.8205 169.821 16.7012 169.443 15.2172 169.443V169.441Z" fill="#0FD5EF"/>
<path d="M58.3746 163.729C57.8035 163.194 57.0615 162.804 56.1487 162.558C55.2359 162.312 54.1318 162.188 52.834 162.188H44.9272C43.6293 162.188 42.5304 162.312 41.6252 162.558C40.72 162.804 39.9832 163.194 39.412 163.729C38.8409 164.264 38.4227 164.954 38.1575 165.803C37.8924 166.652 37.7598 167.686 37.7598 168.906V173.282C37.7598 174.504 37.8924 175.543 38.1575 176.397C38.4227 177.254 38.8383 177.949 39.412 178.484C39.9832 179.019 40.7226 179.404 41.6252 179.643C42.5304 179.881 43.6293 180 44.9272 180H52.834C54.1318 180 55.2359 179.881 56.1487 179.643C57.0615 179.404 57.8035 179.019 58.3746 178.484C58.9458 177.949 59.3589 177.254 59.6164 176.397C59.8714 175.541 60.0014 174.501 60.0014 173.282V168.906C60.0014 167.684 59.8739 166.65 59.6164 165.803C59.3614 164.954 58.9458 164.264 58.3746 163.729ZM56.085 173.003C56.085 173.665 56.0289 174.22 55.9192 174.668C55.807 175.117 55.626 175.475 55.3685 175.738C55.1135 176.002 54.7667 176.187 54.3333 176.299C53.8973 176.41 53.3491 176.463 52.6836 176.463H45.0827C44.4172 176.463 43.8665 176.408 43.433 176.299C42.9995 176.19 42.6528 176.002 42.3978 175.738C42.1428 175.475 41.9592 175.12 41.847 174.668C41.7349 174.22 41.6813 173.665 41.6813 173.003V169.187C41.6813 168.526 41.7374 167.97 41.847 167.522C41.9567 167.073 42.1403 166.716 42.3978 166.452C42.6528 166.188 42.9995 166.003 43.433 165.892C43.869 165.78 44.4172 165.727 45.0827 165.727H52.6836C53.3491 165.727 53.8998 165.783 54.3333 165.892C54.7693 166.003 55.1135 166.188 55.3685 166.452C55.6234 166.716 55.807 167.07 55.9192 167.522C56.0289 167.97 56.085 168.526 56.085 169.187V173.003Z" fill="#0FD5EF"/>
<path d="M96.1592 176.387H85.7944C85.1289 176.387 84.5782 176.332 84.1447 176.223C83.7087 176.113 83.3645 175.926 83.1095 175.662C82.8545 175.399 82.6709 175.044 82.5587 174.592C82.4466 174.144 82.393 173.578 82.393 172.901V162.75C82.393 162.378 82.2043 162.19 81.8295 162.19H79.0656C78.6729 162.19 78.4766 162.378 78.4766 162.75V173.284C78.4766 174.506 78.6091 175.546 78.8718 176.4C79.1369 177.257 79.5551 177.952 80.1263 178.486C80.6974 179.021 81.4343 179.407 82.3395 179.645C83.2446 179.883 84.3436 180.003 85.6414 180.003H96.1592C96.534 180.003 96.7227 179.815 96.7227 179.442V176.948C96.7227 176.575 96.534 176.387 96.1592 176.387Z" fill="#0FD5EF"/>
<path d="M139.304 162.19H136.566C136.191 162.19 135.87 162.215 135.607 162.266C135.342 162.317 135.108 162.416 134.904 162.558C134.7 162.702 134.516 162.897 134.353 163.143C134.19 163.389 134.024 163.716 133.853 164.122L128.532 176.334C128.463 176.486 128.343 176.562 128.172 176.562H127.864C127.693 176.562 127.573 176.486 127.504 176.334L122.183 164.122C122.012 163.716 121.846 163.389 121.683 163.143C121.52 162.897 121.336 162.702 121.132 162.558C120.928 162.413 120.689 162.317 120.416 162.266C120.143 162.215 119.819 162.19 119.444 162.19H116.655C115.75 162.19 115.145 162.39 114.839 162.788C114.531 163.186 114.378 163.871 114.378 164.837V179.442C114.378 179.815 114.574 180.003 114.967 180.003H117.578C117.953 180.003 118.141 179.815 118.141 179.442V166.16C118.141 165.99 118.21 165.907 118.345 165.907H118.575C118.746 165.907 118.858 165.975 118.909 166.11L124.077 177.508C124.281 177.967 124.49 178.352 124.704 178.666C124.919 178.981 125.148 179.239 125.395 179.442C125.643 179.645 125.923 179.79 126.239 179.876C126.556 179.959 126.925 180.003 127.354 180.003H128.583C129.009 180.003 129.381 179.959 129.697 179.876C130.013 179.792 130.294 179.648 130.541 179.442C130.788 179.239 131.018 178.981 131.232 178.666C131.446 178.352 131.655 177.967 131.859 177.508L137.028 166.11C137.079 165.973 137.188 165.907 137.359 165.907H137.588C137.724 165.907 137.792 165.993 137.792 166.16V179.442C137.792 179.815 137.981 180.003 138.356 180.003H140.967C141.36 180.003 141.556 179.815 141.556 179.442V164.837C141.556 163.871 141.403 163.186 141.094 162.788C140.788 162.39 140.189 162.19 139.304 162.19Z" fill="#0FD5EF"/>
<path d="M174.591 164.122C174.165 163.359 173.729 162.847 173.285 162.583C172.841 162.319 172.296 162.19 171.648 162.19H170.139C169.593 162.19 169.116 162.322 168.706 162.583C168.295 162.847 167.877 163.359 167.451 164.122L159.057 179.414C158.971 179.584 158.95 179.724 158.994 179.833C159.037 179.944 159.17 179.997 159.391 179.997H162.719C162.992 179.997 163.188 179.888 163.308 179.665L165.072 176.382H177.1L178.918 179.665C179.02 179.886 179.216 179.997 179.507 179.997H182.758C182.962 179.997 183.086 179.942 183.13 179.833C183.173 179.724 183.15 179.582 183.066 179.414L174.596 164.122H174.591ZM166.684 173.434L170.702 165.978C170.769 165.859 170.863 165.8 170.983 165.8H171.136C171.256 165.8 171.35 165.859 171.416 165.978L175.486 173.434H166.684Z" fill="#0FD5EF"/>
<path d="M216.738 162.19H196.753C196.36 162.19 196.164 162.378 196.164 162.75V165.243C196.164 165.633 196.36 165.828 196.753 165.828H204.787V179.44C204.787 179.812 204.976 180 205.351 180H208.14C208.515 180 208.704 179.812 208.704 179.44V165.828H216.738C217.131 165.828 217.327 165.633 217.327 165.243V162.75C217.327 162.378 217.131 162.19 216.738 162.19Z" fill="#0FD5EF"/>
<path d="M238.232 167.519C238.334 167.07 238.518 166.713 238.783 166.449C239.048 166.186 239.397 166.001 239.833 165.889C240.267 165.777 240.818 165.724 241.483 165.724H252.666C253.059 165.724 253.255 165.537 253.255 165.164V162.745C253.255 162.373 253.059 162.185 252.666 162.185H241.407C240.109 162.185 239.01 162.309 238.105 162.555C237.2 162.801 236.463 163.192 235.892 163.726C235.32 164.261 234.902 164.951 234.637 165.8C234.372 166.65 234.239 167.684 234.239 168.903V173.279C234.239 174.501 234.372 175.541 234.637 176.395C234.902 177.252 235.318 177.946 235.892 178.481C236.463 179.016 237.202 179.402 238.105 179.64C239.01 179.878 240.109 179.997 241.407 179.997H252.666C253.059 179.997 253.255 179.81 253.255 179.437V177.019C253.255 176.646 253.059 176.458 252.666 176.458H241.483C240.818 176.458 240.267 176.403 239.833 176.294C239.397 176.185 239.048 175.997 238.783 175.733C238.518 175.47 238.334 175.115 238.232 174.663C238.13 174.215 238.079 173.659 238.079 172.998V172.564H252.539C252.914 172.564 253.102 172.377 253.102 172.004V169.994C253.102 169.621 252.914 169.433 252.539 169.433H238.079V169.18C238.079 168.518 238.13 167.963 238.232 167.514V167.519Z" fill="#0FD5EF"/>
</g>
<defs>
<clipPath id="clip0_23_2480">
<rect width="253.256" height="180" fill="white"/>
</clipPath>
</defs>
</svg>
