<svg width="358" height="347" viewBox="0 0 358 347" fill="none" xmlns="http://www.w3.org/2000/svg">
<g opacity="0.2" clip-path="url(#clip0_101_1557)">
<path d="M250.837 164.007C250.837 164.007 309.124 172.559 308.764 118.287C308.532 82.8492 308.403 70.9091 308.403 52.3418" stroke="#0FD5EF" stroke-width="5.17947" stroke-miterlimit="10"/>
<path d="M308.763 50.4991C322.412 50.4991 333.477 39.4345 333.477 25.7857C333.477 12.1368 322.412 1.07227 308.763 1.07227C295.114 1.07227 284.05 12.1368 284.05 25.7857C284.05 39.4345 295.114 50.4991 308.763 50.4991Z" stroke="#0FD5EF" stroke-width="5.17947" stroke-miterlimit="10"/>
<path d="M83.7144 234.327C83.7144 234.327 25.427 225.776 25.7878 280.047C26.0197 315.485 26.1486 273.253 26.1486 291.82" stroke="#0FD5EF" stroke-width="5.17947" stroke-miterlimit="10"/>
<path d="M25.7876 345.241C39.4365 345.241 50.5011 334.177 50.5011 320.528C50.5011 306.879 39.4365 295.814 25.7876 295.814C12.1388 295.814 1.07422 306.879 1.07422 320.528C1.07422 334.177 12.1388 345.241 25.7876 345.241Z" stroke="#0FD5EF" stroke-width="5.17947" stroke-miterlimit="10"/>
<path d="M176.048 279.545H95.2288C88.8679 279.545 83.7139 274.387 83.7139 268.03V96.9602C83.7139 90.5993 88.8679 85.4453 95.2288 85.4453H239.322C245.678 85.4453 250.837 90.5993 250.837 96.9602V200.603" stroke="#0FD5EF" stroke-width="5.17947" stroke-miterlimit="10"/>
<path d="M138.981 123.273H229.121" stroke="#0FD5EF" stroke-width="5.17947" stroke-miterlimit="10" stroke-linecap="round"/>
<path d="M105.426 162.336H229.122" stroke="#0FD5EF" stroke-width="5.17947" stroke-miterlimit="10" stroke-linecap="round"/>
<path d="M105.426 202.473H229.122" stroke="#0FD5EF" stroke-width="5.17947" stroke-miterlimit="10" stroke-linecap="round"/>
<path d="M332.18 213.927C345.829 213.927 356.894 202.862 356.894 189.213C356.894 175.565 345.829 164.5 332.18 164.5C318.531 164.5 307.467 175.565 307.467 189.213C307.467 202.862 318.531 213.927 332.18 213.927Z" stroke="#0FD5EF" stroke-width="5.17947" stroke-miterlimit="10"/>
<path d="M307.467 189.213H252.728" stroke="#0FD5EF" stroke-width="5.17947" stroke-miterlimit="10"/>
<path d="M119.152 255.751C125.203 255.751 130.108 250.846 130.108 244.794C130.108 238.743 125.203 233.838 119.152 233.838C113.101 233.838 108.195 238.743 108.195 244.794C108.195 250.846 113.101 255.751 119.152 255.751Z" stroke="#0FD5EF" stroke-width="5.17947" stroke-miterlimit="10"/>
<path d="M167.274 255.751C173.325 255.751 178.23 250.846 178.23 244.794C178.23 238.743 173.325 233.838 167.274 233.838C161.223 233.838 156.317 238.743 156.317 244.794C156.317 250.846 161.223 255.751 167.274 255.751Z" stroke="#0FD5EF" stroke-width="5.17947" stroke-miterlimit="10"/>
<path d="M97.9688 115.711L110.252 129.309L134.158 103.428" stroke="#0FD5EF" stroke-width="5.17947" stroke-miterlimit="10" stroke-linecap="round"/>
<path d="M205.171 224.538L243.319 212.418L281.652 224.538" stroke="#0FD5EF" stroke-width="5.17947" stroke-miterlimit="10" stroke-linecap="round"/>
<path fill-rule="evenodd" clip-rule="evenodd" d="M241.395 325.891L194.09 231.439C194.09 231.439 188.013 268.252 204.325 291.681C220.638 315.11 230.946 320.775 241.395 325.895V325.891Z" stroke="#0FD5EF" stroke-width="5.17947" stroke-miterlimit="10" stroke-linecap="round"/>
<path fill-rule="evenodd" clip-rule="evenodd" d="M246.163 325.891L293.468 231.439C293.468 231.439 299.546 268.252 283.233 291.681C266.921 315.11 256.613 320.775 246.163 325.895V325.891Z" stroke="#0FD5EF" stroke-width="5.17947" stroke-miterlimit="10" stroke-linecap="round"/>
<path d="M215.166 272.393H272.363" stroke="#0FD5EF" stroke-width="5.17947" stroke-miterlimit="10" stroke-linecap="round"/>
</g>
<defs>
<clipPath id="clip0_101_1557">
<rect width="357.962" height="346.31" fill="white"/>
</clipPath>
</defs>
</svg>
