<svg width="261" height="267" viewBox="0 0 261 267" fill="none" xmlns="http://www.w3.org/2000/svg">
<g opacity="0.2" clip-path="url(#clip0_101_1528)">
<path d="M224.448 91.2617C224.448 91.2617 248.955 94.8638 248.804 72.0029C248.706 57.0752 248.652 31.2274 248.652 23.4062" stroke="#0FD5EF" stroke-width="5" stroke-miterlimit="10"/>
<path d="M248.805 22.6297C254.544 22.6297 259.196 17.969 259.196 12.2196C259.196 6.47032 254.544 1.80957 248.805 1.80957C243.066 1.80957 238.414 6.47032 238.414 12.2196C238.414 17.969 243.066 22.6297 248.805 22.6297Z" stroke="#0FD5EF" stroke-width="5" stroke-miterlimit="10"/>
<path d="M130.223 193.412C130.223 193.412 126.628 217.965 149.446 217.813C164.346 217.715 190.147 217.661 197.953 217.661" stroke="#0FD5EF" stroke-width="5" stroke-miterlimit="10"/>
<path d="M209.119 228.225C214.858 228.225 219.51 223.565 219.51 217.815C219.51 212.066 214.858 207.405 209.119 207.405C203.381 207.405 198.729 212.066 198.729 217.815C198.729 223.565 203.381 228.225 209.119 228.225Z" stroke="#0FD5EF" stroke-width="5" stroke-miterlimit="10"/>
<path d="M36.5525 117.974C36.5525 117.974 12.0453 114.372 12.197 137.233C12.2945 152.161 12.3487 235.776 12.3487 243.597" stroke="#0FD5EF" stroke-width="5" stroke-miterlimit="10"/>
<path d="M12.1965 265.194C17.9353 265.194 22.5874 260.533 22.5874 254.784C22.5874 249.035 17.9353 244.374 12.1965 244.374C6.45782 244.374 1.80566 249.035 1.80566 254.784C1.80566 260.533 6.45782 265.194 12.1965 265.194Z" stroke="#0FD5EF" stroke-width="5" stroke-miterlimit="10"/>
<path d="M130.5 193.409C182.386 193.409 224.448 151.27 224.448 99.2882C224.448 47.3065 182.386 5.16699 130.5 5.16699C78.6146 5.16699 36.5527 47.3065 36.5527 99.2882C36.5527 151.27 78.6146 193.409 130.5 193.409Z" stroke="#0FD5EF" stroke-width="5" stroke-miterlimit="10"/>
<path d="M142.553 79.8877H117.472V155.642H142.553V79.8877Z" stroke="#0FD5EF" stroke-width="5" stroke-miterlimit="10"/>
<path d="M130.498 70.6494C138.138 70.6494 144.331 64.4448 144.331 56.791C144.331 49.1372 138.138 42.9326 130.498 42.9326C122.858 42.9326 116.665 49.1372 116.665 56.791C116.665 64.4448 122.858 70.6494 130.498 70.6494Z" stroke="#0FD5EF" stroke-width="5" stroke-miterlimit="10"/>
</g>
<defs>
<clipPath id="clip0_101_1528">
<rect width="261" height="267" fill="white"/>
</clipPath>
</defs>
</svg>
