<svg width="318" height="306" viewBox="0 0 318 306" fill="none" xmlns="http://www.w3.org/2000/svg">
<g opacity="0.2" clip-path="url(#clip0_101_1263)">
<path d="M45.0933 164.659C45.0933 152.629 46.6886 140.976 49.6496 129.875C47.9084 130.909 46.1985 131.995 44.5303 133.133C42.174 143.262 40.9229 153.82 40.9229 164.659C40.9229 224.308 78.6971 275.278 131.537 294.858C133.404 294.085 135.239 293.25 137.032 292.362C83.6704 274.526 45.0933 224.026 45.0933 164.659Z" fill="#0FD5EF"/>
<path d="M243.755 41.7695C243.38 43.1375 242.921 44.4742 242.368 45.7586C284.845 68.3982 313.83 113.197 313.83 164.648C313.83 238.853 253.556 299.232 179.457 299.232C166.716 299.232 154.382 297.447 142.683 294.105C140.932 295.066 139.149 295.985 137.324 296.841C150.618 301.102 164.766 303.409 179.446 303.409C255.839 303.409 317.99 241.161 317.99 164.648C317.99 111.359 287.837 65.0044 243.734 41.7695H243.755Z" fill="#0FD5EF"/>
<path d="M179.289 30.0755C179.414 28.6553 179.623 27.2664 179.925 25.8984C179.769 25.8984 179.623 25.8984 179.466 25.8984C116.044 25.8984 62.4424 68.8072 46.0732 127.16C47.7831 126.106 49.5348 125.103 51.3176 124.153C68.5001 69.7261 119.359 30.1486 179.289 30.0755Z" fill="#0FD5EF"/>
<path d="M105.858 220.234C104.867 221.216 103.731 222.041 102.49 222.699C118.859 244.419 144.174 259.018 172.899 260.961C173.785 259.634 174.64 258.287 175.463 256.919C147.062 255.698 121.946 241.558 105.847 220.234H105.858Z" fill="#0FD5EF"/>
<path d="M88.8419 197.574C90.0409 196.896 91.3546 196.384 92.7413 196.081C89.1859 186.265 87.2467 175.687 87.2467 164.659C87.2467 147.314 92.0532 131.076 100.384 117.198C99.0596 117.145 97.7354 117.104 96.3905 117.104C96.1298 117.104 95.8587 117.104 95.5981 117.104C87.6324 131.149 83.0762 147.377 83.0762 164.649C83.0762 176.198 85.1197 187.288 88.8523 197.564L88.8419 197.574Z" fill="#0FD5EF"/>
<path d="M275.857 164.659C275.857 111.423 232.62 68.1172 179.467 68.1172C145.3 68.1172 115.231 86.0158 98.1006 112.947C99.7271 112.979 101.343 113.041 102.949 113.156C119.526 88.5221 147.636 72.2942 179.467 72.2942C230.316 72.2942 271.687 113.731 271.687 164.659C271.687 215.588 230.743 256.586 180.259 257.014C179.456 258.423 178.622 259.812 177.757 261.18C178.33 261.18 178.893 261.201 179.467 261.201C232.62 261.201 275.857 217.896 275.857 164.659Z" fill="#0FD5EF"/>
<path d="M177.757 261.17C178.622 259.802 179.456 258.414 180.259 257.004C188.225 242.959 192.781 226.731 192.781 209.459C192.781 198.755 191.029 188.459 187.808 178.83C186.609 179.541 185.326 180.104 183.96 180.491C186.974 189.607 188.61 199.35 188.61 209.469C188.61 226.814 183.804 243.052 175.473 256.931C174.65 258.299 173.795 259.646 172.909 260.972C163.921 274.318 151.556 285.188 137.042 292.363C135.239 293.25 133.404 294.086 131.548 294.858C120.704 299.349 108.839 301.834 96.4009 301.834C45.5522 301.834 4.18092 260.398 4.18092 209.469C4.18092 177.786 20.1956 149.779 44.5409 133.134C46.209 131.995 47.9189 130.909 49.6601 129.875C63.1621 121.897 78.8536 117.261 95.6085 117.115C95.8692 117.115 96.1298 117.115 96.4009 117.115C97.7355 117.115 99.07 117.146 100.394 117.209C128.055 118.399 152.588 131.839 168.728 152.233C169.781 151.314 170.948 150.541 172.21 149.915C155.81 129.03 131.016 115.068 102.959 113.167C101.353 113.063 99.7373 112.99 98.1108 112.958C97.5374 112.958 96.9744 112.938 96.4009 112.938C80.1256 112.938 64.7886 117 51.3283 124.163C49.5454 125.114 47.7938 126.116 46.0839 127.171C18.4544 144.15 0 174.685 0 209.459C0 262.695 43.2376 306.001 96.3905 306.001C111.018 306.001 124.906 302.711 137.334 296.842C139.148 295.986 140.942 295.078 142.693 294.106C156.956 286.243 169.03 274.882 177.757 261.17Z" fill="#0FD5EF"/>
<path d="M195.908 164.66C195.908 155.575 188.527 148.182 179.456 148.182C176.849 148.182 174.389 148.808 172.189 149.894C170.927 150.521 169.759 151.294 168.706 152.212C165.224 155.241 163.014 159.689 163.014 164.65C163.014 173.735 170.395 181.128 179.466 181.128C181.03 181.128 182.532 180.898 183.96 180.491C185.326 180.105 186.608 179.541 187.807 178.831C192.655 175.959 195.919 170.685 195.919 164.66H195.908ZM186.358 174.831C185.211 175.614 183.929 176.189 182.552 176.554C181.562 176.815 180.53 176.962 179.466 176.962C172.7 176.962 167.184 171.448 167.184 164.66C167.184 161.057 168.748 157.82 171.23 155.565C172.262 154.625 173.44 153.852 174.743 153.309C176.192 152.703 177.788 152.359 179.456 152.359C186.222 152.359 191.738 157.872 191.738 164.66C191.738 168.879 189.601 172.617 186.358 174.831Z" fill="#0FD5EF"/>
<path d="M179.154 32.9562C179.154 51.1264 193.918 65.9131 212.059 65.9131C225.666 65.9131 237.374 57.6008 242.369 45.7693C242.911 44.4744 243.369 43.1482 243.755 41.7802C244.537 38.9712 244.965 36.0159 244.965 32.9667C244.965 14.7965 230.201 0.00976562 212.059 0.00976562C196.337 0.00976562 183.158 11.1207 179.926 25.9075C179.623 27.265 179.415 28.6643 179.29 30.0845C179.206 31.0348 179.154 31.9955 179.154 32.9667V32.9562ZM212.059 4.17637C227.897 4.17637 240.794 17.0834 240.794 32.9562C240.794 35.3267 240.502 37.6345 239.96 39.8379C239.616 41.2163 239.178 42.553 238.646 43.8479C234.351 54.3218 224.05 61.7256 212.059 61.7256C196.222 61.7256 183.325 48.8186 183.325 32.9458C183.325 31.9955 183.377 31.0557 183.46 30.1263C183.596 28.7061 183.846 27.3277 184.18 25.9701C187.297 13.4599 198.61 4.16593 212.049 4.16593L212.059 4.17637Z" fill="#0FD5EF"/>
<path d="M81.5537 210.043C81.5537 217.938 87.9658 224.36 95.8481 224.36C98.2461 224.36 100.509 223.755 102.49 222.71C103.73 222.052 104.867 221.227 105.857 220.246C108.495 217.646 110.142 214.032 110.142 210.043C110.142 202.149 103.73 195.727 95.8481 195.727C94.7846 195.727 93.742 195.852 92.7411 196.082C91.3544 196.395 90.0511 196.896 88.8416 197.575C84.4939 200.029 81.5537 204.697 81.5537 210.043ZM95.8481 199.904C101.426 199.904 105.972 204.457 105.972 210.043C105.972 212.633 104.981 215.004 103.376 216.789C102.448 217.834 101.301 218.679 100.019 219.264C98.7466 219.849 97.3286 220.173 95.8481 220.173C90.27 220.173 85.7242 215.62 85.7242 210.033C85.7242 206.462 87.5801 203.318 90.3847 201.512C91.542 200.76 92.8662 200.248 94.2841 200.029C94.795 199.945 95.3163 199.893 95.8481 199.893V199.904Z" fill="#0FD5EF"/>
</g>
<defs>
<clipPath id="clip0_101_1263">
<rect width="318" height="306" fill="white"/>
</clipPath>
</defs>
</svg>
