<svg width="377" height="382" viewBox="0 0 377 382" fill="none" xmlns="http://www.w3.org/2000/svg">
<g opacity="0.2">
<path d="M99.5172 296.855L90.1892 314.791L111.127 303.824L117.638 307.211L128.977 289.724L105.834 300.468L99.5172 296.855Z" stroke="#0FD5EF" stroke-width="5"/>
<path d="M147.385 345.242L169.216 333.807L163.031 330.919L157.716 327.878L168.97 310.523L145.827 321.267L140.663 318.313L151.58 301.479L128.437 312.223L122.119 308.609L112.791 326.546L133.729 315.579L139.129 318.387L130.182 335.59L151.119 324.623L156.621 327.484L147.385 345.242Z" stroke="#0FD5EF" stroke-width="5"/>
<path d="M191.272 344.947C174.931 376.369 136.211 388.594 104.789 372.253C73.3675 355.912 61.1422 317.192 77.4833 285.77C93.8245 254.348 132.544 242.123 163.966 258.464C195.388 274.805 207.613 313.525 191.272 344.947Z" stroke="#0FD5EF" stroke-width="5"/>
<path d="M208.566 283.997L352.675 213.641C357.143 215.876 367.061 224.635 370.991 241.793C374.921 258.951 374.115 269.794 373.221 273.07L213.202 305.819C212.727 298.341 211.156 290.986 208.566 283.997Z" stroke="#0FD5EF" stroke-width="5"/>
<path d="M183.788 250.186L299.53 94.8493C304.519 94.599 317.462 97.3508 329.319 110.361C341.176 123.371 345.804 133.209 346.637 136.502L199.331 266.445C195.051 260.379 189.845 254.881 183.788 250.186Z" stroke="#0FD5EF" stroke-width="5"/>
<path d="M96.4463 245.639L3.65369 21.0965C6.54326 16.2285 17.589 5.93214 38.6555 3.69058C59.722 1.44903 72.9131 3.83694 76.8753 5.31109L120.019 235.984C111.706 237.863 103.727 241.12 96.4463 245.639Z" stroke="#0FD5EF" stroke-width="5"/>
<path d="M139.302 234.132L154.884 76.939C159.132 74.3107 171.795 70.471 188.46 76.1388C205.125 81.8066 213.928 88.1869 216.247 90.6686L162.135 238.4C154.648 235.767 146.952 234.372 139.302 234.132Z" stroke="#0FD5EF" stroke-width="5"/>
</g>
</svg>
