<svg width="266" height="252" viewBox="0 0 266 252" fill="none" xmlns="http://www.w3.org/2000/svg">
<g opacity="0.2">
<path d="M142.013 3.35062C82.1093 -1.09679 24.3778 37.8644 3 57.9009L5.77333 193.407C27.1511 211.938 74.968 249 131.267 249C187.565 249 245.551 209.854 263 190.28V60.3326C247.631 43.1917 201.917 7.79803 142.013 3.35062Z" stroke="#0FD5EF" stroke-width="5"/>
<path d="M52 118.169V163L82.1703 120.002H98.5535L103 74L68.2323 118.815L52 118.169Z" fill="#0FD5EF"/>
<path d="M196.603 164L228 119.362L212.805 120.004L199.173 119.463L203.578 74L168.877 118.623L155.631 118.097L159.905 74L125.204 118.623L109 117.98V162.619L139.114 119.805H152.675V162.619L182.787 119.805H196.603V164Z" fill="#0FD5EF"/>
</g>
</svg>
