<svg width="249" height="249" viewBox="0 0 249 249" fill="none" xmlns="http://www.w3.org/2000/svg">
<g opacity="0.2" clip-path="url(#clip0_101_1274)">
<path d="M234.89 26.75H227.35V34.28H234.89V26.75Z" fill="#0FD5EF"/>
<path d="M234.89 13.3809H227.35V20.9109H234.89V13.3809Z" fill="#0FD5EF"/>
<path d="M248.25 80.2402H240.72V87.7802H248.25V80.2402Z" fill="#0FD5EF"/>
<path d="M248.25 66.8691H240.72V74.3991H248.25V66.8691Z" fill="#0FD5EF"/>
<path d="M234.89 200.6H227.35V208.13H234.89V200.6Z" fill="#0FD5EF"/>
<path d="M234.89 173.859H227.35V181.399H234.89V173.859Z" fill="#0FD5EF"/>
<path d="M234.89 160.48H227.35V168.01H234.89V160.48Z" fill="#0FD5EF"/>
<path d="M234.89 147.109H227.35V154.649H234.89V147.109Z" fill="#0FD5EF"/>
<path d="M234.89 133.74H227.35V141.27H234.89V133.74Z" fill="#0FD5EF"/>
<path d="M234.89 106.99H227.35V114.53H234.89V106.99Z" fill="#0FD5EF"/>
<path d="M234.89 93.6191H227.35V101.149H234.89V93.6191Z" fill="#0FD5EF"/>
<path d="M234.89 53.5H227.35V61.03H234.89V53.5Z" fill="#0FD5EF"/>
<path d="M234.89 0H227.35V7.54H234.89V0Z" fill="#0FD5EF"/>
<path d="M221.51 240.721H213.98V248.251H221.51V240.721Z" fill="#0FD5EF"/>
<path d="M221.51 200.6H213.98V208.13H221.51V200.6Z" fill="#0FD5EF"/>
<path d="M221.51 120.369H213.98V127.899H221.51V120.369Z" fill="#0FD5EF"/>
<path d="M221.51 40.1191H213.98V47.6591H221.51V40.1191Z" fill="#0FD5EF"/>
<path d="M221.51 0H213.98V7.54H221.51V0Z" fill="#0FD5EF"/>
<path d="M208.14 240.721H200.6V248.251H208.14V240.721Z" fill="#0FD5EF"/>
<path d="M208.14 200.6H200.6V208.13H208.14V200.6Z" fill="#0FD5EF"/>
<path d="M208.14 106.99H200.6V114.53H208.14V106.99Z" fill="#0FD5EF"/>
<path d="M208.14 26.75H200.6V34.28H208.14V26.75Z" fill="#0FD5EF"/>
<path d="M208.14 0H200.6V7.54H208.14V0Z" fill="#0FD5EF"/>
<path d="M194.76 240.721H187.23V248.251H194.76V240.721Z" fill="#0FD5EF"/>
<path d="M194.76 227.35H187.23V234.88H194.76V227.35Z" fill="#0FD5EF"/>
<path d="M194.76 213.98H187.23V221.52H194.76V213.98Z" fill="#0FD5EF"/>
<path d="M194.76 200.6H187.23V208.13H194.76V200.6Z" fill="#0FD5EF"/>
<path d="M194.76 133.74H187.23V141.27H194.76V133.74Z" fill="#0FD5EF"/>
<path d="M194.76 120.369H187.23V127.899H194.76V120.369Z" fill="#0FD5EF"/>
<path d="M194.76 66.8691H187.23V74.3991H194.76V66.8691Z" fill="#0FD5EF"/>
<path d="M194.76 40.1191H187.23V47.6591H194.76V40.1191Z" fill="#0FD5EF"/>
<path d="M194.76 13.3809H187.23V20.9109H194.76V13.3809Z" fill="#0FD5EF"/>
<path d="M181.39 200.6H173.86V208.13H181.39V200.6Z" fill="#0FD5EF"/>
<path d="M181.39 160.48H173.86V168.01H181.39V160.48Z" fill="#0FD5EF"/>
<path d="M181.39 147.109H173.86V154.649H181.39V147.109Z" fill="#0FD5EF"/>
<path d="M181.39 66.8691H173.86V74.3991H181.39V66.8691Z" fill="#0FD5EF"/>
<path d="M181.39 40.1191H173.86V47.6591H181.39V40.1191Z" fill="#0FD5EF"/>
<path d="M168.02 200.6H160.48V208.13H168.02V200.6Z" fill="#0FD5EF"/>
<path d="M168.02 173.859H160.48V181.399H168.02V173.859Z" fill="#0FD5EF"/>
<path d="M168.02 120.369H160.48V127.899H168.02V120.369Z" fill="#0FD5EF"/>
<path d="M168.02 93.6191H160.48V101.149H168.02V93.6191Z" fill="#0FD5EF"/>
<path d="M168.02 40.1191H160.48V47.6591H168.02V40.1191Z" fill="#0FD5EF"/>
<path d="M168.02 0H160.48V7.54H168.02V0Z" fill="#0FD5EF"/>
<path d="M154.64 173.859H147.11V181.399H154.64V173.859Z" fill="#0FD5EF"/>
<path d="M154.64 133.74H147.11V141.27H154.64V133.74Z" fill="#0FD5EF"/>
<path d="M154.64 93.6191H147.11V101.149H154.64V93.6191Z" fill="#0FD5EF"/>
<path d="M154.64 66.8691H147.11V74.3991H154.64V66.8691Z" fill="#0FD5EF"/>
<path d="M154.64 53.5H147.11V61.03H154.64V53.5Z" fill="#0FD5EF"/>
<path d="M154.64 40.1191H147.11V47.6591H154.64V40.1191Z" fill="#0FD5EF"/>
<path d="M154.64 13.3809H147.11V20.9109H154.64V13.3809Z" fill="#0FD5EF"/>
<path d="M141.27 227.35H133.74V234.88H141.27V227.35Z" fill="#0FD5EF"/>
<path d="M141.27 200.6H133.74V208.13H141.27V200.6Z" fill="#0FD5EF"/>
<path d="M141.27 173.859H133.74V181.399H141.27V173.859Z" fill="#0FD5EF"/>
<path d="M141.27 147.109H133.74V154.649H141.27V147.109Z" fill="#0FD5EF"/>
<path d="M127.9 227.35H120.36V234.88H127.9V227.35Z" fill="#0FD5EF"/>
<path d="M127.9 200.6H120.36V208.13H127.9V200.6Z" fill="#0FD5EF"/>
<path d="M127.9 173.859H120.36V181.399H127.9V173.859Z" fill="#0FD5EF"/>
<path d="M127.9 147.109H120.36V154.649H127.9V147.109Z" fill="#0FD5EF"/>
<path d="M127.9 93.6191H120.36V101.149H127.9V93.6191Z" fill="#0FD5EF"/>
<path d="M127.9 53.5H120.36V61.03H127.9V53.5Z" fill="#0FD5EF"/>
<path d="M127.9 40.1191H120.36V47.6591H127.9V40.1191Z" fill="#0FD5EF"/>
<path d="M127.9 0H120.36V7.54H127.9V0Z" fill="#0FD5EF"/>
<path d="M114.52 227.35H106.99V234.88H114.52V227.35Z" fill="#0FD5EF"/>
<path d="M114.52 200.6H106.99V208.13H114.52V200.6Z" fill="#0FD5EF"/>
<path d="M114.52 173.859H106.99V181.399H114.52V173.859Z" fill="#0FD5EF"/>
<path d="M114.52 147.109H106.99V154.649H114.52V147.109Z" fill="#0FD5EF"/>
<path d="M114.52 133.74H106.99V141.27H114.52V133.74Z" fill="#0FD5EF"/>
<path d="M114.52 93.6191H106.99V101.149H114.52V93.6191Z" fill="#0FD5EF"/>
<path d="M114.52 66.8691H106.99V74.3991H114.52V66.8691Z" fill="#0FD5EF"/>
<path d="M114.52 40.1191H106.99V47.6591H114.52V40.1191Z" fill="#0FD5EF"/>
<path d="M114.52 13.3809H106.99V20.9109H114.52V13.3809Z" fill="#0FD5EF"/>
<path d="M101.15 240.721H93.6104V248.251H101.15V240.721Z" fill="#0FD5EF"/>
<path d="M101.15 227.35H93.6104V234.88H101.15V227.35Z" fill="#0FD5EF"/>
<path d="M101.15 213.98H93.6104V221.52H101.15V213.98Z" fill="#0FD5EF"/>
<path d="M101.15 200.6H93.6104V208.13H101.15V200.6Z" fill="#0FD5EF"/>
<path d="M101.15 160.48H93.6104V168.01H101.15V160.48Z" fill="#0FD5EF"/>
<path d="M101.15 66.8691H93.6104V74.3991H101.15V66.8691Z" fill="#0FD5EF"/>
<path d="M101.15 40.1191H93.6104V47.6591H101.15V40.1191Z" fill="#0FD5EF"/>
<path d="M87.7702 160.48H80.2402V168.01H87.7702V160.48Z" fill="#0FD5EF"/>
<path d="M87.7702 40.1191H80.2402V47.6591H87.7702V40.1191Z" fill="#0FD5EF"/>
<path d="M87.7702 0H80.2402V7.54H87.7702V0Z" fill="#0FD5EF"/>
<path d="M74.4001 240.721H66.8701V248.251H74.4001V240.721Z" fill="#0FD5EF"/>
<path d="M74.4001 227.35H66.8701V234.88H74.4001V227.35Z" fill="#0FD5EF"/>
<path d="M74.4001 213.98H66.8701V221.52H74.4001V213.98Z" fill="#0FD5EF"/>
<path d="M74.4001 200.6H66.8701V208.13H74.4001V200.6Z" fill="#0FD5EF"/>
<path d="M74.4001 147.109H66.8701V154.649H74.4001V147.109Z" fill="#0FD5EF"/>
<path d="M74.4001 133.74H66.8701V141.27H74.4001V133.74Z" fill="#0FD5EF"/>
<path d="M74.4001 120.369H66.8701V127.899H74.4001V120.369Z" fill="#0FD5EF"/>
<path d="M74.4001 66.8691H66.8701V74.3991H74.4001V66.8691Z" fill="#0FD5EF"/>
<path d="M74.4001 53.5H66.8701V61.03H74.4001V53.5Z" fill="#0FD5EF"/>
<path d="M74.4001 40.1191H66.8701V47.6591H74.4001V40.1191Z" fill="#0FD5EF"/>
<path d="M74.4001 13.3809H66.8701V20.9109H74.4001V13.3809Z" fill="#0FD5EF"/>
<path d="M61.0302 240.721H53.4902V248.251H61.0302V240.721Z" fill="#0FD5EF"/>
<path d="M61.0302 106.99H53.4902V114.53H61.0302V106.99Z" fill="#0FD5EF"/>
<path d="M61.0302 26.75H53.4902V34.28H61.0302V26.75Z" fill="#0FD5EF"/>
<path d="M61.0302 0H53.4902V7.54H61.0302V0Z" fill="#0FD5EF"/>
<path d="M47.6501 240.721H40.1201V248.251H47.6501V240.721Z" fill="#0FD5EF"/>
<path d="M47.6501 227.35H40.1201V234.88H47.6501V227.35Z" fill="#0FD5EF"/>
<path d="M47.6501 213.98H40.1201V221.52H47.6501V213.98Z" fill="#0FD5EF"/>
<path d="M47.6501 120.369H40.1201V127.899H47.6501V120.369Z" fill="#0FD5EF"/>
<path d="M47.6501 80.2402H40.1201V87.7802H47.6501V80.2402Z" fill="#0FD5EF"/>
<path d="M47.6501 66.8691H40.1201V74.3991H47.6501V66.8691Z" fill="#0FD5EF"/>
<path d="M47.6501 26.75H40.1201V34.28H47.6501V26.75Z" fill="#0FD5EF"/>
<path d="M47.6501 0H40.1201V7.54H47.6501V0Z" fill="#0FD5EF"/>
<path d="M34.28 213.98H26.75V221.52H34.28V213.98Z" fill="#0FD5EF"/>
<path d="M34.28 120.369H26.75V127.899H34.28V120.369Z" fill="#0FD5EF"/>
<path d="M34.28 40.1191H26.75V47.6591H34.28V40.1191Z" fill="#0FD5EF"/>
<path d="M34.28 0H26.75V7.54H34.28V0Z" fill="#0FD5EF"/>
<path d="M20.9101 240.721H13.3701V248.251H20.9101V240.721Z" fill="#0FD5EF"/>
<path d="M20.9101 227.35H13.3701V234.88H20.9101V227.35Z" fill="#0FD5EF"/>
<path d="M20.9101 213.98H13.3701V221.52H20.9101V213.98Z" fill="#0FD5EF"/>
<path d="M20.9101 200.6H13.3701V208.13H20.9101V200.6Z" fill="#0FD5EF"/>
<path d="M20.9101 173.859H13.3701V181.399H20.9101V173.859Z" fill="#0FD5EF"/>
<path d="M20.9101 160.48H13.3701V168.01H20.9101V160.48Z" fill="#0FD5EF"/>
<path d="M20.9101 147.109H13.3701V154.649H20.9101V147.109Z" fill="#0FD5EF"/>
<path d="M20.9101 133.74H13.3701V141.27H20.9101V133.74Z" fill="#0FD5EF"/>
<path d="M20.9101 106.99H13.3701V114.53H20.9101V106.99Z" fill="#0FD5EF"/>
<path d="M20.9101 93.6191H13.3701V101.149H20.9101V93.6191Z" fill="#0FD5EF"/>
<path d="M20.9101 53.5H13.3701V61.03H20.9101V53.5Z" fill="#0FD5EF"/>
<path d="M20.9101 26.75H13.3701V34.28H20.9101V26.75Z" fill="#0FD5EF"/>
<path d="M20.9101 13.3809H13.3701V20.9109H20.9101V13.3809Z" fill="#0FD5EF"/>
<path d="M20.9101 0H13.3701V7.54H20.9101V0Z" fill="#0FD5EF"/>
<path d="M7.53 80.2402H0V87.7802H7.53V80.2402Z" fill="#0FD5EF"/>
<path d="M7.53 66.8691H0V74.3991H7.53V66.8691Z" fill="#0FD5EF"/>
</g>
<defs>
<clipPath id="clip0_101_1274">
<rect width="248.26" height="248.26" fill="white"/>
</clipPath>
</defs>
</svg>
