<svg width="332" height="330" viewBox="0 0 332 330" fill="none" xmlns="http://www.w3.org/2000/svg">
<g opacity="0.2" clip-path="url(#clip0_101_1459)">
<path d="M85.6807 151.804L115.837 158.028C115.911 157.396 115.998 156.776 116.134 156.144C116.258 155.548 116.419 154.966 116.593 154.383L86.2882 148.121C86.2014 149.138 86.0527 150.167 85.8295 151.196C85.7923 151.395 85.7303 151.593 85.6807 151.791V151.804Z" fill="#0FD5EF"/>
<path d="M254.366 44.2008L268.787 29.4948L273.028 50.0782C274.255 49.917 275.483 49.669 276.673 49.3094L271.019 21.9062L251.824 41.4853C252.593 42.4772 253.449 43.37 254.366 44.2132V44.2008Z" fill="#0FD5EF"/>
<path d="M119.495 158.786L138.256 162.655L151.722 148.916C150.928 147.961 150.035 147.093 149.056 146.324L137.016 158.6L120.251 155.14C120.066 155.723 119.917 156.306 119.793 156.901C119.656 157.533 119.57 158.153 119.508 158.773L119.495 158.786Z" fill="#0FD5EF"/>
<path d="M225.115 191.969L49.4746 288.103C50.1442 289.157 50.727 290.261 51.2354 291.377L226.876 195.242C226.876 195.242 226.826 195.18 226.802 195.143C226.132 194.126 225.586 193.06 225.103 191.981L225.115 191.969Z" fill="#0FD5EF"/>
<path d="M154.314 146.261L251.763 46.8535C250.857 46.0103 249.989 45.1176 249.196 44.1504L151.673 143.657C152.64 144.451 153.52 145.331 154.326 146.261H154.314Z" fill="#0FD5EF"/>
<path d="M301.856 171.508C300.616 171.681 299.413 171.967 298.223 172.339L302.513 193.133L282.686 188.991C282.637 189.214 282.562 189.425 282.513 189.648C282.302 190.653 282.19 191.657 282.104 192.674L307.3 197.931L301.856 171.508Z" fill="#0FD5EF"/>
<path d="M279.029 188.221L267.076 185.729C267.001 186.348 266.915 186.956 266.791 187.564C266.667 188.171 266.493 188.766 266.319 189.362L278.434 191.891C278.533 190.887 278.669 189.882 278.868 188.878C278.917 188.655 278.967 188.432 279.029 188.221Z" fill="#0FD5EF"/>
<path d="M56.4427 168.618L61.0057 146.708L82.0355 151.048C82.0851 150.849 82.1471 150.651 82.1967 150.44C82.4075 149.411 82.5315 148.382 82.6059 147.365L58.129 142.318L52.8096 167.837C53.4792 168.035 54.1487 168.221 54.8431 168.37C55.3763 168.482 55.9095 168.544 56.4427 168.618Z" fill="#0FD5EF"/>
<path d="M33.9014 276.657L55.6751 172.29C55.1419 172.215 54.6087 172.116 54.0755 172.017C53.3812 171.868 52.7116 171.694 52.042 171.496L30.2559 275.926C30.9502 276.013 31.6446 276.112 32.3266 276.248C32.8598 276.36 33.3806 276.521 33.9014 276.657Z" fill="#0FD5EF"/>
<path d="M297.466 168.657C298.644 168.298 299.86 168.025 301.1 167.839L277.416 52.9688C276.226 53.3159 275.011 53.5763 273.783 53.7499L297.466 168.657Z" fill="#0FD5EF"/>
<path d="M29.2012 299.185L33.1443 280.288C32.6235 280.139 32.1027 279.991 31.5695 279.879C30.8751 279.73 30.1808 279.631 29.4988 279.557L23.9189 306.315L47.9742 293.147C47.4782 292.018 46.8955 290.915 46.2135 289.873L29.2012 299.185Z" fill="#0FD5EF"/>
<path d="M263.431 184.975L245.625 181.256L244.956 181.119L228.39 190.183C228.811 191.188 229.32 192.167 229.94 193.097C230.014 193.221 230.113 193.32 230.188 193.444L245.538 185.037L262.675 188.609C262.861 188.026 263.022 187.418 263.146 186.811C263.27 186.203 263.369 185.583 263.431 184.975Z" fill="#0FD5EF"/>
<path d="M49.314 287.817C45.6809 282.274 40.2498 278.368 33.9136 276.657C33.3928 276.521 32.8721 276.36 32.3389 276.248C31.6445 276.099 30.9625 276.013 30.2681 275.926C23.9195 275.107 17.5585 276.533 12.1523 280.08C6.15086 284.01 2.04659 290.037 0.583432 297.055C-0.879724 304.073 0.471835 311.24 4.40252 317.241C8.3332 323.243 14.3594 327.347 21.3776 328.81C23.2251 329.195 25.0727 329.381 26.9078 329.381C32.0785 329.381 37.1375 327.88 41.5642 324.991C47.5656 321.06 51.6699 315.034 53.133 308.016C54.3234 302.337 53.629 296.559 51.2483 291.388C50.7275 290.272 50.1571 289.169 49.4876 288.115C49.4256 288.028 49.3884 287.929 49.3264 287.829L49.314 287.817ZM49.4876 307.247C48.2228 313.298 44.6889 318.494 39.5183 321.866C34.3476 325.239 28.1726 326.417 22.134 325.152C16.083 323.887 10.8999 320.354 7.51482 315.183C4.12973 310.012 2.96416 303.837 4.22892 297.799C5.49368 291.748 9.02758 286.552 14.1982 283.18C18.0049 280.687 22.3696 279.398 26.821 279.398C27.7138 279.398 28.619 279.46 29.5118 279.571C30.2061 279.658 30.9005 279.745 31.5825 279.894C32.1157 280.005 32.6365 280.154 33.1572 280.303C38.5263 281.816 43.1266 285.151 46.2141 289.863V289.888C46.9208 290.942 47.4912 292.045 47.9872 293.161C49.9463 297.563 50.5043 302.436 49.5 307.247H49.4876Z" fill="#0FD5EF"/>
<path d="M55.6748 172.29C56.9768 172.476 58.2788 172.575 59.5683 172.575C71.8067 172.575 82.8176 164.131 85.6819 151.806C85.7315 151.608 85.7935 151.409 85.8307 151.211C86.0415 150.182 86.1903 149.153 86.2895 148.136C87.5047 134.757 78.5025 122.258 65.0366 119.456C58.0184 117.992 50.8514 119.344 44.85 123.275C38.8485 127.205 34.7443 133.231 33.2811 140.25C30.4044 154.05 38.7245 167.616 52.0417 171.497C52.7113 171.695 53.3809 171.869 54.0753 172.018C54.6085 172.129 55.1416 172.216 55.6748 172.29ZM36.9266 141.006C38.1914 134.955 41.7253 129.76 46.8959 126.387C50.7026 123.895 55.0673 122.605 59.5187 122.605C61.1059 122.605 62.7054 122.766 64.2926 123.101C75.7374 125.494 83.4252 136.021 82.6068 147.379C82.5324 148.396 82.4208 149.425 82.1976 150.455C82.1604 150.665 82.086 150.851 82.0364 151.062C79.2837 162.668 68.1489 170.232 56.4436 168.62C55.9104 168.546 55.3772 168.484 54.8441 168.372C54.1497 168.223 53.4801 168.037 52.8105 167.839C41.5021 164.392 34.4715 152.798 36.9266 141.018V141.006Z" fill="#0FD5EF"/>
<path d="M327.611 179.667C323.68 173.665 317.654 169.561 310.636 168.098C307.399 167.428 304.188 167.366 301.1 167.837C299.86 168.023 298.658 168.296 297.467 168.656C288.539 171.334 281.286 178.588 279.029 188.235C278.979 188.458 278.917 188.669 278.868 188.892C278.657 189.896 278.521 190.901 278.434 191.905C277.863 197.931 279.327 203.933 282.699 209.079C286.63 215.08 292.656 219.184 299.674 220.647C301.522 221.032 303.369 221.218 305.217 221.218C310.388 221.218 315.447 219.717 319.861 216.828C325.862 212.898 329.967 206.871 331.43 199.853C332.893 192.835 331.541 185.668 327.611 179.667ZM327.784 199.097C326.52 205.148 322.986 210.343 317.815 213.716C312.644 217.101 306.469 218.267 300.431 217.002C294.38 215.737 289.184 212.203 285.812 207.033C282.997 202.718 281.732 197.708 282.117 192.661C282.191 191.657 282.315 190.64 282.526 189.636C282.575 189.413 282.637 189.202 282.699 188.979C284.646 180.832 290.734 174.694 298.248 172.326C299.426 171.954 300.642 171.669 301.882 171.495C302.96 171.334 304.064 171.235 305.167 171.235C306.73 171.235 308.305 171.396 309.892 171.731C315.943 172.996 321.138 176.53 324.511 181.7C327.896 186.871 329.061 193.046 327.797 199.084L327.784 199.097Z" fill="#0FD5EF"/>
<path d="M251.763 46.8531C255.297 50.139 259.649 52.4329 264.497 53.4373C266.345 53.8217 268.192 54.0077 270.04 54.0077C271.304 54.0077 272.557 53.9209 273.797 53.7349C275.024 53.5613 276.239 53.3009 277.43 52.9537C279.972 52.2221 282.415 51.1062 284.696 49.6182C290.697 45.6875 294.802 39.6613 296.265 32.6431C299.29 18.148 289.953 3.90079 275.471 0.88768C260.988 -2.13783 246.728 7.19909 243.715 21.6819C242.252 28.7 243.604 35.867 247.534 41.8684C248.055 42.662 248.626 43.4184 249.208 44.15C250.002 45.1171 250.87 46.0099 251.775 46.8531H251.763ZM250.634 39.8349C247.249 34.6643 246.084 28.4892 247.348 22.4506C249.617 11.5514 259.264 4.04958 269.978 4.04958C271.54 4.04958 273.115 4.21078 274.702 4.54557C287.188 7.14949 295.223 19.4251 292.619 31.8991C291.355 37.9502 287.821 43.1456 282.65 46.5183C280.778 47.7459 278.757 48.6758 276.673 49.3082C275.483 49.6678 274.268 49.9158 273.028 50.077C270.474 50.4118 267.857 50.3498 265.253 49.8042C261.112 48.9362 257.392 46.9895 254.367 44.1996C253.461 43.3688 252.606 42.4636 251.825 41.4717C251.403 40.9385 251.006 40.4053 250.634 39.8225V39.8349Z" fill="#0FD5EF"/>
<path d="M115.85 158.028C114.499 169.238 121.951 179.839 133.197 182.195C134.71 182.505 136.211 182.666 137.698 182.666C147.903 182.666 157.079 175.512 159.249 165.146C160.7 158.177 158.654 151.283 154.326 146.273C153.52 145.331 152.64 144.463 151.673 143.669C149.007 141.475 145.795 139.863 142.187 139.106C136.434 137.904 130.556 139.02 125.634 142.244C121.219 145.133 118.07 149.411 116.594 154.408C116.421 154.99 116.26 155.573 116.136 156.168C115.999 156.801 115.912 157.421 115.838 158.053L115.85 158.028ZM127.68 145.331C130.693 143.359 134.14 142.33 137.661 142.33C138.914 142.33 140.178 142.454 141.431 142.727C144.32 143.335 146.887 144.599 149.044 146.323C150.024 147.104 150.916 147.972 151.71 148.915C155.17 153.068 156.782 158.685 155.604 164.377C153.545 174.247 143.836 180.608 133.954 178.55C124.704 176.615 118.541 167.985 119.483 158.785C119.545 158.165 119.645 157.532 119.769 156.912C119.893 156.317 120.041 155.722 120.227 155.152C121.492 151.122 124.084 147.687 127.655 145.343L127.68 145.331Z" fill="#0FD5EF"/>
<path d="M267.076 185.73C267.708 180.572 266.53 175.414 263.654 171.012C260.43 166.089 255.495 162.717 249.729 161.526C243.975 160.324 238.086 161.44 233.175 164.663C228.253 167.887 224.88 172.822 223.69 178.588C222.735 183.164 223.268 187.801 225.128 191.98C225.612 193.071 226.169 194.137 226.827 195.142C226.851 195.179 226.876 195.204 226.901 195.241C230.125 200.102 235.035 203.437 240.751 204.627C242.264 204.937 243.789 205.099 245.29 205.099C249.53 205.099 253.672 203.871 257.305 201.49C261.707 198.614 264.844 194.348 266.332 189.364C266.505 188.768 266.667 188.173 266.803 187.566C266.927 186.958 267.014 186.338 267.088 185.73H267.076ZM255.259 198.378C251.167 201.056 246.282 201.986 241.495 200.982C236.846 200.015 232.853 197.336 230.175 193.443C230.1 193.331 230.001 193.22 229.927 193.096C229.319 192.166 228.811 191.186 228.377 190.182C226.938 186.784 226.541 183.027 227.323 179.345C228.315 174.558 231.117 170.454 235.209 167.776C238.222 165.804 241.669 164.775 245.191 164.775C246.443 164.775 247.708 164.899 248.96 165.172C253.746 166.164 257.851 168.966 260.529 173.058C262.86 176.629 263.864 180.795 263.418 184.974C263.356 185.594 263.257 186.202 263.133 186.809C263.009 187.417 262.848 188.024 262.662 188.607C261.397 192.612 258.818 196.047 255.247 198.378H255.259Z" fill="#0FD5EF"/>
</g>
<defs>
<clipPath id="clip0_101_1459">
<rect width="332" height="329.061" fill="white" transform="translate(0 0.318359)"/>
</clipPath>
</defs>
</svg>
