<svg width="284" height="251" viewBox="0 0 284 251" fill="none" xmlns="http://www.w3.org/2000/svg">
<g opacity="0.2">
<path d="M213.359 228.604C213.359 228.604 260.722 235.552 260.429 191.452C260.241 162.656 260.136 112.794 260.136 97.707" stroke="#0FD5EF" stroke-width="5.94142" stroke-miterlimit="10"/>
<path d="M260.428 96.2119C271.519 96.2119 280.51 87.2211 280.51 76.1304C280.51 65.0396 271.519 56.0488 260.428 56.0488C249.338 56.0488 240.347 65.0396 240.347 76.1304C240.347 87.2211 249.338 96.2119 260.428 96.2119Z" stroke="#0FD5EF" stroke-width="5.94142" stroke-miterlimit="10"/>
<path d="M70.6425 192.493C70.6425 192.493 23.2795 199.441 23.5726 155.341C23.7611 126.545 23.8658 160.863 23.8658 145.775" stroke="#0FD5EF" stroke-width="5.94142" stroke-miterlimit="10"/>
<path d="M23.5718 142.528C34.6625 142.528 43.6533 133.538 43.6533 122.447C43.6533 111.356 34.6625 102.365 23.5718 102.365C12.481 102.365 3.49023 111.356 3.49023 122.447C3.49023 133.538 12.481 142.528 23.5718 142.528Z" stroke="#0FD5EF" stroke-width="5.94142" stroke-miterlimit="10"/>
<path d="M200.365 89.0605H83.2786C78.111 89.0605 73.9219 93.2497 73.9219 98.4173V237.421C73.9219 242.589 78.111 246.778 83.2786 246.778H200.365C205.533 246.778 209.722 242.589 209.722 237.421V98.4173C209.722 93.2497 205.533 89.0605 200.365 89.0605Z" stroke="#0FD5EF" stroke-width="5.94142" stroke-miterlimit="10"/>
<path d="M91.5674 135.74H192.08" stroke="#0FD5EF" stroke-width="5.94142" stroke-miterlimit="10" stroke-linecap="round"/>
<path d="M91.5674 167.482H192.08" stroke="#0FD5EF" stroke-width="5.94142" stroke-miterlimit="10" stroke-linecap="round"/>
<path d="M91.5674 200.094H192.08" stroke="#0FD5EF" stroke-width="5.94142" stroke-miterlimit="10" stroke-linecap="round"/>
<path d="M141.824 44.5811C152.914 44.5811 161.905 35.5902 161.905 24.4995C161.905 13.4088 152.914 4.41797 141.824 4.41797C130.733 4.41797 121.742 13.4088 121.742 24.4995C121.742 35.5902 130.733 44.5811 141.824 44.5811Z" stroke="#0FD5EF" stroke-width="5.94142" stroke-miterlimit="10"/>
<path d="M141.824 44.5801V89.0603" stroke="#0FD5EF" stroke-width="5.94142" stroke-miterlimit="10"/>
</g>
</svg>
