<svg width="490" height="254" viewBox="0 0 490 254" fill="none" xmlns="http://www.w3.org/2000/svg">
<g opacity="0.2">
<path d="M83.9513 127.171H82.6465L81.9004 128.241L2.5 242.155V127.139L45.0677 128.843L46.359 128.895L47.1479 127.871L138.594 9.21353L127.268 127.171H83.9513Z" stroke="#0FD5EF" stroke-width="5"/>
<path d="M160.751 127.139L203.324 128.843L204.615 128.894L205.404 127.871L296.844 9.21413L285.761 124.627L285.508 127.258L288.15 127.364L325.075 128.843L326.367 128.895L327.156 127.871L418.596 9.21379L407.147 128.469L406.894 131.1L409.536 131.206L447.538 132.729L447.642 132.733L447.745 132.729L485.061 131.136L404.971 246.041V129.671V127.171H402.471H363.954H362.649L361.903 128.241L282.508 242.154V129.671V127.171H280.008H242.202H240.898L240.151 128.241L160.751 242.155V127.139Z" stroke="#0FD5EF" stroke-width="5"/>
</g>
</svg>
