<svg width="278" height="296" viewBox="0 0 278 296" fill="none" xmlns="http://www.w3.org/2000/svg">
<g opacity="0.2">
<path d="M23.5604 155.04C22.5504 154.83 21.5304 154.63 20.5204 154.41L21.3504 150.5C21.6804 150.57 22.0104 150.63 22.3404 150.7C20.0904 141.97 18.8404 132.84 18.6804 123.45H16.8104V119.45H18.6804C18.8404 109.89 20.1504 100.6 22.4704 91.7195C22.1304 91.7895 21.7904 91.8595 21.4604 91.9295L20.6304 88.0195C21.6504 87.7995 22.6804 87.5995 23.7004 87.3895C26.4104 78.4695 30.1504 70.0095 34.7804 62.1195C34.7204 62.1495 34.6504 62.1695 34.5904 62.1995L32.9404 58.5595C34.2704 57.9595 35.6104 57.3795 36.9504 56.8095C38.5004 52.7395 40.1804 48.7095 42.0004 44.7695C24.9104 65.6995 14.6504 92.3995 14.6504 121.46C14.6504 139.85 18.7704 157.29 26.1104 172.93C27.7804 173.38 29.5104 173.88 31.2804 174.42C28.1504 168.25 25.5504 161.77 23.5404 155.04H23.5604Z" fill="#0FD5EF"/>
<path d="M73.2504 18.16L76.8703 19.87C76.8403 19.93 76.8204 19.98 76.7904 20.04C76.9104 20 77.0403 19.96 77.1604 19.91C85.5204 15.04 94.5404 11.16 104.04 8.45999C104.32 7.38999 104.6 6.31001 104.89 5.24001L108.75 6.28999C108.66 6.62999 108.58 6.96 108.48 7.3C116.72 5.31 125.29 4.17999 134.1 4.03999V1.18H138.1V4.03999C146.83 4.18999 155.33 5.29 163.51 7.25C163.39 6.8 163.28 6.35 163.15 5.91L167.01 4.85001C167.34 6.03001 167.64 7.22 167.96 8.41C177.29 11.04 186.14 14.8 194.38 19.52C194.56 19.58 194.73 19.64 194.91 19.7C194.84 19.55 194.78 19.4 194.71 19.26L198.32 17.53C198.96 18.86 199.56 20.2 200.18 21.54C203.64 22.81 207.05 24.17 210.41 25.65L208.81 29.29C215.1 34.26 220.86 39.86 226.01 45.98C225.97 45.91 225.94 45.83 225.91 45.75L229.52 44.04C231.5 48.21 233.31 52.46 234.97 56.78C236.65 57.5 238.32 58.24 239.98 59L238.31 62.63C238.05 62.51 237.78 62.4 237.52 62.28C242.13 70.15 245.85 78.6 248.54 87.49C249.76 87.74 250.98 87.99 252.19 88.25L251.35 92.16C250.82 92.05 250.29 91.94 249.76 91.83C252.07 100.68 253.36 109.93 253.52 119.45H255.87V123.45H253.52C253.36 132.8 252.11 141.89 249.89 150.59C250.38 150.49 250.88 150.39 251.37 150.28L252.21 154.19C251.03 154.44 249.86 154.68 248.68 154.93C246.43 162.49 243.43 169.74 239.78 176.58C241.62 175.94 243.43 175.34 245.19 174.79C253.1 158.68 257.55 140.58 257.55 121.45C257.55 54.48 203.07 0 136.1 0C107.59 0 81.3504 9.88 60.6104 26.39C64.2004 24.77 67.8504 23.28 71.5404 21.9C72.1004 20.65 72.6604 19.39 73.2504 18.15V18.16Z" fill="#0FD5EF"/>
<path d="M45.4496 46.8693C50.5996 40.6193 56.3796 34.9193 62.6996 29.8493C62.4896 29.9393 62.2796 30.0293 62.0796 30.1193L60.4496 26.5293C53.7296 31.8993 47.5896 37.9493 42.1396 44.5993L45.7196 46.2593C45.6296 46.4593 45.5396 46.6593 45.4496 46.8593V46.8693Z" fill="#0FD5EF"/>
<path d="M137.69 40.2598C136.5 40.2598 135.31 40.2698 134.11 40.2798V75.8798C134.78 75.8798 135.44 75.8698 136.11 75.8698C136.78 75.8698 137.44 75.8798 138.11 75.8798V40.2598C137.97 40.2598 137.83 40.2598 137.69 40.2598Z" fill="#0FD5EF"/>
<path d="M136.11 79.8809H135.86C135.28 79.8809 134.69 79.8809 134.11 79.8909V119.461H135.56C136.83 117.791 137.6 116.871 137.65 116.821L138.11 116.281V79.9008C137.44 79.9008 136.78 79.8909 136.11 79.8909V79.8809Z" fill="#0FD5EF"/>
<path d="M137.71 36.2598C137.84 36.2598 137.97 36.2598 138.11 36.2598V14.0999C137.89 14.0999 137.67 14.0898 137.44 14.0898C136.33 14.0898 135.22 14.0998 134.11 14.1198V36.2798C135.31 36.2798 136.51 36.2498 137.71 36.2598Z" fill="#0FD5EF"/>
<path d="M138.11 1.17969H134.11V10.1297C135.23 10.1097 136.35 10.0997 137.47 10.0997C137.68 10.0997 137.9 10.1097 138.11 10.1097V1.17969Z" fill="#0FD5EF"/>
<path d="M31.2496 152.511C29.6596 142.951 28.8396 133.251 28.8096 123.461H24.8096C24.8396 132.971 25.5996 142.381 27.0696 151.681C28.4596 151.961 29.8496 152.231 31.2496 152.501V152.511Z" fill="#0FD5EF"/>
<path d="M35.0699 62.0005C32.3099 69.9805 30.0799 78.1505 28.4199 86.4305C29.8399 86.1505 31.2599 85.8806 32.6799 85.6105C34.5199 76.8405 36.9899 68.2005 40.0899 59.8105C38.4099 60.5205 36.7299 61.2605 35.0599 62.0105L35.0699 62.0005Z" fill="#0FD5EF"/>
<path d="M27.6301 90.6696C25.9401 100.2 25.0001 109.85 24.8301 119.47H28.8301C29.0101 109.57 30.0401 99.6496 31.8501 89.8496C30.4401 90.1196 29.0301 90.3896 27.6301 90.6796V90.6696Z" fill="#0FD5EF"/>
<path d="M27.79 155.91C28.94 162.24 30.43 168.51 32.25 174.71C33.76 175.18 35.3 175.68 36.87 176.22C34.88 169.8 33.26 163.29 32 156.73C30.59 156.46 29.19 156.2 27.79 155.92V155.91Z" fill="#0FD5EF"/>
<path d="M42.0897 54.6599C43.1497 52.0299 44.2697 49.4398 45.4597 46.8698C45.5497 46.6698 45.6397 46.4699 45.7297 46.2699L42.1497 44.6098L42.0997 44.5898C42.0697 44.6498 42.0497 44.7098 42.0197 44.7798C40.1897 48.7198 38.5097 52.7398 36.9697 56.8198C38.6697 56.0798 40.3797 55.3698 42.0997 54.6698L42.0897 54.6599Z" fill="#0FD5EF"/>
<path d="M101.25 38.7509C102.67 31.3709 104.28 24.0209 106.07 16.7109C104.63 16.9609 103.19 17.2209 101.76 17.5009C100.01 24.7509 98.4396 32.0409 97.0596 39.3609C98.4596 39.1409 99.8496 38.9509 101.25 38.7509Z" fill="#0FD5EF"/>
<path d="M95.1699 161.061C94.0399 148.571 93.4399 136.021 93.3799 123.461H89.3799C89.4399 135.921 90.0199 148.361 91.1199 160.751C92.4699 160.861 93.8199 160.961 95.1699 161.061Z" fill="#0FD5EF"/>
<path d="M101.16 203.71C99.76 203.51 98.36 203.31 96.96 203.08C98.16 209.46 99.5 215.81 100.97 222.14C101.68 223.16 102.37 224.19 103.05 225.22C104.01 225.4 104.98 225.56 105.95 225.73C104.16 218.43 102.56 211.09 101.15 203.71H101.16Z" fill="#0FD5EF"/>
<path d="M91.1699 81.7104C90.0399 94.2504 89.4399 106.85 89.3799 119.46H93.3799C93.4399 106.74 94.0499 94.0404 95.2099 81.4004C93.8599 81.5004 92.5099 81.6004 91.1599 81.7104H91.1699Z" fill="#0FD5EF"/>
<path d="M96.29 43.5406C94.27 54.8506 92.67 66.2306 91.54 77.6706C92.89 77.5606 94.24 77.4606 95.59 77.3606C96.76 65.8106 98.39 54.3106 100.47 42.8906C99.08 43.1006 97.68 43.3106 96.29 43.5406Z" fill="#0FD5EF"/>
<path d="M100.38 199.551C98.31 188.131 96.69 176.641 95.54 165.101C94.19 165.001 92.84 164.901 91.5 164.801C92.62 176.221 94.2 187.601 96.21 198.901C97.6 199.131 98.99 199.341 100.39 199.551H100.38Z" fill="#0FD5EF"/>
<path d="M105.9 229.789C106.53 230.849 107.14 231.899 107.73 232.959C107.54 232.209 107.36 231.449 107.18 230.689C107.12 230.449 107.05 230.219 106.99 229.979C106.62 229.919 106.26 229.859 105.89 229.789H105.9Z" fill="#0FD5EF"/>
<path d="M108.76 6.3L104.9 5.25C104.61 6.32 104.34 7.4 104.05 8.47C103.63 10.06 103.21 11.64 102.81 13.23C104.25 12.96 105.69 12.72 107.13 12.49C107.57 10.76 108.03 9.03 108.49 7.31C108.58 6.97 108.66 6.64 108.76 6.3Z" fill="#0FD5EF"/>
<path d="M53.2795 160.369C54.7495 169.329 56.6495 177.749 58.7995 185.579C60.4395 186.439 62.0795 187.339 63.7195 188.289C61.2695 179.899 59.0895 170.779 57.4295 160.989C56.0395 160.789 54.6595 160.579 53.2695 160.369H53.2795Z" fill="#0FD5EF"/>
<path d="M66.3499 46.2501C68.7399 39.0601 71.4499 31.9901 74.4999 25.0801C72.7499 25.7201 71.0199 26.3801 69.2999 27.0701C66.4599 33.8101 63.8999 40.6801 61.6699 47.6601C63.2299 47.1801 64.7899 46.7001 66.3499 46.2501Z" fill="#0FD5EF"/>
<path d="M56.8601 85.5999C55.4801 85.7999 54.1001 86.0198 52.7101 86.2298C51.1501 96.7598 50.2701 107.36 50.1201 117.95C50.1201 118.46 50.1201 118.96 50.1201 119.46H54.1201C54.1201 118.97 54.1201 118.49 54.1201 118C54.2801 107.19 55.2101 96.3398 56.8601 85.5898V85.5999Z" fill="#0FD5EF"/>
<path d="M56.7804 156.851C55.2004 146.401 54.2204 135.241 54.1104 123.461H50.1104C50.2104 134.991 51.1304 145.941 52.6404 156.221C54.0204 156.431 55.4004 156.651 56.7804 156.851Z" fill="#0FD5EF"/>
<path d="M60.2599 52.2898C57.3499 62.0698 55.0499 72.0298 53.3799 82.0898C54.7599 81.8798 56.1499 81.6698 57.5299 81.4698C59.3099 71.1198 61.7599 60.8798 64.8699 50.8398C63.3299 51.3098 61.7899 51.7898 60.2499 52.2898H60.2599Z" fill="#0FD5EF"/>
<path d="M73.25 18.1602C72.66 19.4002 72.11 20.6602 71.54 21.9102C73.28 21.2602 75.03 20.6301 76.79 20.0401C76.82 19.9801 76.84 19.9301 76.87 19.8701L73.25 18.1602Z" fill="#0FD5EF"/>
<path d="M243.41 123.459C243.41 133.199 242.65 142.849 241.11 152.379C242.5 152.109 243.89 151.839 245.28 151.549C246.7 142.289 247.42 132.909 247.41 123.449H243.41V123.459Z" fill="#0FD5EF"/>
<path d="M231.83 59.7793C234.98 68.1993 237.5 76.8693 239.38 85.6693C240.81 85.9393 242.23 86.2193 243.65 86.4993C241.95 78.1993 239.69 69.9993 236.88 62.0093C235.2 61.2493 233.52 60.5093 231.82 59.7893L231.83 59.7793Z" fill="#0FD5EF"/>
<path d="M240.24 89.9102C242.09 99.6802 243.15 109.58 243.37 119.46H247.37C247.16 109.86 246.19 100.24 244.47 90.7402C243.06 90.4602 241.65 90.1902 240.24 89.9102Z" fill="#0FD5EF"/>
<path d="M234.97 56.7791C233.31 52.4591 231.5 48.2091 229.52 44.0391L225.91 45.7491C225.95 45.8191 225.98 45.8991 226.01 45.9791C227.36 48.8291 228.63 51.7191 229.83 54.6391C231.55 55.3391 233.27 56.0491 234.97 56.7891V56.7791Z" fill="#0FD5EF"/>
<path d="M240.37 156.599C239 163.939 237.17 171.209 234.88 178.379C236.48 177.769 238.05 177.189 239.61 176.649C241.68 169.779 243.33 162.819 244.58 155.789C243.18 156.069 241.78 156.339 240.37 156.609V156.599Z" fill="#0FD5EF"/>
<path d="M180.8 164.75C179.45 164.86 178.1 164.96 176.76 165.06C175.89 173.87 174.75 182.66 173.35 191.4C173.67 193.96 173.9 196.56 174.04 199.18C174.75 199.07 175.45 198.97 176.16 198.85C178.15 187.55 179.7 176.17 180.81 164.75H180.8Z" fill="#0FD5EF"/>
<path d="M175.03 39.3898C173.62 32.0098 172.03 24.6598 170.25 17.3598C168.82 17.0798 167.38 16.8298 165.94 16.5898C167.76 23.9398 169.39 31.3198 170.83 38.7498C172.23 38.9498 173.63 39.1798 175.03 39.3998V39.3898Z" fill="#0FD5EF"/>
<path d="M178.84 123.461C178.8 136.011 178.22 148.541 177.11 161.021C178.46 160.921 179.81 160.811 181.16 160.701C182.24 148.321 182.81 135.901 182.84 123.461H178.84Z" fill="#0FD5EF"/>
<path d="M176.94 81.4297C178.12 94.0597 178.75 106.75 178.83 119.46H182.83C182.75 106.86 182.13 94.2797 180.98 81.7497C179.63 81.6397 178.28 81.5397 176.93 81.4297H176.94Z" fill="#0FD5EF"/>
<path d="M174.17 203.2C174.17 203.75 174.19 204.29 174.19 204.84C174.19 206.56 174.14 208.26 174.06 209.95C174.53 207.64 174.97 205.33 175.4 203.01C174.99 203.08 174.58 203.14 174.17 203.2Z" fill="#0FD5EF"/>
<path d="M171.62 42.9102C173.72 54.3302 175.37 65.8402 176.56 77.3902C177.91 77.4902 179.26 77.5901 180.62 77.7001C179.46 66.2602 177.85 54.8702 175.81 43.5602C174.42 43.3302 173.03 43.1202 171.63 42.9102H171.62Z" fill="#0FD5EF"/>
<path d="M167.01 4.84961L163.15 5.90961C163.27 6.35961 163.39 6.8096 163.51 7.2496C163.97 8.9496 164.43 10.6496 164.87 12.3596C166.31 12.5896 167.75 12.8296 169.19 13.0996C168.79 11.5396 168.38 9.96961 167.96 8.40961C167.64 7.21961 167.34 6.02961 167.01 4.84961Z" fill="#0FD5EF"/>
<path d="M219.41 86.2901C218.03 86.0801 216.64 85.8602 215.25 85.6602C216.97 96.6302 217.93 107.7 218.09 118.74C218.09 118.98 218.09 119.22 218.09 119.46H222.09C222.09 119.2 222.09 118.94 222.09 118.68C221.93 107.87 221.03 97.0301 219.4 86.2901H219.41Z" fill="#0FD5EF"/>
<path d="M210.31 47.6507C208.01 40.5407 205.38 33.5407 202.44 26.6807C200.72 26.0007 198.98 25.3507 197.24 24.7207C200.38 31.7407 203.17 38.9307 205.62 46.2407C207.19 46.7007 208.75 47.1607 210.31 47.6407V47.6507Z" fill="#0FD5EF"/>
<path d="M214.92 160.89C213.08 171.94 210.59 182.16 207.78 191.41C208.48 191.19 209.18 190.97 209.89 190.75C210.8 190.18 211.72 189.62 212.64 189.08C215.18 180.25 217.41 170.62 219.07 160.27C217.69 160.48 216.3 160.69 214.92 160.89Z" fill="#0FD5EF"/>
<path d="M218.12 123.461C218.05 135.211 217.11 146.341 215.56 156.761C216.94 156.561 218.32 156.341 219.7 156.131C221.17 145.881 222.06 134.961 222.12 123.461H218.12Z" fill="#0FD5EF"/>
<path d="M207.12 50.8496C210.27 60.8996 212.76 71.1596 214.57 81.5196C215.96 81.7196 217.34 81.9296 218.73 82.1396C217.03 72.0696 214.7 62.0996 211.75 52.3096C210.21 51.8096 208.67 51.3196 207.12 50.8496Z" fill="#0FD5EF"/>
<path d="M194.71 19.2495C194.78 19.3995 194.84 19.5495 194.91 19.6895C196.67 20.2795 198.43 20.8895 200.17 21.5295C199.56 20.1895 198.95 18.8395 198.31 17.5195L194.7 19.2495H194.71Z" fill="#0FD5EF"/>
<path d="M93.3803 119.461H16.8203V123.461H132.64C133.78 121.851 134.77 120.511 135.56 119.461H93.3803Z" fill="#0FD5EF"/>
<path d="M182.84 123.461H255.88V119.461H142.78C143.58 120.511 144.57 121.851 145.7 123.461H182.84Z" fill="#0FD5EF"/>
<path d="M31.8602 89.8409C38.7802 88.5009 45.7402 87.3008 52.7102 86.2309C54.0902 86.0209 55.4702 85.8009 56.8602 85.6009C68.2502 83.9409 79.7002 82.6508 91.1702 81.7108C92.5202 81.6008 93.8702 81.5008 95.2202 81.4008C108.17 80.4408 121.15 79.9309 134.12 79.8909C134.7 79.8909 135.29 79.8809 135.87 79.8809H136.12C136.79 79.8809 137.45 79.8909 138.12 79.8909C151.07 79.9409 164.02 80.4608 176.95 81.4308C178.3 81.5308 179.65 81.6309 181 81.7509C192.46 82.7009 203.89 84.0009 215.27 85.6609C216.66 85.8609 218.04 86.0808 219.43 86.2908C226.4 87.3608 233.34 88.5709 240.26 89.9109C241.67 90.1809 243.08 90.4509 244.49 90.7409C246.26 91.1009 248.02 91.4709 249.79 91.8409C250.32 91.9509 250.85 92.0609 251.38 92.1709L252.22 88.2608C251 88.0008 249.78 87.7509 248.57 87.5009C246.94 87.1609 245.32 86.8309 243.69 86.5009C242.27 86.2209 240.84 85.9409 239.42 85.6709C232.56 84.3609 225.67 83.1909 218.76 82.1409C217.38 81.9309 215.99 81.7209 214.6 81.5209C203.32 79.9009 191.99 78.6209 180.64 77.7009C179.29 77.5909 177.94 77.4909 176.58 77.3909C163.78 76.4409 150.95 75.9409 138.13 75.8909C137.46 75.8909 136.8 75.8809 136.13 75.8809C135.46 75.8809 134.8 75.8909 134.13 75.8909C121.28 75.9309 108.43 76.4308 95.6102 77.3708C94.2602 77.4708 92.9102 77.5708 91.5602 77.6808C80.1902 78.6008 68.8402 79.8609 57.5502 81.4809C56.1602 81.6809 54.7802 81.8909 53.4002 82.1009C46.4802 83.1409 39.5802 84.3208 32.7102 85.6208C31.2902 85.8909 29.8702 86.1609 28.4502 86.4409C26.8702 86.7509 25.3002 87.0808 23.7302 87.4008C22.7102 87.6108 21.6802 87.8209 20.6602 88.0309L21.4902 91.9409C21.8302 91.8709 22.1602 91.8008 22.5002 91.7309C24.2102 91.3709 25.9302 91.0109 27.6502 90.6709C29.0602 90.3909 30.4702 90.1209 31.8702 89.8409H31.8602Z" fill="#0FD5EF"/>
<path d="M40.0997 59.7998C46.6897 56.9998 53.4197 54.4998 60.2497 52.2898C61.7797 51.7898 63.3197 51.3098 64.8697 50.8398C75.1697 47.7298 85.6797 45.2898 96.2897 43.5398C97.6797 43.3098 99.0697 43.0998 100.47 42.8898C111.63 41.2398 122.88 40.3698 134.11 40.2798C135.3 40.2798 136.49 40.2498 137.69 40.2598C137.83 40.2598 137.97 40.2598 138.11 40.2598C149.29 40.3598 160.5 41.2498 171.62 42.8998C173.01 43.1098 174.41 43.3198 175.8 43.5498C186.38 45.2998 196.86 47.7398 207.12 50.8398C208.67 51.3098 210.21 51.7998 211.75 52.2998C218.56 54.4998 225.26 56.9898 231.83 59.7698C233.53 60.4898 235.21 61.2398 236.89 61.9898C237.1 62.0798 237.31 62.1698 237.52 62.2698C237.78 62.3898 238.05 62.4998 238.31 62.6198L239.98 58.9898C238.32 58.2298 236.65 57.4998 234.97 56.7698C233.27 56.0298 231.55 55.3198 229.83 54.6198C223.43 52.0298 216.92 49.6898 210.32 47.6398C208.76 47.1498 207.2 46.6898 205.63 46.2398C195.59 43.3298 185.36 41.0298 175.04 39.3798C173.64 39.1598 172.24 38.9298 170.84 38.7298C159.98 37.1798 149.04 36.3498 138.12 36.2598C137.99 36.2598 137.86 36.2598 137.72 36.2598C136.52 36.2598 135.32 36.2798 134.12 36.2798C123.15 36.3698 112.16 37.1898 101.26 38.7398C99.8597 38.9398 98.4597 39.1298 97.0697 39.3498C86.7097 40.9998 76.4397 43.3098 66.3697 46.2298C64.7997 46.6798 63.2397 47.1598 61.6897 47.6398C55.0597 49.6998 48.5297 52.0398 42.1097 54.6498C40.3897 55.3498 38.6797 56.0598 36.9797 56.7998C35.6397 57.3798 34.2997 57.9498 32.9697 58.5498L34.6197 62.1898C34.6797 62.1598 34.7497 62.1398 34.8097 62.1098C34.8997 62.0698 34.9997 62.0298 35.0897 61.9898C36.7597 61.2398 38.4297 60.5098 40.1197 59.7898L40.0997 59.7998Z" fill="#0FD5EF"/>
<path d="M62.6999 29.8596C64.8799 28.8896 67.0799 27.9596 69.2999 27.0696C71.0199 26.3796 72.7599 25.7196 74.4999 25.0796C83.3599 21.8496 92.4899 19.3196 101.76 17.5096C103.19 17.2296 104.63 16.9696 106.07 16.7196C115.35 15.1296 124.74 14.2596 134.11 14.1296C135.22 14.1196 136.33 14.0996 137.44 14.0996C137.66 14.0996 137.88 14.1096 138.11 14.1096C147.39 14.1996 156.71 15.0396 165.93 16.5796C167.37 16.8196 168.81 17.0796 170.24 17.3496C179.41 19.1096 188.46 21.5796 197.23 24.7196C198.98 25.3396 200.71 25.9996 202.43 26.6796C204.57 27.5196 206.69 28.3896 208.78 29.3096V29.2796L210.39 25.6396C207.03 24.1696 203.61 22.7996 200.16 21.5296C198.42 20.8896 196.66 20.2696 194.9 19.6896C194.72 19.6296 194.55 19.5696 194.37 19.5096C186.15 16.7896 177.71 14.6396 169.18 13.0896C167.74 12.8296 166.31 12.5796 164.86 12.3496C155.98 10.9496 147.02 10.1896 138.1 10.1096C137.89 10.1096 137.67 10.0996 137.46 10.0996C136.34 10.0996 135.22 10.1096 134.1 10.1296C125.09 10.2496 116.06 11.0396 107.12 12.4796C105.68 12.7096 104.24 12.9596 102.8 13.2196C94.1099 14.8296 85.5199 17.0796 77.1499 19.9096C77.0299 19.9496 76.8999 19.9896 76.7799 20.0396C75.0199 20.6396 73.2699 21.2596 71.5299 21.9096C67.8399 23.2896 64.1899 24.7796 60.5999 26.3996C60.5399 26.4296 60.4799 26.4496 60.4199 26.4796L60.4399 26.5296L62.0699 30.1196C62.2799 30.0296 62.4899 29.9396 62.6899 29.8496L62.6999 29.8596Z" fill="#0FD5EF"/>
<path d="M91.1303 160.75C79.6403 159.81 68.1803 158.51 56.7803 156.85C55.4003 156.65 54.0203 156.43 52.6403 156.22C45.4803 155.12 38.3503 153.88 31.2503 152.5C29.8603 152.23 28.4603 151.96 27.0703 151.68C25.4903 151.36 23.9203 151.04 22.3503 150.7C22.0203 150.63 21.6903 150.57 21.3603 150.5L20.5303 154.41C21.5403 154.63 22.5503 154.83 23.5703 155.04C24.9803 155.33 26.3903 155.63 27.8003 155.91C29.2003 156.19 30.6103 156.45 32.0103 156.72C39.0803 158.07 46.1703 159.28 53.2903 160.36C54.6703 160.57 56.0603 160.78 57.4503 160.98C68.7603 162.6 80.1203 163.87 91.5103 164.79C92.8603 164.9 94.2103 165 95.5503 165.09C100.66 165.46 105.77 165.77 110.89 166C111.34 164.67 111.8 163.35 112.28 162.06C106.58 161.81 100.88 161.48 95.1803 161.05C93.8303 160.95 92.4803 160.85 91.1303 160.74V160.75Z" fill="#0FD5EF"/>
<path d="M180.8 164.749C192.21 163.819 203.59 162.529 214.92 160.889C216.31 160.689 217.69 160.479 219.07 160.269C226.2 159.189 233.3 157.959 240.37 156.599C241.77 156.329 243.18 156.059 244.58 155.779C245.95 155.499 247.32 155.219 248.69 154.929C249.87 154.679 251.05 154.449 252.22 154.189L251.38 150.279C250.89 150.389 250.39 150.479 249.9 150.589C248.36 150.919 246.82 151.239 245.28 151.549C243.89 151.829 242.5 152.099 241.11 152.379C234 153.769 226.86 155.019 219.7 156.119C218.32 156.329 216.94 156.549 215.56 156.749C204.14 158.429 192.66 159.729 181.16 160.689C179.81 160.799 178.46 160.909 177.11 161.009C173.39 161.289 169.67 161.539 165.95 161.739C166.43 163.029 166.89 164.339 167.34 165.659C170.48 165.479 173.61 165.269 176.74 165.039C178.09 164.939 179.44 164.839 180.78 164.729L180.8 164.749Z" fill="#0FD5EF"/>
<path d="M176.15 198.85C175.44 198.97 174.74 199.07 174.03 199.18C174.1 200.51 174.15 201.86 174.17 203.21C174.58 203.15 174.99 203.08 175.4 203.02C183.58 201.7 191.69 199.98 199.7 197.86C203.02 195.28 206.43 192.92 209.88 190.76C209.18 190.98 208.48 191.21 207.77 191.42C197.41 194.58 186.83 197.07 176.14 198.86L176.15 198.85Z" fill="#0FD5EF"/>
<path d="M96.2097 198.9C88.2097 197.58 80.2697 195.87 72.4297 193.77C75.1897 195.67 77.9097 197.71 80.5597 199.9C85.9897 201.14 91.4597 202.21 96.9597 203.09C98.3597 203.31 99.7597 203.52 101.16 203.72C102.16 203.86 103.16 204 104.16 204.13C104.16 202.79 104.2 201.45 104.26 200.12C102.97 199.95 101.68 199.75 100.38 199.56C98.9897 199.35 97.5897 199.14 96.1997 198.91L96.2097 198.9Z" fill="#0FD5EF"/>
<path d="M171.54 228.93C171.84 228.87 172.14 228.8 172.45 228.74C173.41 227.16 174.41 225.59 175.46 224.02C174.44 224.25 173.41 224.46 172.39 224.67C172.13 226.1 171.85 227.52 171.55 228.93H171.54Z" fill="#0FD5EF"/>
<path d="M103.06 225.221C104.05 226.731 105 228.261 105.91 229.791C106.28 229.851 106.64 229.921 107.01 229.981H107.04C106.73 228.591 106.44 227.191 106.17 225.771C106.1 225.761 106.03 225.751 105.96 225.731C104.99 225.561 104.03 225.411 103.06 225.221Z" fill="#0FD5EF"/>
<path d="M171.54 228.93C171.84 227.52 172.12 226.11 172.38 224.67C173.24 219.89 173.82 214.97 174.06 209.94C174.14 208.25 174.19 206.55 174.19 204.83C174.19 204.28 174.19 203.74 174.17 203.19C174.15 201.84 174.1 200.5 174.03 199.16C173.89 196.54 173.66 193.94 173.34 191.38C172.22 182.28 170.05 173.63 167.34 165.66C166.89 164.33 166.43 163.02 165.95 161.74C159.61 144.64 151.05 131.03 145.7 123.45C144.56 121.84 143.57 120.5 142.78 119.45C141.51 117.78 140.74 116.86 140.69 116.81L139.17 115.02L138.11 116.27L137.65 116.81C137.6 116.87 136.83 117.79 135.56 119.45C134.76 120.5 133.77 121.84 132.64 123.45C127.26 131.08 118.63 144.81 112.27 162.06C111.79 163.35 111.33 164.67 110.88 166C107.38 176.4 104.8 187.93 104.26 200.1C104.2 201.43 104.17 202.77 104.16 204.11C104.16 204.35 104.16 204.59 104.16 204.83C104.16 212.03 104.91 219.04 106.17 225.76C106.44 227.18 106.73 228.58 107.04 229.98C107.09 230.22 107.14 230.45 107.2 230.69C107.38 231.45 107.56 232.21 107.75 232.96C115.03 245.99 119.6 259.16 122.44 269.82C130.19 283.96 137.51 292.68 137.66 292.87L139.18 294.66L140.7 292.87C140.85 292.69 147.46 284.81 154.77 271.89C157.68 260.4 162.66 245.57 171.06 231.08C171.23 230.37 171.39 229.65 171.54 228.93ZM139.17 288.36C132.74 280.04 108.15 245.57 108.15 204.84C108.15 164.11 132.74 129.65 139.17 121.32C145.6 129.64 170.19 164.11 170.19 204.84C170.19 245.57 145.6 280.04 139.17 288.36Z" fill="#0FD5EF"/>
<path d="M105.9 229.791C104.99 228.261 104.04 226.741 103.05 225.221C102.38 224.191 101.68 223.161 100.97 222.141C97.27 216.831 93.06 211.681 88.25 206.881C85.77 204.401 83.19 202.081 80.55 199.901C77.9 197.711 75.18 195.671 72.42 193.771C69.55 191.801 66.64 189.971 63.72 188.291C62.08 187.351 60.44 186.441 58.8 185.581C51.29 181.651 43.82 178.601 36.87 176.221C35.3 175.681 33.76 175.181 32.25 174.711C31.93 174.611 31.61 174.511 31.3 174.421C29.52 173.881 27.8 173.391 26.13 172.931C12.35 169.191 2.56 168.331 2.34 168.321L0 168.131L0.19 170.471C0.23 170.991 4.75 222.401 38.75 256.401C72.75 290.401 124.16 294.921 124.68 294.961L127.02 295.151L126.83 292.811C126.81 292.591 125.98 283.181 122.43 269.821C119.6 259.161 115.02 245.991 107.74 232.961C107.15 231.901 106.54 230.841 105.91 229.791H105.9ZM122.56 290.701C112.12 289.371 70.37 282.371 41.57 253.571C12.8 224.801 5.79 183.021 4.44 172.581C14.88 173.921 56.66 180.941 85.43 209.711C114.2 238.481 121.22 280.271 122.56 290.711V290.701Z" fill="#0FD5EF"/>
<path d="M275.39 168.319C275.13 168.339 262.26 169.469 245.2 174.799C243.44 175.349 241.63 175.939 239.79 176.589C239.73 176.609 239.67 176.629 239.61 176.649C238.06 177.189 236.48 177.769 234.88 178.379C227.69 181.149 220.1 184.649 212.63 189.079C211.71 189.619 210.79 190.179 209.88 190.749C206.43 192.909 203.02 195.269 199.7 197.849C196.16 200.599 192.72 203.599 189.45 206.869C184.08 212.239 179.44 218.049 175.44 224.019C174.39 225.579 173.39 227.159 172.43 228.739C171.96 229.519 171.49 230.299 171.04 231.079C162.63 245.569 157.65 260.399 154.75 271.889C151.65 284.139 150.91 292.599 150.89 292.799L150.7 295.139L153.04 294.949C153.56 294.909 204.97 290.389 238.97 256.389C272.97 222.389 277.49 170.979 277.53 170.459L277.72 168.119L275.38 168.309L275.39 168.319ZM236.16 253.569C207.39 282.339 165.61 289.349 155.17 290.699C156.51 280.259 163.52 238.479 192.3 209.709C221.07 180.939 262.85 173.929 273.29 172.579C271.95 183.019 264.94 224.799 236.16 253.569Z" fill="#0FD5EF"/>
</g>
</svg>
