<svg width="369" height="189" viewBox="0 0 369 189" fill="none" xmlns="http://www.w3.org/2000/svg">
<g opacity="0.2" clip-path="url(#clip0_101_1514)">
<path d="M49.7355 101.095V93.7848C51.2149 93.7051 52.3325 93.4805 53.0813 93.1146C53.83 92.7488 54.4811 92.1366 55.0273 91.2709C55.5735 90.4088 55.9497 89.3257 56.1522 88.0253C56.315 87.0509 56.3946 85.3557 56.3946 82.9396C56.3946 78.9986 56.5754 76.2529 56.9408 74.6989C57.3061 73.145 57.9644 71.8989 58.9157 70.9535C59.867 70.0081 61.2596 69.2619 63.0826 68.7149C64.3197 68.3491 66.2657 68.168 68.9206 68.168H70.5339V75.4488C68.284 75.4488 66.8372 75.5755 66.2006 75.8291C65.5603 76.0827 65.0901 76.4702 64.7863 76.9882C64.4824 77.5062 64.3305 78.3937 64.3305 79.6542C64.3305 80.9148 64.2401 83.3598 64.0556 86.935C63.9543 88.9454 63.6903 90.5754 63.2635 91.8251C62.8366 93.0748 62.2941 94.1035 61.6358 94.9186C60.9775 95.7299 59.9683 96.5739 58.6082 97.4469C59.8055 98.1388 60.7821 98.9429 61.5453 99.8666C62.3049 100.79 62.8873 101.913 63.2924 103.232C63.6975 104.55 63.9616 106.318 64.0846 108.531C64.2256 111.903 64.298 114.055 64.298 114.99C64.298 116.33 64.4607 117.264 64.7863 117.793C65.1118 118.322 65.6037 118.721 66.2621 118.996C66.9204 119.271 68.3455 119.405 70.5339 119.405V126.715H68.9206C66.1825 126.715 64.0846 126.498 62.6232 126.059C61.1619 125.621 59.9321 124.897 58.9266 123.882C57.921 122.868 57.2482 121.611 56.9046 120.122C56.561 118.63 56.3873 116.279 56.3873 113.07C56.3873 109.335 56.2246 106.908 55.899 105.789C55.4541 104.166 54.7777 103.003 53.8771 102.301C52.9728 101.598 51.591 101.2 49.7246 101.098L49.7355 101.095Z" stroke="#0FD5EF" stroke-width="2"/>
<path d="M74.4004 99.0552L83.161 98.204C83.6891 101.149 84.7598 103.311 86.3694 104.691C87.9827 106.072 90.1565 106.763 92.8947 106.763C95.7956 106.763 97.9804 106.148 99.4489 104.92C100.917 103.692 101.655 102.254 101.655 100.609C101.655 99.5551 101.344 98.6567 100.729 97.9142C100.111 97.1716 99.0293 96.5268 97.4884 95.9799C96.4322 95.614 94.0305 94.9656 90.2795 94.0311C85.4543 92.8321 82.0687 91.3615 80.1227 89.6155C77.3845 87.1596 76.0172 84.164 76.0172 80.6286C76.0172 78.3538 76.6611 76.2276 77.9488 74.2462C79.2365 72.2648 81.0921 70.7579 83.5155 69.7219C85.939 68.686 88.8652 68.168 92.2906 68.168C97.8863 68.168 102.1 69.3959 104.929 71.8555C107.757 74.3114 109.244 77.5932 109.385 81.6936L100.382 82.0884C99.9951 79.7955 99.1704 78.1437 97.9044 77.1404C96.6384 76.1334 94.7358 75.6335 92.2002 75.6335C89.6646 75.6335 87.5378 76.1696 86.0547 77.249C85.0998 77.9409 84.626 78.8646 84.626 80.0201C84.626 81.0778 85.0709 81.9797 85.9643 82.7296C87.1001 83.6822 89.8563 84.6783 94.2366 85.7143C98.617 86.7503 101.854 87.8225 103.956 88.9273C106.054 90.0357 107.696 91.5462 108.882 93.466C110.069 95.3858 110.662 97.7548 110.662 100.577C110.662 103.134 109.953 105.532 108.531 107.767C107.114 110.002 105.106 111.661 102.509 112.747C99.9119 113.834 96.6782 114.377 92.8079 114.377C87.1724 114.377 82.8427 113.073 79.8188 110.465C76.7985 107.857 74.9936 104.054 74.404 99.0588L74.4004 99.0552Z" stroke="#0FD5EF" stroke-width="2"/>
<path d="M116.193 96.9547C116.193 94.1112 116.891 91.3618 118.291 88.6995C119.691 86.0407 121.673 84.0086 124.238 82.6068C126.802 81.205 129.667 80.5059 132.828 80.5059C137.715 80.5059 141.719 82.096 144.841 85.2728C147.962 88.4495 149.525 92.4667 149.525 97.3205C149.525 102.174 147.948 106.271 144.794 109.488C141.639 112.708 137.671 114.316 132.886 114.316C129.924 114.316 127.102 113.646 124.415 112.306C121.727 110.966 119.684 109.002 118.287 106.412C116.888 103.823 116.189 100.671 116.189 96.9547H116.193ZM124.954 97.4111C124.954 100.62 125.713 103.076 127.236 104.782C128.759 106.489 130.633 107.34 132.864 107.34C135.096 107.34 136.966 106.485 138.474 104.782C139.983 103.076 140.739 100.599 140.739 97.3495C140.739 94.1003 139.983 91.7458 138.474 90.0397C136.963 88.3336 135.092 87.4824 132.864 87.4824C130.636 87.4824 128.759 88.3372 127.236 90.0397C125.717 91.7458 124.954 94.2017 124.954 97.4111V97.4111Z" stroke="#0FD5EF" stroke-width="2"/>
<path d="M156.22 113.584V68.9316H164.767V113.584H156.22Z" stroke="#0FD5EF" stroke-width="2"/>
<path d="M190.864 68.9316H207.319C211.03 68.9316 213.858 69.2178 215.804 69.7829C218.419 70.5544 220.658 71.9273 222.525 73.8942C224.391 75.8647 225.809 78.2771 226.782 81.1279C227.755 83.9822 228.244 87.4995 228.244 91.6832C228.244 95.3598 227.788 98.5257 226.876 101.184C225.762 104.434 224.171 107.063 222.102 109.074C220.539 110.599 218.43 111.783 215.775 112.638C213.786 113.268 211.131 113.584 207.807 113.584H190.864V68.9316ZM199.867 76.4841V106.06H206.588C209.102 106.06 210.918 105.919 212.032 105.633C213.493 105.267 214.701 104.647 215.667 103.774C216.629 102.901 217.418 101.463 218.025 99.4639C218.633 97.4644 218.937 94.7368 218.937 91.2848C218.937 87.8327 218.633 85.1812 218.025 83.3338C217.418 81.4865 216.564 80.0448 215.472 79.0088C214.376 77.9729 212.987 77.2738 211.305 76.9079C210.046 76.6218 207.583 76.4805 203.915 76.4805H199.871L199.867 76.4841Z" stroke="#0FD5EF" stroke-width="2"/>
<path d="M254.522 103.29L263.037 104.721C261.941 107.847 260.212 110.23 257.85 111.864C255.488 113.498 252.532 114.316 248.984 114.316C243.367 114.316 239.211 112.48 236.512 108.803C234.382 105.858 233.318 102.145 233.318 97.6538C233.318 92.2928 234.718 88.0946 237.514 85.0591C240.314 82.0236 243.851 80.5059 248.13 80.5059C252.938 80.5059 256.728 82.096 259.506 85.2728C262.284 88.4495 263.612 93.3179 263.492 99.8778H242.079C242.141 102.417 242.828 104.391 244.148 105.804C245.465 107.217 247.107 107.919 249.075 107.919C250.413 107.919 251.538 107.553 252.449 106.822C253.361 106.09 254.052 104.913 254.518 103.29H254.522ZM255.01 94.64C254.949 92.1624 254.312 90.2788 253.093 88.9893C251.878 87.6997 250.395 87.055 248.651 87.055C246.785 87.055 245.244 87.7359 244.029 89.0943C242.813 90.4563 242.213 92.3036 242.235 94.6364H255.01V94.64Z" stroke="#0FD5EF" stroke-width="2"/>
<path d="M279.342 113.583L266.324 81.2363H275.298L281.382 97.7467L283.147 103.26C283.614 101.858 283.907 100.934 284.03 100.489C284.312 99.576 284.616 98.6631 284.942 97.7467L291.087 81.2363H299.877L287.043 113.583H279.349H279.342Z" stroke="#0FD5EF" stroke-width="2"/>
<path d="M322.806 101.095C321.327 101.175 320.209 101.399 319.46 101.765C318.708 102.131 318.064 102.747 317.529 103.609C316.99 104.471 316.61 105.554 316.389 106.855C316.226 107.829 316.147 109.513 316.147 111.911C316.147 115.852 315.97 118.602 315.615 120.166C315.261 121.731 314.606 122.985 313.655 123.926C312.7 124.872 311.304 125.618 309.459 126.165C308.222 126.531 306.276 126.712 303.617 126.712H302.004V119.402C304.174 119.402 305.592 119.264 306.261 118.993C306.93 118.718 307.422 118.323 307.737 117.805C308.052 117.287 308.214 116.407 308.225 115.171C308.236 113.932 308.319 111.567 308.482 108.075C308.583 105.963 308.858 104.272 309.303 103.004C309.748 101.736 310.341 100.66 311.083 99.7766C311.821 98.8928 312.772 98.1176 313.926 97.4475C312.425 96.4731 311.329 95.5168 310.642 94.5859C309.687 93.2456 309.039 91.5395 308.696 89.4676C308.471 88.0476 308.309 84.918 308.207 80.0859C308.186 78.5645 308.052 77.5466 307.799 77.0395C307.545 76.5324 307.09 76.1412 306.431 75.8659C305.773 75.5906 304.297 75.4566 302.008 75.4566V68.1758H303.621C306.359 68.1758 308.457 68.3895 309.918 68.8169C311.379 69.2444 312.606 69.9688 313.597 70.9939C314.591 72.019 315.264 73.2796 315.619 74.772C315.973 76.2643 316.15 78.6152 316.15 81.8209C316.15 85.5374 316.302 87.9643 316.606 89.1017C317.051 90.7281 317.731 91.8873 318.643 92.59C319.554 93.2891 320.943 93.6912 322.81 93.7926V101.102L322.806 101.095Z" stroke="#0FD5EF" stroke-width="2"/>
<path d="M341.575 0.90625H27.425C12.778 0.90625 0.904297 12.7969 0.904297 27.4648V161.536C0.904297 176.204 12.778 188.095 27.425 188.095H341.575C356.222 188.095 368.096 176.204 368.096 161.536V27.4648C368.096 12.7969 356.222 0.90625 341.575 0.90625Z" stroke="#0FD5EF" stroke-width="5" stroke-miterlimit="10"/>
<path d="M345.192 36.7877C350.088 36.7877 354.057 32.8128 354.057 27.9095C354.057 23.0062 350.088 19.0312 345.192 19.0312C340.295 19.0312 336.326 23.0062 336.326 27.9095C336.326 32.8128 340.295 36.7877 345.192 36.7877Z" stroke="#0FD5EF" stroke-width="2" stroke-miterlimit="10"/>
<path d="M345.192 60.0943C350.088 60.0943 354.057 56.1194 354.057 51.2161C354.057 46.3128 350.088 42.3379 345.192 42.3379C340.295 42.3379 336.326 46.3128 336.326 51.2161C336.326 56.1194 340.295 60.0943 345.192 60.0943Z" stroke="#0FD5EF" stroke-width="2" stroke-miterlimit="10"/>
<path d="M345.192 83.399C350.088 83.399 354.057 79.4241 354.057 74.5208C354.057 69.6175 350.088 65.6426 345.192 65.6426C340.295 65.6426 336.326 69.6175 336.326 74.5208C336.326 79.4241 340.295 83.399 345.192 83.399Z" stroke="#0FD5EF" stroke-width="2" stroke-miterlimit="10"/>
</g>
<defs>
<clipPath id="clip0_101_1514">
<rect width="369" height="189" fill="white"/>
</clipPath>
</defs>
</svg>
