<svg width="293" height="238" viewBox="0 0 293 238" fill="none" xmlns="http://www.w3.org/2000/svg">
<g opacity="0.2" clip-path="url(#clip0_101_1220)">
<path d="M284.672 21.0243C259.02 -15.1549 176.364 -0.619674 100.055 53.4874C86.3459 63.2043 73.7779 73.5427 62.5277 84.1658C60.276 82.6601 57.5739 81.7677 54.6619 81.729C46.6414 81.624 40.0521 88.0393 39.9471 96.0597C39.9057 99.2978 40.9252 102.298 42.6851 104.738C5.36211 147.434 -9.78368 191.424 8.32662 216.966C33.9794 253.143 116.638 238.608 192.947 184.5C269.259 130.393 310.325 57.2007 284.675 21.0243H284.672ZM148.377 163.45C96.1318 200.494 39.541 210.446 21.9777 185.677C9.48148 168.051 20.1156 137.588 46.122 108.136C48.4345 109.763 51.2415 110.733 54.2806 110.775C62.3011 110.88 68.8877 104.461 68.9927 96.441C69.0341 93.3439 68.1003 90.4595 66.4785 88.0779C72.1782 83.1518 78.2923 78.3528 84.7767 73.7555C137.022 36.7116 193.612 26.7599 211.176 51.5286C228.736 76.3 200.622 126.407 148.377 163.45Z" stroke="#0CA4FB" stroke-width="5" stroke-miterlimit="10"/>
</g>
<defs>
<clipPath id="clip0_101_1220">
<rect width="293" height="237.114" fill="white" transform="translate(0 0.4375)"/>
</clipPath>
</defs>
</svg>
