<svg width="316" height="252" viewBox="0 0 316 252" fill="none" xmlns="http://www.w3.org/2000/svg">
<g opacity="0.2">
<g opacity="0.4">
<path d="M120.092 159.51H118.787L118.041 160.58L103.593 181.309V163.45L111.215 163.755L112.506 163.807L113.295 162.783L129.891 141.249L128.138 159.51H120.092Z" stroke="#0FD5EF" stroke-width="5"/>
<path d="M139.406 163.45L147.029 163.755L148.321 163.807L149.11 162.783L165.704 141.249L163.951 159.51H155.905H154.601L153.855 160.58L139.406 181.309V163.45ZM166.961 181.309V163.45L174.583 163.755L175.875 163.807L176.664 162.783L193.259 141.249L191.505 159.51H183.459H182.155L181.408 160.58L166.961 181.309ZM194.676 164.329L202.298 164.635L202.402 164.639L202.505 164.634L207.047 164.441L194.676 182.188V164.329Z" stroke="#0FD5EF" stroke-width="5"/>
</g>
<circle opacity="0.4" cx="156.569" cy="161.314" r="87.6462" stroke="#0FD5EF" stroke-width="5"/>
<g opacity="0.4">
<g opacity="0.4">
<mask id="path-4-inside-1_101_1494" fill="white">
<path d="M260.51 102.675L256.826 111.236L266.082 105.487L269.19 106.825L273.813 98.4027L263.536 104.123L260.51 102.675Z"/>
</mask>
<path d="M260.51 102.675L262.668 98.1648L257.973 95.9184L255.917 100.699L260.51 102.675ZM256.826 111.236L252.233 109.26L245.943 123.881L259.464 115.483L256.826 111.236ZM266.082 105.487L268.058 100.894L265.661 99.8631L263.444 101.24L266.082 105.487ZM269.19 106.825L267.214 111.418L271.387 113.213L273.573 109.231L269.19 106.825ZM273.813 98.4027L278.196 100.809L286.55 85.5914L271.382 94.0339L273.813 98.4027ZM263.536 104.123L261.378 108.633L263.709 109.749L265.968 108.492L263.536 104.123ZM255.917 100.699L252.233 109.26L261.419 113.212L265.103 104.651L255.917 100.699ZM259.464 115.483L268.72 109.735L263.444 101.24L254.188 106.988L259.464 115.483ZM264.106 110.08L267.214 111.418L271.166 102.232L268.058 100.894L264.106 110.08ZM273.573 109.231L278.196 100.809L269.43 95.9967L264.807 104.419L273.573 109.231ZM271.382 94.0339L261.104 99.7542L265.968 108.492L276.245 102.772L271.382 94.0339ZM265.694 99.6129L262.668 98.1648L258.351 107.185L261.378 108.633L265.694 99.6129Z" fill="#0FD5EF" mask="url(#path-4-inside-1_101_1494)"/>
<mask id="path-6-inside-2_101_1494" fill="white">
<path d="M284.15 123.306L293.8 117.312L290.859 116.193L288.313 114.974L292.902 106.616L282.625 112.336L280.151 111.152L284.601 103.044L274.324 108.765L271.298 107.317L267.614 115.878L276.87 110.129L279.448 111.238L275.915 119.449L285.171 113.7L287.797 114.83L284.15 123.306Z"/>
</mask>
<path d="M284.15 123.306L279.557 121.33L273.266 135.951L286.788 127.553L284.15 123.306ZM293.8 117.312L296.438 121.56L305.017 116.231L295.579 112.639L293.8 117.312ZM290.859 116.193L288.701 120.703L288.888 120.792L289.081 120.866L290.859 116.193ZM288.313 114.974L283.93 112.568L281.386 117.203L286.155 119.485L288.313 114.974ZM292.902 106.616L297.285 109.022L305.638 93.8036L290.47 102.247L292.902 106.616ZM282.625 112.336L280.466 116.846L282.798 117.962L285.056 116.705L282.625 112.336ZM280.151 111.152L275.768 108.746L273.224 113.38L277.992 115.662L280.151 111.152ZM284.601 103.044L288.984 105.45L297.339 90.2321L282.17 98.6755L284.601 103.044ZM274.324 108.765L272.166 113.275L274.498 114.391L276.756 113.134L274.324 108.765ZM271.298 107.317L273.456 102.806L268.762 100.56L266.705 105.34L271.298 107.317ZM267.614 115.878L263.021 113.901L256.731 128.523L270.252 120.125L267.614 115.878ZM276.87 110.129L278.847 105.536L276.449 104.505L274.232 105.882L276.87 110.129ZM279.448 111.238L284.041 113.214L286.017 108.621L281.424 106.645L279.448 111.238ZM275.915 119.449L271.322 117.473L265.031 132.095L278.553 123.696L275.915 119.449ZM285.171 113.7L287.147 109.107L284.75 108.076L282.533 109.453L285.171 113.7ZM287.797 114.83L292.389 116.806L294.366 112.213L289.773 110.237L287.797 114.83ZM286.788 127.553L296.438 121.56L291.162 113.065L281.512 119.058L286.788 127.553ZM295.579 112.639L292.638 111.52L289.081 120.866L292.022 121.985L295.579 112.639ZM293.018 111.683L290.472 110.464L286.155 119.485L288.701 120.703L293.018 111.683ZM292.696 117.38L297.285 109.022L288.519 104.21L283.93 112.568L292.696 117.38ZM290.47 102.247L280.193 107.967L285.056 116.705L295.333 110.984L290.47 102.247ZM284.783 107.826L282.309 106.642L277.992 115.662L280.466 116.846L284.783 107.826ZM284.534 113.558L288.984 105.45L280.218 100.638L275.768 108.746L284.534 113.558ZM282.17 98.6755L271.893 104.396L276.756 113.134L287.033 107.413L282.17 98.6755ZM276.482 104.255L273.456 102.806L269.14 111.827L272.166 113.275L276.482 104.255ZM266.705 105.34L263.021 113.901L272.207 117.854L275.891 109.293L266.705 105.34ZM270.252 120.125L279.508 114.377L274.232 105.882L264.976 111.63L270.252 120.125ZM274.894 114.722L277.472 115.831L281.424 106.645L278.847 105.536L274.894 114.722ZM274.855 109.262L271.322 117.473L280.508 121.425L284.041 113.214L274.855 109.262ZM278.553 123.696L287.809 117.948L282.533 109.453L273.277 115.201L278.553 123.696ZM283.195 118.293L285.82 119.423L289.773 110.237L287.147 109.107L283.195 118.293ZM283.204 112.854L279.557 121.33L288.743 125.282L292.389 116.806L283.204 112.854Z" fill="#0FD5EF" mask="url(#path-6-inside-2_101_1494)"/>
</g>
<circle cx="277.161" cy="110.007" r="27.0621" transform="rotate(23.2797 277.161 110.007)" stroke="#0FD5EF" stroke-width="5"/>
</g>
<g opacity="0.4">
<path d="M46.7211 72.4615L46.5704 72.526L48.2884 65.8619L49.9515 71.0794L46.7211 72.4615ZM43.9044 78.6439L44.3841 78.461L43.0902 84.7022L40.9758 79.7606L43.9044 78.6439Z" stroke="#0FD5EF" stroke-width="5"/>
<path d="M61.5531 76.8028L59.4387 71.8612L62.3679 70.7443L62.847 70.5616L61.5531 76.8028ZM66.7513 57.963L68.4142 63.18L65.184 64.5621L65.0337 64.6264L66.7513 57.963ZM75.7581 70.7245L73.6439 65.7832L76.5725 64.6665L77.0518 64.4838L75.7581 70.7245ZM79.3887 58.4844L79.2384 58.5487L80.9561 51.8849L82.6192 57.1021L79.3887 58.4844ZM88.1255 60.1232L91.0541 59.0067L91.1508 58.9698L91.244 58.9251L91.5424 58.7821L90.2399 65.0648L88.1255 60.1232Z" stroke="#0FD5EF" stroke-width="5"/>
</g>
<circle opacity="0.4" cx="66.3565" cy="66.3567" r="48.0476" transform="rotate(-23.1647 66.3565 66.3567)" stroke="#0FD5EF" stroke-width="5"/>
</g>
</svg>
